%TF.GenerationSoftware,KiCad,Pcbnew,(6.0.4-0)*%
%TF.CreationDate,2022-08-25T17:13:23-05:00*%
%TF.ProjectId,owl-brd,6f776c2d-6272-4642-9e6b-696361645f70,v1.0*%
%TF.SameCoordinates,Original*%
%TF.FileFunction,Legend,Bot*%
%TF.FilePolarity,Positive*%
%FSLAX46Y46*%
G04 Gerber Fmt 4.6, Leading zero omitted, Abs format (unit mm)*
G04 Created by KiCad (PCBNEW (6.0.4-0)) date 2022-08-25 17:13:23*
%MOMM*%
%LPD*%
G01*
G04 APERTURE LIST*
%ADD10C,0.150000*%
G04 APERTURE END LIST*
D10*
X87814335Y-91598238D02*
X87842906Y-91655381D01*
X87842906Y-91741096D01*
X87814335Y-91826810D01*
X87757192Y-91883953D01*
X87700049Y-91912524D01*
X87585763Y-91941096D01*
X87500049Y-91941096D01*
X87385763Y-91912524D01*
X87328620Y-91883953D01*
X87271477Y-91826810D01*
X87242906Y-91741096D01*
X87242906Y-91683953D01*
X87271477Y-91598238D01*
X87300049Y-91569667D01*
X87500049Y-91569667D01*
X87500049Y-91683953D01*
X87242906Y-91312524D02*
X87842906Y-91312524D01*
X87242906Y-90969667D01*
X87842906Y-90969667D01*
X87242906Y-90683953D02*
X87842906Y-90683953D01*
X87842906Y-90541096D01*
X87814335Y-90455381D01*
X87757192Y-90398238D01*
X87700049Y-90369667D01*
X87585763Y-90341096D01*
X87500049Y-90341096D01*
X87385763Y-90369667D01*
X87328620Y-90398238D01*
X87271477Y-90455381D01*
X87242906Y-90541096D01*
X87242906Y-90683953D01*
X92404689Y-53448236D02*
X92404689Y-52972046D01*
X92118975Y-53543474D02*
X93118975Y-53210141D01*
X92118975Y-52876808D01*
X92118975Y-52019665D02*
X92118975Y-52591093D01*
X92118975Y-52305379D02*
X93118975Y-52305379D01*
X92976117Y-52400617D01*
X92880879Y-52495855D01*
X92833260Y-52591093D01*
X73604203Y-60897557D02*
X73556584Y-60754700D01*
X73508965Y-60707081D01*
X73413727Y-60659462D01*
X73270870Y-60659462D01*
X73175632Y-60707081D01*
X73128013Y-60754700D01*
X73080394Y-60849938D01*
X73080394Y-61230891D01*
X74080394Y-61230891D01*
X74080394Y-60897557D01*
X74032775Y-60802319D01*
X73985155Y-60754700D01*
X73889917Y-60707081D01*
X73794679Y-60707081D01*
X73699441Y-60754700D01*
X73651822Y-60802319D01*
X73604203Y-60897557D01*
X73604203Y-61230891D01*
X73080394Y-59707081D02*
X73080394Y-60278510D01*
X73080394Y-59992796D02*
X74080394Y-59992796D01*
X73937536Y-60088034D01*
X73842298Y-60183272D01*
X73794679Y-60278510D01*
X78446108Y-61207081D02*
X78446108Y-60730891D01*
X78160394Y-61302319D02*
X79160394Y-60968986D01*
X78160394Y-60635653D01*
X79065155Y-60349938D02*
X79112775Y-60302319D01*
X79160394Y-60207081D01*
X79160394Y-59968986D01*
X79112775Y-59873748D01*
X79065155Y-59826129D01*
X78969917Y-59778510D01*
X78874679Y-59778510D01*
X78731822Y-59826129D01*
X78160394Y-60397557D01*
X78160394Y-59778510D01*
X102628571Y-68622857D02*
X102171428Y-68622857D01*
X102400000Y-68851428D02*
X102400000Y-68394285D01*
X101942857Y-68251428D02*
X101571428Y-68251428D01*
X101771428Y-68480000D01*
X101685714Y-68480000D01*
X101628571Y-68508571D01*
X101600000Y-68537142D01*
X101571428Y-68594285D01*
X101571428Y-68737142D01*
X101600000Y-68794285D01*
X101628571Y-68822857D01*
X101685714Y-68851428D01*
X101857142Y-68851428D01*
X101914285Y-68822857D01*
X101942857Y-68794285D01*
X101371428Y-68451428D02*
X101228571Y-68851428D01*
X101085714Y-68451428D01*
X100914285Y-68251428D02*
X100542857Y-68251428D01*
X100742857Y-68480000D01*
X100657142Y-68480000D01*
X100600000Y-68508571D01*
X100571428Y-68537142D01*
X100542857Y-68594285D01*
X100542857Y-68737142D01*
X100571428Y-68794285D01*
X100600000Y-68822857D01*
X100657142Y-68851428D01*
X100828571Y-68851428D01*
X100885714Y-68822857D01*
X100914285Y-68794285D01*
X25473466Y-18655909D02*
X25473466Y-18198767D01*
X25244895Y-18427338D02*
X25702038Y-18427338D01*
X25787752Y-17941624D02*
X25816324Y-17913052D01*
X25844895Y-17855909D01*
X25844895Y-17713052D01*
X25816324Y-17655909D01*
X25787752Y-17627338D01*
X25730609Y-17598767D01*
X25673466Y-17598767D01*
X25587752Y-17627338D01*
X25244895Y-17970195D01*
X25244895Y-17598767D01*
X25644895Y-17084481D02*
X25244895Y-17084481D01*
X25873466Y-17227338D02*
X25444895Y-17370195D01*
X25444895Y-16998767D01*
X25844895Y-16855909D02*
X25244895Y-16655909D01*
X25844895Y-16455909D01*
X47296203Y-26670363D02*
X47324774Y-26727506D01*
X47324774Y-26813220D01*
X47296203Y-26898935D01*
X47239060Y-26956078D01*
X47181917Y-26984649D01*
X47067631Y-27013220D01*
X46981917Y-27013220D01*
X46867631Y-26984649D01*
X46810488Y-26956078D01*
X46753345Y-26898935D01*
X46724774Y-26813220D01*
X46724774Y-26756078D01*
X46753345Y-26670363D01*
X46781917Y-26641792D01*
X46981917Y-26641792D01*
X46981917Y-26756078D01*
X46724774Y-26384649D02*
X47324774Y-26384649D01*
X47324774Y-26156078D01*
X47296203Y-26098935D01*
X47267631Y-26070363D01*
X47210488Y-26041792D01*
X47124774Y-26041792D01*
X47067631Y-26070363D01*
X47039060Y-26098935D01*
X47010488Y-26156078D01*
X47010488Y-26384649D01*
X47267631Y-25813220D02*
X47296203Y-25784649D01*
X47324774Y-25727506D01*
X47324774Y-25584649D01*
X47296203Y-25527506D01*
X47267631Y-25498935D01*
X47210488Y-25470363D01*
X47153345Y-25470363D01*
X47067631Y-25498935D01*
X46724774Y-25841792D01*
X46724774Y-25470363D01*
X47324774Y-24956078D02*
X47324774Y-25070363D01*
X47296203Y-25127506D01*
X47267631Y-25156078D01*
X47181917Y-25213220D01*
X47067631Y-25241792D01*
X46839060Y-25241792D01*
X46781917Y-25213220D01*
X46753345Y-25184649D01*
X46724774Y-25127506D01*
X46724774Y-25013220D01*
X46753345Y-24956078D01*
X46781917Y-24927506D01*
X46839060Y-24898935D01*
X46981917Y-24898935D01*
X47039060Y-24927506D01*
X47067631Y-24956078D01*
X47096203Y-25013220D01*
X47096203Y-25127506D01*
X47067631Y-25184649D01*
X47039060Y-25213220D01*
X46981917Y-25241792D01*
X57390901Y-26633325D02*
X57419472Y-26690468D01*
X57419472Y-26776183D01*
X57390901Y-26861897D01*
X57333758Y-26919040D01*
X57276615Y-26947611D01*
X57162329Y-26976183D01*
X57076615Y-26976183D01*
X56962329Y-26947611D01*
X56905186Y-26919040D01*
X56848043Y-26861897D01*
X56819472Y-26776183D01*
X56819472Y-26719040D01*
X56848043Y-26633325D01*
X56876615Y-26604754D01*
X57076615Y-26604754D01*
X57076615Y-26719040D01*
X56819472Y-26347611D02*
X57419472Y-26347611D01*
X56819472Y-26004754D01*
X57419472Y-26004754D01*
X56819472Y-25719040D02*
X57419472Y-25719040D01*
X57419472Y-25576183D01*
X57390901Y-25490468D01*
X57333758Y-25433325D01*
X57276615Y-25404754D01*
X57162329Y-25376183D01*
X57076615Y-25376183D01*
X56962329Y-25404754D01*
X56905186Y-25433325D01*
X56848043Y-25490468D01*
X56819472Y-25576183D01*
X56819472Y-25719040D01*
X99246183Y-21939657D02*
X99246183Y-21339657D01*
X99103326Y-21339657D01*
X99017612Y-21368229D01*
X98960469Y-21425371D01*
X98931897Y-21482514D01*
X98903326Y-21596800D01*
X98903326Y-21682514D01*
X98931897Y-21796800D01*
X98960469Y-21853943D01*
X99017612Y-21911086D01*
X99103326Y-21939657D01*
X99246183Y-21939657D01*
X98303326Y-21939657D02*
X98503326Y-21653943D01*
X98646183Y-21939657D02*
X98646183Y-21339657D01*
X98417612Y-21339657D01*
X98360469Y-21368229D01*
X98331897Y-21396800D01*
X98303326Y-21453943D01*
X98303326Y-21539657D01*
X98331897Y-21596800D01*
X98360469Y-21625371D01*
X98417612Y-21653943D01*
X98646183Y-21653943D01*
X98074755Y-21768229D02*
X97789040Y-21768229D01*
X98131897Y-21939657D02*
X97931897Y-21339657D01*
X97731897Y-21939657D01*
X97531897Y-21939657D02*
X97531897Y-21339657D01*
X97246183Y-21939657D02*
X97246183Y-21339657D01*
X96903326Y-21939657D01*
X96903326Y-21339657D01*
X71035430Y-92009749D02*
X71035430Y-91552606D01*
X70806859Y-91781178D02*
X71264002Y-91781178D01*
X71406859Y-91324035D02*
X71406859Y-90952606D01*
X71178288Y-91152606D01*
X71178288Y-91066892D01*
X71149716Y-91009749D01*
X71121145Y-90981178D01*
X71064002Y-90952606D01*
X70921145Y-90952606D01*
X70864002Y-90981178D01*
X70835430Y-91009749D01*
X70806859Y-91066892D01*
X70806859Y-91238320D01*
X70835430Y-91295463D01*
X70864002Y-91324035D01*
X71206859Y-90752606D02*
X70806859Y-90609749D01*
X71206859Y-90466892D01*
X71406859Y-90295463D02*
X71406859Y-89924035D01*
X71178288Y-90124035D01*
X71178288Y-90038320D01*
X71149716Y-89981178D01*
X71121145Y-89952606D01*
X71064002Y-89924035D01*
X70921145Y-89924035D01*
X70864002Y-89952606D01*
X70835430Y-89981178D01*
X70806859Y-90038320D01*
X70806859Y-90209749D01*
X70835430Y-90266892D01*
X70864002Y-90295463D01*
X87650214Y-18693803D02*
X87650214Y-18236661D01*
X87421643Y-18465232D02*
X87878786Y-18465232D01*
X87964500Y-17979518D02*
X87993072Y-17950946D01*
X88021643Y-17893803D01*
X88021643Y-17750946D01*
X87993072Y-17693803D01*
X87964500Y-17665232D01*
X87907357Y-17636661D01*
X87850214Y-17636661D01*
X87764500Y-17665232D01*
X87421643Y-18008089D01*
X87421643Y-17636661D01*
X87821643Y-17122375D02*
X87421643Y-17122375D01*
X88050214Y-17265232D02*
X87621643Y-17408089D01*
X87621643Y-17036661D01*
X88021643Y-16893803D02*
X87421643Y-16693803D01*
X88021643Y-16493803D01*
X44665727Y-26675461D02*
X44694298Y-26732604D01*
X44694298Y-26818319D01*
X44665727Y-26904033D01*
X44608584Y-26961176D01*
X44551441Y-26989747D01*
X44437155Y-27018319D01*
X44351441Y-27018319D01*
X44237155Y-26989747D01*
X44180012Y-26961176D01*
X44122869Y-26904033D01*
X44094298Y-26818319D01*
X44094298Y-26761176D01*
X44122869Y-26675461D01*
X44151441Y-26646890D01*
X44351441Y-26646890D01*
X44351441Y-26761176D01*
X44094298Y-26389747D02*
X44694298Y-26389747D01*
X44094298Y-26046890D01*
X44694298Y-26046890D01*
X44094298Y-25761176D02*
X44694298Y-25761176D01*
X44694298Y-25618319D01*
X44665727Y-25532604D01*
X44608584Y-25475461D01*
X44551441Y-25446890D01*
X44437155Y-25418319D01*
X44351441Y-25418319D01*
X44237155Y-25446890D01*
X44180012Y-25475461D01*
X44122869Y-25532604D01*
X44094298Y-25618319D01*
X44094298Y-25761176D01*
X95964285Y-31450000D02*
X96021428Y-31421428D01*
X96107142Y-31421428D01*
X96192857Y-31450000D01*
X96250000Y-31507142D01*
X96278571Y-31564285D01*
X96307142Y-31678571D01*
X96307142Y-31764285D01*
X96278571Y-31878571D01*
X96250000Y-31935714D01*
X96192857Y-31992857D01*
X96107142Y-32021428D01*
X96050000Y-32021428D01*
X95964285Y-31992857D01*
X95935714Y-31964285D01*
X95935714Y-31764285D01*
X96050000Y-31764285D01*
X95678571Y-32021428D02*
X95678571Y-31421428D01*
X95450000Y-31421428D01*
X95392857Y-31450000D01*
X95364285Y-31478571D01*
X95335714Y-31535714D01*
X95335714Y-31621428D01*
X95364285Y-31678571D01*
X95392857Y-31707142D01*
X95450000Y-31735714D01*
X95678571Y-31735714D01*
X95107142Y-31478571D02*
X95078571Y-31450000D01*
X95021428Y-31421428D01*
X94878571Y-31421428D01*
X94821428Y-31450000D01*
X94792857Y-31478571D01*
X94764285Y-31535714D01*
X94764285Y-31592857D01*
X94792857Y-31678571D01*
X95135714Y-32021428D01*
X94764285Y-32021428D01*
X94421428Y-31678571D02*
X94478571Y-31650000D01*
X94507142Y-31621428D01*
X94535714Y-31564285D01*
X94535714Y-31535714D01*
X94507142Y-31478571D01*
X94478571Y-31450000D01*
X94421428Y-31421428D01*
X94307142Y-31421428D01*
X94250000Y-31450000D01*
X94221428Y-31478571D01*
X94192857Y-31535714D01*
X94192857Y-31564285D01*
X94221428Y-31621428D01*
X94250000Y-31650000D01*
X94307142Y-31678571D01*
X94421428Y-31678571D01*
X94478571Y-31707142D01*
X94507142Y-31735714D01*
X94535714Y-31792857D01*
X94535714Y-31907142D01*
X94507142Y-31964285D01*
X94478571Y-31992857D01*
X94421428Y-32021428D01*
X94307142Y-32021428D01*
X94250000Y-31992857D01*
X94221428Y-31964285D01*
X94192857Y-31907142D01*
X94192857Y-31792857D01*
X94221428Y-31735714D01*
X94250000Y-31707142D01*
X94307142Y-31678571D01*
X19538423Y-21486366D02*
X19538423Y-22248270D01*
X18966995Y-23248270D02*
X18919375Y-23153032D01*
X18919375Y-23010175D01*
X18966995Y-22867318D01*
X19062233Y-22772080D01*
X19157471Y-22724461D01*
X19347947Y-22676842D01*
X19490804Y-22676842D01*
X19681280Y-22724461D01*
X19776518Y-22772080D01*
X19871756Y-22867318D01*
X19919375Y-23010175D01*
X19919375Y-23105413D01*
X19871756Y-23248270D01*
X19824137Y-23295889D01*
X19490804Y-23295889D01*
X19490804Y-23105413D01*
X19919375Y-23724461D02*
X18919375Y-23724461D01*
X19919375Y-24295889D01*
X18919375Y-24295889D01*
X19919375Y-24772080D02*
X18919375Y-24772080D01*
X18919375Y-25010175D01*
X18966995Y-25153032D01*
X19062233Y-25248270D01*
X19157471Y-25295889D01*
X19347947Y-25343508D01*
X19490804Y-25343508D01*
X19681280Y-25295889D01*
X19776518Y-25248270D01*
X19871756Y-25153032D01*
X19919375Y-25010175D01*
X19919375Y-24772080D01*
X102597366Y-85012916D02*
X102511652Y-85041487D01*
X102368795Y-85041487D01*
X102311652Y-85012916D01*
X102283081Y-84984344D01*
X102254509Y-84927201D01*
X102254509Y-84870059D01*
X102283081Y-84812916D01*
X102311652Y-84784344D01*
X102368795Y-84755773D01*
X102483081Y-84727201D01*
X102540224Y-84698630D01*
X102568795Y-84670059D01*
X102597366Y-84612916D01*
X102597366Y-84555773D01*
X102568795Y-84498630D01*
X102540224Y-84470059D01*
X102483081Y-84441487D01*
X102340224Y-84441487D01*
X102254509Y-84470059D01*
X101997366Y-85041487D02*
X101997366Y-84441487D01*
X101854509Y-84441487D01*
X101768795Y-84470059D01*
X101711652Y-84527201D01*
X101683081Y-84584344D01*
X101654509Y-84698630D01*
X101654509Y-84784344D01*
X101683081Y-84898630D01*
X101711652Y-84955773D01*
X101768795Y-85012916D01*
X101854509Y-85041487D01*
X101997366Y-85041487D01*
X101454509Y-84441487D02*
X101083081Y-84441487D01*
X101283081Y-84670059D01*
X101197366Y-84670059D01*
X101140224Y-84698630D01*
X101111652Y-84727201D01*
X101083081Y-84784344D01*
X101083081Y-84927201D01*
X101111652Y-84984344D01*
X101140224Y-85012916D01*
X101197366Y-85041487D01*
X101368795Y-85041487D01*
X101425938Y-85012916D01*
X101454509Y-84984344D01*
X102512399Y-73882187D02*
X102426685Y-73910758D01*
X102283828Y-73910758D01*
X102226685Y-73882187D01*
X102198114Y-73853615D01*
X102169542Y-73796472D01*
X102169542Y-73739330D01*
X102198114Y-73682187D01*
X102226685Y-73653615D01*
X102283828Y-73625044D01*
X102398114Y-73596472D01*
X102455257Y-73567901D01*
X102483828Y-73539330D01*
X102512399Y-73482187D01*
X102512399Y-73425044D01*
X102483828Y-73367901D01*
X102455257Y-73339330D01*
X102398114Y-73310758D01*
X102255257Y-73310758D01*
X102169542Y-73339330D01*
X101569542Y-73853615D02*
X101598114Y-73882187D01*
X101683828Y-73910758D01*
X101740971Y-73910758D01*
X101826685Y-73882187D01*
X101883828Y-73825044D01*
X101912399Y-73767901D01*
X101940971Y-73653615D01*
X101940971Y-73567901D01*
X101912399Y-73453615D01*
X101883828Y-73396472D01*
X101826685Y-73339330D01*
X101740971Y-73310758D01*
X101683828Y-73310758D01*
X101598114Y-73339330D01*
X101569542Y-73367901D01*
X101340971Y-73367901D02*
X101312399Y-73339330D01*
X101255257Y-73310758D01*
X101112399Y-73310758D01*
X101055257Y-73339330D01*
X101026685Y-73367901D01*
X100998114Y-73425044D01*
X100998114Y-73482187D01*
X101026685Y-73567901D01*
X101369542Y-73910758D01*
X100998114Y-73910758D01*
X70190584Y-46690040D02*
X70390584Y-46404326D01*
X70533441Y-46690040D02*
X70533441Y-46090040D01*
X70304869Y-46090040D01*
X70247726Y-46118612D01*
X70219155Y-46147183D01*
X70190584Y-46204326D01*
X70190584Y-46290040D01*
X70219155Y-46347183D01*
X70247726Y-46375754D01*
X70304869Y-46404326D01*
X70533441Y-46404326D01*
X69990584Y-46090040D02*
X69590584Y-46690040D01*
X69590584Y-46090040D02*
X69990584Y-46690040D01*
X70561281Y-41349051D02*
X70104138Y-41349051D01*
X70332710Y-41577622D02*
X70332710Y-41120479D01*
X69532710Y-40977622D02*
X69818424Y-40977622D01*
X69846995Y-41263336D01*
X69818424Y-41234765D01*
X69761281Y-41206194D01*
X69618424Y-41206194D01*
X69561281Y-41234765D01*
X69532710Y-41263336D01*
X69504138Y-41320479D01*
X69504138Y-41463336D01*
X69532710Y-41520479D01*
X69561281Y-41549051D01*
X69618424Y-41577622D01*
X69761281Y-41577622D01*
X69818424Y-41549051D01*
X69846995Y-41520479D01*
X69332710Y-40977622D02*
X69132710Y-41577622D01*
X68932710Y-40977622D01*
X70216922Y-43562403D02*
X70274065Y-43533831D01*
X70359780Y-43533831D01*
X70445494Y-43562403D01*
X70502637Y-43619545D01*
X70531208Y-43676688D01*
X70559780Y-43790974D01*
X70559780Y-43876688D01*
X70531208Y-43990974D01*
X70502637Y-44048117D01*
X70445494Y-44105260D01*
X70359780Y-44133831D01*
X70302637Y-44133831D01*
X70216922Y-44105260D01*
X70188351Y-44076688D01*
X70188351Y-43876688D01*
X70302637Y-43876688D01*
X69931208Y-44133831D02*
X69931208Y-43533831D01*
X69588351Y-44133831D01*
X69588351Y-43533831D01*
X69302637Y-44133831D02*
X69302637Y-43533831D01*
X69159780Y-43533831D01*
X69074065Y-43562403D01*
X69016922Y-43619545D01*
X68988351Y-43676688D01*
X68959780Y-43790974D01*
X68959780Y-43876688D01*
X68988351Y-43990974D01*
X69016922Y-44048117D01*
X69074065Y-44105260D01*
X69159780Y-44133831D01*
X69302637Y-44133831D01*
X63330073Y-18260827D02*
X63301501Y-18289398D01*
X63272930Y-18375112D01*
X63272930Y-18432255D01*
X63301501Y-18517969D01*
X63358644Y-18575112D01*
X63415787Y-18603684D01*
X63530073Y-18632255D01*
X63615787Y-18632255D01*
X63730073Y-18603684D01*
X63787216Y-18575112D01*
X63844359Y-18517969D01*
X63872930Y-18432255D01*
X63872930Y-18375112D01*
X63844359Y-18289398D01*
X63815787Y-18260827D01*
X63872930Y-18060827D02*
X63872930Y-17689398D01*
X63644359Y-17889398D01*
X63644359Y-17803684D01*
X63615787Y-17746541D01*
X63587216Y-17717969D01*
X63530073Y-17689398D01*
X63387216Y-17689398D01*
X63330073Y-17717969D01*
X63301501Y-17746541D01*
X63272930Y-17803684D01*
X63272930Y-17975112D01*
X63301501Y-18032255D01*
X63330073Y-18060827D01*
X68247663Y-91899756D02*
X68219092Y-91814042D01*
X68219092Y-91671185D01*
X68247663Y-91614042D01*
X68276235Y-91585471D01*
X68333378Y-91556899D01*
X68390521Y-91556899D01*
X68447663Y-91585471D01*
X68476235Y-91614042D01*
X68504806Y-91671185D01*
X68533378Y-91785471D01*
X68561949Y-91842614D01*
X68590521Y-91871185D01*
X68647663Y-91899756D01*
X68704806Y-91899756D01*
X68761949Y-91871185D01*
X68790521Y-91842614D01*
X68819092Y-91785471D01*
X68819092Y-91642614D01*
X68790521Y-91556899D01*
X68219092Y-91299756D02*
X68819092Y-91299756D01*
X68819092Y-91156899D01*
X68790521Y-91071185D01*
X68733378Y-91014042D01*
X68676235Y-90985471D01*
X68561949Y-90956899D01*
X68476235Y-90956899D01*
X68361949Y-90985471D01*
X68304806Y-91014042D01*
X68247663Y-91071185D01*
X68219092Y-91156899D01*
X68219092Y-91299756D01*
X68819092Y-90442614D02*
X68819092Y-90556899D01*
X68790521Y-90614042D01*
X68761949Y-90642614D01*
X68676235Y-90699756D01*
X68561949Y-90728328D01*
X68333378Y-90728328D01*
X68276235Y-90699756D01*
X68247663Y-90671185D01*
X68219092Y-90614042D01*
X68219092Y-90499756D01*
X68247663Y-90442614D01*
X68276235Y-90414042D01*
X68333378Y-90385471D01*
X68476235Y-90385471D01*
X68533378Y-90414042D01*
X68561949Y-90442614D01*
X68590521Y-90499756D01*
X68590521Y-90614042D01*
X68561949Y-90671185D01*
X68533378Y-90699756D01*
X68476235Y-90728328D01*
X51695949Y-92068126D02*
X51667378Y-91982412D01*
X51667378Y-91839555D01*
X51695949Y-91782412D01*
X51724521Y-91753841D01*
X51781664Y-91725269D01*
X51838807Y-91725269D01*
X51895949Y-91753841D01*
X51924521Y-91782412D01*
X51953092Y-91839555D01*
X51981664Y-91953841D01*
X52010235Y-92010984D01*
X52038807Y-92039555D01*
X52095949Y-92068126D01*
X52153092Y-92068126D01*
X52210235Y-92039555D01*
X52238807Y-92010984D01*
X52267378Y-91953841D01*
X52267378Y-91810984D01*
X52238807Y-91725269D01*
X51724521Y-91125269D02*
X51695949Y-91153841D01*
X51667378Y-91239555D01*
X51667378Y-91296698D01*
X51695949Y-91382412D01*
X51753092Y-91439555D01*
X51810235Y-91468126D01*
X51924521Y-91496698D01*
X52010235Y-91496698D01*
X52124521Y-91468126D01*
X52181664Y-91439555D01*
X52238807Y-91382412D01*
X52267378Y-91296698D01*
X52267378Y-91239555D01*
X52238807Y-91153841D01*
X52210235Y-91125269D01*
X52267378Y-90925269D02*
X52267378Y-90525269D01*
X51667378Y-90782412D01*
X36651368Y-18240904D02*
X36622796Y-18269475D01*
X36594225Y-18355189D01*
X36594225Y-18412332D01*
X36622796Y-18498046D01*
X36679939Y-18555189D01*
X36737082Y-18583761D01*
X36851368Y-18612332D01*
X36937082Y-18612332D01*
X37051368Y-18583761D01*
X37108511Y-18555189D01*
X37165654Y-18498046D01*
X37194225Y-18412332D01*
X37194225Y-18355189D01*
X37165654Y-18269475D01*
X37137082Y-18240904D01*
X37194225Y-17726618D02*
X37194225Y-17840904D01*
X37165654Y-17898046D01*
X37137082Y-17926618D01*
X37051368Y-17983761D01*
X36937082Y-18012332D01*
X36708511Y-18012332D01*
X36651368Y-17983761D01*
X36622796Y-17955189D01*
X36594225Y-17898046D01*
X36594225Y-17783761D01*
X36622796Y-17726618D01*
X36651368Y-17698046D01*
X36708511Y-17669475D01*
X36851368Y-17669475D01*
X36908511Y-17698046D01*
X36937082Y-17726618D01*
X36965654Y-17783761D01*
X36965654Y-17898046D01*
X36937082Y-17955189D01*
X36908511Y-17983761D01*
X36851368Y-18012332D01*
X87604377Y-60879004D02*
X87556758Y-60736147D01*
X87509139Y-60688528D01*
X87413901Y-60640909D01*
X87271044Y-60640909D01*
X87175806Y-60688528D01*
X87128187Y-60736147D01*
X87080568Y-60831385D01*
X87080568Y-61212338D01*
X88080568Y-61212338D01*
X88080568Y-60879004D01*
X88032949Y-60783766D01*
X87985329Y-60736147D01*
X87890091Y-60688528D01*
X87794853Y-60688528D01*
X87699615Y-60736147D01*
X87651996Y-60783766D01*
X87604377Y-60879004D01*
X87604377Y-61212338D01*
X87985329Y-60259957D02*
X88032949Y-60212338D01*
X88080568Y-60117100D01*
X88080568Y-59879004D01*
X88032949Y-59783766D01*
X87985329Y-59736147D01*
X87890091Y-59688528D01*
X87794853Y-59688528D01*
X87651996Y-59736147D01*
X87080568Y-60307576D01*
X87080568Y-59688528D01*
X102512399Y-71460616D02*
X102426685Y-71489187D01*
X102283828Y-71489187D01*
X102226685Y-71460616D01*
X102198114Y-71432044D01*
X102169542Y-71374901D01*
X102169542Y-71317759D01*
X102198114Y-71260616D01*
X102226685Y-71232044D01*
X102283828Y-71203473D01*
X102398114Y-71174901D01*
X102455257Y-71146330D01*
X102483828Y-71117759D01*
X102512399Y-71060616D01*
X102512399Y-71003473D01*
X102483828Y-70946330D01*
X102455257Y-70917759D01*
X102398114Y-70889187D01*
X102255257Y-70889187D01*
X102169542Y-70917759D01*
X101912399Y-71489187D02*
X101912399Y-70889187D01*
X101769542Y-70889187D01*
X101683828Y-70917759D01*
X101626685Y-70974901D01*
X101598114Y-71032044D01*
X101569542Y-71146330D01*
X101569542Y-71232044D01*
X101598114Y-71346330D01*
X101626685Y-71403473D01*
X101683828Y-71460616D01*
X101769542Y-71489187D01*
X101912399Y-71489187D01*
X101340971Y-70946330D02*
X101312399Y-70917759D01*
X101255257Y-70889187D01*
X101112399Y-70889187D01*
X101055257Y-70917759D01*
X101026685Y-70946330D01*
X100998114Y-71003473D01*
X100998114Y-71060616D01*
X101026685Y-71146330D01*
X101369542Y-71489187D01*
X100998114Y-71489187D01*
X72624738Y-26621463D02*
X72653309Y-26678606D01*
X72653309Y-26764320D01*
X72624738Y-26850035D01*
X72567595Y-26907178D01*
X72510452Y-26935749D01*
X72396166Y-26964320D01*
X72310452Y-26964320D01*
X72196166Y-26935749D01*
X72139023Y-26907178D01*
X72081880Y-26850035D01*
X72053309Y-26764320D01*
X72053309Y-26707178D01*
X72081880Y-26621463D01*
X72110452Y-26592892D01*
X72310452Y-26592892D01*
X72310452Y-26707178D01*
X72053309Y-26335749D02*
X72653309Y-26335749D01*
X72653309Y-26107178D01*
X72624738Y-26050035D01*
X72596166Y-26021463D01*
X72539023Y-25992892D01*
X72453309Y-25992892D01*
X72396166Y-26021463D01*
X72367595Y-26050035D01*
X72339023Y-26107178D01*
X72339023Y-26335749D01*
X72053309Y-25421463D02*
X72053309Y-25764320D01*
X72053309Y-25592892D02*
X72653309Y-25592892D01*
X72567595Y-25650035D01*
X72510452Y-25707178D01*
X72481880Y-25764320D01*
X72653309Y-24878606D02*
X72653309Y-25164320D01*
X72367595Y-25192892D01*
X72396166Y-25164320D01*
X72424738Y-25107178D01*
X72424738Y-24964320D01*
X72396166Y-24907178D01*
X72367595Y-24878606D01*
X72310452Y-24850035D01*
X72167595Y-24850035D01*
X72110452Y-24878606D01*
X72081880Y-24907178D01*
X72053309Y-24964320D01*
X72053309Y-25107178D01*
X72081880Y-25164320D01*
X72110452Y-25192892D01*
X102165091Y-79635612D02*
X102222234Y-79607040D01*
X102307949Y-79607040D01*
X102393663Y-79635612D01*
X102450806Y-79692754D01*
X102479377Y-79749897D01*
X102507949Y-79864183D01*
X102507949Y-79949897D01*
X102479377Y-80064183D01*
X102450806Y-80121326D01*
X102393663Y-80178469D01*
X102307949Y-80207040D01*
X102250806Y-80207040D01*
X102165091Y-80178469D01*
X102136520Y-80149897D01*
X102136520Y-79949897D01*
X102250806Y-79949897D01*
X101879377Y-80207040D02*
X101879377Y-79607040D01*
X101536520Y-80207040D01*
X101536520Y-79607040D01*
X101250806Y-80207040D02*
X101250806Y-79607040D01*
X101107949Y-79607040D01*
X101022234Y-79635612D01*
X100965091Y-79692754D01*
X100936520Y-79749897D01*
X100907949Y-79864183D01*
X100907949Y-79949897D01*
X100936520Y-80064183D01*
X100965091Y-80121326D01*
X101022234Y-80178469D01*
X101107949Y-80207040D01*
X101250806Y-80207040D01*
X54646272Y-27120481D02*
X54646272Y-26663338D01*
X54417701Y-26891910D02*
X54874844Y-26891910D01*
X55017701Y-26434767D02*
X55017701Y-26063338D01*
X54789130Y-26263338D01*
X54789130Y-26177624D01*
X54760558Y-26120481D01*
X54731987Y-26091910D01*
X54674844Y-26063338D01*
X54531987Y-26063338D01*
X54474844Y-26091910D01*
X54446272Y-26120481D01*
X54417701Y-26177624D01*
X54417701Y-26349052D01*
X54446272Y-26406195D01*
X54474844Y-26434767D01*
X54817701Y-25863338D02*
X54417701Y-25720481D01*
X54817701Y-25577624D01*
X55017701Y-25406195D02*
X55017701Y-25034767D01*
X54789130Y-25234767D01*
X54789130Y-25149052D01*
X54760558Y-25091910D01*
X54731987Y-25063338D01*
X54674844Y-25034767D01*
X54531987Y-25034767D01*
X54474844Y-25063338D01*
X54446272Y-25091910D01*
X54417701Y-25149052D01*
X54417701Y-25320481D01*
X54446272Y-25377624D01*
X54474844Y-25406195D01*
X54584175Y-60957703D02*
X54536556Y-60814846D01*
X54488937Y-60767227D01*
X54393699Y-60719608D01*
X54250842Y-60719608D01*
X54155604Y-60767227D01*
X54107985Y-60814846D01*
X54060366Y-60910084D01*
X54060366Y-61291037D01*
X55060366Y-61291037D01*
X55060366Y-60957703D01*
X55012747Y-60862465D01*
X54965127Y-60814846D01*
X54869889Y-60767227D01*
X54774651Y-60767227D01*
X54679413Y-60814846D01*
X54631794Y-60862465D01*
X54584175Y-60957703D01*
X54584175Y-61291037D01*
X54965127Y-60338656D02*
X55012747Y-60291037D01*
X55060366Y-60195799D01*
X55060366Y-59957703D01*
X55012747Y-59862465D01*
X54965127Y-59814846D01*
X54869889Y-59767227D01*
X54774651Y-59767227D01*
X54631794Y-59814846D01*
X54060366Y-60386275D01*
X54060366Y-59767227D01*
X94986282Y-61188528D02*
X94986282Y-60712338D01*
X94700568Y-61283766D02*
X95700568Y-60950433D01*
X94700568Y-60617100D01*
X95605329Y-60331385D02*
X95652949Y-60283766D01*
X95700568Y-60188528D01*
X95700568Y-59950433D01*
X95652949Y-59855195D01*
X95605329Y-59807576D01*
X95510091Y-59759957D01*
X95414853Y-59759957D01*
X95271996Y-59807576D01*
X94700568Y-60379004D01*
X94700568Y-59759957D01*
X70149999Y-26607375D02*
X70178570Y-26664518D01*
X70178570Y-26750233D01*
X70149999Y-26835947D01*
X70092856Y-26893090D01*
X70035713Y-26921661D01*
X69921427Y-26950233D01*
X69835713Y-26950233D01*
X69721427Y-26921661D01*
X69664284Y-26893090D01*
X69607141Y-26835947D01*
X69578570Y-26750233D01*
X69578570Y-26693090D01*
X69607141Y-26607375D01*
X69635713Y-26578804D01*
X69835713Y-26578804D01*
X69835713Y-26693090D01*
X69578570Y-26321661D02*
X70178570Y-26321661D01*
X69578570Y-25978804D01*
X70178570Y-25978804D01*
X69578570Y-25693090D02*
X70178570Y-25693090D01*
X70178570Y-25550233D01*
X70149999Y-25464518D01*
X70092856Y-25407375D01*
X70035713Y-25378804D01*
X69921427Y-25350233D01*
X69835713Y-25350233D01*
X69721427Y-25378804D01*
X69664284Y-25407375D01*
X69607141Y-25464518D01*
X69578570Y-25550233D01*
X69578570Y-25693090D01*
X21339139Y-86860178D02*
X21310568Y-86774464D01*
X21310568Y-86631607D01*
X21339139Y-86574464D01*
X21367711Y-86545892D01*
X21424854Y-86517321D01*
X21481997Y-86517321D01*
X21539139Y-86545892D01*
X21567711Y-86574464D01*
X21596282Y-86631607D01*
X21624854Y-86745892D01*
X21653425Y-86803035D01*
X21681997Y-86831607D01*
X21739139Y-86860178D01*
X21796282Y-86860178D01*
X21853425Y-86831607D01*
X21881997Y-86803035D01*
X21910568Y-86745892D01*
X21910568Y-86603035D01*
X21881997Y-86517321D01*
X21310568Y-86260178D02*
X21910568Y-86260178D01*
X21910568Y-86117321D01*
X21881997Y-86031607D01*
X21824854Y-85974464D01*
X21767711Y-85945892D01*
X21653425Y-85917321D01*
X21567711Y-85917321D01*
X21453425Y-85945892D01*
X21396282Y-85974464D01*
X21339139Y-86031607D01*
X21310568Y-86117321D01*
X21310568Y-86260178D01*
X21481997Y-85688749D02*
X21481997Y-85403035D01*
X21310568Y-85745892D02*
X21910568Y-85545892D01*
X21310568Y-85345892D01*
X95992007Y-34064648D02*
X96049150Y-34036076D01*
X96134865Y-34036076D01*
X96220579Y-34064648D01*
X96277722Y-34121790D01*
X96306293Y-34178933D01*
X96334865Y-34293219D01*
X96334865Y-34378933D01*
X96306293Y-34493219D01*
X96277722Y-34550362D01*
X96220579Y-34607505D01*
X96134865Y-34636076D01*
X96077722Y-34636076D01*
X95992007Y-34607505D01*
X95963436Y-34578933D01*
X95963436Y-34378933D01*
X96077722Y-34378933D01*
X95706293Y-34636076D02*
X95706293Y-34036076D01*
X95363436Y-34636076D01*
X95363436Y-34036076D01*
X95077722Y-34636076D02*
X95077722Y-34036076D01*
X94934865Y-34036076D01*
X94849150Y-34064648D01*
X94792007Y-34121790D01*
X94763436Y-34178933D01*
X94734865Y-34293219D01*
X94734865Y-34378933D01*
X94763436Y-34493219D01*
X94792007Y-34550362D01*
X94849150Y-34607505D01*
X94934865Y-34636076D01*
X95077722Y-34636076D01*
X73828230Y-91681242D02*
X73856801Y-91738385D01*
X73856801Y-91824100D01*
X73828230Y-91909814D01*
X73771087Y-91966957D01*
X73713944Y-91995528D01*
X73599658Y-92024100D01*
X73513944Y-92024100D01*
X73399658Y-91995528D01*
X73342515Y-91966957D01*
X73285372Y-91909814D01*
X73256801Y-91824100D01*
X73256801Y-91766957D01*
X73285372Y-91681242D01*
X73313944Y-91652671D01*
X73513944Y-91652671D01*
X73513944Y-91766957D01*
X73256801Y-91395528D02*
X73856801Y-91395528D01*
X73256801Y-91052671D01*
X73856801Y-91052671D01*
X73256801Y-90766957D02*
X73856801Y-90766957D01*
X73856801Y-90624100D01*
X73828230Y-90538385D01*
X73771087Y-90481242D01*
X73713944Y-90452671D01*
X73599658Y-90424100D01*
X73513944Y-90424100D01*
X73399658Y-90452671D01*
X73342515Y-90481242D01*
X73285372Y-90538385D01*
X73256801Y-90624100D01*
X73256801Y-90766957D01*
X102597366Y-87519454D02*
X102511652Y-87548025D01*
X102368795Y-87548025D01*
X102311652Y-87519454D01*
X102283081Y-87490882D01*
X102254509Y-87433739D01*
X102254509Y-87376597D01*
X102283081Y-87319454D01*
X102311652Y-87290882D01*
X102368795Y-87262311D01*
X102483081Y-87233739D01*
X102540224Y-87205168D01*
X102568795Y-87176597D01*
X102597366Y-87119454D01*
X102597366Y-87062311D01*
X102568795Y-87005168D01*
X102540224Y-86976597D01*
X102483081Y-86948025D01*
X102340224Y-86948025D01*
X102254509Y-86976597D01*
X101654509Y-87490882D02*
X101683081Y-87519454D01*
X101768795Y-87548025D01*
X101825938Y-87548025D01*
X101911652Y-87519454D01*
X101968795Y-87462311D01*
X101997366Y-87405168D01*
X102025938Y-87290882D01*
X102025938Y-87205168D01*
X101997366Y-87090882D01*
X101968795Y-87033739D01*
X101911652Y-86976597D01*
X101825938Y-86948025D01*
X101768795Y-86948025D01*
X101683081Y-86976597D01*
X101654509Y-87005168D01*
X101454509Y-86948025D02*
X101083081Y-86948025D01*
X101283081Y-87176597D01*
X101197366Y-87176597D01*
X101140224Y-87205168D01*
X101111652Y-87233739D01*
X101083081Y-87290882D01*
X101083081Y-87433739D01*
X101111652Y-87490882D01*
X101140224Y-87519454D01*
X101197366Y-87548025D01*
X101368795Y-87548025D01*
X101425938Y-87519454D01*
X101454509Y-87490882D01*
X79675778Y-91857272D02*
X79647207Y-91771558D01*
X79647207Y-91628701D01*
X79675778Y-91571558D01*
X79704350Y-91542987D01*
X79761493Y-91514415D01*
X79818636Y-91514415D01*
X79875778Y-91542987D01*
X79904350Y-91571558D01*
X79932921Y-91628701D01*
X79961493Y-91742987D01*
X79990064Y-91800130D01*
X80018636Y-91828701D01*
X80075778Y-91857272D01*
X80132921Y-91857272D01*
X80190064Y-91828701D01*
X80218636Y-91800130D01*
X80247207Y-91742987D01*
X80247207Y-91600130D01*
X80218636Y-91514415D01*
X79704350Y-90914415D02*
X79675778Y-90942987D01*
X79647207Y-91028701D01*
X79647207Y-91085844D01*
X79675778Y-91171558D01*
X79732921Y-91228701D01*
X79790064Y-91257272D01*
X79904350Y-91285844D01*
X79990064Y-91285844D01*
X80104350Y-91257272D01*
X80161493Y-91228701D01*
X80218636Y-91171558D01*
X80247207Y-91085844D01*
X80247207Y-91028701D01*
X80218636Y-90942987D01*
X80190064Y-90914415D01*
X80247207Y-90371558D02*
X80247207Y-90657272D01*
X79961493Y-90685844D01*
X79990064Y-90657272D01*
X80018636Y-90600130D01*
X80018636Y-90457272D01*
X79990064Y-90400130D01*
X79961493Y-90371558D01*
X79904350Y-90342987D01*
X79761493Y-90342987D01*
X79704350Y-90371558D01*
X79675778Y-90400130D01*
X79647207Y-90457272D01*
X79647207Y-90600130D01*
X79675778Y-90657272D01*
X79704350Y-90685844D01*
X102040586Y-65857016D02*
X102097729Y-65828444D01*
X102183444Y-65828444D01*
X102269158Y-65857016D01*
X102326301Y-65914158D01*
X102354872Y-65971301D01*
X102383444Y-66085587D01*
X102383444Y-66171301D01*
X102354872Y-66285587D01*
X102326301Y-66342730D01*
X102269158Y-66399873D01*
X102183444Y-66428444D01*
X102126301Y-66428444D01*
X102040586Y-66399873D01*
X102012015Y-66371301D01*
X102012015Y-66171301D01*
X102126301Y-66171301D01*
X101754872Y-66428444D02*
X101754872Y-65828444D01*
X101412015Y-66428444D01*
X101412015Y-65828444D01*
X101126301Y-66428444D02*
X101126301Y-65828444D01*
X100983444Y-65828444D01*
X100897729Y-65857016D01*
X100840586Y-65914158D01*
X100812015Y-65971301D01*
X100783444Y-66085587D01*
X100783444Y-66171301D01*
X100812015Y-66285587D01*
X100840586Y-66342730D01*
X100897729Y-66399873D01*
X100983444Y-66428444D01*
X101126301Y-66428444D01*
X60969642Y-18608292D02*
X60969642Y-18151150D01*
X60741071Y-18379721D02*
X61198214Y-18379721D01*
X61283928Y-17894007D02*
X61312500Y-17865435D01*
X61341071Y-17808292D01*
X61341071Y-17665435D01*
X61312500Y-17608292D01*
X61283928Y-17579721D01*
X61226785Y-17551150D01*
X61169642Y-17551150D01*
X61083928Y-17579721D01*
X60741071Y-17922578D01*
X60741071Y-17551150D01*
X61141071Y-17036864D02*
X60741071Y-17036864D01*
X61369642Y-17179721D02*
X60941071Y-17322578D01*
X60941071Y-16951150D01*
X61341071Y-16808292D02*
X60741071Y-16608292D01*
X61341071Y-16408292D01*
X52164776Y-18701614D02*
X52164776Y-18244472D01*
X51936205Y-18473043D02*
X52393348Y-18473043D01*
X52479062Y-17987329D02*
X52507634Y-17958757D01*
X52536205Y-17901614D01*
X52536205Y-17758757D01*
X52507634Y-17701614D01*
X52479062Y-17673043D01*
X52421919Y-17644472D01*
X52364776Y-17644472D01*
X52279062Y-17673043D01*
X51936205Y-18015900D01*
X51936205Y-17644472D01*
X52336205Y-17130186D02*
X51936205Y-17130186D01*
X52564776Y-17273043D02*
X52136205Y-17415900D01*
X52136205Y-17044472D01*
X52536205Y-16901614D02*
X51936205Y-16701614D01*
X52536205Y-16501614D01*
X78774555Y-18634828D02*
X78774555Y-18177686D01*
X78545984Y-18406257D02*
X79003127Y-18406257D01*
X79088841Y-17920543D02*
X79117413Y-17891971D01*
X79145984Y-17834828D01*
X79145984Y-17691971D01*
X79117413Y-17634828D01*
X79088841Y-17606257D01*
X79031698Y-17577686D01*
X78974555Y-17577686D01*
X78888841Y-17606257D01*
X78545984Y-17949114D01*
X78545984Y-17577686D01*
X78945984Y-17063400D02*
X78545984Y-17063400D01*
X79174555Y-17206257D02*
X78745984Y-17349114D01*
X78745984Y-16977686D01*
X79145984Y-16834828D02*
X78545984Y-16634828D01*
X79145984Y-16434828D01*
X96286904Y-91942239D02*
X96258333Y-91856525D01*
X96258333Y-91713668D01*
X96286904Y-91656525D01*
X96315476Y-91627954D01*
X96372619Y-91599382D01*
X96429762Y-91599382D01*
X96486904Y-91627954D01*
X96515476Y-91656525D01*
X96544047Y-91713668D01*
X96572619Y-91827954D01*
X96601190Y-91885097D01*
X96629762Y-91913668D01*
X96686904Y-91942239D01*
X96744047Y-91942239D01*
X96801190Y-91913668D01*
X96829762Y-91885097D01*
X96858333Y-91827954D01*
X96858333Y-91685097D01*
X96829762Y-91599382D01*
X96258333Y-91342239D02*
X96858333Y-91342239D01*
X96858333Y-91199382D01*
X96829762Y-91113668D01*
X96772619Y-91056525D01*
X96715476Y-91027954D01*
X96601190Y-90999382D01*
X96515476Y-90999382D01*
X96401190Y-91027954D01*
X96344047Y-91056525D01*
X96286904Y-91113668D01*
X96258333Y-91199382D01*
X96258333Y-91342239D01*
X96658333Y-90485097D02*
X96258333Y-90485097D01*
X96886904Y-90627954D02*
X96458333Y-90770811D01*
X96458333Y-90399382D01*
X89981181Y-18216611D02*
X89952609Y-18245182D01*
X89924038Y-18330896D01*
X89924038Y-18388039D01*
X89952609Y-18473753D01*
X90009752Y-18530896D01*
X90066895Y-18559468D01*
X90181181Y-18588039D01*
X90266895Y-18588039D01*
X90381181Y-18559468D01*
X90438324Y-18530896D01*
X90495467Y-18473753D01*
X90524038Y-18388039D01*
X90524038Y-18330896D01*
X90495467Y-18245182D01*
X90466895Y-18216611D01*
X90524038Y-17845182D02*
X90524038Y-17788039D01*
X90495467Y-17730896D01*
X90466895Y-17702325D01*
X90409752Y-17673753D01*
X90295467Y-17645182D01*
X90152609Y-17645182D01*
X90038324Y-17673753D01*
X89981181Y-17702325D01*
X89952609Y-17730896D01*
X89924038Y-17788039D01*
X89924038Y-17845182D01*
X89952609Y-17902325D01*
X89981181Y-17930896D01*
X90038324Y-17959468D01*
X90152609Y-17988039D01*
X90295467Y-17988039D01*
X90409752Y-17959468D01*
X90466895Y-17930896D01*
X90495467Y-17902325D01*
X90524038Y-17845182D01*
X37573928Y-78657380D02*
X37383452Y-78657380D01*
X37288214Y-78705000D01*
X37192976Y-78800238D01*
X37145357Y-78990714D01*
X37145357Y-79324047D01*
X37192976Y-79514523D01*
X37288214Y-79609761D01*
X37383452Y-79657380D01*
X37573928Y-79657380D01*
X37669166Y-79609761D01*
X37764404Y-79514523D01*
X37812023Y-79324047D01*
X37812023Y-78990714D01*
X37764404Y-78800238D01*
X37669166Y-78705000D01*
X37573928Y-78657380D01*
X36812023Y-78990714D02*
X36621547Y-79657380D01*
X36431071Y-79181190D01*
X36240595Y-79657380D01*
X36050119Y-78990714D01*
X35526309Y-79657380D02*
X35621547Y-79609761D01*
X35669166Y-79514523D01*
X35669166Y-78657380D01*
X34812023Y-79133571D02*
X34669166Y-79181190D01*
X34621547Y-79228809D01*
X34573928Y-79324047D01*
X34573928Y-79466904D01*
X34621547Y-79562142D01*
X34669166Y-79609761D01*
X34764404Y-79657380D01*
X35145357Y-79657380D01*
X35145357Y-78657380D01*
X34812023Y-78657380D01*
X34716785Y-78705000D01*
X34669166Y-78752619D01*
X34621547Y-78847857D01*
X34621547Y-78943095D01*
X34669166Y-79038333D01*
X34716785Y-79085952D01*
X34812023Y-79133571D01*
X35145357Y-79133571D01*
X34145357Y-79657380D02*
X34145357Y-78990714D01*
X34145357Y-79181190D02*
X34097738Y-79085952D01*
X34050119Y-79038333D01*
X33954880Y-78990714D01*
X33859642Y-78990714D01*
X33097738Y-79657380D02*
X33097738Y-78657380D01*
X33097738Y-79609761D02*
X33192976Y-79657380D01*
X33383452Y-79657380D01*
X33478690Y-79609761D01*
X33526309Y-79562142D01*
X33573928Y-79466904D01*
X33573928Y-79181190D01*
X33526309Y-79085952D01*
X33478690Y-79038333D01*
X33383452Y-78990714D01*
X33192976Y-78990714D01*
X33097738Y-79038333D01*
X31954880Y-78990714D02*
X31716785Y-79657380D01*
X31478690Y-78990714D01*
X30573928Y-79657380D02*
X31145357Y-79657380D01*
X30859642Y-79657380D02*
X30859642Y-78657380D01*
X30954880Y-78800238D01*
X31050119Y-78895476D01*
X31145357Y-78943095D01*
X30145357Y-79562142D02*
X30097738Y-79609761D01*
X30145357Y-79657380D01*
X30192976Y-79609761D01*
X30145357Y-79562142D01*
X30145357Y-79657380D01*
X29478690Y-78657380D02*
X29383452Y-78657380D01*
X29288214Y-78705000D01*
X29240595Y-78752619D01*
X29192976Y-78847857D01*
X29145357Y-79038333D01*
X29145357Y-79276428D01*
X29192976Y-79466904D01*
X29240595Y-79562142D01*
X29288214Y-79609761D01*
X29383452Y-79657380D01*
X29478690Y-79657380D01*
X29573928Y-79609761D01*
X29621547Y-79562142D01*
X29669166Y-79466904D01*
X29716785Y-79276428D01*
X29716785Y-79038333D01*
X29669166Y-78847857D01*
X29621547Y-78752619D01*
X29573928Y-78705000D01*
X29478690Y-78657380D01*
X36954880Y-80505476D02*
X37050119Y-80457857D01*
X37240595Y-80457857D01*
X37335833Y-80505476D01*
X37431071Y-80600714D01*
X37478690Y-80695952D01*
X37478690Y-80886428D01*
X37431071Y-80981666D01*
X37335833Y-81076904D01*
X37240595Y-81124523D01*
X37050119Y-81124523D01*
X36954880Y-81076904D01*
X37145357Y-80124523D02*
X37383452Y-80172142D01*
X37621547Y-80315000D01*
X37764404Y-80553095D01*
X37812023Y-80791190D01*
X37764404Y-81029285D01*
X37621547Y-81267380D01*
X37383452Y-81410238D01*
X37145357Y-81457857D01*
X36907261Y-81410238D01*
X36669166Y-81267380D01*
X36526309Y-81029285D01*
X36478690Y-80791190D01*
X36526309Y-80553095D01*
X36669166Y-80315000D01*
X36907261Y-80172142D01*
X37145357Y-80124523D01*
X36097738Y-80362619D02*
X36050119Y-80315000D01*
X35954880Y-80267380D01*
X35716785Y-80267380D01*
X35621547Y-80315000D01*
X35573928Y-80362619D01*
X35526309Y-80457857D01*
X35526309Y-80553095D01*
X35573928Y-80695952D01*
X36145357Y-81267380D01*
X35526309Y-81267380D01*
X34907261Y-80267380D02*
X34812023Y-80267380D01*
X34716785Y-80315000D01*
X34669166Y-80362619D01*
X34621547Y-80457857D01*
X34573928Y-80648333D01*
X34573928Y-80886428D01*
X34621547Y-81076904D01*
X34669166Y-81172142D01*
X34716785Y-81219761D01*
X34812023Y-81267380D01*
X34907261Y-81267380D01*
X35002500Y-81219761D01*
X35050119Y-81172142D01*
X35097738Y-81076904D01*
X35145357Y-80886428D01*
X35145357Y-80648333D01*
X35097738Y-80457857D01*
X35050119Y-80362619D01*
X35002500Y-80315000D01*
X34907261Y-80267380D01*
X34192976Y-80362619D02*
X34145357Y-80315000D01*
X34050119Y-80267380D01*
X33812023Y-80267380D01*
X33716785Y-80315000D01*
X33669166Y-80362619D01*
X33621547Y-80457857D01*
X33621547Y-80553095D01*
X33669166Y-80695952D01*
X34240595Y-81267380D01*
X33621547Y-81267380D01*
X33240595Y-80362619D02*
X33192976Y-80315000D01*
X33097738Y-80267380D01*
X32859642Y-80267380D01*
X32764404Y-80315000D01*
X32716785Y-80362619D01*
X32669166Y-80457857D01*
X32669166Y-80553095D01*
X32716785Y-80695952D01*
X33288214Y-81267380D01*
X32669166Y-81267380D01*
X31526309Y-80981666D02*
X31050119Y-80981666D01*
X31621547Y-81267380D02*
X31288214Y-80267380D01*
X30954880Y-81267380D01*
X30478690Y-81267380D02*
X30573928Y-81219761D01*
X30621547Y-81124523D01*
X30621547Y-80267380D01*
X29716785Y-81219761D02*
X29812023Y-81267380D01*
X30002500Y-81267380D01*
X30097738Y-81219761D01*
X30145357Y-81124523D01*
X30145357Y-80743571D01*
X30097738Y-80648333D01*
X30002500Y-80600714D01*
X29812023Y-80600714D01*
X29716785Y-80648333D01*
X29669166Y-80743571D01*
X29669166Y-80838809D01*
X30145357Y-80934047D01*
X29335833Y-81267380D02*
X28812023Y-80600714D01*
X29335833Y-80600714D02*
X28812023Y-81267380D01*
X28002500Y-81267380D02*
X28002500Y-80743571D01*
X28050119Y-80648333D01*
X28145357Y-80600714D01*
X28335833Y-80600714D01*
X28431071Y-80648333D01*
X28002500Y-81219761D02*
X28097738Y-81267380D01*
X28335833Y-81267380D01*
X28431071Y-81219761D01*
X28478690Y-81124523D01*
X28478690Y-81029285D01*
X28431071Y-80934047D01*
X28335833Y-80886428D01*
X28097738Y-80886428D01*
X28002500Y-80838809D01*
X27526309Y-80600714D02*
X27526309Y-81267380D01*
X27526309Y-80695952D02*
X27478690Y-80648333D01*
X27383452Y-80600714D01*
X27240595Y-80600714D01*
X27145357Y-80648333D01*
X27097738Y-80743571D01*
X27097738Y-81267380D01*
X26192976Y-81267380D02*
X26192976Y-80267380D01*
X26192976Y-81219761D02*
X26288214Y-81267380D01*
X26478690Y-81267380D01*
X26573928Y-81219761D01*
X26621547Y-81172142D01*
X26669166Y-81076904D01*
X26669166Y-80791190D01*
X26621547Y-80695952D01*
X26573928Y-80648333D01*
X26478690Y-80600714D01*
X26288214Y-80600714D01*
X26192976Y-80648333D01*
X25335833Y-81219761D02*
X25431071Y-81267380D01*
X25621547Y-81267380D01*
X25716785Y-81219761D01*
X25764404Y-81124523D01*
X25764404Y-80743571D01*
X25716785Y-80648333D01*
X25621547Y-80600714D01*
X25431071Y-80600714D01*
X25335833Y-80648333D01*
X25288214Y-80743571D01*
X25288214Y-80838809D01*
X25764404Y-80934047D01*
X24859642Y-81267380D02*
X24859642Y-80600714D01*
X24859642Y-80791190D02*
X24812023Y-80695952D01*
X24764404Y-80648333D01*
X24669166Y-80600714D01*
X24573928Y-80600714D01*
X23478690Y-81267380D02*
X23478690Y-80267380D01*
X22907261Y-81267380D01*
X22907261Y-80267380D01*
X22002500Y-81267380D02*
X22002500Y-80743571D01*
X22050119Y-80648333D01*
X22145357Y-80600714D01*
X22335833Y-80600714D01*
X22431071Y-80648333D01*
X22002500Y-81219761D02*
X22097738Y-81267380D01*
X22335833Y-81267380D01*
X22431071Y-81219761D01*
X22478690Y-81124523D01*
X22478690Y-81029285D01*
X22431071Y-80934047D01*
X22335833Y-80886428D01*
X22097738Y-80886428D01*
X22002500Y-80838809D01*
X21097738Y-80600714D02*
X21097738Y-81410238D01*
X21145357Y-81505476D01*
X21192976Y-81553095D01*
X21288214Y-81600714D01*
X21431071Y-81600714D01*
X21526309Y-81553095D01*
X21097738Y-81219761D02*
X21192976Y-81267380D01*
X21383452Y-81267380D01*
X21478690Y-81219761D01*
X21526309Y-81172142D01*
X21573928Y-81076904D01*
X21573928Y-80791190D01*
X21526309Y-80695952D01*
X21478690Y-80648333D01*
X21383452Y-80600714D01*
X21192976Y-80600714D01*
X21097738Y-80648333D01*
X20240595Y-81219761D02*
X20335833Y-81267380D01*
X20526309Y-81267380D01*
X20621547Y-81219761D01*
X20669166Y-81124523D01*
X20669166Y-80743571D01*
X20621547Y-80648333D01*
X20526309Y-80600714D01*
X20335833Y-80600714D01*
X20240595Y-80648333D01*
X20192976Y-80743571D01*
X20192976Y-80838809D01*
X20669166Y-80934047D01*
X19621547Y-81267380D02*
X19716785Y-81219761D01*
X19764404Y-81124523D01*
X19764404Y-80267380D01*
X19240595Y-81267380D02*
X19240595Y-80267380D01*
X19240595Y-80648333D02*
X19145357Y-80600714D01*
X18954880Y-80600714D01*
X18859642Y-80648333D01*
X18812023Y-80695952D01*
X18764404Y-80791190D01*
X18764404Y-81076904D01*
X18812023Y-81172142D01*
X18859642Y-81219761D01*
X18954880Y-81267380D01*
X19145357Y-81267380D01*
X19240595Y-81219761D01*
X17954880Y-81219761D02*
X18050119Y-81267380D01*
X18240595Y-81267380D01*
X18335833Y-81219761D01*
X18383452Y-81124523D01*
X18383452Y-80743571D01*
X18335833Y-80648333D01*
X18240595Y-80600714D01*
X18050119Y-80600714D01*
X17954880Y-80648333D01*
X17907261Y-80743571D01*
X17907261Y-80838809D01*
X18383452Y-80934047D01*
X17478690Y-81267380D02*
X17478690Y-80600714D01*
X17478690Y-80791190D02*
X17431071Y-80695952D01*
X17383452Y-80648333D01*
X17288214Y-80600714D01*
X17192976Y-80600714D01*
X16431071Y-80600714D02*
X16431071Y-81410238D01*
X16478690Y-81505476D01*
X16526309Y-81553095D01*
X16621547Y-81600714D01*
X16764404Y-81600714D01*
X16859642Y-81553095D01*
X16431071Y-81219761D02*
X16526309Y-81267380D01*
X16716785Y-81267380D01*
X16812023Y-81219761D01*
X16859642Y-81172142D01*
X16907261Y-81076904D01*
X16907261Y-80791190D01*
X16859642Y-80695952D01*
X16812023Y-80648333D01*
X16716785Y-80600714D01*
X16526309Y-80600714D01*
X16431071Y-80648333D01*
X65783609Y-91899756D02*
X65755038Y-91814042D01*
X65755038Y-91671185D01*
X65783609Y-91614042D01*
X65812181Y-91585471D01*
X65869324Y-91556899D01*
X65926467Y-91556899D01*
X65983609Y-91585471D01*
X66012181Y-91614042D01*
X66040752Y-91671185D01*
X66069324Y-91785471D01*
X66097895Y-91842614D01*
X66126467Y-91871185D01*
X66183609Y-91899756D01*
X66240752Y-91899756D01*
X66297895Y-91871185D01*
X66326467Y-91842614D01*
X66355038Y-91785471D01*
X66355038Y-91642614D01*
X66326467Y-91556899D01*
X65812181Y-90956899D02*
X65783609Y-90985471D01*
X65755038Y-91071185D01*
X65755038Y-91128328D01*
X65783609Y-91214042D01*
X65840752Y-91271185D01*
X65897895Y-91299756D01*
X66012181Y-91328328D01*
X66097895Y-91328328D01*
X66212181Y-91299756D01*
X66269324Y-91271185D01*
X66326467Y-91214042D01*
X66355038Y-91128328D01*
X66355038Y-91071185D01*
X66326467Y-90985471D01*
X66297895Y-90956899D01*
X66355038Y-90442614D02*
X66355038Y-90556899D01*
X66326467Y-90614042D01*
X66297895Y-90642614D01*
X66212181Y-90699756D01*
X66097895Y-90728328D01*
X65869324Y-90728328D01*
X65812181Y-90699756D01*
X65783609Y-90671185D01*
X65755038Y-90614042D01*
X65755038Y-90499756D01*
X65783609Y-90442614D01*
X65812181Y-90414042D01*
X65869324Y-90385471D01*
X66012181Y-90385471D01*
X66069324Y-90414042D01*
X66097895Y-90442614D01*
X66126467Y-90499756D01*
X66126467Y-90614042D01*
X66097895Y-90671185D01*
X66069324Y-90699756D01*
X66012181Y-90728328D01*
X77623082Y-27895536D02*
X77165939Y-27895536D01*
X77394511Y-28124107D02*
X77394511Y-27666964D01*
X76908796Y-27581250D02*
X76880225Y-27552679D01*
X76823082Y-27524107D01*
X76680225Y-27524107D01*
X76623082Y-27552679D01*
X76594511Y-27581250D01*
X76565939Y-27638393D01*
X76565939Y-27695536D01*
X76594511Y-27781250D01*
X76937368Y-28124107D01*
X76565939Y-28124107D01*
X76051653Y-27724107D02*
X76051653Y-28124107D01*
X76194511Y-27495536D02*
X76337368Y-27924107D01*
X75965939Y-27924107D01*
X75794511Y-27724107D02*
X75651653Y-28124107D01*
X75508796Y-27724107D01*
X43270454Y-18692156D02*
X43270454Y-18235014D01*
X43041883Y-18463585D02*
X43499026Y-18463585D01*
X43584740Y-17977871D02*
X43613312Y-17949299D01*
X43641883Y-17892156D01*
X43641883Y-17749299D01*
X43613312Y-17692156D01*
X43584740Y-17663585D01*
X43527597Y-17635014D01*
X43470454Y-17635014D01*
X43384740Y-17663585D01*
X43041883Y-18006442D01*
X43041883Y-17635014D01*
X43441883Y-17120728D02*
X43041883Y-17120728D01*
X43670454Y-17263585D02*
X43241883Y-17406442D01*
X43241883Y-17035014D01*
X43641883Y-16892156D02*
X43041883Y-16692156D01*
X43641883Y-16492156D01*
X59426080Y-61267227D02*
X59426080Y-60791037D01*
X59140366Y-61362465D02*
X60140366Y-61029132D01*
X59140366Y-60695799D01*
X59140366Y-59838656D02*
X59140366Y-60410084D01*
X59140366Y-60124370D02*
X60140366Y-60124370D01*
X59997508Y-60219608D01*
X59902270Y-60314846D01*
X59854651Y-60410084D01*
X98817099Y-23857268D02*
X98874242Y-23828696D01*
X98959957Y-23828696D01*
X99045671Y-23857268D01*
X99102814Y-23914410D01*
X99131385Y-23971553D01*
X99159957Y-24085839D01*
X99159957Y-24171553D01*
X99131385Y-24285839D01*
X99102814Y-24342982D01*
X99045671Y-24400125D01*
X98959957Y-24428696D01*
X98902814Y-24428696D01*
X98817099Y-24400125D01*
X98788528Y-24371553D01*
X98788528Y-24171553D01*
X98902814Y-24171553D01*
X98531385Y-24428696D02*
X98531385Y-23828696D01*
X98188528Y-24428696D01*
X98188528Y-23828696D01*
X97902814Y-24428696D02*
X97902814Y-23828696D01*
X97759957Y-23828696D01*
X97674242Y-23857268D01*
X97617099Y-23914410D01*
X97588528Y-23971553D01*
X97559957Y-24085839D01*
X97559957Y-24171553D01*
X97588528Y-24285839D01*
X97617099Y-24342982D01*
X97674242Y-24400125D01*
X97759957Y-24428696D01*
X97902814Y-24428696D01*
X105691460Y-31012445D02*
X104929556Y-31012445D01*
X105310508Y-31393397D02*
X105310508Y-30631493D01*
X104500984Y-30488636D02*
X104453365Y-30441017D01*
X104358127Y-30393397D01*
X104120032Y-30393397D01*
X104024794Y-30441017D01*
X103977175Y-30488636D01*
X103929556Y-30583874D01*
X103929556Y-30679112D01*
X103977175Y-30821969D01*
X104548603Y-31393397D01*
X103929556Y-31393397D01*
X103072413Y-30726731D02*
X103072413Y-31393397D01*
X103310508Y-30345778D02*
X103548603Y-31060064D01*
X102929556Y-31060064D01*
X102691460Y-30393397D02*
X102358127Y-31393397D01*
X102024794Y-30393397D01*
X54313010Y-92027207D02*
X54284439Y-91941493D01*
X54284439Y-91798636D01*
X54313010Y-91741493D01*
X54341582Y-91712922D01*
X54398725Y-91684350D01*
X54455868Y-91684350D01*
X54513010Y-91712922D01*
X54541582Y-91741493D01*
X54570153Y-91798636D01*
X54598725Y-91912922D01*
X54627296Y-91970065D01*
X54655868Y-91998636D01*
X54713010Y-92027207D01*
X54770153Y-92027207D01*
X54827296Y-91998636D01*
X54855868Y-91970065D01*
X54884439Y-91912922D01*
X54884439Y-91770065D01*
X54855868Y-91684350D01*
X54284439Y-91427207D02*
X54884439Y-91427207D01*
X54884439Y-91284350D01*
X54855868Y-91198636D01*
X54798725Y-91141493D01*
X54741582Y-91112922D01*
X54627296Y-91084350D01*
X54541582Y-91084350D01*
X54427296Y-91112922D01*
X54370153Y-91141493D01*
X54313010Y-91198636D01*
X54284439Y-91284350D01*
X54284439Y-91427207D01*
X54884439Y-90884350D02*
X54884439Y-90484350D01*
X54284439Y-90741493D01*
X104883162Y-35415306D02*
X104978400Y-35367686D01*
X105121257Y-35367686D01*
X105264114Y-35415306D01*
X105359352Y-35510544D01*
X105406971Y-35605782D01*
X105454590Y-35796258D01*
X105454590Y-35939115D01*
X105406971Y-36129591D01*
X105359352Y-36224829D01*
X105264114Y-36320067D01*
X105121257Y-36367686D01*
X105026019Y-36367686D01*
X104883162Y-36320067D01*
X104835543Y-36272448D01*
X104835543Y-35939115D01*
X105026019Y-35939115D01*
X104406971Y-36367686D02*
X104406971Y-35367686D01*
X104026019Y-35367686D01*
X103930781Y-35415306D01*
X103883162Y-35462925D01*
X103835543Y-35558163D01*
X103835543Y-35701020D01*
X103883162Y-35796258D01*
X103930781Y-35843877D01*
X104026019Y-35891496D01*
X104406971Y-35891496D01*
X102883162Y-36367686D02*
X103454590Y-36367686D01*
X103168876Y-36367686D02*
X103168876Y-35367686D01*
X103264114Y-35510544D01*
X103359352Y-35605782D01*
X103454590Y-35653401D01*
X102406971Y-36367686D02*
X102216495Y-36367686D01*
X102121257Y-36320067D01*
X102073638Y-36272448D01*
X101978400Y-36129591D01*
X101930781Y-35939115D01*
X101930781Y-35558163D01*
X101978400Y-35462925D01*
X102026019Y-35415306D01*
X102121257Y-35367686D01*
X102311733Y-35367686D01*
X102406971Y-35415306D01*
X102454590Y-35462925D01*
X102502209Y-35558163D01*
X102502209Y-35796258D01*
X102454590Y-35891496D01*
X102406971Y-35939115D01*
X102311733Y-35986734D01*
X102121257Y-35986734D01*
X102026019Y-35939115D01*
X101978400Y-35891496D01*
X101930781Y-35796258D01*
X75906108Y-61207081D02*
X75906108Y-60730891D01*
X75620394Y-61302319D02*
X76620394Y-60968986D01*
X75620394Y-60635653D01*
X75620394Y-59778510D02*
X75620394Y-60349938D01*
X75620394Y-60064224D02*
X76620394Y-60064224D01*
X76477536Y-60159462D01*
X76382298Y-60254700D01*
X76334679Y-60349938D01*
X37710738Y-91970327D02*
X37682167Y-91884613D01*
X37682167Y-91741756D01*
X37710738Y-91684613D01*
X37739310Y-91656042D01*
X37796453Y-91627470D01*
X37853596Y-91627470D01*
X37910738Y-91656042D01*
X37939310Y-91684613D01*
X37967881Y-91741756D01*
X37996453Y-91856042D01*
X38025024Y-91913185D01*
X38053596Y-91941756D01*
X38110738Y-91970327D01*
X38167881Y-91970327D01*
X38225024Y-91941756D01*
X38253596Y-91913185D01*
X38282167Y-91856042D01*
X38282167Y-91713185D01*
X38253596Y-91627470D01*
X37739310Y-91027470D02*
X37710738Y-91056042D01*
X37682167Y-91141756D01*
X37682167Y-91198899D01*
X37710738Y-91284613D01*
X37767881Y-91341756D01*
X37825024Y-91370327D01*
X37939310Y-91398899D01*
X38025024Y-91398899D01*
X38139310Y-91370327D01*
X38196453Y-91341756D01*
X38253596Y-91284613D01*
X38282167Y-91198899D01*
X38282167Y-91141756D01*
X38253596Y-91056042D01*
X38225024Y-91027470D01*
X37682167Y-90456042D02*
X37682167Y-90798899D01*
X37682167Y-90627470D02*
X38282167Y-90627470D01*
X38196453Y-90684613D01*
X38139310Y-90741756D01*
X38110738Y-90798899D01*
X90102784Y-53138712D02*
X90055165Y-52995855D01*
X90007546Y-52948236D01*
X89912308Y-52900617D01*
X89769451Y-52900617D01*
X89674213Y-52948236D01*
X89626594Y-52995855D01*
X89578975Y-53091093D01*
X89578975Y-53472046D01*
X90578975Y-53472046D01*
X90578975Y-53138712D01*
X90531356Y-53043474D01*
X90483736Y-52995855D01*
X90388498Y-52948236D01*
X90293260Y-52948236D01*
X90198022Y-52995855D01*
X90150403Y-53043474D01*
X90102784Y-53138712D01*
X90102784Y-53472046D01*
X89578975Y-51948236D02*
X89578975Y-52519665D01*
X89578975Y-52233951D02*
X90578975Y-52233951D01*
X90436117Y-52329189D01*
X90340879Y-52424427D01*
X90293260Y-52519665D01*
X90144377Y-60879004D02*
X90096758Y-60736147D01*
X90049139Y-60688528D01*
X89953901Y-60640909D01*
X89811044Y-60640909D01*
X89715806Y-60688528D01*
X89668187Y-60736147D01*
X89620568Y-60831385D01*
X89620568Y-61212338D01*
X90620568Y-61212338D01*
X90620568Y-60879004D01*
X90572949Y-60783766D01*
X90525329Y-60736147D01*
X90430091Y-60688528D01*
X90334853Y-60688528D01*
X90239615Y-60736147D01*
X90191996Y-60783766D01*
X90144377Y-60879004D01*
X90144377Y-61212338D01*
X89620568Y-59688528D02*
X89620568Y-60259957D01*
X89620568Y-59974243D02*
X90620568Y-59974243D01*
X90477710Y-60069481D01*
X90382472Y-60164719D01*
X90334853Y-60259957D01*
X43064131Y-92111843D02*
X43064131Y-91654700D01*
X42835560Y-91883272D02*
X43292703Y-91883272D01*
X43435560Y-91426129D02*
X43435560Y-91054700D01*
X43206989Y-91254700D01*
X43206989Y-91168986D01*
X43178417Y-91111843D01*
X43149846Y-91083272D01*
X43092703Y-91054700D01*
X42949846Y-91054700D01*
X42892703Y-91083272D01*
X42864131Y-91111843D01*
X42835560Y-91168986D01*
X42835560Y-91340414D01*
X42864131Y-91397557D01*
X42892703Y-91426129D01*
X43235560Y-90854700D02*
X42835560Y-90711843D01*
X43235560Y-90568986D01*
X43435560Y-90397557D02*
X43435560Y-90026129D01*
X43206989Y-90226129D01*
X43206989Y-90140414D01*
X43178417Y-90083272D01*
X43149846Y-90054700D01*
X43092703Y-90026129D01*
X42949846Y-90026129D01*
X42892703Y-90054700D01*
X42864131Y-90083272D01*
X42835560Y-90140414D01*
X42835560Y-90311843D01*
X42864131Y-90368986D01*
X42892703Y-90397557D01*
X54448700Y-18309886D02*
X54420128Y-18338457D01*
X54391557Y-18424171D01*
X54391557Y-18481314D01*
X54420128Y-18567028D01*
X54477271Y-18624171D01*
X54534414Y-18652743D01*
X54648700Y-18681314D01*
X54734414Y-18681314D01*
X54848700Y-18652743D01*
X54905843Y-18624171D01*
X54962986Y-18567028D01*
X54991557Y-18481314D01*
X54991557Y-18424171D01*
X54962986Y-18338457D01*
X54934414Y-18309886D01*
X54791557Y-17795600D02*
X54391557Y-17795600D01*
X55020128Y-17938457D02*
X54591557Y-18081314D01*
X54591557Y-17709886D01*
X77628756Y-33020478D02*
X77171613Y-33020478D01*
X77400185Y-33249049D02*
X77400185Y-32791906D01*
X76600185Y-32649049D02*
X76885899Y-32649049D01*
X76914470Y-32934763D01*
X76885899Y-32906192D01*
X76828756Y-32877621D01*
X76685899Y-32877621D01*
X76628756Y-32906192D01*
X76600185Y-32934763D01*
X76571613Y-32991906D01*
X76571613Y-33134763D01*
X76600185Y-33191906D01*
X76628756Y-33220478D01*
X76685899Y-33249049D01*
X76828756Y-33249049D01*
X76885899Y-33220478D01*
X76914470Y-33191906D01*
X76400185Y-32649049D02*
X76200185Y-33249049D01*
X76000185Y-32649049D01*
X45855246Y-91640094D02*
X45883817Y-91697237D01*
X45883817Y-91782952D01*
X45855246Y-91868666D01*
X45798103Y-91925809D01*
X45740960Y-91954380D01*
X45626674Y-91982952D01*
X45540960Y-91982952D01*
X45426674Y-91954380D01*
X45369531Y-91925809D01*
X45312388Y-91868666D01*
X45283817Y-91782952D01*
X45283817Y-91725809D01*
X45312388Y-91640094D01*
X45340960Y-91611523D01*
X45540960Y-91611523D01*
X45540960Y-91725809D01*
X45283817Y-91354380D02*
X45883817Y-91354380D01*
X45283817Y-91011523D01*
X45883817Y-91011523D01*
X45283817Y-90725809D02*
X45883817Y-90725809D01*
X45883817Y-90582952D01*
X45855246Y-90497237D01*
X45798103Y-90440094D01*
X45740960Y-90411523D01*
X45626674Y-90382952D01*
X45540960Y-90382952D01*
X45426674Y-90411523D01*
X45369531Y-90440094D01*
X45312388Y-90497237D01*
X45283817Y-90582952D01*
X45283817Y-90725809D01*
X93652915Y-92027207D02*
X93624344Y-91941493D01*
X93624344Y-91798636D01*
X93652915Y-91741493D01*
X93681487Y-91712922D01*
X93738630Y-91684350D01*
X93795773Y-91684350D01*
X93852915Y-91712922D01*
X93881487Y-91741493D01*
X93910058Y-91798636D01*
X93938630Y-91912922D01*
X93967201Y-91970065D01*
X93995773Y-91998636D01*
X94052915Y-92027207D01*
X94110058Y-92027207D01*
X94167201Y-91998636D01*
X94195773Y-91970065D01*
X94224344Y-91912922D01*
X94224344Y-91770065D01*
X94195773Y-91684350D01*
X93681487Y-91084350D02*
X93652915Y-91112922D01*
X93624344Y-91198636D01*
X93624344Y-91255779D01*
X93652915Y-91341493D01*
X93710058Y-91398636D01*
X93767201Y-91427207D01*
X93881487Y-91455779D01*
X93967201Y-91455779D01*
X94081487Y-91427207D01*
X94138630Y-91398636D01*
X94195773Y-91341493D01*
X94224344Y-91255779D01*
X94224344Y-91198636D01*
X94195773Y-91112922D01*
X94167201Y-91084350D01*
X94024344Y-90570065D02*
X93624344Y-90570065D01*
X94252915Y-90712922D02*
X93824344Y-90855779D01*
X93824344Y-90484350D01*
X57124175Y-60957703D02*
X57076556Y-60814846D01*
X57028937Y-60767227D01*
X56933699Y-60719608D01*
X56790842Y-60719608D01*
X56695604Y-60767227D01*
X56647985Y-60814846D01*
X56600366Y-60910084D01*
X56600366Y-61291037D01*
X57600366Y-61291037D01*
X57600366Y-60957703D01*
X57552747Y-60862465D01*
X57505127Y-60814846D01*
X57409889Y-60767227D01*
X57314651Y-60767227D01*
X57219413Y-60814846D01*
X57171794Y-60862465D01*
X57124175Y-60957703D01*
X57124175Y-61291037D01*
X56600366Y-59767227D02*
X56600366Y-60338656D01*
X56600366Y-60052942D02*
X57600366Y-60052942D01*
X57457508Y-60148180D01*
X57362270Y-60243418D01*
X57314651Y-60338656D01*
X40335873Y-91899756D02*
X40307302Y-91814042D01*
X40307302Y-91671185D01*
X40335873Y-91614042D01*
X40364445Y-91585471D01*
X40421588Y-91556899D01*
X40478731Y-91556899D01*
X40535873Y-91585471D01*
X40564445Y-91614042D01*
X40593016Y-91671185D01*
X40621588Y-91785471D01*
X40650159Y-91842614D01*
X40678731Y-91871185D01*
X40735873Y-91899756D01*
X40793016Y-91899756D01*
X40850159Y-91871185D01*
X40878731Y-91842614D01*
X40907302Y-91785471D01*
X40907302Y-91642614D01*
X40878731Y-91556899D01*
X40307302Y-91299756D02*
X40907302Y-91299756D01*
X40907302Y-91156899D01*
X40878731Y-91071185D01*
X40821588Y-91014042D01*
X40764445Y-90985471D01*
X40650159Y-90956899D01*
X40564445Y-90956899D01*
X40450159Y-90985471D01*
X40393016Y-91014042D01*
X40335873Y-91071185D01*
X40307302Y-91156899D01*
X40307302Y-91299756D01*
X40307302Y-90385471D02*
X40307302Y-90728328D01*
X40307302Y-90556899D02*
X40907302Y-90556899D01*
X40821588Y-90614042D01*
X40764445Y-90671185D01*
X40735873Y-90728328D01*
X92446282Y-61188528D02*
X92446282Y-60712338D01*
X92160568Y-61283766D02*
X93160568Y-60950433D01*
X92160568Y-60617100D01*
X92160568Y-59759957D02*
X92160568Y-60331385D01*
X92160568Y-60045671D02*
X93160568Y-60045671D01*
X93017710Y-60140909D01*
X92922472Y-60236147D01*
X92874853Y-60331385D01*
X77270667Y-30137051D02*
X77327810Y-30108479D01*
X77413525Y-30108479D01*
X77499239Y-30137051D01*
X77556382Y-30194193D01*
X77584953Y-30251336D01*
X77613525Y-30365622D01*
X77613525Y-30451336D01*
X77584953Y-30565622D01*
X77556382Y-30622765D01*
X77499239Y-30679908D01*
X77413525Y-30708479D01*
X77356382Y-30708479D01*
X77270667Y-30679908D01*
X77242096Y-30651336D01*
X77242096Y-30451336D01*
X77356382Y-30451336D01*
X76984953Y-30708479D02*
X76984953Y-30108479D01*
X76642096Y-30708479D01*
X76642096Y-30108479D01*
X76356382Y-30708479D02*
X76356382Y-30108479D01*
X76213525Y-30108479D01*
X76127810Y-30137051D01*
X76070667Y-30194193D01*
X76042096Y-30251336D01*
X76013525Y-30365622D01*
X76013525Y-30451336D01*
X76042096Y-30565622D01*
X76070667Y-30622765D01*
X76127810Y-30679908D01*
X76213525Y-30708479D01*
X76356382Y-30708479D01*
X70621427Y-38762769D02*
X70164284Y-38762769D01*
X70392856Y-38991340D02*
X70392856Y-38534197D01*
X69592856Y-38391340D02*
X69878570Y-38391340D01*
X69907141Y-38677054D01*
X69878570Y-38648483D01*
X69821427Y-38619912D01*
X69678570Y-38619912D01*
X69621427Y-38648483D01*
X69592856Y-38677054D01*
X69564284Y-38734197D01*
X69564284Y-38877054D01*
X69592856Y-38934197D01*
X69621427Y-38962769D01*
X69678570Y-38991340D01*
X69821427Y-38991340D01*
X69878570Y-38962769D01*
X69907141Y-38934197D01*
X69392856Y-38391340D02*
X69192856Y-38991340D01*
X68992856Y-38391340D01*
X70668018Y-48646248D02*
X70325161Y-48646248D01*
X70496590Y-49246248D02*
X70496590Y-48646248D01*
X70182304Y-48646248D02*
X69782304Y-49246248D01*
X69782304Y-48646248D02*
X70182304Y-49246248D01*
X101717437Y-91639740D02*
X101746008Y-91696883D01*
X101746008Y-91782598D01*
X101717437Y-91868312D01*
X101660294Y-91925455D01*
X101603151Y-91954026D01*
X101488865Y-91982598D01*
X101403151Y-91982598D01*
X101288865Y-91954026D01*
X101231722Y-91925455D01*
X101174579Y-91868312D01*
X101146008Y-91782598D01*
X101146008Y-91725455D01*
X101174579Y-91639740D01*
X101203151Y-91611169D01*
X101403151Y-91611169D01*
X101403151Y-91725455D01*
X101146008Y-91354026D02*
X101746008Y-91354026D01*
X101146008Y-91011169D01*
X101746008Y-91011169D01*
X101146008Y-90725455D02*
X101746008Y-90725455D01*
X101746008Y-90582598D01*
X101717437Y-90496883D01*
X101660294Y-90439740D01*
X101603151Y-90411169D01*
X101488865Y-90382598D01*
X101403151Y-90382598D01*
X101288865Y-90411169D01*
X101231722Y-90439740D01*
X101174579Y-90496883D01*
X101146008Y-90582598D01*
X101146008Y-90725455D01*
X29121030Y-91998485D02*
X29121030Y-91541342D01*
X28892459Y-91769914D02*
X29349602Y-91769914D01*
X29492459Y-91312771D02*
X29492459Y-90941342D01*
X29263888Y-91141342D01*
X29263888Y-91055628D01*
X29235316Y-90998485D01*
X29206745Y-90969914D01*
X29149602Y-90941342D01*
X29006745Y-90941342D01*
X28949602Y-90969914D01*
X28921030Y-90998485D01*
X28892459Y-91055628D01*
X28892459Y-91227056D01*
X28921030Y-91284199D01*
X28949602Y-91312771D01*
X29292459Y-90741342D02*
X28892459Y-90598485D01*
X29292459Y-90455628D01*
X29492459Y-90284199D02*
X29492459Y-89912771D01*
X29263888Y-90112771D01*
X29263888Y-90027056D01*
X29235316Y-89969914D01*
X29206745Y-89941342D01*
X29149602Y-89912771D01*
X29006745Y-89912771D01*
X28949602Y-89941342D01*
X28921030Y-89969914D01*
X28892459Y-90027056D01*
X28892459Y-90198485D01*
X28921030Y-90255628D01*
X28949602Y-90284199D01*
X56969447Y-92149630D02*
X56969447Y-91692487D01*
X56740876Y-91921059D02*
X57198019Y-91921059D01*
X57340876Y-91463916D02*
X57340876Y-91092487D01*
X57112305Y-91292487D01*
X57112305Y-91206773D01*
X57083733Y-91149630D01*
X57055162Y-91121059D01*
X56998019Y-91092487D01*
X56855162Y-91092487D01*
X56798019Y-91121059D01*
X56769447Y-91149630D01*
X56740876Y-91206773D01*
X56740876Y-91378201D01*
X56769447Y-91435344D01*
X56798019Y-91463916D01*
X57140876Y-90892487D02*
X56740876Y-90749630D01*
X57140876Y-90606773D01*
X57340876Y-90435344D02*
X57340876Y-90063916D01*
X57112305Y-90263916D01*
X57112305Y-90178201D01*
X57083733Y-90121059D01*
X57055162Y-90092487D01*
X56998019Y-90063916D01*
X56855162Y-90063916D01*
X56798019Y-90092487D01*
X56769447Y-90121059D01*
X56740876Y-90178201D01*
X56740876Y-90349630D01*
X56769447Y-90406773D01*
X56798019Y-90435344D01*
X31931359Y-26726669D02*
X31959930Y-26783812D01*
X31959930Y-26869527D01*
X31931359Y-26955241D01*
X31874216Y-27012384D01*
X31817073Y-27040955D01*
X31702787Y-27069527D01*
X31617073Y-27069527D01*
X31502787Y-27040955D01*
X31445644Y-27012384D01*
X31388501Y-26955241D01*
X31359930Y-26869527D01*
X31359930Y-26812384D01*
X31388501Y-26726669D01*
X31417073Y-26698098D01*
X31617073Y-26698098D01*
X31617073Y-26812384D01*
X31359930Y-26440955D02*
X31959930Y-26440955D01*
X31359930Y-26098098D01*
X31959930Y-26098098D01*
X31359930Y-25812384D02*
X31959930Y-25812384D01*
X31959930Y-25669527D01*
X31931359Y-25583812D01*
X31874216Y-25526669D01*
X31817073Y-25498098D01*
X31702787Y-25469527D01*
X31617073Y-25469527D01*
X31502787Y-25498098D01*
X31445644Y-25526669D01*
X31388501Y-25583812D01*
X31359930Y-25669527D01*
X31359930Y-25812384D01*
X72210539Y-18260827D02*
X72181967Y-18289398D01*
X72153396Y-18375112D01*
X72153396Y-18432255D01*
X72181967Y-18517969D01*
X72239110Y-18575112D01*
X72296253Y-18603684D01*
X72410539Y-18632255D01*
X72496253Y-18632255D01*
X72610539Y-18603684D01*
X72667682Y-18575112D01*
X72724825Y-18517969D01*
X72753396Y-18432255D01*
X72753396Y-18375112D01*
X72724825Y-18289398D01*
X72696253Y-18260827D01*
X72696253Y-18032255D02*
X72724825Y-18003684D01*
X72753396Y-17946541D01*
X72753396Y-17803684D01*
X72724825Y-17746541D01*
X72696253Y-17717969D01*
X72639110Y-17689398D01*
X72581967Y-17689398D01*
X72496253Y-17717969D01*
X72153396Y-18060827D01*
X72153396Y-17689398D01*
X18773077Y-86845892D02*
X18744506Y-86760178D01*
X18744506Y-86617321D01*
X18773077Y-86560178D01*
X18801649Y-86531607D01*
X18858792Y-86503035D01*
X18915935Y-86503035D01*
X18973077Y-86531607D01*
X19001649Y-86560178D01*
X19030220Y-86617321D01*
X19058792Y-86731607D01*
X19087363Y-86788749D01*
X19115935Y-86817321D01*
X19173077Y-86845892D01*
X19230220Y-86845892D01*
X19287363Y-86817321D01*
X19315935Y-86788749D01*
X19344506Y-86731607D01*
X19344506Y-86588749D01*
X19315935Y-86503035D01*
X18801649Y-85903035D02*
X18773077Y-85931607D01*
X18744506Y-86017321D01*
X18744506Y-86074464D01*
X18773077Y-86160178D01*
X18830220Y-86217321D01*
X18887363Y-86245892D01*
X19001649Y-86274464D01*
X19087363Y-86274464D01*
X19201649Y-86245892D01*
X19258792Y-86217321D01*
X19315935Y-86160178D01*
X19344506Y-86074464D01*
X19344506Y-86017321D01*
X19315935Y-85931607D01*
X19287363Y-85903035D01*
X18744506Y-85360178D02*
X18744506Y-85645892D01*
X19344506Y-85645892D01*
X81097899Y-18216611D02*
X81069327Y-18245182D01*
X81040756Y-18330896D01*
X81040756Y-18388039D01*
X81069327Y-18473753D01*
X81126470Y-18530896D01*
X81183613Y-18559468D01*
X81297899Y-18588039D01*
X81383613Y-18588039D01*
X81497899Y-18559468D01*
X81555042Y-18530896D01*
X81612185Y-18473753D01*
X81640756Y-18388039D01*
X81640756Y-18330896D01*
X81612185Y-18245182D01*
X81583613Y-18216611D01*
X81040756Y-17645182D02*
X81040756Y-17988039D01*
X81040756Y-17816611D02*
X81640756Y-17816611D01*
X81555042Y-17873753D01*
X81497899Y-17930896D01*
X81469327Y-17988039D01*
X67354698Y-27047862D02*
X67354698Y-26590719D01*
X67126127Y-26819291D02*
X67583270Y-26819291D01*
X67726127Y-26019291D02*
X67726127Y-26305005D01*
X67440413Y-26333576D01*
X67468984Y-26305005D01*
X67497556Y-26247862D01*
X67497556Y-26105005D01*
X67468984Y-26047862D01*
X67440413Y-26019291D01*
X67383270Y-25990719D01*
X67240413Y-25990719D01*
X67183270Y-26019291D01*
X67154698Y-26047862D01*
X67126127Y-26105005D01*
X67126127Y-26247862D01*
X67154698Y-26305005D01*
X67183270Y-26333576D01*
X67726127Y-25819291D02*
X67126127Y-25619291D01*
X67726127Y-25419291D01*
X94944689Y-53448236D02*
X94944689Y-52972046D01*
X94658975Y-53543474D02*
X95658975Y-53210141D01*
X94658975Y-52876808D01*
X95563736Y-52591093D02*
X95611356Y-52543474D01*
X95658975Y-52448236D01*
X95658975Y-52210141D01*
X95611356Y-52114903D01*
X95563736Y-52067284D01*
X95468498Y-52019665D01*
X95373260Y-52019665D01*
X95230403Y-52067284D01*
X94658975Y-52638712D01*
X94658975Y-52019665D01*
X41878961Y-27162618D02*
X41878961Y-26705475D01*
X41650390Y-26934047D02*
X42107533Y-26934047D01*
X42250390Y-26476904D02*
X42250390Y-26105475D01*
X42021819Y-26305475D01*
X42021819Y-26219761D01*
X41993247Y-26162618D01*
X41964676Y-26134047D01*
X41907533Y-26105475D01*
X41764676Y-26105475D01*
X41707533Y-26134047D01*
X41678961Y-26162618D01*
X41650390Y-26219761D01*
X41650390Y-26391189D01*
X41678961Y-26448332D01*
X41707533Y-26476904D01*
X42050390Y-25905475D02*
X41650390Y-25762618D01*
X42050390Y-25619761D01*
X42250390Y-25448332D02*
X42250390Y-25076904D01*
X42021819Y-25276904D01*
X42021819Y-25191189D01*
X41993247Y-25134047D01*
X41964676Y-25105475D01*
X41907533Y-25076904D01*
X41764676Y-25076904D01*
X41707533Y-25105475D01*
X41678961Y-25134047D01*
X41650390Y-25191189D01*
X41650390Y-25362618D01*
X41678961Y-25419761D01*
X41707533Y-25448332D01*
X26911211Y-86563992D02*
X26939782Y-86621135D01*
X26939782Y-86706850D01*
X26911211Y-86792564D01*
X26854068Y-86849707D01*
X26796925Y-86878278D01*
X26682639Y-86906850D01*
X26596925Y-86906850D01*
X26482639Y-86878278D01*
X26425496Y-86849707D01*
X26368353Y-86792564D01*
X26339782Y-86706850D01*
X26339782Y-86649707D01*
X26368353Y-86563992D01*
X26396925Y-86535421D01*
X26596925Y-86535421D01*
X26596925Y-86649707D01*
X26339782Y-86278278D02*
X26939782Y-86278278D01*
X26339782Y-85935421D01*
X26939782Y-85935421D01*
X26339782Y-85649707D02*
X26939782Y-85649707D01*
X26939782Y-85506850D01*
X26911211Y-85421135D01*
X26854068Y-85363992D01*
X26796925Y-85335421D01*
X26682639Y-85306850D01*
X26596925Y-85306850D01*
X26482639Y-85335421D01*
X26425496Y-85363992D01*
X26368353Y-85421135D01*
X26339782Y-85506850D01*
X26339782Y-85649707D01*
X24374818Y-86847131D02*
X24374818Y-86475703D01*
X24146247Y-86675703D01*
X24146247Y-86589988D01*
X24117675Y-86532846D01*
X24089104Y-86504274D01*
X24031961Y-86475703D01*
X23889104Y-86475703D01*
X23831961Y-86504274D01*
X23803389Y-86532846D01*
X23774818Y-86589988D01*
X23774818Y-86761417D01*
X23803389Y-86818560D01*
X23831961Y-86847131D01*
X24174818Y-86275703D02*
X23774818Y-86132846D01*
X24174818Y-85989988D01*
X24374818Y-85818560D02*
X24374818Y-85447131D01*
X24146247Y-85647131D01*
X24146247Y-85561417D01*
X24117675Y-85504274D01*
X24089104Y-85475703D01*
X24031961Y-85447131D01*
X23889104Y-85447131D01*
X23831961Y-85475703D01*
X23803389Y-85504274D01*
X23774818Y-85561417D01*
X23774818Y-85732846D01*
X23803389Y-85789988D01*
X23831961Y-85818560D01*
X98882175Y-18775480D02*
X98939317Y-18746908D01*
X99025032Y-18746908D01*
X99110746Y-18775480D01*
X99167889Y-18832622D01*
X99196460Y-18889765D01*
X99225032Y-19004051D01*
X99225032Y-19089765D01*
X99196460Y-19204051D01*
X99167889Y-19261194D01*
X99110746Y-19318337D01*
X99025032Y-19346908D01*
X98967889Y-19346908D01*
X98882175Y-19318337D01*
X98853603Y-19289765D01*
X98853603Y-19089765D01*
X98967889Y-19089765D01*
X98625032Y-19175480D02*
X98339317Y-19175480D01*
X98682175Y-19346908D02*
X98482175Y-18746908D01*
X98282175Y-19346908D01*
X98167889Y-18746908D02*
X97825032Y-18746908D01*
X97996460Y-19346908D02*
X97996460Y-18746908D01*
X97625032Y-19032622D02*
X97425032Y-19032622D01*
X97339317Y-19346908D02*
X97625032Y-19346908D01*
X97625032Y-18746908D01*
X97339317Y-18746908D01*
X34484374Y-26733516D02*
X34512945Y-26790659D01*
X34512945Y-26876373D01*
X34484374Y-26962088D01*
X34427231Y-27019231D01*
X34370088Y-27047802D01*
X34255802Y-27076373D01*
X34170088Y-27076373D01*
X34055802Y-27047802D01*
X33998659Y-27019231D01*
X33941516Y-26962088D01*
X33912945Y-26876373D01*
X33912945Y-26819231D01*
X33941516Y-26733516D01*
X33970088Y-26704945D01*
X34170088Y-26704945D01*
X34170088Y-26819231D01*
X33912945Y-26447802D02*
X34512945Y-26447802D01*
X34512945Y-26219231D01*
X34484374Y-26162088D01*
X34455802Y-26133516D01*
X34398659Y-26104945D01*
X34312945Y-26104945D01*
X34255802Y-26133516D01*
X34227231Y-26162088D01*
X34198659Y-26219231D01*
X34198659Y-26447802D01*
X34455802Y-25876373D02*
X34484374Y-25847802D01*
X34512945Y-25790659D01*
X34512945Y-25647802D01*
X34484374Y-25590659D01*
X34455802Y-25562088D01*
X34398659Y-25533516D01*
X34341516Y-25533516D01*
X34255802Y-25562088D01*
X33912945Y-25904945D01*
X33912945Y-25533516D01*
X34512945Y-25333516D02*
X34512945Y-24933516D01*
X33912945Y-25190659D01*
X59802820Y-91679054D02*
X59831391Y-91736197D01*
X59831391Y-91821912D01*
X59802820Y-91907626D01*
X59745677Y-91964769D01*
X59688534Y-91993340D01*
X59574248Y-92021912D01*
X59488534Y-92021912D01*
X59374248Y-91993340D01*
X59317105Y-91964769D01*
X59259962Y-91907626D01*
X59231391Y-91821912D01*
X59231391Y-91764769D01*
X59259962Y-91679054D01*
X59288534Y-91650483D01*
X59488534Y-91650483D01*
X59488534Y-91764769D01*
X59231391Y-91393340D02*
X59831391Y-91393340D01*
X59231391Y-91050483D01*
X59831391Y-91050483D01*
X59231391Y-90764769D02*
X59831391Y-90764769D01*
X59831391Y-90621912D01*
X59802820Y-90536197D01*
X59745677Y-90479054D01*
X59688534Y-90450483D01*
X59574248Y-90421912D01*
X59488534Y-90421912D01*
X59374248Y-90450483D01*
X59317105Y-90479054D01*
X59259962Y-90536197D01*
X59231391Y-90621912D01*
X59231391Y-90764769D01*
X45619016Y-18206413D02*
X45590444Y-18234984D01*
X45561873Y-18320698D01*
X45561873Y-18377841D01*
X45590444Y-18463555D01*
X45647587Y-18520698D01*
X45704730Y-18549270D01*
X45819016Y-18577841D01*
X45904730Y-18577841D01*
X46019016Y-18549270D01*
X46076159Y-18520698D01*
X46133302Y-18463555D01*
X46161873Y-18377841D01*
X46161873Y-18320698D01*
X46133302Y-18234984D01*
X46104730Y-18206413D01*
X46161873Y-17663555D02*
X46161873Y-17949270D01*
X45876159Y-17977841D01*
X45904730Y-17949270D01*
X45933302Y-17892127D01*
X45933302Y-17749270D01*
X45904730Y-17692127D01*
X45876159Y-17663555D01*
X45819016Y-17634984D01*
X45676159Y-17634984D01*
X45619016Y-17663555D01*
X45590444Y-17692127D01*
X45561873Y-17749270D01*
X45561873Y-17892127D01*
X45590444Y-17949270D01*
X45619016Y-17977841D01*
X69957871Y-18634828D02*
X69957871Y-18177686D01*
X69729300Y-18406257D02*
X70186443Y-18406257D01*
X70272157Y-17920543D02*
X70300729Y-17891971D01*
X70329300Y-17834828D01*
X70329300Y-17691971D01*
X70300729Y-17634828D01*
X70272157Y-17606257D01*
X70215014Y-17577686D01*
X70157871Y-17577686D01*
X70072157Y-17606257D01*
X69729300Y-17949114D01*
X69729300Y-17577686D01*
X70129300Y-17063400D02*
X69729300Y-17063400D01*
X70357871Y-17206257D02*
X69929300Y-17349114D01*
X69929300Y-16977686D01*
X70329300Y-16834828D02*
X69729300Y-16634828D01*
X70329300Y-16434828D01*
X71064203Y-60897557D02*
X71016584Y-60754700D01*
X70968965Y-60707081D01*
X70873727Y-60659462D01*
X70730870Y-60659462D01*
X70635632Y-60707081D01*
X70588013Y-60754700D01*
X70540394Y-60849938D01*
X70540394Y-61230891D01*
X71540394Y-61230891D01*
X71540394Y-60897557D01*
X71492775Y-60802319D01*
X71445155Y-60754700D01*
X71349917Y-60707081D01*
X71254679Y-60707081D01*
X71159441Y-60754700D01*
X71111822Y-60802319D01*
X71064203Y-60897557D01*
X71064203Y-61230891D01*
X71445155Y-60278510D02*
X71492775Y-60230891D01*
X71540394Y-60135653D01*
X71540394Y-59897557D01*
X71492775Y-59802319D01*
X71445155Y-59754700D01*
X71349917Y-59707081D01*
X71254679Y-59707081D01*
X71111822Y-59754700D01*
X70540394Y-60326129D01*
X70540394Y-59707081D01*
X31946632Y-91601134D02*
X31975203Y-91658277D01*
X31975203Y-91743992D01*
X31946632Y-91829706D01*
X31889489Y-91886849D01*
X31832346Y-91915420D01*
X31718060Y-91943992D01*
X31632346Y-91943992D01*
X31518060Y-91915420D01*
X31460917Y-91886849D01*
X31403774Y-91829706D01*
X31375203Y-91743992D01*
X31375203Y-91686849D01*
X31403774Y-91601134D01*
X31432346Y-91572563D01*
X31632346Y-91572563D01*
X31632346Y-91686849D01*
X31375203Y-91315420D02*
X31975203Y-91315420D01*
X31375203Y-90972563D01*
X31975203Y-90972563D01*
X31375203Y-90686849D02*
X31975203Y-90686849D01*
X31975203Y-90543992D01*
X31946632Y-90458277D01*
X31889489Y-90401134D01*
X31832346Y-90372563D01*
X31718060Y-90343992D01*
X31632346Y-90343992D01*
X31518060Y-90372563D01*
X31460917Y-90401134D01*
X31403774Y-90458277D01*
X31375203Y-90543992D01*
X31375203Y-90686849D01*
X102644625Y-82276741D02*
X102187482Y-82276741D01*
X102416054Y-82505312D02*
X102416054Y-82048169D01*
X101958911Y-81905312D02*
X101587482Y-81905312D01*
X101787482Y-82133884D01*
X101701768Y-82133884D01*
X101644625Y-82162455D01*
X101616054Y-82191026D01*
X101587482Y-82248169D01*
X101587482Y-82391026D01*
X101616054Y-82448169D01*
X101644625Y-82476741D01*
X101701768Y-82505312D01*
X101873196Y-82505312D01*
X101930339Y-82476741D01*
X101958911Y-82448169D01*
X101387482Y-82105312D02*
X101244625Y-82505312D01*
X101101768Y-82105312D01*
X100930339Y-81905312D02*
X100558911Y-81905312D01*
X100758911Y-82133884D01*
X100673196Y-82133884D01*
X100616054Y-82162455D01*
X100587482Y-82191026D01*
X100558911Y-82248169D01*
X100558911Y-82391026D01*
X100587482Y-82448169D01*
X100616054Y-82476741D01*
X100673196Y-82505312D01*
X100844625Y-82505312D01*
X100901768Y-82476741D01*
X100930339Y-82448169D01*
X27856175Y-18240904D02*
X27827603Y-18269475D01*
X27799032Y-18355189D01*
X27799032Y-18412332D01*
X27827603Y-18498046D01*
X27884746Y-18555189D01*
X27941889Y-18583761D01*
X28056175Y-18612332D01*
X28141889Y-18612332D01*
X28256175Y-18583761D01*
X28313318Y-18555189D01*
X28370461Y-18498046D01*
X28399032Y-18412332D01*
X28399032Y-18355189D01*
X28370461Y-18269475D01*
X28341889Y-18240904D01*
X28399032Y-18040904D02*
X28399032Y-17640904D01*
X27799032Y-17898046D01*
X98981839Y-92051460D02*
X98981839Y-91594317D01*
X98753268Y-91822889D02*
X99210411Y-91822889D01*
X99353268Y-91365746D02*
X99353268Y-90994317D01*
X99124697Y-91194317D01*
X99124697Y-91108603D01*
X99096125Y-91051460D01*
X99067554Y-91022889D01*
X99010411Y-90994317D01*
X98867554Y-90994317D01*
X98810411Y-91022889D01*
X98781839Y-91051460D01*
X98753268Y-91108603D01*
X98753268Y-91280031D01*
X98781839Y-91337174D01*
X98810411Y-91365746D01*
X99153268Y-90794317D02*
X98753268Y-90651460D01*
X99153268Y-90508603D01*
X99353268Y-90337174D02*
X99353268Y-89965746D01*
X99124697Y-90165746D01*
X99124697Y-90080031D01*
X99096125Y-90022889D01*
X99067554Y-89994317D01*
X99010411Y-89965746D01*
X98867554Y-89965746D01*
X98810411Y-89994317D01*
X98781839Y-90022889D01*
X98753268Y-90080031D01*
X98753268Y-90251460D01*
X98781839Y-90308603D01*
X98810411Y-90337174D01*
X61966080Y-61267227D02*
X61966080Y-60791037D01*
X61680366Y-61362465D02*
X62680366Y-61029132D01*
X61680366Y-60695799D01*
X62585127Y-60410084D02*
X62632747Y-60362465D01*
X62680366Y-60267227D01*
X62680366Y-60029132D01*
X62632747Y-59933894D01*
X62585127Y-59886275D01*
X62489889Y-59838656D01*
X62394651Y-59838656D01*
X62251794Y-59886275D01*
X61680366Y-60457703D01*
X61680366Y-59838656D01*
X19463334Y-27158314D02*
X19463334Y-27920219D01*
X19844286Y-27539266D02*
X19082382Y-27539266D01*
X18939525Y-28348790D02*
X18891906Y-28396409D01*
X18844286Y-28491647D01*
X18844286Y-28729742D01*
X18891906Y-28824980D01*
X18939525Y-28872600D01*
X19034763Y-28920219D01*
X19130001Y-28920219D01*
X19272858Y-28872600D01*
X19844286Y-28301171D01*
X19844286Y-28920219D01*
X19177620Y-29777361D02*
X19844286Y-29777361D01*
X18796667Y-29539266D02*
X19510953Y-29301171D01*
X19510953Y-29920219D01*
X19177620Y-30205933D02*
X19844286Y-30444028D01*
X19177620Y-30682123D01*
X29160634Y-27091014D02*
X29160634Y-26633871D01*
X28932063Y-26862443D02*
X29389206Y-26862443D01*
X29532063Y-26062443D02*
X29532063Y-26348157D01*
X29246349Y-26376728D01*
X29274920Y-26348157D01*
X29303492Y-26291014D01*
X29303492Y-26148157D01*
X29274920Y-26091014D01*
X29246349Y-26062443D01*
X29189206Y-26033871D01*
X29046349Y-26033871D01*
X28989206Y-26062443D01*
X28960634Y-26091014D01*
X28932063Y-26148157D01*
X28932063Y-26291014D01*
X28960634Y-26348157D01*
X28989206Y-26376728D01*
X29532063Y-25862443D02*
X28932063Y-25662443D01*
X29532063Y-25462443D01*
X82224800Y-91857272D02*
X82196229Y-91771558D01*
X82196229Y-91628701D01*
X82224800Y-91571558D01*
X82253372Y-91542987D01*
X82310515Y-91514415D01*
X82367658Y-91514415D01*
X82424800Y-91542987D01*
X82453372Y-91571558D01*
X82481943Y-91628701D01*
X82510515Y-91742987D01*
X82539086Y-91800130D01*
X82567658Y-91828701D01*
X82624800Y-91857272D01*
X82681943Y-91857272D01*
X82739086Y-91828701D01*
X82767658Y-91800130D01*
X82796229Y-91742987D01*
X82796229Y-91600130D01*
X82767658Y-91514415D01*
X82196229Y-91257272D02*
X82796229Y-91257272D01*
X82796229Y-91114415D01*
X82767658Y-91028701D01*
X82710515Y-90971558D01*
X82653372Y-90942987D01*
X82539086Y-90914415D01*
X82453372Y-90914415D01*
X82339086Y-90942987D01*
X82281943Y-90971558D01*
X82224800Y-91028701D01*
X82196229Y-91114415D01*
X82196229Y-91257272D01*
X82796229Y-90371558D02*
X82796229Y-90657272D01*
X82510515Y-90685844D01*
X82539086Y-90657272D01*
X82567658Y-90600130D01*
X82567658Y-90457272D01*
X82539086Y-90400130D01*
X82510515Y-90371558D01*
X82453372Y-90342987D01*
X82310515Y-90342987D01*
X82253372Y-90371558D01*
X82224800Y-90400130D01*
X82196229Y-90457272D01*
X82196229Y-90600130D01*
X82224800Y-90657272D01*
X82253372Y-90685844D01*
X34353837Y-18655909D02*
X34353837Y-18198767D01*
X34125266Y-18427338D02*
X34582409Y-18427338D01*
X34668123Y-17941624D02*
X34696695Y-17913052D01*
X34725266Y-17855909D01*
X34725266Y-17713052D01*
X34696695Y-17655909D01*
X34668123Y-17627338D01*
X34610980Y-17598767D01*
X34553837Y-17598767D01*
X34468123Y-17627338D01*
X34125266Y-17970195D01*
X34125266Y-17598767D01*
X34525266Y-17084481D02*
X34125266Y-17084481D01*
X34753837Y-17227338D02*
X34325266Y-17370195D01*
X34325266Y-16998767D01*
X34725266Y-16855909D02*
X34125266Y-16655909D01*
X34725266Y-16455909D01*
X87562784Y-53138712D02*
X87515165Y-52995855D01*
X87467546Y-52948236D01*
X87372308Y-52900617D01*
X87229451Y-52900617D01*
X87134213Y-52948236D01*
X87086594Y-52995855D01*
X87038975Y-53091093D01*
X87038975Y-53472046D01*
X88038975Y-53472046D01*
X88038975Y-53138712D01*
X87991356Y-53043474D01*
X87943736Y-52995855D01*
X87848498Y-52948236D01*
X87753260Y-52948236D01*
X87658022Y-52995855D01*
X87610403Y-53043474D01*
X87562784Y-53138712D01*
X87562784Y-53472046D01*
X87943736Y-52519665D02*
X87991356Y-52472046D01*
X88038975Y-52376808D01*
X88038975Y-52138712D01*
X87991356Y-52043474D01*
X87943736Y-51995855D01*
X87848498Y-51948236D01*
X87753260Y-51948236D01*
X87610403Y-51995855D01*
X87038975Y-52567284D01*
X87038975Y-51948236D01*
X85008635Y-92051460D02*
X85008635Y-91594317D01*
X84780064Y-91822889D02*
X85237207Y-91822889D01*
X85380064Y-91365746D02*
X85380064Y-90994317D01*
X85151493Y-91194317D01*
X85151493Y-91108603D01*
X85122921Y-91051460D01*
X85094350Y-91022889D01*
X85037207Y-90994317D01*
X84894350Y-90994317D01*
X84837207Y-91022889D01*
X84808635Y-91051460D01*
X84780064Y-91108603D01*
X84780064Y-91280031D01*
X84808635Y-91337174D01*
X84837207Y-91365746D01*
X85180064Y-90794317D02*
X84780064Y-90651460D01*
X85180064Y-90508603D01*
X85380064Y-90337174D02*
X85380064Y-89965746D01*
X85151493Y-90165746D01*
X85151493Y-90080031D01*
X85122921Y-90022889D01*
X85094350Y-89994317D01*
X85037207Y-89965746D01*
X84894350Y-89965746D01*
X84837207Y-89994317D01*
X84808635Y-90022889D01*
X84780064Y-90080031D01*
X84780064Y-90251460D01*
X84808635Y-90308603D01*
X84837207Y-90337174D01*
X59954132Y-26644371D02*
X59982703Y-26701514D01*
X59982703Y-26787228D01*
X59954132Y-26872943D01*
X59896989Y-26930086D01*
X59839846Y-26958657D01*
X59725560Y-26987228D01*
X59639846Y-26987228D01*
X59525560Y-26958657D01*
X59468417Y-26930086D01*
X59411274Y-26872943D01*
X59382703Y-26787228D01*
X59382703Y-26730086D01*
X59411274Y-26644371D01*
X59439846Y-26615800D01*
X59639846Y-26615800D01*
X59639846Y-26730086D01*
X59382703Y-26358657D02*
X59982703Y-26358657D01*
X59982703Y-26130086D01*
X59954132Y-26072943D01*
X59925560Y-26044371D01*
X59868417Y-26015800D01*
X59782703Y-26015800D01*
X59725560Y-26044371D01*
X59696989Y-26072943D01*
X59668417Y-26130086D01*
X59668417Y-26358657D01*
X59382703Y-25444371D02*
X59382703Y-25787228D01*
X59382703Y-25615800D02*
X59982703Y-25615800D01*
X59896989Y-25672943D01*
X59839846Y-25730086D01*
X59811274Y-25787228D01*
X59782703Y-24930086D02*
X59382703Y-24930086D01*
X60011274Y-25072943D02*
X59582703Y-25215800D01*
X59582703Y-24844371D01*
X23919741Y-92001544D02*
X23891170Y-91915830D01*
X23891170Y-91772973D01*
X23919741Y-91715830D01*
X23948313Y-91687259D01*
X24005456Y-91658687D01*
X24062599Y-91658687D01*
X24119741Y-91687259D01*
X24148313Y-91715830D01*
X24176884Y-91772973D01*
X24205456Y-91887259D01*
X24234027Y-91944402D01*
X24262599Y-91972973D01*
X24319741Y-92001544D01*
X24376884Y-92001544D01*
X24434027Y-91972973D01*
X24462599Y-91944402D01*
X24491170Y-91887259D01*
X24491170Y-91744402D01*
X24462599Y-91658687D01*
X23948313Y-91058687D02*
X23919741Y-91087259D01*
X23891170Y-91172973D01*
X23891170Y-91230116D01*
X23919741Y-91315830D01*
X23976884Y-91372973D01*
X24034027Y-91401544D01*
X24148313Y-91430116D01*
X24234027Y-91430116D01*
X24348313Y-91401544D01*
X24405456Y-91372973D01*
X24462599Y-91315830D01*
X24491170Y-91230116D01*
X24491170Y-91172973D01*
X24462599Y-91087259D01*
X24434027Y-91058687D01*
X24491170Y-90687259D02*
X24491170Y-90630116D01*
X24462599Y-90572973D01*
X24434027Y-90544402D01*
X24376884Y-90515830D01*
X24262599Y-90487259D01*
X24119741Y-90487259D01*
X24005456Y-90515830D01*
X23948313Y-90544402D01*
X23919741Y-90572973D01*
X23891170Y-90630116D01*
X23891170Y-90687259D01*
X23919741Y-90744402D01*
X23948313Y-90772973D01*
X24005456Y-90801544D01*
X24119741Y-90830116D01*
X24262599Y-90830116D01*
X24376884Y-90801544D01*
X24434027Y-90772973D01*
X24462599Y-90744402D01*
X24491170Y-90687259D01*
X26401220Y-91899756D02*
X26372649Y-91814042D01*
X26372649Y-91671185D01*
X26401220Y-91614042D01*
X26429792Y-91585471D01*
X26486935Y-91556899D01*
X26544078Y-91556899D01*
X26601220Y-91585471D01*
X26629792Y-91614042D01*
X26658363Y-91671185D01*
X26686935Y-91785471D01*
X26715506Y-91842614D01*
X26744078Y-91871185D01*
X26801220Y-91899756D01*
X26858363Y-91899756D01*
X26915506Y-91871185D01*
X26944078Y-91842614D01*
X26972649Y-91785471D01*
X26972649Y-91642614D01*
X26944078Y-91556899D01*
X26372649Y-91299756D02*
X26972649Y-91299756D01*
X26972649Y-91156899D01*
X26944078Y-91071185D01*
X26886935Y-91014042D01*
X26829792Y-90985471D01*
X26715506Y-90956899D01*
X26629792Y-90956899D01*
X26515506Y-90985471D01*
X26458363Y-91014042D01*
X26401220Y-91071185D01*
X26372649Y-91156899D01*
X26372649Y-91299756D01*
X26972649Y-90585471D02*
X26972649Y-90528328D01*
X26944078Y-90471185D01*
X26915506Y-90442614D01*
X26858363Y-90414042D01*
X26744078Y-90385471D01*
X26601220Y-90385471D01*
X26486935Y-90414042D01*
X26429792Y-90442614D01*
X26401220Y-90471185D01*
X26372649Y-90528328D01*
X26372649Y-90585471D01*
X26401220Y-90642614D01*
X26429792Y-90671185D01*
X26486935Y-90699756D01*
X26601220Y-90728328D01*
X26744078Y-90728328D01*
X26858363Y-90699756D01*
X26915506Y-90671185D01*
X26944078Y-90642614D01*
X26972649Y-90585471D01*
%TO.C,G\u002A\u002A\u002A*%
G36*
X41498212Y-65486248D02*
G01*
X41629068Y-65600998D01*
X41829825Y-65791148D01*
X42073828Y-66031885D01*
X42231262Y-66186611D01*
X42460905Y-66399486D01*
X42635838Y-66545636D01*
X42727161Y-66599937D01*
X42728998Y-66600018D01*
X42829197Y-66658150D01*
X43002311Y-66803513D01*
X43211993Y-67005687D01*
X43220189Y-67014039D01*
X43428756Y-67214557D01*
X43598918Y-67357153D01*
X43694534Y-67411438D01*
X43712434Y-67414887D01*
X43833063Y-67488608D01*
X43987834Y-67620192D01*
X44121333Y-67758921D01*
X44178147Y-67854075D01*
X44160386Y-67881333D01*
X44050381Y-67898936D01*
X43907858Y-67874856D01*
X43812971Y-67817189D01*
X43749339Y-67769064D01*
X43571578Y-67738545D01*
X43366538Y-67762205D01*
X43210431Y-67837477D01*
X43119902Y-67898220D01*
X43065714Y-67837477D01*
X43020140Y-67782191D01*
X42872982Y-67736039D01*
X42785231Y-67724202D01*
X42717444Y-67668601D01*
X42717428Y-67667765D01*
X42651160Y-67586408D01*
X42494875Y-67486014D01*
X42342932Y-67394292D01*
X42060462Y-67159475D01*
X41816829Y-66881487D01*
X41645850Y-66601922D01*
X41581342Y-66362376D01*
X41568203Y-66267994D01*
X41500192Y-66153611D01*
X41459889Y-66073874D01*
X41429546Y-65900925D01*
X41417820Y-65699849D01*
X41428040Y-65533276D01*
X41463534Y-65463834D01*
X41498212Y-65486248D01*
G37*
G36*
X46139577Y-62380593D02*
G01*
X47056054Y-62382245D01*
X47912663Y-62384997D01*
X48696598Y-62388746D01*
X49395057Y-62393391D01*
X49995235Y-62398831D01*
X50484328Y-62404963D01*
X50849533Y-62411686D01*
X51078045Y-62418899D01*
X51157061Y-62426500D01*
X51156626Y-62432866D01*
X51088700Y-62540791D01*
X50956832Y-62652967D01*
X50835710Y-62704729D01*
X50779228Y-62727060D01*
X50692441Y-62846742D01*
X50645876Y-62945004D01*
X50499926Y-63121415D01*
X50340587Y-63191630D01*
X50251947Y-63222061D01*
X50110484Y-63333643D01*
X50007670Y-63429037D01*
X49816940Y-63563443D01*
X49708612Y-63647108D01*
X49575677Y-63827181D01*
X49500615Y-63937138D01*
X49382320Y-64003131D01*
X49284993Y-64033104D01*
X49136682Y-64145144D01*
X49033868Y-64240538D01*
X48843138Y-64374945D01*
X48734810Y-64458609D01*
X48601875Y-64638683D01*
X48527363Y-64748699D01*
X48411271Y-64814633D01*
X48383464Y-64819914D01*
X48242368Y-64904026D01*
X48073355Y-65058084D01*
X48022880Y-65109867D01*
X47863315Y-65246666D01*
X47754224Y-65301534D01*
X47696592Y-65323836D01*
X47608735Y-65443547D01*
X47562170Y-65541809D01*
X47416220Y-65718220D01*
X47256881Y-65788435D01*
X47168241Y-65818867D01*
X47026778Y-65930448D01*
X46923964Y-66025842D01*
X46733234Y-66160248D01*
X46624905Y-66243913D01*
X46491971Y-66423986D01*
X46416909Y-66533943D01*
X46298614Y-66599937D01*
X46201287Y-66629909D01*
X46052976Y-66741949D01*
X45950162Y-66837343D01*
X45759432Y-66971750D01*
X45651104Y-67055415D01*
X45518169Y-67235488D01*
X45460788Y-67347512D01*
X45410369Y-67411438D01*
X45371326Y-67382638D01*
X45246283Y-67264735D01*
X45070799Y-67086838D01*
X44938012Y-66959399D01*
X44755120Y-66817447D01*
X44630835Y-66762237D01*
X44568077Y-66745772D01*
X44502748Y-66634715D01*
X44463048Y-66498690D01*
X44328304Y-66342899D01*
X44161283Y-66275336D01*
X44066009Y-66238893D01*
X43934697Y-66113036D01*
X43830225Y-66011963D01*
X43673331Y-65950735D01*
X43595381Y-65930417D01*
X43528946Y-65823214D01*
X43489246Y-65687188D01*
X43354502Y-65531398D01*
X43187481Y-65463834D01*
X43092207Y-65427392D01*
X42960895Y-65301534D01*
X42856423Y-65200461D01*
X42699530Y-65139234D01*
X42621579Y-65118916D01*
X42555144Y-65011712D01*
X42515444Y-64875686D01*
X42380700Y-64719896D01*
X42213679Y-64652333D01*
X42118405Y-64615890D01*
X41987093Y-64490032D01*
X41882621Y-64388960D01*
X41725728Y-64327732D01*
X41647777Y-64307414D01*
X41581342Y-64200210D01*
X41541642Y-64064185D01*
X41406898Y-63908395D01*
X41239877Y-63840831D01*
X41144603Y-63804389D01*
X41013291Y-63678531D01*
X40915030Y-63576348D01*
X40786704Y-63516231D01*
X40657460Y-63474448D01*
X40509435Y-63332635D01*
X40445240Y-63156851D01*
X40422235Y-63088005D01*
X40300854Y-63029330D01*
X40185317Y-62993783D01*
X40039489Y-62867029D01*
X39941229Y-62764846D01*
X39812902Y-62704729D01*
X39806239Y-62704505D01*
X39669919Y-62648510D01*
X39533478Y-62535601D01*
X39471438Y-62426500D01*
X39529966Y-62419950D01*
X39738177Y-62412676D01*
X40084885Y-62405877D01*
X40557287Y-62399656D01*
X41142579Y-62394112D01*
X41827956Y-62389349D01*
X42600616Y-62385467D01*
X43447754Y-62382569D01*
X44356566Y-62380755D01*
X45314249Y-62380128D01*
X46139577Y-62380593D01*
G37*
G36*
X66350008Y-62395861D02*
G01*
X66413291Y-62461278D01*
X66398635Y-62499393D01*
X66289019Y-62542429D01*
X66214862Y-62564292D01*
X66112064Y-62684441D01*
X66051847Y-62794424D01*
X65911735Y-62957698D01*
X65819602Y-63061096D01*
X65764090Y-63186657D01*
X65749504Y-63255219D01*
X65626129Y-63415111D01*
X65419201Y-63538512D01*
X65343328Y-63583806D01*
X65277189Y-63698644D01*
X65240660Y-63792004D01*
X65114888Y-63921981D01*
X65012705Y-64020242D01*
X64952588Y-64148568D01*
X64906353Y-64281135D01*
X64776702Y-64425587D01*
X64631237Y-64490032D01*
X64574860Y-64512338D01*
X64488409Y-64632045D01*
X64479631Y-64652147D01*
X64371352Y-64811046D01*
X64206930Y-64989204D01*
X64169814Y-65025677D01*
X64033804Y-65191200D01*
X63978786Y-65314849D01*
X63939895Y-65401647D01*
X63802836Y-65505454D01*
X63684502Y-65581910D01*
X63539098Y-65746717D01*
X63464767Y-65860707D01*
X63309297Y-66040261D01*
X63222290Y-66145273D01*
X63167284Y-66285899D01*
X63128441Y-66374358D01*
X62991334Y-66479256D01*
X62873001Y-66555712D01*
X62727596Y-66720519D01*
X62653265Y-66834509D01*
X62497796Y-67014063D01*
X62410788Y-67119075D01*
X62355783Y-67259701D01*
X62316940Y-67348159D01*
X62179833Y-67453058D01*
X62061499Y-67529513D01*
X61916095Y-67694321D01*
X61841764Y-67808311D01*
X61686294Y-67987865D01*
X61599287Y-68092877D01*
X61544281Y-68233503D01*
X61505438Y-68321961D01*
X61368331Y-68426860D01*
X61249998Y-68503315D01*
X61104593Y-68668123D01*
X61030262Y-68782113D01*
X60874792Y-68961667D01*
X60787199Y-69064262D01*
X60732780Y-69191769D01*
X60718195Y-69260331D01*
X60594819Y-69420223D01*
X60387892Y-69543624D01*
X60312018Y-69588918D01*
X60245879Y-69703756D01*
X60209350Y-69797115D01*
X60083578Y-69927093D01*
X59981395Y-70025354D01*
X59921278Y-70153680D01*
X59910453Y-70217604D01*
X59790741Y-70387591D01*
X59576390Y-70517426D01*
X59500516Y-70562720D01*
X59434377Y-70677558D01*
X59397849Y-70770917D01*
X59272077Y-70900895D01*
X59169893Y-70999155D01*
X59109776Y-71127482D01*
X59098951Y-71191406D01*
X58979240Y-71361393D01*
X58764888Y-71491227D01*
X58689015Y-71536522D01*
X58622876Y-71651360D01*
X58586347Y-71744719D01*
X58460575Y-71874697D01*
X58358392Y-71972957D01*
X58298275Y-72101283D01*
X58287449Y-72165208D01*
X58167738Y-72335195D01*
X57953387Y-72465029D01*
X57877513Y-72510324D01*
X57811374Y-72625162D01*
X57774846Y-72718521D01*
X57649074Y-72848499D01*
X57546890Y-72946759D01*
X57486773Y-73075085D01*
X57484840Y-73101132D01*
X57380917Y-73277392D01*
X57123594Y-73462548D01*
X57027493Y-73533621D01*
X56883570Y-73704856D01*
X56809478Y-73816386D01*
X56654984Y-73992977D01*
X56567977Y-74097989D01*
X56512971Y-74238615D01*
X56474128Y-74327073D01*
X56337021Y-74431972D01*
X56218688Y-74508427D01*
X56073283Y-74673234D01*
X55998952Y-74787224D01*
X55843483Y-74966778D01*
X55756475Y-75071791D01*
X55701470Y-75212417D01*
X55662627Y-75300875D01*
X55525520Y-75405773D01*
X55407186Y-75482229D01*
X55261782Y-75647036D01*
X55187450Y-75761026D01*
X55031981Y-75940580D01*
X54944388Y-76043175D01*
X54889968Y-76170683D01*
X54875383Y-76239245D01*
X54752008Y-76399136D01*
X54545080Y-76522537D01*
X54469206Y-76567832D01*
X54403067Y-76682670D01*
X54366539Y-76776029D01*
X54240767Y-76906007D01*
X54138584Y-77004267D01*
X54078467Y-77132593D01*
X54067641Y-77196518D01*
X53947930Y-77366505D01*
X53733578Y-77496339D01*
X53657705Y-77541634D01*
X53591566Y-77656472D01*
X53555037Y-77749831D01*
X53429265Y-77879809D01*
X53327082Y-77978069D01*
X53266965Y-78106395D01*
X53256140Y-78170320D01*
X53136428Y-78340307D01*
X52922077Y-78470141D01*
X52846203Y-78515436D01*
X52780064Y-78630274D01*
X52743536Y-78723633D01*
X52617764Y-78853611D01*
X52515580Y-78951871D01*
X52455463Y-79080197D01*
X52444638Y-79144122D01*
X52324927Y-79314109D01*
X52110575Y-79443943D01*
X52034701Y-79489238D01*
X51968562Y-79604076D01*
X51932034Y-79697435D01*
X51806262Y-79827413D01*
X51704079Y-79925673D01*
X51643962Y-80053999D01*
X51597727Y-80186567D01*
X51468076Y-80331018D01*
X51322611Y-80395464D01*
X51266049Y-80417747D01*
X51178704Y-80537263D01*
X51090001Y-80686400D01*
X50941489Y-80861863D01*
X50908579Y-80893583D01*
X50815051Y-80962536D01*
X50693059Y-81006659D01*
X50509149Y-81031414D01*
X50229871Y-81042263D01*
X49821772Y-81044665D01*
X48884856Y-81044665D01*
X48884856Y-82168190D01*
X48883751Y-82534602D01*
X48877177Y-82880908D01*
X48861423Y-83115866D01*
X48832837Y-83268070D01*
X48787766Y-83366115D01*
X48722556Y-83438595D01*
X48615276Y-83558598D01*
X48560256Y-83676708D01*
X48523323Y-83761104D01*
X48397955Y-83884921D01*
X48295772Y-83983181D01*
X48235655Y-84111507D01*
X48224830Y-84175431D01*
X48105118Y-84345419D01*
X47890767Y-84475253D01*
X47814893Y-84520548D01*
X47748754Y-84635386D01*
X47712226Y-84728745D01*
X47586454Y-84858723D01*
X47484270Y-84956983D01*
X47424153Y-85085309D01*
X47413328Y-85149233D01*
X47293617Y-85319220D01*
X47079265Y-85449055D01*
X47003392Y-85494350D01*
X46937253Y-85609188D01*
X46900724Y-85702547D01*
X46774952Y-85832524D01*
X46672769Y-85930785D01*
X46612652Y-86059111D01*
X46601826Y-86123035D01*
X46482115Y-86293022D01*
X46267764Y-86422857D01*
X46191890Y-86468152D01*
X46125751Y-86582989D01*
X46089223Y-86676349D01*
X45963451Y-86806326D01*
X45861173Y-86904054D01*
X45801150Y-87030016D01*
X45801052Y-87033631D01*
X45745514Y-87165955D01*
X45618562Y-87331739D01*
X45459684Y-87481250D01*
X45349907Y-87523509D01*
X45314249Y-87428188D01*
X45314008Y-87424191D01*
X45254112Y-87309787D01*
X45109072Y-87123332D01*
X44908499Y-86903140D01*
X44892444Y-86886590D01*
X44695501Y-86671639D01*
X44555825Y-86497669D01*
X44502748Y-86400980D01*
X44496332Y-86380851D01*
X44408453Y-86258236D01*
X44239092Y-86066982D01*
X44015847Y-85838947D01*
X43937407Y-85761018D01*
X43728910Y-85540775D01*
X43583544Y-85367224D01*
X43528946Y-85272518D01*
X43528869Y-85270685D01*
X43470804Y-85169310D01*
X43325430Y-84995299D01*
X43123195Y-84785220D01*
X43115236Y-84777410D01*
X42914536Y-84568066D01*
X42771791Y-84396191D01*
X42717444Y-84298320D01*
X42717401Y-84296968D01*
X42660291Y-84196520D01*
X42515684Y-84023233D01*
X42314121Y-83813796D01*
X41910799Y-83418873D01*
X41888083Y-82333207D01*
X41865368Y-81247540D01*
X40911853Y-81224678D01*
X40493795Y-81209766D01*
X40186495Y-81185255D01*
X40012922Y-81150133D01*
X39958339Y-81102512D01*
X39927535Y-81027709D01*
X39809656Y-80861315D01*
X39633738Y-80658597D01*
X39495109Y-80503578D01*
X39360990Y-80331638D01*
X39309138Y-80232598D01*
X39309045Y-80230763D01*
X39250745Y-80133489D01*
X39105412Y-79962606D01*
X38903387Y-79753911D01*
X38895304Y-79745979D01*
X38694662Y-79536879D01*
X38551963Y-79365545D01*
X38497636Y-79268384D01*
X38490904Y-79247094D01*
X38402608Y-79122031D01*
X38233428Y-78928232D01*
X38010735Y-78697772D01*
X37929954Y-78616534D01*
X37722572Y-78395287D01*
X37578078Y-78221892D01*
X37523834Y-78128347D01*
X37523752Y-78126509D01*
X37465606Y-78026545D01*
X37320246Y-77853610D01*
X37118083Y-77644006D01*
X37110124Y-77636196D01*
X36909425Y-77426852D01*
X36766679Y-77254977D01*
X36712332Y-77157105D01*
X36712255Y-77155272D01*
X36654179Y-77054086D01*
X36508807Y-76880220D01*
X36306582Y-76670205D01*
X36298622Y-76662394D01*
X36097923Y-76453050D01*
X35955178Y-76281175D01*
X35900831Y-76183304D01*
X35900753Y-76181470D01*
X35842678Y-76080284D01*
X35697305Y-75906418D01*
X35495080Y-75696403D01*
X35487267Y-75688735D01*
X35286500Y-75479103D01*
X35143699Y-75306591D01*
X35089329Y-75207880D01*
X35082986Y-75186995D01*
X34995205Y-75062031D01*
X34825803Y-74869028D01*
X34602428Y-74640225D01*
X34523989Y-74562296D01*
X34315492Y-74342053D01*
X34170125Y-74168502D01*
X34115527Y-74073796D01*
X34115450Y-74071963D01*
X34057386Y-73970588D01*
X33912012Y-73796577D01*
X33709776Y-73586498D01*
X33701817Y-73578688D01*
X33501118Y-73369344D01*
X33358373Y-73197469D01*
X33304026Y-73099597D01*
X33303948Y-73097764D01*
X33245873Y-72996578D01*
X33100500Y-72822712D01*
X32898275Y-72612697D01*
X32890192Y-72604765D01*
X32689550Y-72395665D01*
X32546852Y-72224331D01*
X32492524Y-72127170D01*
X32485792Y-72105880D01*
X32397496Y-71980817D01*
X32228316Y-71787018D01*
X32005623Y-71556558D01*
X31924842Y-71475320D01*
X31717460Y-71254073D01*
X31572967Y-71080678D01*
X31518722Y-70987132D01*
X31518640Y-70985295D01*
X31460494Y-70885331D01*
X31315134Y-70712395D01*
X31112971Y-70502792D01*
X31105012Y-70494982D01*
X30904313Y-70285637D01*
X30761568Y-70113763D01*
X30707221Y-70015891D01*
X30707143Y-70014058D01*
X30649068Y-69912872D01*
X30503695Y-69739006D01*
X30301470Y-69528990D01*
X30293511Y-69521180D01*
X30092811Y-69311836D01*
X29950066Y-69139961D01*
X29895719Y-69042089D01*
X29895641Y-69040256D01*
X29837566Y-68939070D01*
X29692194Y-68765204D01*
X29489968Y-68555189D01*
X29482155Y-68547521D01*
X29281388Y-68337889D01*
X29138587Y-68165377D01*
X29084217Y-68066665D01*
X29077874Y-68045781D01*
X28990094Y-67920816D01*
X28820691Y-67727814D01*
X28597316Y-67499011D01*
X28518877Y-67421082D01*
X28310380Y-67200839D01*
X28165013Y-67027288D01*
X28110415Y-66932582D01*
X28110339Y-66930749D01*
X28052274Y-66829374D01*
X27906900Y-66655363D01*
X27704665Y-66445284D01*
X27696705Y-66437474D01*
X27496006Y-66228129D01*
X27353261Y-66056255D01*
X27298914Y-65958383D01*
X27298836Y-65956550D01*
X27240761Y-65855364D01*
X27095388Y-65681498D01*
X26893163Y-65471482D01*
X26885204Y-65463672D01*
X26684504Y-65254328D01*
X26541759Y-65082453D01*
X26487412Y-64984582D01*
X26487335Y-64982748D01*
X26429259Y-64881562D01*
X26283887Y-64707696D01*
X26081661Y-64497681D01*
X26073848Y-64490013D01*
X25873081Y-64280381D01*
X25730281Y-64107869D01*
X25675911Y-64009157D01*
X25671516Y-63992269D01*
X25589938Y-63870661D01*
X25426581Y-63679400D01*
X25209297Y-63451758D01*
X25045954Y-63284261D01*
X24773742Y-62977603D01*
X24600537Y-62738399D01*
X24539808Y-62584105D01*
X24557955Y-62557478D01*
X24668348Y-62541581D01*
X24810750Y-62566503D01*
X24904984Y-62623579D01*
X24955860Y-62666899D01*
X25110181Y-62704729D01*
X25141458Y-62707190D01*
X25330810Y-62762269D01*
X25554185Y-62867029D01*
X25606663Y-62895183D01*
X25829418Y-62990745D01*
X25998190Y-63029330D01*
X26088754Y-63041945D01*
X26203387Y-63110480D01*
X26276909Y-63160998D01*
X26446837Y-63191630D01*
X26578145Y-63209388D01*
X26690288Y-63272780D01*
X26741164Y-63316101D01*
X26895484Y-63353930D01*
X26926761Y-63356392D01*
X27116114Y-63411471D01*
X27339489Y-63516231D01*
X27391966Y-63544385D01*
X27614722Y-63639946D01*
X27783494Y-63678531D01*
X27874058Y-63691146D01*
X27988690Y-63759681D01*
X28062212Y-63810199D01*
X28232141Y-63840831D01*
X28363449Y-63858590D01*
X28475591Y-63921981D01*
X28549113Y-63972499D01*
X28719042Y-64003131D01*
X28850350Y-64020890D01*
X28962492Y-64084282D01*
X29013368Y-64127602D01*
X29167688Y-64165432D01*
X29198966Y-64167893D01*
X29388318Y-64222972D01*
X29611693Y-64327732D01*
X29664171Y-64355886D01*
X29886926Y-64451448D01*
X30055698Y-64490032D01*
X30146262Y-64502648D01*
X30260895Y-64571183D01*
X30334417Y-64621701D01*
X30504345Y-64652333D01*
X30635653Y-64670091D01*
X30747796Y-64733483D01*
X30798672Y-64776804D01*
X30952992Y-64814633D01*
X30984269Y-64817094D01*
X31173622Y-64872174D01*
X31396997Y-64976933D01*
X31449474Y-65005088D01*
X31672230Y-65100649D01*
X31841002Y-65139234D01*
X31931566Y-65151849D01*
X32046198Y-65220384D01*
X32119720Y-65270902D01*
X32289649Y-65301534D01*
X32420957Y-65319293D01*
X32533099Y-65382684D01*
X32583975Y-65426005D01*
X32738296Y-65463834D01*
X32769573Y-65466296D01*
X32958925Y-65521375D01*
X33182300Y-65626135D01*
X33234778Y-65654289D01*
X33457533Y-65749850D01*
X33626305Y-65788435D01*
X33716869Y-65801050D01*
X33831502Y-65869585D01*
X33905024Y-65920103D01*
X34074952Y-65950735D01*
X34206260Y-65968494D01*
X34318403Y-66031885D01*
X34391925Y-66082404D01*
X34561853Y-66113036D01*
X34693161Y-66130794D01*
X34805304Y-66194186D01*
X34856180Y-66237506D01*
X35010500Y-66275336D01*
X35041777Y-66277797D01*
X35231130Y-66332876D01*
X35454505Y-66437636D01*
X35506982Y-66465790D01*
X35729738Y-66561352D01*
X35898510Y-66599937D01*
X35989074Y-66612552D01*
X36103706Y-66681087D01*
X36177228Y-66731605D01*
X36347157Y-66762237D01*
X36478465Y-66779995D01*
X36590607Y-66843387D01*
X36641483Y-66886708D01*
X36795804Y-66924537D01*
X36827081Y-66926999D01*
X37016433Y-66982078D01*
X37239808Y-67086838D01*
X37292286Y-67114992D01*
X37515041Y-67210553D01*
X37683813Y-67249138D01*
X37774377Y-67261753D01*
X37889010Y-67330288D01*
X37962532Y-67380806D01*
X38132460Y-67411438D01*
X38263768Y-67429197D01*
X38375911Y-67492588D01*
X38426787Y-67535909D01*
X38581107Y-67573739D01*
X38612384Y-67576200D01*
X38801737Y-67631279D01*
X39025112Y-67736039D01*
X39077589Y-67764193D01*
X39300345Y-67859755D01*
X39469117Y-67898339D01*
X39559681Y-67910955D01*
X39674313Y-67979489D01*
X39713484Y-68017417D01*
X39859267Y-68060639D01*
X39931681Y-68072411D01*
X40134191Y-68138452D01*
X40380520Y-68243227D01*
X40429679Y-68266783D01*
X40641595Y-68387241D01*
X40742260Y-68501831D01*
X40768407Y-68648978D01*
X40768903Y-68674517D01*
X40808827Y-68829057D01*
X40932141Y-68872141D01*
X41029462Y-68894795D01*
X41094441Y-69016527D01*
X41129987Y-69132063D01*
X41256741Y-69277892D01*
X41357814Y-69382364D01*
X41419042Y-69539257D01*
X41431729Y-69616536D01*
X41500192Y-69683643D01*
X41539780Y-69700184D01*
X41581342Y-69812965D01*
X41611662Y-69895932D01*
X41743642Y-69984730D01*
X41863529Y-70064979D01*
X41905943Y-70261158D01*
X41906936Y-70307713D01*
X41947605Y-70454992D01*
X42068243Y-70495144D01*
X42165564Y-70517798D01*
X42230543Y-70639530D01*
X42266089Y-70755067D01*
X42392844Y-70900895D01*
X42493916Y-71005367D01*
X42555144Y-71162260D01*
X42567832Y-71239540D01*
X42636294Y-71306646D01*
X42675882Y-71323187D01*
X42717444Y-71435968D01*
X42747764Y-71518936D01*
X42879745Y-71607733D01*
X42999631Y-71687982D01*
X43042045Y-71884162D01*
X43043038Y-71930716D01*
X43083707Y-72077996D01*
X43204345Y-72118147D01*
X43301667Y-72140801D01*
X43366646Y-72262533D01*
X43402192Y-72378070D01*
X43528946Y-72523898D01*
X43630019Y-72628370D01*
X43691246Y-72785263D01*
X43702422Y-72862441D01*
X43762932Y-72929649D01*
X43812828Y-72960395D01*
X43877060Y-73091949D01*
X43925846Y-73186123D01*
X44048825Y-73254250D01*
X44145130Y-73309168D01*
X44178147Y-73497700D01*
X44179821Y-73560544D01*
X44221649Y-73702893D01*
X44340447Y-73741151D01*
X44437769Y-73763804D01*
X44502748Y-73885536D01*
X44538294Y-74001073D01*
X44665048Y-74146901D01*
X44766121Y-74251373D01*
X44827348Y-74408267D01*
X44838524Y-74485444D01*
X44899034Y-74552652D01*
X44948930Y-74583398D01*
X45013162Y-74714953D01*
X45061948Y-74809126D01*
X45184927Y-74877253D01*
X45260245Y-74904836D01*
X45314249Y-75039553D01*
X45315960Y-75084600D01*
X45358943Y-75190902D01*
X45446932Y-75154193D01*
X45562707Y-74978691D01*
X45572154Y-74960778D01*
X45717684Y-74743833D01*
X45901021Y-74531659D01*
X45938467Y-74492674D01*
X46071838Y-74319142D01*
X46125751Y-74187458D01*
X46160178Y-74092070D01*
X46288051Y-73965768D01*
X46388151Y-73880630D01*
X46450352Y-73758812D01*
X46494391Y-73639405D01*
X46612652Y-73479005D01*
X46723496Y-73331167D01*
X46774952Y-73198373D01*
X46780361Y-73156726D01*
X46842390Y-73091949D01*
X46843204Y-73091934D01*
X46924097Y-73025512D01*
X47023410Y-72868786D01*
X47032857Y-72850874D01*
X47178387Y-72633929D01*
X47361724Y-72421755D01*
X47399170Y-72382770D01*
X47532540Y-72209238D01*
X47586454Y-72077554D01*
X47620881Y-71982166D01*
X47748754Y-71855864D01*
X47847758Y-71764197D01*
X47911054Y-71611726D01*
X47921357Y-71536114D01*
X47978492Y-71468946D01*
X47979306Y-71468930D01*
X48060199Y-71402509D01*
X48159512Y-71245783D01*
X48168960Y-71227870D01*
X48314489Y-71010926D01*
X48497826Y-70798752D01*
X48535272Y-70759767D01*
X48668643Y-70586234D01*
X48722556Y-70454551D01*
X48756983Y-70359163D01*
X48884856Y-70232861D01*
X48983860Y-70141194D01*
X49047157Y-69988723D01*
X49057459Y-69913110D01*
X49114594Y-69845943D01*
X49115409Y-69845927D01*
X49196302Y-69779506D01*
X49295615Y-69622780D01*
X49305062Y-69604867D01*
X49450592Y-69387923D01*
X49633928Y-69175748D01*
X49671374Y-69136763D01*
X49804745Y-68963231D01*
X49858658Y-68831548D01*
X49893085Y-68736160D01*
X50020959Y-68609858D01*
X50120646Y-68521765D01*
X50183892Y-68386007D01*
X50210807Y-68316407D01*
X50348883Y-68196372D01*
X50552468Y-68100087D01*
X50762699Y-68060639D01*
X50838568Y-68050123D01*
X50954185Y-67979489D01*
X51005062Y-67936169D01*
X51159382Y-67898339D01*
X51190659Y-67895878D01*
X51380011Y-67840799D01*
X51603387Y-67736039D01*
X51655864Y-67707885D01*
X51878620Y-67612323D01*
X52047392Y-67573739D01*
X52137955Y-67561123D01*
X52252588Y-67492588D01*
X52326110Y-67442070D01*
X52496038Y-67411438D01*
X52627346Y-67393680D01*
X52739489Y-67330288D01*
X52790365Y-67286967D01*
X52944685Y-67249138D01*
X52975963Y-67246677D01*
X53165315Y-67191597D01*
X53388690Y-67086838D01*
X53441168Y-67058683D01*
X53663923Y-66963122D01*
X53832695Y-66924537D01*
X53923259Y-66911922D01*
X54037892Y-66843387D01*
X54111414Y-66792869D01*
X54281342Y-66762237D01*
X54412650Y-66744478D01*
X54524792Y-66681087D01*
X54575669Y-66637766D01*
X54729989Y-66599937D01*
X54761266Y-66597475D01*
X54950618Y-66542396D01*
X55173994Y-66437636D01*
X55226471Y-66409482D01*
X55449227Y-66313921D01*
X55617999Y-66275336D01*
X55708562Y-66262721D01*
X55823195Y-66194186D01*
X55874071Y-66150865D01*
X56028391Y-66113036D01*
X56059669Y-66110574D01*
X56249021Y-66055495D01*
X56472396Y-65950735D01*
X56524874Y-65922581D01*
X56747629Y-65827020D01*
X56916401Y-65788435D01*
X57006965Y-65775820D01*
X57121598Y-65707285D01*
X57195120Y-65656767D01*
X57365048Y-65626135D01*
X57496356Y-65608376D01*
X57608499Y-65544985D01*
X57659375Y-65501664D01*
X57813695Y-65463834D01*
X57844972Y-65461373D01*
X58034324Y-65406294D01*
X58257700Y-65301534D01*
X58310177Y-65273380D01*
X58532933Y-65177818D01*
X58701705Y-65139234D01*
X58792268Y-65126618D01*
X58906901Y-65058084D01*
X58980423Y-65007565D01*
X59150352Y-64976933D01*
X59281659Y-64959175D01*
X59393802Y-64895783D01*
X59444678Y-64852463D01*
X59598998Y-64814633D01*
X59630276Y-64812172D01*
X59819628Y-64757093D01*
X60043003Y-64652333D01*
X60095481Y-64624179D01*
X60318236Y-64528617D01*
X60487008Y-64490032D01*
X60577572Y-64477417D01*
X60692205Y-64408882D01*
X60743081Y-64365562D01*
X60897401Y-64327732D01*
X60928678Y-64325271D01*
X61118031Y-64270192D01*
X61341406Y-64165432D01*
X61393883Y-64137278D01*
X61616639Y-64041716D01*
X61785411Y-64003131D01*
X61875974Y-63990516D01*
X61990607Y-63921981D01*
X62064129Y-63871463D01*
X62234058Y-63840831D01*
X62365365Y-63823073D01*
X62477508Y-63759681D01*
X62528384Y-63716360D01*
X62682704Y-63678531D01*
X62713982Y-63676069D01*
X62903334Y-63620990D01*
X63126709Y-63516231D01*
X63179187Y-63488076D01*
X63401942Y-63392515D01*
X63570714Y-63353930D01*
X63661278Y-63341315D01*
X63775911Y-63272780D01*
X63826787Y-63229459D01*
X63981107Y-63191630D01*
X64012384Y-63189169D01*
X64201737Y-63134089D01*
X64425112Y-63029330D01*
X64477589Y-63001175D01*
X64700345Y-62905614D01*
X64869117Y-62867029D01*
X64959681Y-62854414D01*
X65074313Y-62785879D01*
X65147835Y-62735361D01*
X65317764Y-62704729D01*
X65449072Y-62686970D01*
X65561214Y-62623579D01*
X65634736Y-62573061D01*
X65804665Y-62542429D01*
X65935973Y-62524670D01*
X66048115Y-62461278D01*
X66082533Y-62426647D01*
X66213223Y-62384317D01*
X66350008Y-62395861D01*
G37*
G36*
X49348534Y-65475046D02*
G01*
X49372166Y-65577221D01*
X49345724Y-65726631D01*
X49277816Y-65849916D01*
X49226449Y-65936702D01*
X49284561Y-66065175D01*
X49317458Y-66111459D01*
X49325553Y-66221052D01*
X49216201Y-66367942D01*
X49098246Y-66521334D01*
X49047157Y-66643236D01*
X49006466Y-66742042D01*
X48884856Y-66883962D01*
X48776941Y-67000027D01*
X48722556Y-67103103D01*
X48722328Y-67108863D01*
X48652786Y-67240257D01*
X48498340Y-67393530D01*
X48316051Y-67520688D01*
X48162983Y-67573739D01*
X48065834Y-67587252D01*
X47951630Y-67654889D01*
X47899315Y-67698775D01*
X47743965Y-67736039D01*
X47654207Y-67750602D01*
X47586454Y-67817189D01*
X47576553Y-67874634D01*
X47506472Y-67885927D01*
X47341902Y-67797669D01*
X47185336Y-67737634D01*
X47019504Y-67797669D01*
X47008948Y-67804129D01*
X46825854Y-67881153D01*
X46675220Y-67892212D01*
X46612652Y-67832539D01*
X46650454Y-67765543D01*
X46780245Y-67620998D01*
X46963620Y-67443434D01*
X47159726Y-67270272D01*
X47327713Y-67138933D01*
X47426727Y-67086838D01*
X47428558Y-67086741D01*
X47524878Y-67028386D01*
X47695033Y-66883063D01*
X47903406Y-66681087D01*
X47911217Y-66673128D01*
X48120561Y-66472428D01*
X48292436Y-66329683D01*
X48390307Y-66275336D01*
X48392141Y-66275258D01*
X48493326Y-66217183D01*
X48667193Y-66071811D01*
X48877208Y-65869585D01*
X48888619Y-65857952D01*
X49090564Y-65658955D01*
X49246369Y-65517604D01*
X49323133Y-65463834D01*
X49348534Y-65475046D01*
G37*
%TD*%
M02*
