%TF.GenerationSoftware,KiCad,Pcbnew,(6.0.4-0)*%
%TF.CreationDate,2022-08-23T13:15:34-05:00*%
%TF.ProjectId,owl-brd,6f776c2d-6272-4642-9e6b-696361645f70,v1.0*%
%TF.SameCoordinates,Original*%
%TF.FileFunction,Legend,Top*%
%TF.FilePolarity,Positive*%
%FSLAX46Y46*%
G04 Gerber Fmt 4.6, Leading zero omitted, Abs format (unit mm)*
G04 Created by KiCad (PCBNEW (6.0.4-0)) date 2022-08-23 13:15:34*
%MOMM*%
%LPD*%
G01*
G04 APERTURE LIST*
%ADD10C,0.150000*%
%ADD11C,0.120000*%
%ADD12C,0.127000*%
G04 APERTURE END LIST*
D10*
X94980476Y-38504761D02*
X94980476Y-38552380D01*
X95028095Y-38409523D02*
X95028095Y-38552380D01*
X95075714Y-38314285D02*
X95075714Y-38552380D01*
X95123333Y-38219047D02*
X95123333Y-38552380D01*
X95170952Y-38171428D02*
X95170952Y-38552380D01*
X95218571Y-38076190D02*
X95218571Y-38552380D01*
X95266190Y-37980952D02*
X95266190Y-38552380D01*
X95313809Y-37885714D02*
X95313809Y-38552380D01*
X95361428Y-37790476D02*
X95361428Y-38552380D01*
X95409047Y-37885714D02*
X95409047Y-38552380D01*
X95456666Y-37980952D02*
X95456666Y-38552380D01*
X95504285Y-38076190D02*
X95504285Y-38552380D01*
X95551904Y-38171428D02*
X95551904Y-38552380D01*
X95599523Y-38219047D02*
X95599523Y-38552380D01*
X95647142Y-38314285D02*
X95647142Y-38552380D01*
X95694761Y-38409523D02*
X95694761Y-38552380D01*
X95742380Y-38552380D02*
X95361428Y-37838095D01*
X94980476Y-38552380D01*
X95742380Y-38504761D02*
X95742380Y-38552380D01*
X95361428Y-37790476D02*
X95790000Y-38552380D01*
X94932857Y-38552380D01*
X95361428Y-37790476D01*
X96075714Y-37552380D02*
X96647142Y-37552380D01*
X96361428Y-38552380D02*
X96361428Y-37552380D01*
X96980476Y-38552380D02*
X96980476Y-37552380D01*
X96980476Y-38028571D02*
X97551904Y-38028571D01*
X97551904Y-38552380D02*
X97551904Y-37552380D01*
X98028095Y-38028571D02*
X98361428Y-38028571D01*
X98504285Y-38552380D02*
X98028095Y-38552380D01*
X98028095Y-37552380D01*
X98504285Y-37552380D01*
X99504285Y-38552380D02*
X99170952Y-38076190D01*
X98932857Y-38552380D02*
X98932857Y-37552380D01*
X99313809Y-37552380D01*
X99409047Y-37600000D01*
X99456666Y-37647619D01*
X99504285Y-37742857D01*
X99504285Y-37885714D01*
X99456666Y-37980952D01*
X99409047Y-38028571D01*
X99313809Y-38076190D01*
X98932857Y-38076190D01*
X99932857Y-38552380D02*
X99932857Y-37552380D01*
X100266190Y-38266666D01*
X100599523Y-37552380D01*
X100599523Y-38552380D01*
X85971428Y-14978095D02*
X85971428Y-14930476D01*
X85923809Y-15073333D02*
X85923809Y-14930476D01*
X85876190Y-15168571D02*
X85876190Y-14930476D01*
X85828571Y-15263809D02*
X85828571Y-14930476D01*
X85780952Y-15311428D02*
X85780952Y-14930476D01*
X85733333Y-15406666D02*
X85733333Y-14930476D01*
X85685714Y-15501904D02*
X85685714Y-14930476D01*
X85638095Y-15597142D02*
X85638095Y-14930476D01*
X85590476Y-15692380D02*
X85590476Y-14930476D01*
X85542857Y-15597142D02*
X85542857Y-14930476D01*
X85495238Y-15501904D02*
X85495238Y-14930476D01*
X85447619Y-15406666D02*
X85447619Y-14930476D01*
X85400000Y-15311428D02*
X85400000Y-14930476D01*
X85352380Y-15263809D02*
X85352380Y-14930476D01*
X85304761Y-15168571D02*
X85304761Y-14930476D01*
X85257142Y-15073333D02*
X85257142Y-14930476D01*
X85209523Y-14930476D02*
X85590476Y-15644761D01*
X85971428Y-14930476D01*
X85209523Y-14978095D02*
X85209523Y-14930476D01*
X85590476Y-15692380D02*
X85161904Y-14930476D01*
X86019047Y-14930476D01*
X85590476Y-15692380D01*
X87019047Y-15597142D02*
X86971428Y-15644761D01*
X86828571Y-15692380D01*
X86733333Y-15692380D01*
X86590476Y-15644761D01*
X86495238Y-15549523D01*
X86447619Y-15454285D01*
X86400000Y-15263809D01*
X86400000Y-15120952D01*
X86447619Y-14930476D01*
X86495238Y-14835238D01*
X86590476Y-14740000D01*
X86733333Y-14692380D01*
X86828571Y-14692380D01*
X86971428Y-14740000D01*
X87019047Y-14787619D01*
X87923809Y-15692380D02*
X87447619Y-15692380D01*
X87447619Y-14692380D01*
X88257142Y-14692380D02*
X88257142Y-15501904D01*
X88304761Y-15597142D01*
X88352380Y-15644761D01*
X88447619Y-15692380D01*
X88638095Y-15692380D01*
X88733333Y-15644761D01*
X88780952Y-15597142D01*
X88828571Y-15501904D01*
X88828571Y-14692380D01*
X89161904Y-14692380D02*
X89733333Y-14692380D01*
X89447619Y-15692380D02*
X89447619Y-14692380D01*
X90638095Y-15597142D02*
X90590476Y-15644761D01*
X90447619Y-15692380D01*
X90352380Y-15692380D01*
X90209523Y-15644761D01*
X90114285Y-15549523D01*
X90066666Y-15454285D01*
X90019047Y-15263809D01*
X90019047Y-15120952D01*
X90066666Y-14930476D01*
X90114285Y-14835238D01*
X90209523Y-14740000D01*
X90352380Y-14692380D01*
X90447619Y-14692380D01*
X90590476Y-14740000D01*
X90638095Y-14787619D01*
X91066666Y-15692380D02*
X91066666Y-14692380D01*
X91066666Y-15168571D02*
X91638095Y-15168571D01*
X91638095Y-15692380D02*
X91638095Y-14692380D01*
X92304761Y-14692380D02*
X92400000Y-14692380D01*
X92495238Y-14740000D01*
X92542857Y-14787619D01*
X92590476Y-14882857D01*
X92638095Y-15073333D01*
X92638095Y-15311428D01*
X92590476Y-15501904D01*
X92542857Y-15597142D01*
X92495238Y-15644761D01*
X92400000Y-15692380D01*
X92304761Y-15692380D01*
X92209523Y-15644761D01*
X92161904Y-15597142D01*
X92114285Y-15501904D01*
X92066666Y-15311428D01*
X92066666Y-15073333D01*
X92114285Y-14882857D01*
X92161904Y-14787619D01*
X92209523Y-14740000D01*
X92304761Y-14692380D01*
X25437132Y-98809452D02*
X25437132Y-98857071D01*
X25484751Y-98714214D02*
X25484751Y-98857071D01*
X25532370Y-98618976D02*
X25532370Y-98857071D01*
X25579989Y-98523738D02*
X25579989Y-98857071D01*
X25627608Y-98476119D02*
X25627608Y-98857071D01*
X25675227Y-98380881D02*
X25675227Y-98857071D01*
X25722846Y-98285643D02*
X25722846Y-98857071D01*
X25770465Y-98190405D02*
X25770465Y-98857071D01*
X25818084Y-98095167D02*
X25818084Y-98857071D01*
X25865703Y-98190405D02*
X25865703Y-98857071D01*
X25913322Y-98285643D02*
X25913322Y-98857071D01*
X25960941Y-98380881D02*
X25960941Y-98857071D01*
X26008560Y-98476119D02*
X26008560Y-98857071D01*
X26056179Y-98523738D02*
X26056179Y-98857071D01*
X26103798Y-98618976D02*
X26103798Y-98857071D01*
X26151417Y-98714214D02*
X26151417Y-98857071D01*
X26199036Y-98857071D02*
X25818084Y-98142786D01*
X25437132Y-98857071D01*
X26199036Y-98809452D02*
X26199036Y-98857071D01*
X25818084Y-98095167D02*
X26246655Y-98857071D01*
X25389513Y-98857071D01*
X25818084Y-98095167D01*
X26675227Y-98857071D02*
X26675227Y-97857071D01*
X26913322Y-97857071D01*
X27056179Y-97904691D01*
X27151417Y-97999929D01*
X27199036Y-98095167D01*
X27246655Y-98285643D01*
X27246655Y-98428500D01*
X27199036Y-98618976D01*
X27151417Y-98714214D01*
X27056179Y-98809452D01*
X26913322Y-98857071D01*
X26675227Y-98857071D01*
X27675227Y-98857071D02*
X27675227Y-97857071D01*
X28103798Y-98809452D02*
X28246655Y-98857071D01*
X28484751Y-98857071D01*
X28579989Y-98809452D01*
X28627608Y-98761833D01*
X28675227Y-98666595D01*
X28675227Y-98571357D01*
X28627608Y-98476119D01*
X28579989Y-98428500D01*
X28484751Y-98380881D01*
X28294274Y-98333262D01*
X28199036Y-98285643D01*
X28151417Y-98238024D01*
X28103798Y-98142786D01*
X28103798Y-98047548D01*
X28151417Y-97952310D01*
X28199036Y-97904691D01*
X28294274Y-97857071D01*
X28532370Y-97857071D01*
X28675227Y-97904691D01*
X28960941Y-97857071D02*
X29532370Y-97857071D01*
X29246655Y-98857071D02*
X29246655Y-97857071D01*
X30056179Y-97857071D02*
X30151417Y-97857071D01*
X30246655Y-97904691D01*
X30294274Y-97952310D01*
X30341893Y-98047548D01*
X30389513Y-98238024D01*
X30389513Y-98476119D01*
X30341893Y-98666595D01*
X30294274Y-98761833D01*
X30246655Y-98809452D01*
X30151417Y-98857071D01*
X30056179Y-98857071D01*
X29960941Y-98809452D01*
X29913322Y-98761833D01*
X29865703Y-98666595D01*
X29818084Y-98476119D01*
X29818084Y-98238024D01*
X29865703Y-98047548D01*
X29913322Y-97952310D01*
X29960941Y-97904691D01*
X30056179Y-97857071D01*
X87618077Y-58824761D02*
X87618077Y-58872380D01*
X87665696Y-58729523D02*
X87665696Y-58872380D01*
X87713315Y-58634285D02*
X87713315Y-58872380D01*
X87760934Y-58539047D02*
X87760934Y-58872380D01*
X87808553Y-58491428D02*
X87808553Y-58872380D01*
X87856172Y-58396190D02*
X87856172Y-58872380D01*
X87903791Y-58300952D02*
X87903791Y-58872380D01*
X87951410Y-58205714D02*
X87951410Y-58872380D01*
X87999029Y-58110476D02*
X87999029Y-58872380D01*
X88046648Y-58205714D02*
X88046648Y-58872380D01*
X88094267Y-58300952D02*
X88094267Y-58872380D01*
X88141886Y-58396190D02*
X88141886Y-58872380D01*
X88189505Y-58491428D02*
X88189505Y-58872380D01*
X88237124Y-58539047D02*
X88237124Y-58872380D01*
X88284743Y-58634285D02*
X88284743Y-58872380D01*
X88332363Y-58729523D02*
X88332363Y-58872380D01*
X88379982Y-58872380D02*
X87999029Y-58158095D01*
X87618077Y-58872380D01*
X88379982Y-58824761D02*
X88379982Y-58872380D01*
X87999029Y-58110476D02*
X88427601Y-58872380D01*
X87570458Y-58872380D01*
X87999029Y-58110476D01*
X89427601Y-58872380D02*
X89094267Y-58396190D01*
X88856172Y-58872380D02*
X88856172Y-57872380D01*
X89237124Y-57872380D01*
X89332363Y-57920000D01*
X89379982Y-57967619D01*
X89427601Y-58062857D01*
X89427601Y-58205714D01*
X89379982Y-58300952D01*
X89332363Y-58348571D01*
X89237124Y-58396190D01*
X88856172Y-58396190D01*
X90237124Y-58824761D02*
X90141886Y-58872380D01*
X89951410Y-58872380D01*
X89856172Y-58824761D01*
X89808553Y-58729523D01*
X89808553Y-58348571D01*
X89856172Y-58253333D01*
X89951410Y-58205714D01*
X90141886Y-58205714D01*
X90237124Y-58253333D01*
X90284743Y-58348571D01*
X90284743Y-58443809D01*
X89808553Y-58539047D01*
X90618077Y-58205714D02*
X90808553Y-58872380D01*
X90999029Y-58396190D01*
X91189505Y-58872380D01*
X91379982Y-58205714D01*
X91760934Y-58872380D02*
X91760934Y-58205714D01*
X91760934Y-57872380D02*
X91713315Y-57920000D01*
X91760934Y-57967619D01*
X91808553Y-57920000D01*
X91760934Y-57872380D01*
X91760934Y-57967619D01*
X92237124Y-58205714D02*
X92237124Y-58872380D01*
X92237124Y-58300952D02*
X92284743Y-58253333D01*
X92379982Y-58205714D01*
X92522839Y-58205714D01*
X92618077Y-58253333D01*
X92665696Y-58348571D01*
X92665696Y-58872380D01*
X93570458Y-58872380D02*
X93570458Y-57872380D01*
X93570458Y-58824761D02*
X93475220Y-58872380D01*
X93284743Y-58872380D01*
X93189505Y-58824761D01*
X93141886Y-58777142D01*
X93094267Y-58681904D01*
X93094267Y-58396190D01*
X93141886Y-58300952D01*
X93189505Y-58253333D01*
X93284743Y-58205714D01*
X93475220Y-58205714D01*
X93570458Y-58253333D01*
X94427601Y-58824761D02*
X94332363Y-58872380D01*
X94141886Y-58872380D01*
X94046648Y-58824761D01*
X93999029Y-58729523D01*
X93999029Y-58348571D01*
X94046648Y-58253333D01*
X94141886Y-58205714D01*
X94332363Y-58205714D01*
X94427601Y-58253333D01*
X94475220Y-58348571D01*
X94475220Y-58443809D01*
X93999029Y-58539047D01*
X94903791Y-58872380D02*
X94903791Y-58205714D01*
X94903791Y-58396190D02*
X94951410Y-58300952D01*
X94999029Y-58253333D01*
X95094267Y-58205714D01*
X95189505Y-58205714D01*
X41375409Y-23539688D02*
X41375409Y-23492069D01*
X41327790Y-23634926D02*
X41327790Y-23492069D01*
X41280171Y-23730164D02*
X41280171Y-23492069D01*
X41232552Y-23825402D02*
X41232552Y-23492069D01*
X41184933Y-23873021D02*
X41184933Y-23492069D01*
X41137314Y-23968259D02*
X41137314Y-23492069D01*
X41089695Y-24063497D02*
X41089695Y-23492069D01*
X41042076Y-24158735D02*
X41042076Y-23492069D01*
X40994457Y-24253973D02*
X40994457Y-23492069D01*
X40946838Y-24158735D02*
X40946838Y-23492069D01*
X40899218Y-24063497D02*
X40899218Y-23492069D01*
X40851599Y-23968259D02*
X40851599Y-23492069D01*
X40803980Y-23873021D02*
X40803980Y-23492069D01*
X40756361Y-23825402D02*
X40756361Y-23492069D01*
X40708742Y-23730164D02*
X40708742Y-23492069D01*
X40661123Y-23634926D02*
X40661123Y-23492069D01*
X40613504Y-23492069D02*
X40994457Y-24206354D01*
X41375409Y-23492069D01*
X40613504Y-23539688D02*
X40613504Y-23492069D01*
X40994457Y-24253973D02*
X40565885Y-23492069D01*
X41423028Y-23492069D01*
X40994457Y-24253973D01*
X41851599Y-23730164D02*
X42184933Y-23730164D01*
X42327790Y-24253973D02*
X41851599Y-24253973D01*
X41851599Y-23253973D01*
X42327790Y-23253973D01*
X42756361Y-24253973D02*
X42756361Y-23253973D01*
X43327790Y-24253973D01*
X43327790Y-23253973D01*
X44375409Y-24158735D02*
X44327790Y-24206354D01*
X44184933Y-24253973D01*
X44089695Y-24253973D01*
X43946838Y-24206354D01*
X43851599Y-24111116D01*
X43803980Y-24015878D01*
X43756361Y-23825402D01*
X43756361Y-23682545D01*
X43803980Y-23492069D01*
X43851599Y-23396831D01*
X43946838Y-23301593D01*
X44089695Y-23253973D01*
X44184933Y-23253973D01*
X44327790Y-23301593D01*
X44375409Y-23349212D01*
X44994457Y-23253973D02*
X45184933Y-23253973D01*
X45280171Y-23301593D01*
X45375409Y-23396831D01*
X45423028Y-23587307D01*
X45423028Y-23920640D01*
X45375409Y-24111116D01*
X45280171Y-24206354D01*
X45184933Y-24253973D01*
X44994457Y-24253973D01*
X44899218Y-24206354D01*
X44803980Y-24111116D01*
X44756361Y-23920640D01*
X44756361Y-23587307D01*
X44803980Y-23396831D01*
X44899218Y-23301593D01*
X44994457Y-23253973D01*
X45851599Y-24253973D02*
X45851599Y-23253973D01*
X46089695Y-23253973D01*
X46232552Y-23301593D01*
X46327790Y-23396831D01*
X46375409Y-23492069D01*
X46423028Y-23682545D01*
X46423028Y-23825402D01*
X46375409Y-24015878D01*
X46327790Y-24111116D01*
X46232552Y-24206354D01*
X46089695Y-24253973D01*
X45851599Y-24253973D01*
X46851599Y-23730164D02*
X47184933Y-23730164D01*
X47327790Y-24253973D02*
X46851599Y-24253973D01*
X46851599Y-23253973D01*
X47327790Y-23253973D01*
X48327790Y-24253973D02*
X47994457Y-23777783D01*
X47756361Y-24253973D02*
X47756361Y-23253973D01*
X48137314Y-23253973D01*
X48232552Y-23301593D01*
X48280171Y-23349212D01*
X48327790Y-23444450D01*
X48327790Y-23587307D01*
X48280171Y-23682545D01*
X48232552Y-23730164D01*
X48137314Y-23777783D01*
X47756361Y-23777783D01*
X71547600Y-66690574D02*
X71547600Y-66738193D01*
X71595219Y-66595336D02*
X71595219Y-66738193D01*
X71642838Y-66500098D02*
X71642838Y-66738193D01*
X71690457Y-66404860D02*
X71690457Y-66738193D01*
X71738076Y-66357241D02*
X71738076Y-66738193D01*
X71785695Y-66262003D02*
X71785695Y-66738193D01*
X71833314Y-66166765D02*
X71833314Y-66738193D01*
X71880933Y-66071527D02*
X71880933Y-66738193D01*
X71928552Y-65976289D02*
X71928552Y-66738193D01*
X71976171Y-66071527D02*
X71976171Y-66738193D01*
X72023790Y-66166765D02*
X72023790Y-66738193D01*
X72071409Y-66262003D02*
X72071409Y-66738193D01*
X72119028Y-66357241D02*
X72119028Y-66738193D01*
X72166647Y-66404860D02*
X72166647Y-66738193D01*
X72214266Y-66500098D02*
X72214266Y-66738193D01*
X72261885Y-66595336D02*
X72261885Y-66738193D01*
X72309504Y-66738193D02*
X71928552Y-66023908D01*
X71547600Y-66738193D01*
X72309504Y-66690574D02*
X72309504Y-66738193D01*
X71928552Y-65976289D02*
X72357123Y-66738193D01*
X71499981Y-66738193D01*
X71928552Y-65976289D01*
X72738076Y-66690574D02*
X72880933Y-66738193D01*
X73119028Y-66738193D01*
X73214266Y-66690574D01*
X73261885Y-66642955D01*
X73309504Y-66547717D01*
X73309504Y-66452479D01*
X73261885Y-66357241D01*
X73214266Y-66309622D01*
X73119028Y-66262003D01*
X72928552Y-66214384D01*
X72833314Y-66166765D01*
X72785695Y-66119146D01*
X72738076Y-66023908D01*
X72738076Y-65928670D01*
X72785695Y-65833432D01*
X72833314Y-65785813D01*
X72928552Y-65738193D01*
X73166647Y-65738193D01*
X73309504Y-65785813D01*
X74119028Y-66690574D02*
X74023790Y-66738193D01*
X73833314Y-66738193D01*
X73738076Y-66690574D01*
X73690457Y-66595336D01*
X73690457Y-66214384D01*
X73738076Y-66119146D01*
X73833314Y-66071527D01*
X74023790Y-66071527D01*
X74119028Y-66119146D01*
X74166647Y-66214384D01*
X74166647Y-66309622D01*
X73690457Y-66404860D01*
X74738076Y-66738193D02*
X74642838Y-66690574D01*
X74595219Y-66595336D01*
X74595219Y-65738193D01*
X75499981Y-66690574D02*
X75404742Y-66738193D01*
X75214266Y-66738193D01*
X75119028Y-66690574D01*
X75071409Y-66595336D01*
X75071409Y-66214384D01*
X75119028Y-66119146D01*
X75214266Y-66071527D01*
X75404742Y-66071527D01*
X75499981Y-66119146D01*
X75547600Y-66214384D01*
X75547600Y-66309622D01*
X75071409Y-66404860D01*
X76404742Y-66690574D02*
X76309504Y-66738193D01*
X76119028Y-66738193D01*
X76023790Y-66690574D01*
X75976171Y-66642955D01*
X75928552Y-66547717D01*
X75928552Y-66262003D01*
X75976171Y-66166765D01*
X76023790Y-66119146D01*
X76119028Y-66071527D01*
X76309504Y-66071527D01*
X76404742Y-66119146D01*
X76690457Y-66071527D02*
X77071409Y-66071527D01*
X76833314Y-65738193D02*
X76833314Y-66595336D01*
X76880933Y-66690574D01*
X76976171Y-66738193D01*
X77071409Y-66738193D01*
X77547600Y-66738193D02*
X77452361Y-66690574D01*
X77404742Y-66642955D01*
X77357123Y-66547717D01*
X77357123Y-66262003D01*
X77404742Y-66166765D01*
X77452361Y-66119146D01*
X77547600Y-66071527D01*
X77690457Y-66071527D01*
X77785695Y-66119146D01*
X77833314Y-66166765D01*
X77880933Y-66262003D01*
X77880933Y-66547717D01*
X77833314Y-66642955D01*
X77785695Y-66690574D01*
X77690457Y-66738193D01*
X77547600Y-66738193D01*
X78309504Y-66738193D02*
X78309504Y-66071527D01*
X78309504Y-66262003D02*
X78357123Y-66166765D01*
X78404742Y-66119146D01*
X78499981Y-66071527D01*
X78595219Y-66071527D01*
X32631428Y-14978095D02*
X32631428Y-14930476D01*
X32583809Y-15073333D02*
X32583809Y-14930476D01*
X32536190Y-15168571D02*
X32536190Y-14930476D01*
X32488571Y-15263809D02*
X32488571Y-14930476D01*
X32440952Y-15311428D02*
X32440952Y-14930476D01*
X32393333Y-15406666D02*
X32393333Y-14930476D01*
X32345714Y-15501904D02*
X32345714Y-14930476D01*
X32298095Y-15597142D02*
X32298095Y-14930476D01*
X32250476Y-15692380D02*
X32250476Y-14930476D01*
X32202857Y-15597142D02*
X32202857Y-14930476D01*
X32155238Y-15501904D02*
X32155238Y-14930476D01*
X32107619Y-15406666D02*
X32107619Y-14930476D01*
X32060000Y-15311428D02*
X32060000Y-14930476D01*
X32012380Y-15263809D02*
X32012380Y-14930476D01*
X31964761Y-15168571D02*
X31964761Y-14930476D01*
X31917142Y-15073333D02*
X31917142Y-14930476D01*
X31869523Y-14930476D02*
X32250476Y-15644761D01*
X32631428Y-14930476D01*
X31869523Y-14978095D02*
X31869523Y-14930476D01*
X32250476Y-15692380D02*
X31821904Y-14930476D01*
X32679047Y-14930476D01*
X32250476Y-15692380D01*
X33679047Y-15597142D02*
X33631428Y-15644761D01*
X33488571Y-15692380D01*
X33393333Y-15692380D01*
X33250476Y-15644761D01*
X33155238Y-15549523D01*
X33107619Y-15454285D01*
X33060000Y-15263809D01*
X33060000Y-15120952D01*
X33107619Y-14930476D01*
X33155238Y-14835238D01*
X33250476Y-14740000D01*
X33393333Y-14692380D01*
X33488571Y-14692380D01*
X33631428Y-14740000D01*
X33679047Y-14787619D01*
X34583809Y-15692380D02*
X34107619Y-15692380D01*
X34107619Y-14692380D01*
X34917142Y-14692380D02*
X34917142Y-15501904D01*
X34964761Y-15597142D01*
X35012380Y-15644761D01*
X35107619Y-15692380D01*
X35298095Y-15692380D01*
X35393333Y-15644761D01*
X35440952Y-15597142D01*
X35488571Y-15501904D01*
X35488571Y-14692380D01*
X35821904Y-14692380D02*
X36393333Y-14692380D01*
X36107619Y-15692380D02*
X36107619Y-14692380D01*
X37298095Y-15597142D02*
X37250476Y-15644761D01*
X37107619Y-15692380D01*
X37012380Y-15692380D01*
X36869523Y-15644761D01*
X36774285Y-15549523D01*
X36726666Y-15454285D01*
X36679047Y-15263809D01*
X36679047Y-15120952D01*
X36726666Y-14930476D01*
X36774285Y-14835238D01*
X36869523Y-14740000D01*
X37012380Y-14692380D01*
X37107619Y-14692380D01*
X37250476Y-14740000D01*
X37298095Y-14787619D01*
X37726666Y-15692380D02*
X37726666Y-14692380D01*
X37726666Y-15168571D02*
X38298095Y-15168571D01*
X38298095Y-15692380D02*
X38298095Y-14692380D01*
X39202857Y-14692380D02*
X39012380Y-14692380D01*
X38917142Y-14740000D01*
X38869523Y-14787619D01*
X38774285Y-14930476D01*
X38726666Y-15120952D01*
X38726666Y-15501904D01*
X38774285Y-15597142D01*
X38821904Y-15644761D01*
X38917142Y-15692380D01*
X39107619Y-15692380D01*
X39202857Y-15644761D01*
X39250476Y-15597142D01*
X39298095Y-15501904D01*
X39298095Y-15263809D01*
X39250476Y-15168571D01*
X39202857Y-15120952D01*
X39107619Y-15073333D01*
X38917142Y-15073333D01*
X38821904Y-15120952D01*
X38774285Y-15168571D01*
X38726666Y-15263809D01*
X13263433Y-20441001D02*
X14025338Y-20441001D01*
X90566666Y-85955238D02*
X90566666Y-85907619D01*
X90519047Y-86050476D02*
X90519047Y-85907619D01*
X90471428Y-86145714D02*
X90471428Y-85907619D01*
X90423809Y-86240952D02*
X90423809Y-85907619D01*
X90376190Y-86288571D02*
X90376190Y-85907619D01*
X90328571Y-86383809D02*
X90328571Y-85907619D01*
X90280952Y-86479047D02*
X90280952Y-85907619D01*
X90233333Y-86574285D02*
X90233333Y-85907619D01*
X90185714Y-86669523D02*
X90185714Y-85907619D01*
X90138095Y-86574285D02*
X90138095Y-85907619D01*
X90090476Y-86479047D02*
X90090476Y-85907619D01*
X90042857Y-86383809D02*
X90042857Y-85907619D01*
X89995238Y-86288571D02*
X89995238Y-85907619D01*
X89947619Y-86240952D02*
X89947619Y-85907619D01*
X89900000Y-86145714D02*
X89900000Y-85907619D01*
X89852380Y-86050476D02*
X89852380Y-85907619D01*
X89804761Y-85907619D02*
X90185714Y-86621904D01*
X90566666Y-85907619D01*
X89804761Y-85955238D02*
X89804761Y-85907619D01*
X90185714Y-86669523D02*
X89757142Y-85907619D01*
X90614285Y-85907619D01*
X90185714Y-86669523D01*
X89471428Y-86907619D02*
X88900000Y-86907619D01*
X89185714Y-85907619D02*
X89185714Y-86907619D01*
X88423809Y-85907619D02*
X88519047Y-85955238D01*
X88566666Y-86002857D01*
X88614285Y-86098095D01*
X88614285Y-86383809D01*
X88566666Y-86479047D01*
X88519047Y-86526666D01*
X88423809Y-86574285D01*
X88280952Y-86574285D01*
X88185714Y-86526666D01*
X88138095Y-86479047D01*
X88090476Y-86383809D01*
X88090476Y-86098095D01*
X88138095Y-86002857D01*
X88185714Y-85955238D01*
X88280952Y-85907619D01*
X88423809Y-85907619D01*
X87661904Y-86574285D02*
X87661904Y-85574285D01*
X87661904Y-86526666D02*
X87566666Y-86574285D01*
X87376190Y-86574285D01*
X87280952Y-86526666D01*
X87233333Y-86479047D01*
X87185714Y-86383809D01*
X87185714Y-86098095D01*
X87233333Y-86002857D01*
X87280952Y-85955238D01*
X87376190Y-85907619D01*
X87566666Y-85907619D01*
X87661904Y-85955238D01*
X39360561Y-98804144D02*
X39360561Y-98851763D01*
X39408180Y-98708906D02*
X39408180Y-98851763D01*
X39455799Y-98613668D02*
X39455799Y-98851763D01*
X39503418Y-98518430D02*
X39503418Y-98851763D01*
X39551037Y-98470811D02*
X39551037Y-98851763D01*
X39598656Y-98375573D02*
X39598656Y-98851763D01*
X39646275Y-98280335D02*
X39646275Y-98851763D01*
X39693894Y-98185097D02*
X39693894Y-98851763D01*
X39741513Y-98089859D02*
X39741513Y-98851763D01*
X39789132Y-98185097D02*
X39789132Y-98851763D01*
X39836751Y-98280335D02*
X39836751Y-98851763D01*
X39884370Y-98375573D02*
X39884370Y-98851763D01*
X39931989Y-98470811D02*
X39931989Y-98851763D01*
X39979608Y-98518430D02*
X39979608Y-98851763D01*
X40027227Y-98613668D02*
X40027227Y-98851763D01*
X40074846Y-98708906D02*
X40074846Y-98851763D01*
X40122465Y-98851763D02*
X39741513Y-98137478D01*
X39360561Y-98851763D01*
X40122465Y-98804144D02*
X40122465Y-98851763D01*
X39741513Y-98089859D02*
X40170084Y-98851763D01*
X39312942Y-98851763D01*
X39741513Y-98089859D01*
X40598656Y-98851763D02*
X40598656Y-97851763D01*
X40836751Y-97851763D01*
X40979608Y-97899383D01*
X41074846Y-97994621D01*
X41122465Y-98089859D01*
X41170084Y-98280335D01*
X41170084Y-98423192D01*
X41122465Y-98613668D01*
X41074846Y-98708906D01*
X40979608Y-98804144D01*
X40836751Y-98851763D01*
X40598656Y-98851763D01*
X41598656Y-98851763D02*
X41598656Y-97851763D01*
X42027227Y-98804144D02*
X42170084Y-98851763D01*
X42408180Y-98851763D01*
X42503418Y-98804144D01*
X42551037Y-98756525D01*
X42598656Y-98661287D01*
X42598656Y-98566049D01*
X42551037Y-98470811D01*
X42503418Y-98423192D01*
X42408180Y-98375573D01*
X42217703Y-98327954D01*
X42122465Y-98280335D01*
X42074846Y-98232716D01*
X42027227Y-98137478D01*
X42027227Y-98042240D01*
X42074846Y-97947002D01*
X42122465Y-97899383D01*
X42217703Y-97851763D01*
X42455799Y-97851763D01*
X42598656Y-97899383D01*
X42884370Y-97851763D02*
X43455799Y-97851763D01*
X43170084Y-98851763D02*
X43170084Y-97851763D01*
X44312942Y-98851763D02*
X43741513Y-98851763D01*
X44027227Y-98851763D02*
X44027227Y-97851763D01*
X43931989Y-97994621D01*
X43836751Y-98089859D01*
X43741513Y-98137478D01*
X21336190Y-24058571D02*
X21669523Y-24058571D01*
X21812380Y-24582380D02*
X21336190Y-24582380D01*
X21336190Y-23582380D01*
X21812380Y-23582380D01*
X22145714Y-24582380D02*
X22669523Y-23915714D01*
X22145714Y-23915714D02*
X22669523Y-24582380D01*
X22907619Y-23915714D02*
X23288571Y-23915714D01*
X23050476Y-23582380D02*
X23050476Y-24439523D01*
X23098095Y-24534761D01*
X23193333Y-24582380D01*
X23288571Y-24582380D01*
X24383809Y-23868095D02*
X24383809Y-23820476D01*
X24336190Y-23963333D02*
X24336190Y-23820476D01*
X24288571Y-24058571D02*
X24288571Y-23820476D01*
X24240952Y-24153809D02*
X24240952Y-23820476D01*
X24193333Y-24201428D02*
X24193333Y-23820476D01*
X24145714Y-24296666D02*
X24145714Y-23820476D01*
X24098095Y-24391904D02*
X24098095Y-23820476D01*
X24050476Y-24487142D02*
X24050476Y-23820476D01*
X24002857Y-24582380D02*
X24002857Y-23820476D01*
X23955238Y-24487142D02*
X23955238Y-23820476D01*
X23907619Y-24391904D02*
X23907619Y-23820476D01*
X23860000Y-24296666D02*
X23860000Y-23820476D01*
X23812380Y-24201428D02*
X23812380Y-23820476D01*
X23764761Y-24153809D02*
X23764761Y-23820476D01*
X23717142Y-24058571D02*
X23717142Y-23820476D01*
X23669523Y-23963333D02*
X23669523Y-23820476D01*
X23621904Y-23820476D02*
X24002857Y-24534761D01*
X24383809Y-23820476D01*
X23621904Y-23868095D02*
X23621904Y-23820476D01*
X24002857Y-24582380D02*
X23574285Y-23820476D01*
X24431428Y-23820476D01*
X24002857Y-24582380D01*
X94093332Y-69566479D02*
X94426665Y-70042669D01*
X94664761Y-69566479D02*
X94664761Y-70566479D01*
X94283808Y-70566479D01*
X94188570Y-70518860D01*
X94140951Y-70471240D01*
X94093332Y-70376002D01*
X94093332Y-70233145D01*
X94140951Y-70137907D01*
X94188570Y-70090288D01*
X94283808Y-70042669D01*
X94664761Y-70042669D01*
X93283808Y-69614098D02*
X93379046Y-69566479D01*
X93569523Y-69566479D01*
X93664761Y-69614098D01*
X93712380Y-69709336D01*
X93712380Y-70090288D01*
X93664761Y-70185526D01*
X93569523Y-70233145D01*
X93379046Y-70233145D01*
X93283808Y-70185526D01*
X93236189Y-70090288D01*
X93236189Y-69995050D01*
X93712380Y-69899812D01*
X92902856Y-70233145D02*
X92712380Y-69566479D01*
X92521903Y-70042669D01*
X92331427Y-69566479D01*
X92140951Y-70233145D01*
X91759999Y-69566479D02*
X91759999Y-70233145D01*
X91759999Y-70566479D02*
X91807618Y-70518860D01*
X91759999Y-70471240D01*
X91712380Y-70518860D01*
X91759999Y-70566479D01*
X91759999Y-70471240D01*
X91283808Y-70233145D02*
X91283808Y-69566479D01*
X91283808Y-70137907D02*
X91236189Y-70185526D01*
X91140951Y-70233145D01*
X90998094Y-70233145D01*
X90902856Y-70185526D01*
X90855237Y-70090288D01*
X90855237Y-69566479D01*
X89950475Y-69566479D02*
X89950475Y-70566479D01*
X89950475Y-69614098D02*
X90045713Y-69566479D01*
X90236189Y-69566479D01*
X90331427Y-69614098D01*
X90379046Y-69661717D01*
X90426665Y-69756955D01*
X90426665Y-70042669D01*
X90379046Y-70137907D01*
X90331427Y-70185526D01*
X90236189Y-70233145D01*
X90045713Y-70233145D01*
X89950475Y-70185526D01*
X89093332Y-69614098D02*
X89188570Y-69566479D01*
X89379046Y-69566479D01*
X89474284Y-69614098D01*
X89521903Y-69709336D01*
X89521903Y-70090288D01*
X89474284Y-70185526D01*
X89379046Y-70233145D01*
X89188570Y-70233145D01*
X89093332Y-70185526D01*
X89045713Y-70090288D01*
X89045713Y-69995050D01*
X89521903Y-69899812D01*
X88617142Y-69566479D02*
X88617142Y-70233145D01*
X88617142Y-70042669D02*
X88569523Y-70137907D01*
X88521903Y-70185526D01*
X88426665Y-70233145D01*
X88331427Y-70233145D01*
X93498094Y-67956479D02*
X93498094Y-68956479D01*
X93259999Y-68956479D01*
X93117142Y-68908860D01*
X93021903Y-68813621D01*
X92974284Y-68718383D01*
X92926665Y-68527907D01*
X92926665Y-68385050D01*
X92974284Y-68194574D01*
X93021903Y-68099336D01*
X93117142Y-68004098D01*
X93259999Y-67956479D01*
X93498094Y-67956479D01*
X92498094Y-67956479D02*
X92498094Y-68623145D01*
X92498094Y-68432669D02*
X92450475Y-68527907D01*
X92402856Y-68575526D01*
X92307618Y-68623145D01*
X92212380Y-68623145D01*
X91879046Y-67956479D02*
X91879046Y-68623145D01*
X91879046Y-68956479D02*
X91926665Y-68908860D01*
X91879046Y-68861240D01*
X91831427Y-68908860D01*
X91879046Y-68956479D01*
X91879046Y-68861240D01*
X91498094Y-68623145D02*
X91259999Y-67956479D01*
X91021903Y-68623145D01*
X90259999Y-68004098D02*
X90355237Y-67956479D01*
X90545713Y-67956479D01*
X90640951Y-68004098D01*
X90688570Y-68099336D01*
X90688570Y-68480288D01*
X90640951Y-68575526D01*
X90545713Y-68623145D01*
X90355237Y-68623145D01*
X90259999Y-68575526D01*
X90212380Y-68480288D01*
X90212380Y-68385050D01*
X90688570Y-68289812D01*
X89783808Y-67956479D02*
X89783808Y-68623145D01*
X89783808Y-68432669D02*
X89736189Y-68527907D01*
X89688570Y-68575526D01*
X89593332Y-68623145D01*
X89498094Y-68623145D01*
X69706688Y-51717891D02*
X69706688Y-51755986D01*
X69744783Y-51641701D02*
X69744783Y-51755986D01*
X69782878Y-51565510D02*
X69782878Y-51755986D01*
X69820974Y-51489320D02*
X69820974Y-51755986D01*
X69859069Y-51451224D02*
X69859069Y-51755986D01*
X69897164Y-51375034D02*
X69897164Y-51755986D01*
X69935259Y-51298843D02*
X69935259Y-51755986D01*
X69973355Y-51222653D02*
X69973355Y-51755986D01*
X70011450Y-51146462D02*
X70011450Y-51755986D01*
X70049545Y-51222653D02*
X70049545Y-51755986D01*
X70087640Y-51298843D02*
X70087640Y-51755986D01*
X70125736Y-51375034D02*
X70125736Y-51755986D01*
X70163831Y-51451224D02*
X70163831Y-51755986D01*
X70201926Y-51489320D02*
X70201926Y-51755986D01*
X70240021Y-51565510D02*
X70240021Y-51755986D01*
X70278117Y-51641701D02*
X70278117Y-51755986D01*
X70316212Y-51755986D02*
X70011450Y-51184558D01*
X69706688Y-51755986D01*
X70316212Y-51717891D02*
X70316212Y-51755986D01*
X70011450Y-51146462D02*
X70354307Y-51755986D01*
X69668593Y-51755986D01*
X70011450Y-51146462D01*
X70697164Y-50955986D02*
X70697164Y-51603605D01*
X70735259Y-51679796D01*
X70773355Y-51717891D01*
X70849545Y-51755986D01*
X71001926Y-51755986D01*
X71078117Y-51717891D01*
X71116212Y-51679796D01*
X71154307Y-51603605D01*
X71154307Y-50955986D01*
X71497164Y-51527415D02*
X71878117Y-51527415D01*
X71420974Y-51755986D02*
X71687640Y-50955986D01*
X71954307Y-51755986D01*
X72678117Y-51755986D02*
X72411450Y-51375034D01*
X72220974Y-51755986D02*
X72220974Y-50955986D01*
X72525736Y-50955986D01*
X72601926Y-50994082D01*
X72640021Y-51032177D01*
X72678117Y-51108367D01*
X72678117Y-51222653D01*
X72640021Y-51298843D01*
X72601926Y-51336939D01*
X72525736Y-51375034D01*
X72220974Y-51375034D01*
X72906688Y-50955986D02*
X73363831Y-50955986D01*
X73135259Y-51755986D02*
X73135259Y-50955986D01*
X70563831Y-52205891D02*
X69878117Y-53234462D01*
X70830497Y-53043986D02*
X70830497Y-52243986D01*
X71135259Y-52243986D01*
X71211450Y-52282082D01*
X71249545Y-52320177D01*
X71287640Y-52396367D01*
X71287640Y-52510653D01*
X71249545Y-52586843D01*
X71211450Y-52624939D01*
X71135259Y-52663034D01*
X70830497Y-52663034D01*
X71554307Y-52243986D02*
X71744783Y-53043986D01*
X71897164Y-52472558D01*
X72049545Y-53043986D01*
X72240021Y-52243986D01*
X73001926Y-53043986D02*
X72735259Y-52663034D01*
X72544783Y-53043986D02*
X72544783Y-52243986D01*
X72849545Y-52243986D01*
X72925736Y-52282082D01*
X72963831Y-52320177D01*
X73001926Y-52396367D01*
X73001926Y-52510653D01*
X72963831Y-52586843D01*
X72925736Y-52624939D01*
X72849545Y-52663034D01*
X72544783Y-52663034D01*
X15692380Y-41282380D02*
X14692380Y-41282380D01*
X14692380Y-40901428D01*
X14740000Y-40806190D01*
X14787619Y-40758571D01*
X14882857Y-40710952D01*
X15025714Y-40710952D01*
X15120952Y-40758571D01*
X15168571Y-40806190D01*
X15216190Y-40901428D01*
X15216190Y-41282380D01*
X14692380Y-40091904D02*
X14692380Y-39901428D01*
X14740000Y-39806190D01*
X14835238Y-39710952D01*
X15025714Y-39663333D01*
X15359047Y-39663333D01*
X15549523Y-39710952D01*
X15644761Y-39806190D01*
X15692380Y-39901428D01*
X15692380Y-40091904D01*
X15644761Y-40187142D01*
X15549523Y-40282380D01*
X15359047Y-40330000D01*
X15025714Y-40330000D01*
X14835238Y-40282380D01*
X14740000Y-40187142D01*
X14692380Y-40091904D01*
X14692380Y-39330000D02*
X15692380Y-39091904D01*
X14978095Y-38901428D01*
X15692380Y-38710952D01*
X14692380Y-38472857D01*
X15168571Y-38091904D02*
X15168571Y-37758571D01*
X15692380Y-37615714D02*
X15692380Y-38091904D01*
X14692380Y-38091904D01*
X14692380Y-37615714D01*
X15692380Y-36615714D02*
X15216190Y-36949047D01*
X15692380Y-37187142D02*
X14692380Y-37187142D01*
X14692380Y-36806190D01*
X14740000Y-36710952D01*
X14787619Y-36663333D01*
X14882857Y-36615714D01*
X15025714Y-36615714D01*
X15120952Y-36663333D01*
X15168571Y-36710952D01*
X15216190Y-36806190D01*
X15216190Y-37187142D01*
X15692380Y-35425238D02*
X14692380Y-35425238D01*
X15692380Y-34949047D02*
X14692380Y-34949047D01*
X15692380Y-34377619D01*
X14692380Y-34377619D01*
X15073333Y-33091904D02*
X15549523Y-33091904D01*
X15073333Y-33044285D02*
X15549523Y-33044285D01*
X15120952Y-32996666D02*
X15501904Y-32996666D01*
X15120952Y-32949047D02*
X15501904Y-32949047D01*
X15120952Y-32901428D02*
X15501904Y-32901428D01*
X15168571Y-32853809D02*
X15454285Y-32853809D01*
X15168571Y-32806190D02*
X15454285Y-32806190D01*
X15168571Y-32758571D02*
X15454285Y-32758571D01*
X15216190Y-32710952D02*
X15406666Y-32710952D01*
X15216190Y-32663333D02*
X15406666Y-32663333D01*
X15263809Y-32615714D02*
X15359047Y-32615714D01*
X15263809Y-32568095D02*
X15359047Y-32568095D01*
X15263809Y-32520476D02*
X15359047Y-32520476D01*
X15311428Y-32472857D02*
X15311428Y-32520476D01*
X15073333Y-33139523D02*
X15311428Y-32425238D01*
X15549523Y-33139523D01*
X15311428Y-32377619D02*
X15597142Y-33139523D01*
X15025714Y-33139523D01*
X15311428Y-32377619D01*
X26392380Y-56332380D02*
X25820952Y-56332380D01*
X26106666Y-56332380D02*
X26106666Y-55332380D01*
X26011428Y-55475238D01*
X25916190Y-55570476D01*
X25820952Y-55618095D01*
X27011428Y-55332380D02*
X27106666Y-55332380D01*
X27201904Y-55380000D01*
X27249523Y-55427619D01*
X27297142Y-55522857D01*
X27344761Y-55713333D01*
X27344761Y-55951428D01*
X27297142Y-56141904D01*
X27249523Y-56237142D01*
X27201904Y-56284761D01*
X27106666Y-56332380D01*
X27011428Y-56332380D01*
X26916190Y-56284761D01*
X26868571Y-56237142D01*
X26820952Y-56141904D01*
X26773333Y-55951428D01*
X26773333Y-55713333D01*
X26820952Y-55522857D01*
X26868571Y-55427619D01*
X26916190Y-55380000D01*
X27011428Y-55332380D01*
X27963809Y-55332380D02*
X28059047Y-55332380D01*
X28154285Y-55380000D01*
X28201904Y-55427619D01*
X28249523Y-55522857D01*
X28297142Y-55713333D01*
X28297142Y-55951428D01*
X28249523Y-56141904D01*
X28201904Y-56237142D01*
X28154285Y-56284761D01*
X28059047Y-56332380D01*
X27963809Y-56332380D01*
X27868571Y-56284761D01*
X27820952Y-56237142D01*
X27773333Y-56141904D01*
X27725714Y-55951428D01*
X27725714Y-55713333D01*
X27773333Y-55522857D01*
X27820952Y-55427619D01*
X27868571Y-55380000D01*
X27963809Y-55332380D01*
X29154285Y-55665714D02*
X29154285Y-56332380D01*
X28725714Y-55665714D02*
X28725714Y-56189523D01*
X28773333Y-56284761D01*
X28868571Y-56332380D01*
X29011428Y-56332380D01*
X29106666Y-56284761D01*
X29154285Y-56237142D01*
X29963809Y-55808571D02*
X29630476Y-55808571D01*
X29630476Y-56332380D02*
X29630476Y-55332380D01*
X30106666Y-55332380D01*
X66656181Y-23673724D02*
X66656181Y-23626105D01*
X66608562Y-23768962D02*
X66608562Y-23626105D01*
X66560943Y-23864200D02*
X66560943Y-23626105D01*
X66513324Y-23959438D02*
X66513324Y-23626105D01*
X66465705Y-24007057D02*
X66465705Y-23626105D01*
X66418086Y-24102295D02*
X66418086Y-23626105D01*
X66370467Y-24197533D02*
X66370467Y-23626105D01*
X66322848Y-24292771D02*
X66322848Y-23626105D01*
X66275229Y-24388009D02*
X66275229Y-23626105D01*
X66227610Y-24292771D02*
X66227610Y-23626105D01*
X66179991Y-24197533D02*
X66179991Y-23626105D01*
X66132372Y-24102295D02*
X66132372Y-23626105D01*
X66084753Y-24007057D02*
X66084753Y-23626105D01*
X66037134Y-23959438D02*
X66037134Y-23626105D01*
X65989515Y-23864200D02*
X65989515Y-23626105D01*
X65941896Y-23768962D02*
X65941896Y-23626105D01*
X65894277Y-23626105D02*
X66275229Y-24340390D01*
X66656181Y-23626105D01*
X65894277Y-23673724D02*
X65894277Y-23626105D01*
X66275229Y-24388009D02*
X65846658Y-23626105D01*
X66703800Y-23626105D01*
X66275229Y-24388009D01*
X67132372Y-24388009D02*
X67132372Y-23388009D01*
X67703800Y-24388009D01*
X67703800Y-23388009D01*
X68179991Y-23864200D02*
X68513324Y-23864200D01*
X68656181Y-24388009D02*
X68179991Y-24388009D01*
X68179991Y-23388009D01*
X68656181Y-23388009D01*
X69275229Y-23388009D02*
X69465705Y-23388009D01*
X69560943Y-23435629D01*
X69656181Y-23530867D01*
X69703800Y-23721343D01*
X69703800Y-24054676D01*
X69656181Y-24245152D01*
X69560943Y-24340390D01*
X69465705Y-24388009D01*
X69275229Y-24388009D01*
X69179991Y-24340390D01*
X69084753Y-24245152D01*
X69037134Y-24054676D01*
X69037134Y-23721343D01*
X69084753Y-23530867D01*
X69179991Y-23435629D01*
X69275229Y-23388009D01*
X70132372Y-24388009D02*
X70132372Y-23388009D01*
X70513324Y-23388009D01*
X70608562Y-23435629D01*
X70656181Y-23483248D01*
X70703800Y-23578486D01*
X70703800Y-23721343D01*
X70656181Y-23816581D01*
X70608562Y-23864200D01*
X70513324Y-23911819D01*
X70132372Y-23911819D01*
X71132372Y-24388009D02*
X71132372Y-23388009D01*
X71513324Y-23388009D02*
X72179991Y-24388009D01*
X72179991Y-23388009D02*
X71513324Y-24388009D01*
X72560943Y-23864200D02*
X72894277Y-23864200D01*
X73037134Y-24388009D02*
X72560943Y-24388009D01*
X72560943Y-23388009D01*
X73037134Y-23388009D01*
X73941896Y-24388009D02*
X73465705Y-24388009D01*
X73465705Y-23388009D01*
X102433100Y-36641995D02*
X102385481Y-36641995D01*
X102528338Y-36689614D02*
X102385481Y-36689614D01*
X102623576Y-36737233D02*
X102385481Y-36737233D01*
X102718814Y-36784853D02*
X102385481Y-36784853D01*
X102766433Y-36832472D02*
X102385481Y-36832472D01*
X102861671Y-36880091D02*
X102385481Y-36880091D01*
X102956909Y-36927710D02*
X102385481Y-36927710D01*
X103052147Y-36975329D02*
X102385481Y-36975329D01*
X103147385Y-37022948D02*
X102385481Y-37022948D01*
X103052147Y-37070567D02*
X102385481Y-37070567D01*
X102956909Y-37118186D02*
X102385481Y-37118186D01*
X102861671Y-37165805D02*
X102385481Y-37165805D01*
X102766433Y-37213424D02*
X102385481Y-37213424D01*
X102718814Y-37261043D02*
X102385481Y-37261043D01*
X102623576Y-37308662D02*
X102385481Y-37308662D01*
X102528338Y-37356281D02*
X102385481Y-37356281D01*
X102385481Y-37403900D02*
X103099766Y-37022948D01*
X102385481Y-36641995D01*
X102433100Y-37403900D02*
X102385481Y-37403900D01*
X103147385Y-37022948D02*
X102385481Y-37451519D01*
X102385481Y-36594376D01*
X103147385Y-37022948D01*
X103147385Y-36165805D02*
X102147385Y-36165805D01*
X102623576Y-36165805D02*
X102623576Y-35594376D01*
X103147385Y-35594376D02*
X102147385Y-35594376D01*
X102623576Y-35118186D02*
X102623576Y-34784853D01*
X103147385Y-34641995D02*
X103147385Y-35118186D01*
X102147385Y-35118186D01*
X102147385Y-34641995D01*
X102861671Y-34261043D02*
X102861671Y-33784853D01*
X103147385Y-34356281D02*
X102147385Y-34022948D01*
X103147385Y-33689614D01*
X102147385Y-33499138D02*
X102147385Y-32927710D01*
X103147385Y-33213424D02*
X102147385Y-33213424D01*
X102623576Y-32594376D02*
X102623576Y-32261043D01*
X103147385Y-32118186D02*
X103147385Y-32594376D01*
X102147385Y-32594376D01*
X102147385Y-32118186D01*
X103147385Y-31118186D02*
X102671195Y-31451519D01*
X103147385Y-31689614D02*
X102147385Y-31689614D01*
X102147385Y-31308662D01*
X102195005Y-31213424D01*
X102242624Y-31165805D01*
X102337862Y-31118186D01*
X102480719Y-31118186D01*
X102575957Y-31165805D01*
X102623576Y-31213424D01*
X102671195Y-31308662D01*
X102671195Y-31689614D01*
X109624761Y-72302380D02*
X109672380Y-72302380D01*
X109529523Y-72254761D02*
X109672380Y-72254761D01*
X109434285Y-72207142D02*
X109672380Y-72207142D01*
X109339047Y-72159523D02*
X109672380Y-72159523D01*
X109291428Y-72111904D02*
X109672380Y-72111904D01*
X109196190Y-72064285D02*
X109672380Y-72064285D01*
X109100952Y-72016666D02*
X109672380Y-72016666D01*
X109005714Y-71969047D02*
X109672380Y-71969047D01*
X108910476Y-71921428D02*
X109672380Y-71921428D01*
X109005714Y-71873809D02*
X109672380Y-71873809D01*
X109100952Y-71826190D02*
X109672380Y-71826190D01*
X109196190Y-71778571D02*
X109672380Y-71778571D01*
X109291428Y-71730952D02*
X109672380Y-71730952D01*
X109339047Y-71683333D02*
X109672380Y-71683333D01*
X109434285Y-71635714D02*
X109672380Y-71635714D01*
X109529523Y-71588095D02*
X109672380Y-71588095D01*
X109672380Y-71540476D02*
X108958095Y-71921428D01*
X109672380Y-72302380D01*
X109624761Y-71540476D02*
X109672380Y-71540476D01*
X108910476Y-71921428D02*
X109672380Y-71492857D01*
X109672380Y-72350000D01*
X108910476Y-71921428D01*
X109672380Y-71064285D02*
X108672380Y-71064285D01*
X108672380Y-70826190D01*
X108720000Y-70683333D01*
X108815238Y-70588095D01*
X108910476Y-70540476D01*
X109100952Y-70492857D01*
X109243809Y-70492857D01*
X109434285Y-70540476D01*
X109529523Y-70588095D01*
X109624761Y-70683333D01*
X109672380Y-70826190D01*
X109672380Y-71064285D01*
X109672380Y-70064285D02*
X108672380Y-70064285D01*
X109624761Y-69635714D02*
X109672380Y-69492857D01*
X109672380Y-69254761D01*
X109624761Y-69159523D01*
X109577142Y-69111904D01*
X109481904Y-69064285D01*
X109386666Y-69064285D01*
X109291428Y-69111904D01*
X109243809Y-69159523D01*
X109196190Y-69254761D01*
X109148571Y-69445238D01*
X109100952Y-69540476D01*
X109053333Y-69588095D01*
X108958095Y-69635714D01*
X108862857Y-69635714D01*
X108767619Y-69588095D01*
X108720000Y-69540476D01*
X108672380Y-69445238D01*
X108672380Y-69207142D01*
X108720000Y-69064285D01*
X108672380Y-68778571D02*
X108672380Y-68207142D01*
X109672380Y-68492857D02*
X108672380Y-68492857D01*
X108767619Y-67921428D02*
X108720000Y-67873809D01*
X108672380Y-67778571D01*
X108672380Y-67540476D01*
X108720000Y-67445238D01*
X108767619Y-67397619D01*
X108862857Y-67350000D01*
X108958095Y-67350000D01*
X109100952Y-67397619D01*
X109672380Y-67969047D01*
X109672380Y-67350000D01*
X16829991Y-89108444D02*
X16163325Y-89108444D01*
X15829991Y-89108444D02*
X15877611Y-89156063D01*
X15925230Y-89108444D01*
X15877611Y-89060825D01*
X15829991Y-89108444D01*
X15925230Y-89108444D01*
X15925230Y-88679873D02*
X15877611Y-88632254D01*
X15829991Y-88537016D01*
X15829991Y-88298921D01*
X15877611Y-88203683D01*
X15925230Y-88156063D01*
X16020468Y-88108444D01*
X16115706Y-88108444D01*
X16258563Y-88156063D01*
X16829991Y-88727492D01*
X16829991Y-88108444D01*
X16782372Y-87251302D02*
X16829991Y-87346540D01*
X16829991Y-87537016D01*
X16782372Y-87632254D01*
X16734753Y-87679873D01*
X16639515Y-87727492D01*
X16353801Y-87727492D01*
X16258563Y-87679873D01*
X16210944Y-87632254D01*
X16163325Y-87537016D01*
X16163325Y-87346540D01*
X16210944Y-87251302D01*
X74363384Y-82586765D02*
X73791956Y-82586765D01*
X74077670Y-82586765D02*
X74077670Y-81586765D01*
X73982432Y-81729623D01*
X73887194Y-81824861D01*
X73791956Y-81872480D01*
X74982432Y-81586765D02*
X75077670Y-81586765D01*
X75172908Y-81634385D01*
X75220527Y-81682004D01*
X75268146Y-81777242D01*
X75315765Y-81967718D01*
X75315765Y-82205813D01*
X75268146Y-82396289D01*
X75220527Y-82491527D01*
X75172908Y-82539146D01*
X75077670Y-82586765D01*
X74982432Y-82586765D01*
X74887194Y-82539146D01*
X74839575Y-82491527D01*
X74791956Y-82396289D01*
X74744337Y-82205813D01*
X74744337Y-81967718D01*
X74791956Y-81777242D01*
X74839575Y-81682004D01*
X74887194Y-81634385D01*
X74982432Y-81586765D01*
X75744337Y-82586765D02*
X75744337Y-81586765D01*
X76315765Y-82586765D02*
X75887194Y-82015337D01*
X76315765Y-81586765D02*
X75744337Y-82158194D01*
X76527306Y-32889318D02*
X76479687Y-32889318D01*
X76622544Y-32936937D02*
X76479687Y-32936937D01*
X76717782Y-32984556D02*
X76479687Y-32984556D01*
X76813020Y-33032175D02*
X76479687Y-33032175D01*
X76860639Y-33079795D02*
X76479687Y-33079795D01*
X76955877Y-33127414D02*
X76479687Y-33127414D01*
X77051115Y-33175033D02*
X76479687Y-33175033D01*
X77146353Y-33222652D02*
X76479687Y-33222652D01*
X77241591Y-33270271D02*
X76479687Y-33270271D01*
X77146353Y-33317890D02*
X76479687Y-33317890D01*
X77051115Y-33365509D02*
X76479687Y-33365509D01*
X76955877Y-33413128D02*
X76479687Y-33413128D01*
X76860639Y-33460747D02*
X76479687Y-33460747D01*
X76813020Y-33508366D02*
X76479687Y-33508366D01*
X76717782Y-33555985D02*
X76479687Y-33555985D01*
X76622544Y-33603604D02*
X76479687Y-33603604D01*
X76479687Y-33651223D02*
X77193972Y-33270271D01*
X76479687Y-32889318D01*
X76527306Y-33651223D02*
X76479687Y-33651223D01*
X77241591Y-33270271D02*
X76479687Y-33698842D01*
X76479687Y-32841699D01*
X77241591Y-33270271D01*
X76241591Y-31936937D02*
X76241591Y-32413128D01*
X76717782Y-32460747D01*
X76670163Y-32413128D01*
X76622544Y-32317890D01*
X76622544Y-32079795D01*
X76670163Y-31984556D01*
X76717782Y-31936937D01*
X76813020Y-31889318D01*
X77051115Y-31889318D01*
X77146353Y-31936937D01*
X77193972Y-31984556D01*
X77241591Y-32079795D01*
X77241591Y-32317890D01*
X77193972Y-32413128D01*
X77146353Y-32460747D01*
X76574925Y-31555985D02*
X77241591Y-31317890D01*
X76574925Y-31079795D01*
X77241591Y-29365509D02*
X76765401Y-29698842D01*
X77241591Y-29936937D02*
X76241591Y-29936937D01*
X76241591Y-29555985D01*
X76289211Y-29460747D01*
X76336830Y-29413128D01*
X76432068Y-29365509D01*
X76574925Y-29365509D01*
X76670163Y-29413128D01*
X76717782Y-29460747D01*
X76765401Y-29555985D01*
X76765401Y-29936937D01*
X76717782Y-28936937D02*
X76717782Y-28603604D01*
X77241591Y-28460747D02*
X77241591Y-28936937D01*
X76241591Y-28936937D01*
X76241591Y-28460747D01*
X76289211Y-27508366D02*
X76241591Y-27603604D01*
X76241591Y-27746461D01*
X76289211Y-27889318D01*
X76384449Y-27984556D01*
X76479687Y-28032175D01*
X76670163Y-28079795D01*
X76813020Y-28079795D01*
X77003496Y-28032175D01*
X77098734Y-27984556D01*
X77193972Y-27889318D01*
X77241591Y-27746461D01*
X77241591Y-27651223D01*
X77193972Y-27508366D01*
X77146353Y-27460747D01*
X76813020Y-27460747D01*
X76813020Y-27651223D01*
X62203182Y-79622282D02*
X62203182Y-80193710D01*
X62203182Y-79907996D02*
X61203182Y-79907996D01*
X61346040Y-80003234D01*
X61441278Y-80098472D01*
X61488897Y-80193710D01*
X61203182Y-79003234D02*
X61203182Y-78907996D01*
X61250802Y-78812758D01*
X61298421Y-78765139D01*
X61393659Y-78717520D01*
X61584135Y-78669901D01*
X61822230Y-78669901D01*
X62012706Y-78717520D01*
X62107944Y-78765139D01*
X62155563Y-78812758D01*
X62203182Y-78907996D01*
X62203182Y-79003234D01*
X62155563Y-79098472D01*
X62107944Y-79146091D01*
X62012706Y-79193710D01*
X61822230Y-79241329D01*
X61584135Y-79241329D01*
X61393659Y-79193710D01*
X61298421Y-79146091D01*
X61250802Y-79098472D01*
X61203182Y-79003234D01*
X62203182Y-78241329D02*
X61203182Y-78241329D01*
X62203182Y-77669901D02*
X61631754Y-78098472D01*
X61203182Y-77669901D02*
X61774611Y-78241329D01*
X104862380Y-54347619D02*
X105671904Y-54347619D01*
X105767142Y-54300000D01*
X105814761Y-54252380D01*
X105862380Y-54157142D01*
X105862380Y-53966666D01*
X105814761Y-53871428D01*
X105767142Y-53823809D01*
X105671904Y-53776190D01*
X104862380Y-53776190D01*
X105862380Y-52823809D02*
X105862380Y-53300000D01*
X104862380Y-53300000D01*
X105862380Y-52490476D02*
X104862380Y-52490476D01*
X105862380Y-51919047D01*
X104862380Y-51919047D01*
X104957619Y-51490476D02*
X104910000Y-51442857D01*
X104862380Y-51347619D01*
X104862380Y-51109523D01*
X104910000Y-51014285D01*
X104957619Y-50966666D01*
X105052857Y-50919047D01*
X105148095Y-50919047D01*
X105290952Y-50966666D01*
X105862380Y-51538095D01*
X105862380Y-50919047D01*
X105290952Y-50347619D02*
X105243333Y-50442857D01*
X105195714Y-50490476D01*
X105100476Y-50538095D01*
X105052857Y-50538095D01*
X104957619Y-50490476D01*
X104910000Y-50442857D01*
X104862380Y-50347619D01*
X104862380Y-50157142D01*
X104910000Y-50061904D01*
X104957619Y-50014285D01*
X105052857Y-49966666D01*
X105100476Y-49966666D01*
X105195714Y-50014285D01*
X105243333Y-50061904D01*
X105290952Y-50157142D01*
X105290952Y-50347619D01*
X105338571Y-50442857D01*
X105386190Y-50490476D01*
X105481428Y-50538095D01*
X105671904Y-50538095D01*
X105767142Y-50490476D01*
X105814761Y-50442857D01*
X105862380Y-50347619D01*
X105862380Y-50157142D01*
X105814761Y-50061904D01*
X105767142Y-50014285D01*
X105671904Y-49966666D01*
X105481428Y-49966666D01*
X105386190Y-50014285D01*
X105338571Y-50061904D01*
X105290952Y-50157142D01*
X104862380Y-49347619D02*
X104862380Y-49252380D01*
X104910000Y-49157142D01*
X104957619Y-49109523D01*
X105052857Y-49061904D01*
X105243333Y-49014285D01*
X105481428Y-49014285D01*
X105671904Y-49061904D01*
X105767142Y-49109523D01*
X105814761Y-49157142D01*
X105862380Y-49252380D01*
X105862380Y-49347619D01*
X105814761Y-49442857D01*
X105767142Y-49490476D01*
X105671904Y-49538095D01*
X105481428Y-49585714D01*
X105243333Y-49585714D01*
X105052857Y-49538095D01*
X104957619Y-49490476D01*
X104910000Y-49442857D01*
X104862380Y-49347619D01*
X104862380Y-48680952D02*
X104862380Y-48061904D01*
X105243333Y-48395238D01*
X105243333Y-48252380D01*
X105290952Y-48157142D01*
X105338571Y-48109523D01*
X105433809Y-48061904D01*
X105671904Y-48061904D01*
X105767142Y-48109523D01*
X105814761Y-48157142D01*
X105862380Y-48252380D01*
X105862380Y-48538095D01*
X105814761Y-48633333D01*
X105767142Y-48680952D01*
X105576666Y-47680952D02*
X105576666Y-47204761D01*
X105862380Y-47776190D02*
X104862380Y-47442857D01*
X105862380Y-47109523D01*
X54137048Y-23539688D02*
X54137048Y-23492069D01*
X54089429Y-23634926D02*
X54089429Y-23492069D01*
X54041810Y-23730164D02*
X54041810Y-23492069D01*
X53994191Y-23825402D02*
X53994191Y-23492069D01*
X53946572Y-23873021D02*
X53946572Y-23492069D01*
X53898953Y-23968259D02*
X53898953Y-23492069D01*
X53851334Y-24063497D02*
X53851334Y-23492069D01*
X53803715Y-24158735D02*
X53803715Y-23492069D01*
X53756096Y-24253973D02*
X53756096Y-23492069D01*
X53708477Y-24158735D02*
X53708477Y-23492069D01*
X53660858Y-24063497D02*
X53660858Y-23492069D01*
X53613239Y-23968259D02*
X53613239Y-23492069D01*
X53565619Y-23873021D02*
X53565619Y-23492069D01*
X53518000Y-23825402D02*
X53518000Y-23492069D01*
X53470381Y-23730164D02*
X53470381Y-23492069D01*
X53422762Y-23634926D02*
X53422762Y-23492069D01*
X53375143Y-23492069D02*
X53756096Y-24206354D01*
X54137048Y-23492069D01*
X53375143Y-23539688D02*
X53375143Y-23492069D01*
X53756096Y-24253973D02*
X53327524Y-23492069D01*
X54184667Y-23492069D01*
X53756096Y-24253973D01*
X54613239Y-23730164D02*
X54946572Y-23730164D01*
X55089429Y-24253973D02*
X54613239Y-24253973D01*
X54613239Y-23253973D01*
X55089429Y-23253973D01*
X55518000Y-24253973D02*
X55518000Y-23253973D01*
X56089429Y-24253973D01*
X56089429Y-23253973D01*
X56565619Y-24253973D02*
X56565619Y-23253973D01*
X56803715Y-23253973D01*
X56946572Y-23301593D01*
X57041810Y-23396831D01*
X57089429Y-23492069D01*
X57137048Y-23682545D01*
X57137048Y-23825402D01*
X57089429Y-24015878D01*
X57041810Y-24111116D01*
X56946572Y-24206354D01*
X56803715Y-24253973D01*
X56565619Y-24253973D01*
X57518000Y-24206354D02*
X57660858Y-24253973D01*
X57898953Y-24253973D01*
X57994191Y-24206354D01*
X58041810Y-24158735D01*
X58089429Y-24063497D01*
X58089429Y-23968259D01*
X58041810Y-23873021D01*
X57994191Y-23825402D01*
X57898953Y-23777783D01*
X57708477Y-23730164D01*
X57613239Y-23682545D01*
X57565619Y-23634926D01*
X57518000Y-23539688D01*
X57518000Y-23444450D01*
X57565619Y-23349212D01*
X57613239Y-23301593D01*
X57708477Y-23253973D01*
X57946572Y-23253973D01*
X58089429Y-23301593D01*
X58375143Y-23253973D02*
X58946572Y-23253973D01*
X58660858Y-24253973D02*
X58660858Y-23253973D01*
X59470381Y-23253973D02*
X59660858Y-23253973D01*
X59756096Y-23301593D01*
X59851334Y-23396831D01*
X59898953Y-23587307D01*
X59898953Y-23920640D01*
X59851334Y-24111116D01*
X59756096Y-24206354D01*
X59660858Y-24253973D01*
X59470381Y-24253973D01*
X59375143Y-24206354D01*
X59279905Y-24111116D01*
X59232286Y-23920640D01*
X59232286Y-23587307D01*
X59279905Y-23396831D01*
X59375143Y-23301593D01*
X59470381Y-23253973D01*
X60327524Y-24253973D02*
X60327524Y-23253973D01*
X60708477Y-23253973D01*
X60803715Y-23301593D01*
X60851334Y-23349212D01*
X60898953Y-23444450D01*
X60898953Y-23587307D01*
X60851334Y-23682545D01*
X60803715Y-23730164D01*
X60708477Y-23777783D01*
X60327524Y-23777783D01*
X94107746Y-21154293D02*
X94107746Y-21059055D01*
X94155366Y-20963817D01*
X94202985Y-20916198D01*
X94298223Y-20868579D01*
X94488699Y-20820960D01*
X94726794Y-20820960D01*
X94917270Y-20868579D01*
X95012508Y-20916198D01*
X95060127Y-20963817D01*
X95107746Y-21059055D01*
X95107746Y-21154293D01*
X95060127Y-21249531D01*
X95012508Y-21297150D01*
X94917270Y-21344769D01*
X94726794Y-21392388D01*
X94488699Y-21392388D01*
X94298223Y-21344769D01*
X94202985Y-21297150D01*
X94155366Y-21249531D01*
X94107746Y-21154293D01*
X95012508Y-20392388D02*
X95060127Y-20344769D01*
X95107746Y-20392388D01*
X95060127Y-20440007D01*
X95012508Y-20392388D01*
X95107746Y-20392388D01*
X94107746Y-20011436D02*
X94107746Y-19392388D01*
X94488699Y-19725722D01*
X94488699Y-19582865D01*
X94536318Y-19487626D01*
X94583937Y-19440007D01*
X94679175Y-19392388D01*
X94917270Y-19392388D01*
X95012508Y-19440007D01*
X95060127Y-19487626D01*
X95107746Y-19582865D01*
X95107746Y-19868579D01*
X95060127Y-19963817D01*
X95012508Y-20011436D01*
X94107746Y-19059055D02*
X94107746Y-18440007D01*
X94488699Y-18773341D01*
X94488699Y-18630484D01*
X94536318Y-18535246D01*
X94583937Y-18487626D01*
X94679175Y-18440007D01*
X94917270Y-18440007D01*
X95012508Y-18487626D01*
X95060127Y-18535246D01*
X95107746Y-18630484D01*
X95107746Y-18916198D01*
X95060127Y-19011436D01*
X95012508Y-19059055D01*
X94441080Y-17582865D02*
X95107746Y-17582865D01*
X94441080Y-18011436D02*
X94964889Y-18011436D01*
X95060127Y-17963817D01*
X95107746Y-17868579D01*
X95107746Y-17725722D01*
X95060127Y-17630484D01*
X95012508Y-17582865D01*
X94583937Y-16773341D02*
X94583937Y-17106674D01*
X95107746Y-17106674D02*
X94107746Y-17106674D01*
X94107746Y-16630484D01*
X45505714Y-61412380D02*
X44934285Y-61412380D01*
X45220000Y-61412380D02*
X45220000Y-60412380D01*
X45124761Y-60555238D01*
X45029523Y-60650476D01*
X44934285Y-60698095D01*
X45934285Y-61412380D02*
X45934285Y-60412380D01*
X46505714Y-61412380D02*
X46077142Y-60840952D01*
X46505714Y-60412380D02*
X45934285Y-60983809D01*
X86923809Y-30027619D02*
X86971428Y-29980000D01*
X87066666Y-29932380D01*
X87304761Y-29932380D01*
X87400000Y-29980000D01*
X87447619Y-30027619D01*
X87495238Y-30122857D01*
X87495238Y-30218095D01*
X87447619Y-30360952D01*
X86876190Y-30932380D01*
X87495238Y-30932380D01*
X87923809Y-30837142D02*
X87971428Y-30884761D01*
X87923809Y-30932380D01*
X87876190Y-30884761D01*
X87923809Y-30837142D01*
X87923809Y-30932380D01*
X88304761Y-29932380D02*
X88923809Y-29932380D01*
X88590476Y-30313333D01*
X88733333Y-30313333D01*
X88828571Y-30360952D01*
X88876190Y-30408571D01*
X88923809Y-30503809D01*
X88923809Y-30741904D01*
X88876190Y-30837142D01*
X88828571Y-30884761D01*
X88733333Y-30932380D01*
X88447619Y-30932380D01*
X88352380Y-30884761D01*
X88304761Y-30837142D01*
X89257142Y-29932380D02*
X89923809Y-29932380D01*
X89495238Y-30932380D01*
X90304761Y-30932380D02*
X90304761Y-29932380D01*
X90876190Y-30932380D02*
X90447619Y-30360952D01*
X90876190Y-29932380D02*
X90304761Y-30503809D01*
X87876190Y-40425714D02*
X87876190Y-41092380D01*
X87638095Y-40044761D02*
X87400000Y-40759047D01*
X88019047Y-40759047D01*
X88400000Y-40997142D02*
X88447619Y-41044761D01*
X88400000Y-41092380D01*
X88352380Y-41044761D01*
X88400000Y-40997142D01*
X88400000Y-41092380D01*
X88780952Y-40092380D02*
X89447619Y-40092380D01*
X89019047Y-41092380D01*
X89828571Y-41092380D02*
X89828571Y-40092380D01*
X90400000Y-41092380D02*
X89971428Y-40520952D01*
X90400000Y-40092380D02*
X89828571Y-40663809D01*
X41799047Y-43632380D02*
X41799047Y-42632380D01*
X42180000Y-42632380D01*
X42275238Y-42680000D01*
X42322857Y-42727619D01*
X42370476Y-42822857D01*
X42370476Y-42965714D01*
X42322857Y-43060952D01*
X42275238Y-43108571D01*
X42180000Y-43156190D01*
X41799047Y-43156190D01*
X42799047Y-43632380D02*
X42799047Y-42965714D01*
X42799047Y-42632380D02*
X42751428Y-42680000D01*
X42799047Y-42727619D01*
X42846666Y-42680000D01*
X42799047Y-42632380D01*
X42799047Y-42727619D01*
X43703809Y-43584761D02*
X43608571Y-43632380D01*
X43418095Y-43632380D01*
X43322857Y-43584761D01*
X43275238Y-43537142D01*
X43227619Y-43441904D01*
X43227619Y-43156190D01*
X43275238Y-43060952D01*
X43322857Y-43013333D01*
X43418095Y-42965714D01*
X43608571Y-42965714D01*
X43703809Y-43013333D01*
X44275238Y-43632380D02*
X44180000Y-43584761D01*
X44132380Y-43537142D01*
X44084761Y-43441904D01*
X44084761Y-43156190D01*
X44132380Y-43060952D01*
X44180000Y-43013333D01*
X44275238Y-42965714D01*
X44418095Y-42965714D01*
X44513333Y-43013333D01*
X44560952Y-43060952D01*
X44608571Y-43156190D01*
X44608571Y-43441904D01*
X44560952Y-43537142D01*
X44513333Y-43584761D01*
X44418095Y-43632380D01*
X44275238Y-43632380D01*
X13782965Y-32971911D02*
X13782965Y-32210006D01*
X14163917Y-32590959D02*
X13402013Y-32590959D01*
X74056666Y-85955238D02*
X74056666Y-85907619D01*
X74009047Y-86050476D02*
X74009047Y-85907619D01*
X73961428Y-86145714D02*
X73961428Y-85907619D01*
X73913809Y-86240952D02*
X73913809Y-85907619D01*
X73866190Y-86288571D02*
X73866190Y-85907619D01*
X73818571Y-86383809D02*
X73818571Y-85907619D01*
X73770952Y-86479047D02*
X73770952Y-85907619D01*
X73723333Y-86574285D02*
X73723333Y-85907619D01*
X73675714Y-86669523D02*
X73675714Y-85907619D01*
X73628095Y-86574285D02*
X73628095Y-85907619D01*
X73580476Y-86479047D02*
X73580476Y-85907619D01*
X73532857Y-86383809D02*
X73532857Y-85907619D01*
X73485238Y-86288571D02*
X73485238Y-85907619D01*
X73437619Y-86240952D02*
X73437619Y-85907619D01*
X73390000Y-86145714D02*
X73390000Y-85907619D01*
X73342380Y-86050476D02*
X73342380Y-85907619D01*
X73294761Y-85907619D02*
X73675714Y-86621904D01*
X74056666Y-85907619D01*
X73294761Y-85955238D02*
X73294761Y-85907619D01*
X73675714Y-86669523D02*
X73247142Y-85907619D01*
X74104285Y-85907619D01*
X73675714Y-86669523D01*
X72961428Y-86907619D02*
X72390000Y-86907619D01*
X72675714Y-85907619D02*
X72675714Y-86907619D01*
X71913809Y-85907619D02*
X72009047Y-85955238D01*
X72056666Y-86002857D01*
X72104285Y-86098095D01*
X72104285Y-86383809D01*
X72056666Y-86479047D01*
X72009047Y-86526666D01*
X71913809Y-86574285D01*
X71770952Y-86574285D01*
X71675714Y-86526666D01*
X71628095Y-86479047D01*
X71580476Y-86383809D01*
X71580476Y-86098095D01*
X71628095Y-86002857D01*
X71675714Y-85955238D01*
X71770952Y-85907619D01*
X71913809Y-85907619D01*
X71151904Y-86574285D02*
X71151904Y-85574285D01*
X71151904Y-86526666D02*
X71056666Y-86574285D01*
X70866190Y-86574285D01*
X70770952Y-86526666D01*
X70723333Y-86479047D01*
X70675714Y-86383809D01*
X70675714Y-86098095D01*
X70723333Y-86002857D01*
X70770952Y-85955238D01*
X70866190Y-85907619D01*
X71056666Y-85907619D01*
X71151904Y-85955238D01*
X56012170Y-66646601D02*
X56012170Y-66694220D01*
X56059789Y-66551363D02*
X56059789Y-66694220D01*
X56107408Y-66456125D02*
X56107408Y-66694220D01*
X56155027Y-66360887D02*
X56155027Y-66694220D01*
X56202646Y-66313268D02*
X56202646Y-66694220D01*
X56250265Y-66218030D02*
X56250265Y-66694220D01*
X56297884Y-66122792D02*
X56297884Y-66694220D01*
X56345503Y-66027554D02*
X56345503Y-66694220D01*
X56393122Y-65932316D02*
X56393122Y-66694220D01*
X56440741Y-66027554D02*
X56440741Y-66694220D01*
X56488360Y-66122792D02*
X56488360Y-66694220D01*
X56535979Y-66218030D02*
X56535979Y-66694220D01*
X56583599Y-66313268D02*
X56583599Y-66694220D01*
X56631218Y-66360887D02*
X56631218Y-66694220D01*
X56678837Y-66456125D02*
X56678837Y-66694220D01*
X56726456Y-66551363D02*
X56726456Y-66694220D01*
X56774075Y-66694220D02*
X56393122Y-65979935D01*
X56012170Y-66694220D01*
X56774075Y-66646601D02*
X56774075Y-66694220D01*
X56393122Y-65932316D02*
X56821694Y-66694220D01*
X55964551Y-66694220D01*
X56393122Y-65932316D01*
X57774075Y-65741840D02*
X57678837Y-65694220D01*
X57535979Y-65694220D01*
X57393122Y-65741840D01*
X57297884Y-65837078D01*
X57250265Y-65932316D01*
X57202646Y-66122792D01*
X57202646Y-66265649D01*
X57250265Y-66456125D01*
X57297884Y-66551363D01*
X57393122Y-66646601D01*
X57535979Y-66694220D01*
X57631218Y-66694220D01*
X57774075Y-66646601D01*
X57821694Y-66598982D01*
X57821694Y-66265649D01*
X57631218Y-66265649D01*
X58631218Y-66646601D02*
X58535979Y-66694220D01*
X58345503Y-66694220D01*
X58250265Y-66646601D01*
X58202646Y-66551363D01*
X58202646Y-66170411D01*
X58250265Y-66075173D01*
X58345503Y-66027554D01*
X58535979Y-66027554D01*
X58631218Y-66075173D01*
X58678837Y-66170411D01*
X58678837Y-66265649D01*
X58202646Y-66360887D01*
X59535979Y-66694220D02*
X59535979Y-66170411D01*
X59488360Y-66075173D01*
X59393122Y-66027554D01*
X59202646Y-66027554D01*
X59107408Y-66075173D01*
X59535979Y-66646601D02*
X59440741Y-66694220D01*
X59202646Y-66694220D01*
X59107408Y-66646601D01*
X59059789Y-66551363D01*
X59059789Y-66456125D01*
X59107408Y-66360887D01*
X59202646Y-66313268D01*
X59440741Y-66313268D01*
X59535979Y-66265649D01*
X60012170Y-66694220D02*
X60012170Y-66027554D01*
X60012170Y-66218030D02*
X60059789Y-66122792D01*
X60107408Y-66075173D01*
X60202646Y-66027554D01*
X60297884Y-66027554D01*
X90997270Y-82531194D02*
X90425842Y-82531194D01*
X90711556Y-82531194D02*
X90711556Y-81531194D01*
X90616318Y-81674052D01*
X90521080Y-81769290D01*
X90425842Y-81816909D01*
X91616318Y-81531194D02*
X91711556Y-81531194D01*
X91806794Y-81578814D01*
X91854413Y-81626433D01*
X91902032Y-81721671D01*
X91949651Y-81912147D01*
X91949651Y-82150242D01*
X91902032Y-82340718D01*
X91854413Y-82435956D01*
X91806794Y-82483575D01*
X91711556Y-82531194D01*
X91616318Y-82531194D01*
X91521080Y-82483575D01*
X91473461Y-82435956D01*
X91425842Y-82340718D01*
X91378223Y-82150242D01*
X91378223Y-81912147D01*
X91425842Y-81721671D01*
X91473461Y-81626433D01*
X91521080Y-81578814D01*
X91616318Y-81531194D01*
X92378223Y-82531194D02*
X92378223Y-81531194D01*
X92949651Y-82531194D02*
X92521080Y-81959766D01*
X92949651Y-81531194D02*
X92378223Y-82102623D01*
X41521428Y-14978095D02*
X41521428Y-14930476D01*
X41473809Y-15073333D02*
X41473809Y-14930476D01*
X41426190Y-15168571D02*
X41426190Y-14930476D01*
X41378571Y-15263809D02*
X41378571Y-14930476D01*
X41330952Y-15311428D02*
X41330952Y-14930476D01*
X41283333Y-15406666D02*
X41283333Y-14930476D01*
X41235714Y-15501904D02*
X41235714Y-14930476D01*
X41188095Y-15597142D02*
X41188095Y-14930476D01*
X41140476Y-15692380D02*
X41140476Y-14930476D01*
X41092857Y-15597142D02*
X41092857Y-14930476D01*
X41045238Y-15501904D02*
X41045238Y-14930476D01*
X40997619Y-15406666D02*
X40997619Y-14930476D01*
X40950000Y-15311428D02*
X40950000Y-14930476D01*
X40902380Y-15263809D02*
X40902380Y-14930476D01*
X40854761Y-15168571D02*
X40854761Y-14930476D01*
X40807142Y-15073333D02*
X40807142Y-14930476D01*
X40759523Y-14930476D02*
X41140476Y-15644761D01*
X41521428Y-14930476D01*
X40759523Y-14978095D02*
X40759523Y-14930476D01*
X41140476Y-15692380D02*
X40711904Y-14930476D01*
X41569047Y-14930476D01*
X41140476Y-15692380D01*
X42569047Y-15597142D02*
X42521428Y-15644761D01*
X42378571Y-15692380D01*
X42283333Y-15692380D01*
X42140476Y-15644761D01*
X42045238Y-15549523D01*
X41997619Y-15454285D01*
X41950000Y-15263809D01*
X41950000Y-15120952D01*
X41997619Y-14930476D01*
X42045238Y-14835238D01*
X42140476Y-14740000D01*
X42283333Y-14692380D01*
X42378571Y-14692380D01*
X42521428Y-14740000D01*
X42569047Y-14787619D01*
X43473809Y-15692380D02*
X42997619Y-15692380D01*
X42997619Y-14692380D01*
X43807142Y-14692380D02*
X43807142Y-15501904D01*
X43854761Y-15597142D01*
X43902380Y-15644761D01*
X43997619Y-15692380D01*
X44188095Y-15692380D01*
X44283333Y-15644761D01*
X44330952Y-15597142D01*
X44378571Y-15501904D01*
X44378571Y-14692380D01*
X44711904Y-14692380D02*
X45283333Y-14692380D01*
X44997619Y-15692380D02*
X44997619Y-14692380D01*
X46188095Y-15597142D02*
X46140476Y-15644761D01*
X45997619Y-15692380D01*
X45902380Y-15692380D01*
X45759523Y-15644761D01*
X45664285Y-15549523D01*
X45616666Y-15454285D01*
X45569047Y-15263809D01*
X45569047Y-15120952D01*
X45616666Y-14930476D01*
X45664285Y-14835238D01*
X45759523Y-14740000D01*
X45902380Y-14692380D01*
X45997619Y-14692380D01*
X46140476Y-14740000D01*
X46188095Y-14787619D01*
X46616666Y-15692380D02*
X46616666Y-14692380D01*
X46616666Y-15168571D02*
X47188095Y-15168571D01*
X47188095Y-15692380D02*
X47188095Y-14692380D01*
X48140476Y-14692380D02*
X47664285Y-14692380D01*
X47616666Y-15168571D01*
X47664285Y-15120952D01*
X47759523Y-15073333D01*
X47997619Y-15073333D01*
X48092857Y-15120952D01*
X48140476Y-15168571D01*
X48188095Y-15263809D01*
X48188095Y-15501904D01*
X48140476Y-15597142D01*
X48092857Y-15644761D01*
X47997619Y-15692380D01*
X47759523Y-15692380D01*
X47664285Y-15644761D01*
X47616666Y-15597142D01*
X86923809Y-35107619D02*
X86971428Y-35060000D01*
X87066666Y-35012380D01*
X87304761Y-35012380D01*
X87400000Y-35060000D01*
X87447619Y-35107619D01*
X87495238Y-35202857D01*
X87495238Y-35298095D01*
X87447619Y-35440952D01*
X86876190Y-36012380D01*
X87495238Y-36012380D01*
X87923809Y-35917142D02*
X87971428Y-35964761D01*
X87923809Y-36012380D01*
X87876190Y-35964761D01*
X87923809Y-35917142D01*
X87923809Y-36012380D01*
X88304761Y-35012380D02*
X88923809Y-35012380D01*
X88590476Y-35393333D01*
X88733333Y-35393333D01*
X88828571Y-35440952D01*
X88876190Y-35488571D01*
X88923809Y-35583809D01*
X88923809Y-35821904D01*
X88876190Y-35917142D01*
X88828571Y-35964761D01*
X88733333Y-36012380D01*
X88447619Y-36012380D01*
X88352380Y-35964761D01*
X88304761Y-35917142D01*
X89257142Y-35012380D02*
X89923809Y-35012380D01*
X89495238Y-36012380D01*
X90304761Y-36012380D02*
X90304761Y-35012380D01*
X90876190Y-36012380D02*
X90447619Y-35440952D01*
X90876190Y-35012380D02*
X90304761Y-35583809D01*
X98132990Y-24349983D02*
X98085371Y-24349983D01*
X98228228Y-24397603D02*
X98085371Y-24397603D01*
X98323466Y-24445222D02*
X98085371Y-24445222D01*
X98418704Y-24492841D02*
X98085371Y-24492841D01*
X98466323Y-24540460D02*
X98085371Y-24540460D01*
X98561561Y-24588079D02*
X98085371Y-24588079D01*
X98656799Y-24635698D02*
X98085371Y-24635698D01*
X98752037Y-24683317D02*
X98085371Y-24683317D01*
X98847275Y-24730936D02*
X98085371Y-24730936D01*
X98752037Y-24778555D02*
X98085371Y-24778555D01*
X98656799Y-24826174D02*
X98085371Y-24826174D01*
X98561561Y-24873793D02*
X98085371Y-24873793D01*
X98466323Y-24921412D02*
X98085371Y-24921412D01*
X98418704Y-24969031D02*
X98085371Y-24969031D01*
X98323466Y-25016650D02*
X98085371Y-25016650D01*
X98228228Y-25064269D02*
X98085371Y-25064269D01*
X98085371Y-25111888D02*
X98799656Y-24730936D01*
X98085371Y-24349983D01*
X98132990Y-25111888D02*
X98085371Y-25111888D01*
X98847275Y-24730936D02*
X98085371Y-25159507D01*
X98085371Y-24302364D01*
X98847275Y-24730936D01*
X98847275Y-23873793D02*
X97847275Y-23873793D01*
X98561561Y-23540460D01*
X97847275Y-23207126D01*
X98847275Y-23207126D01*
X97847275Y-22540460D02*
X97847275Y-22349983D01*
X97894895Y-22254745D01*
X97990133Y-22159507D01*
X98180609Y-22111888D01*
X98513942Y-22111888D01*
X98704418Y-22159507D01*
X98799656Y-22254745D01*
X98847275Y-22349983D01*
X98847275Y-22540460D01*
X98799656Y-22635698D01*
X98704418Y-22730936D01*
X98513942Y-22778555D01*
X98180609Y-22778555D01*
X97990133Y-22730936D01*
X97894895Y-22635698D01*
X97847275Y-22540460D01*
X98799656Y-21730936D02*
X98847275Y-21588079D01*
X98847275Y-21349983D01*
X98799656Y-21254745D01*
X98752037Y-21207126D01*
X98656799Y-21159507D01*
X98561561Y-21159507D01*
X98466323Y-21207126D01*
X98418704Y-21254745D01*
X98371085Y-21349983D01*
X98323466Y-21540460D01*
X98275847Y-21635698D01*
X98228228Y-21683317D01*
X98132990Y-21730936D01*
X98037752Y-21730936D01*
X97942514Y-21683317D01*
X97894895Y-21635698D01*
X97847275Y-21540460D01*
X97847275Y-21302364D01*
X97894895Y-21159507D01*
X98323466Y-20397603D02*
X98323466Y-20730936D01*
X98847275Y-20730936D02*
X97847275Y-20730936D01*
X97847275Y-20254745D01*
X98323466Y-19873793D02*
X98323466Y-19540460D01*
X98847275Y-19397603D02*
X98847275Y-19873793D01*
X97847275Y-19873793D01*
X97847275Y-19397603D01*
X97847275Y-19111888D02*
X97847275Y-18540460D01*
X98847275Y-18826174D02*
X97847275Y-18826174D01*
X71062857Y-35680476D02*
X71100952Y-35566190D01*
X71139047Y-35528095D01*
X71215238Y-35490000D01*
X71329523Y-35490000D01*
X71405714Y-35528095D01*
X71443809Y-35566190D01*
X71481904Y-35642380D01*
X71481904Y-35947142D01*
X70681904Y-35947142D01*
X70681904Y-35680476D01*
X70720000Y-35604285D01*
X70758095Y-35566190D01*
X70834285Y-35528095D01*
X70910476Y-35528095D01*
X70986666Y-35566190D01*
X71024761Y-35604285D01*
X71062857Y-35680476D01*
X71062857Y-35947142D01*
X71253333Y-35185238D02*
X71253333Y-34804285D01*
X71481904Y-35261428D02*
X70681904Y-34994761D01*
X71481904Y-34728095D01*
X70681904Y-34575714D02*
X71481904Y-34309047D01*
X70681904Y-34042380D01*
X71481904Y-33737619D02*
X71481904Y-33585238D01*
X71443809Y-33509047D01*
X71405714Y-33470952D01*
X71291428Y-33394761D01*
X71139047Y-33356666D01*
X70834285Y-33356666D01*
X70758095Y-33394761D01*
X70720000Y-33432857D01*
X70681904Y-33509047D01*
X70681904Y-33661428D01*
X70720000Y-33737619D01*
X70758095Y-33775714D01*
X70834285Y-33813809D01*
X71024761Y-33813809D01*
X71100952Y-33775714D01*
X71139047Y-33737619D01*
X71177142Y-33661428D01*
X71177142Y-33509047D01*
X71139047Y-33432857D01*
X71100952Y-33394761D01*
X71024761Y-33356666D01*
X71481904Y-32975714D02*
X71481904Y-32823333D01*
X71443809Y-32747142D01*
X71405714Y-32709047D01*
X71291428Y-32632857D01*
X71139047Y-32594761D01*
X70834285Y-32594761D01*
X70758095Y-32632857D01*
X70720000Y-32670952D01*
X70681904Y-32747142D01*
X70681904Y-32899523D01*
X70720000Y-32975714D01*
X70758095Y-33013809D01*
X70834285Y-33051904D01*
X71024761Y-33051904D01*
X71100952Y-33013809D01*
X71139047Y-32975714D01*
X71177142Y-32899523D01*
X71177142Y-32747142D01*
X71139047Y-32670952D01*
X71100952Y-32632857D01*
X71024761Y-32594761D01*
X78192380Y-51521904D02*
X78192380Y-50855238D01*
X79192380Y-51283809D01*
X78525714Y-50045714D02*
X79192380Y-50045714D01*
X78144761Y-50283809D02*
X78859047Y-50521904D01*
X78859047Y-49902857D01*
X79192380Y-49521904D02*
X78192380Y-49521904D01*
X78668571Y-49521904D02*
X78668571Y-48950476D01*
X79192380Y-48950476D02*
X78192380Y-48950476D01*
X79097142Y-47902857D02*
X79144761Y-47950476D01*
X79192380Y-48093333D01*
X79192380Y-48188571D01*
X79144761Y-48331428D01*
X79049523Y-48426666D01*
X78954285Y-48474285D01*
X78763809Y-48521904D01*
X78620952Y-48521904D01*
X78430476Y-48474285D01*
X78335238Y-48426666D01*
X78240000Y-48331428D01*
X78192380Y-48188571D01*
X78192380Y-48093333D01*
X78240000Y-47950476D01*
X78287619Y-47902857D01*
X78287619Y-47521904D02*
X78240000Y-47474285D01*
X78192380Y-47379047D01*
X78192380Y-47140952D01*
X78240000Y-47045714D01*
X78287619Y-46998095D01*
X78382857Y-46950476D01*
X78478095Y-46950476D01*
X78620952Y-46998095D01*
X79192380Y-47569523D01*
X79192380Y-46950476D01*
X78192380Y-46617142D02*
X78192380Y-45998095D01*
X78573333Y-46331428D01*
X78573333Y-46188571D01*
X78620952Y-46093333D01*
X78668571Y-46045714D01*
X78763809Y-45998095D01*
X79001904Y-45998095D01*
X79097142Y-46045714D01*
X79144761Y-46093333D01*
X79192380Y-46188571D01*
X79192380Y-46474285D01*
X79144761Y-46569523D01*
X79097142Y-46617142D01*
X78620952Y-45426666D02*
X78573333Y-45521904D01*
X78525714Y-45569523D01*
X78430476Y-45617142D01*
X78382857Y-45617142D01*
X78287619Y-45569523D01*
X78240000Y-45521904D01*
X78192380Y-45426666D01*
X78192380Y-45236190D01*
X78240000Y-45140952D01*
X78287619Y-45093333D01*
X78382857Y-45045714D01*
X78430476Y-45045714D01*
X78525714Y-45093333D01*
X78573333Y-45140952D01*
X78620952Y-45236190D01*
X78620952Y-45426666D01*
X78668571Y-45521904D01*
X78716190Y-45569523D01*
X78811428Y-45617142D01*
X79001904Y-45617142D01*
X79097142Y-45569523D01*
X79144761Y-45521904D01*
X79192380Y-45426666D01*
X79192380Y-45236190D01*
X79144761Y-45140952D01*
X79097142Y-45093333D01*
X79001904Y-45045714D01*
X78811428Y-45045714D01*
X78716190Y-45093333D01*
X78668571Y-45140952D01*
X78620952Y-45236190D01*
X20384761Y-77866666D02*
X20432380Y-77866666D01*
X20289523Y-77819047D02*
X20432380Y-77819047D01*
X20194285Y-77771428D02*
X20432380Y-77771428D01*
X20099047Y-77723809D02*
X20432380Y-77723809D01*
X20051428Y-77676190D02*
X20432380Y-77676190D01*
X19956190Y-77628571D02*
X20432380Y-77628571D01*
X19860952Y-77580952D02*
X20432380Y-77580952D01*
X19765714Y-77533333D02*
X20432380Y-77533333D01*
X19670476Y-77485714D02*
X20432380Y-77485714D01*
X19765714Y-77438095D02*
X20432380Y-77438095D01*
X19860952Y-77390476D02*
X20432380Y-77390476D01*
X19956190Y-77342857D02*
X20432380Y-77342857D01*
X20051428Y-77295238D02*
X20432380Y-77295238D01*
X20099047Y-77247619D02*
X20432380Y-77247619D01*
X20194285Y-77200000D02*
X20432380Y-77200000D01*
X20289523Y-77152380D02*
X20432380Y-77152380D01*
X20432380Y-77104761D02*
X19718095Y-77485714D01*
X20432380Y-77866666D01*
X20384761Y-77104761D02*
X20432380Y-77104761D01*
X19670476Y-77485714D02*
X20432380Y-77057142D01*
X20432380Y-77914285D01*
X19670476Y-77485714D01*
X19432380Y-76771428D02*
X19432380Y-76200000D01*
X20432380Y-76485714D02*
X19432380Y-76485714D01*
X20432380Y-75723809D02*
X20384761Y-75819047D01*
X20337142Y-75866666D01*
X20241904Y-75914285D01*
X19956190Y-75914285D01*
X19860952Y-75866666D01*
X19813333Y-75819047D01*
X19765714Y-75723809D01*
X19765714Y-75580952D01*
X19813333Y-75485714D01*
X19860952Y-75438095D01*
X19956190Y-75390476D01*
X20241904Y-75390476D01*
X20337142Y-75438095D01*
X20384761Y-75485714D01*
X20432380Y-75580952D01*
X20432380Y-75723809D01*
X19765714Y-74961904D02*
X20765714Y-74961904D01*
X19813333Y-74961904D02*
X19765714Y-74866666D01*
X19765714Y-74676190D01*
X19813333Y-74580952D01*
X19860952Y-74533333D01*
X19956190Y-74485714D01*
X20241904Y-74485714D01*
X20337142Y-74533333D01*
X20384761Y-74580952D01*
X20432380Y-74676190D01*
X20432380Y-74866666D01*
X20384761Y-74961904D01*
X22652380Y-79747619D02*
X22652380Y-79176190D01*
X23652380Y-79461904D02*
X22652380Y-79461904D01*
X23557142Y-78271428D02*
X23604761Y-78319047D01*
X23652380Y-78461904D01*
X23652380Y-78557142D01*
X23604761Y-78700000D01*
X23509523Y-78795238D01*
X23414285Y-78842857D01*
X23223809Y-78890476D01*
X23080952Y-78890476D01*
X22890476Y-78842857D01*
X22795238Y-78795238D01*
X22700000Y-78700000D01*
X22652380Y-78557142D01*
X22652380Y-78461904D01*
X22700000Y-78319047D01*
X22747619Y-78271428D01*
X23366666Y-77890476D02*
X23366666Y-77414285D01*
X23652380Y-77985714D02*
X22652380Y-77652380D01*
X23652380Y-77319047D01*
X23652380Y-76938095D02*
X23652380Y-76747619D01*
X23604761Y-76652380D01*
X23557142Y-76604761D01*
X23414285Y-76509523D01*
X23223809Y-76461904D01*
X22842857Y-76461904D01*
X22747619Y-76509523D01*
X22700000Y-76557142D01*
X22652380Y-76652380D01*
X22652380Y-76842857D01*
X22700000Y-76938095D01*
X22747619Y-76985714D01*
X22842857Y-77033333D01*
X23080952Y-77033333D01*
X23176190Y-76985714D01*
X23223809Y-76938095D01*
X23271428Y-76842857D01*
X23271428Y-76652380D01*
X23223809Y-76557142D01*
X23176190Y-76509523D01*
X23080952Y-76461904D01*
X22652380Y-75557142D02*
X22652380Y-76033333D01*
X23128571Y-76080952D01*
X23080952Y-76033333D01*
X23033333Y-75938095D01*
X23033333Y-75700000D01*
X23080952Y-75604761D01*
X23128571Y-75557142D01*
X23223809Y-75509523D01*
X23461904Y-75509523D01*
X23557142Y-75557142D01*
X23604761Y-75604761D01*
X23652380Y-75700000D01*
X23652380Y-75938095D01*
X23604761Y-76033333D01*
X23557142Y-76080952D01*
X22985714Y-74652380D02*
X23652380Y-74652380D01*
X22604761Y-74890476D02*
X23319047Y-75128571D01*
X23319047Y-74509523D01*
X23080952Y-73985714D02*
X23033333Y-74080952D01*
X22985714Y-74128571D01*
X22890476Y-74176190D01*
X22842857Y-74176190D01*
X22747619Y-74128571D01*
X22700000Y-74080952D01*
X22652380Y-73985714D01*
X22652380Y-73795238D01*
X22700000Y-73700000D01*
X22747619Y-73652380D01*
X22842857Y-73604761D01*
X22890476Y-73604761D01*
X22985714Y-73652380D01*
X23033333Y-73700000D01*
X23080952Y-73795238D01*
X23080952Y-73985714D01*
X23128571Y-74080952D01*
X23176190Y-74128571D01*
X23271428Y-74176190D01*
X23461904Y-74176190D01*
X23557142Y-74128571D01*
X23604761Y-74080952D01*
X23652380Y-73985714D01*
X23652380Y-73795238D01*
X23604761Y-73700000D01*
X23557142Y-73652380D01*
X23461904Y-73604761D01*
X23271428Y-73604761D01*
X23176190Y-73652380D01*
X23128571Y-73700000D01*
X23080952Y-73795238D01*
X23366666Y-73223809D02*
X23366666Y-72747619D01*
X23652380Y-73319047D02*
X22652380Y-72985714D01*
X23652380Y-72652380D01*
X95330371Y-98768038D02*
X95330371Y-98815657D01*
X95377990Y-98672800D02*
X95377990Y-98815657D01*
X95425609Y-98577562D02*
X95425609Y-98815657D01*
X95473228Y-98482324D02*
X95473228Y-98815657D01*
X95520847Y-98434705D02*
X95520847Y-98815657D01*
X95568466Y-98339467D02*
X95568466Y-98815657D01*
X95616085Y-98244229D02*
X95616085Y-98815657D01*
X95663704Y-98148991D02*
X95663704Y-98815657D01*
X95711323Y-98053753D02*
X95711323Y-98815657D01*
X95758942Y-98148991D02*
X95758942Y-98815657D01*
X95806561Y-98244229D02*
X95806561Y-98815657D01*
X95854180Y-98339467D02*
X95854180Y-98815657D01*
X95901799Y-98434705D02*
X95901799Y-98815657D01*
X95949418Y-98482324D02*
X95949418Y-98815657D01*
X95997037Y-98577562D02*
X95997037Y-98815657D01*
X96044656Y-98672800D02*
X96044656Y-98815657D01*
X96092275Y-98815657D02*
X95711323Y-98101372D01*
X95330371Y-98815657D01*
X96092275Y-98768038D02*
X96092275Y-98815657D01*
X95711323Y-98053753D02*
X96139894Y-98815657D01*
X95282752Y-98815657D01*
X95711323Y-98053753D01*
X96568466Y-98815657D02*
X96568466Y-97815657D01*
X96806561Y-97815657D01*
X96949418Y-97863277D01*
X97044656Y-97958515D01*
X97092275Y-98053753D01*
X97139894Y-98244229D01*
X97139894Y-98387086D01*
X97092275Y-98577562D01*
X97044656Y-98672800D01*
X96949418Y-98768038D01*
X96806561Y-98815657D01*
X96568466Y-98815657D01*
X97568466Y-98815657D02*
X97568466Y-97815657D01*
X97997037Y-98768038D02*
X98139894Y-98815657D01*
X98377990Y-98815657D01*
X98473228Y-98768038D01*
X98520847Y-98720419D01*
X98568466Y-98625181D01*
X98568466Y-98529943D01*
X98520847Y-98434705D01*
X98473228Y-98387086D01*
X98377990Y-98339467D01*
X98187513Y-98291848D01*
X98092275Y-98244229D01*
X98044656Y-98196610D01*
X97997037Y-98101372D01*
X97997037Y-98006134D01*
X98044656Y-97910896D01*
X98092275Y-97863277D01*
X98187513Y-97815657D01*
X98425609Y-97815657D01*
X98568466Y-97863277D01*
X98854180Y-97815657D02*
X99425609Y-97815657D01*
X99139894Y-98815657D02*
X99139894Y-97815657D01*
X100187513Y-98148991D02*
X100187513Y-98815657D01*
X99949418Y-97768038D02*
X99711323Y-98482324D01*
X100330371Y-98482324D01*
X78070944Y-69527434D02*
X77928087Y-69479815D01*
X77689992Y-69479815D01*
X77594753Y-69527434D01*
X77547134Y-69575053D01*
X77499515Y-69670291D01*
X77499515Y-69765529D01*
X77547134Y-69860767D01*
X77594753Y-69908386D01*
X77689992Y-69956005D01*
X77880468Y-70003624D01*
X77975706Y-70051243D01*
X78023325Y-70098862D01*
X78070944Y-70194100D01*
X78070944Y-70289338D01*
X78023325Y-70384576D01*
X77975706Y-70432196D01*
X77880468Y-70479815D01*
X77642372Y-70479815D01*
X77499515Y-70432196D01*
X76689992Y-69527434D02*
X76785230Y-69479815D01*
X76975706Y-69479815D01*
X77070944Y-69527434D01*
X77118563Y-69622672D01*
X77118563Y-70003624D01*
X77070944Y-70098862D01*
X76975706Y-70146481D01*
X76785230Y-70146481D01*
X76689992Y-70098862D01*
X76642372Y-70003624D01*
X76642372Y-69908386D01*
X77118563Y-69813148D01*
X76070944Y-69479815D02*
X76166182Y-69527434D01*
X76213801Y-69622672D01*
X76213801Y-70479815D01*
X75309039Y-69527434D02*
X75404277Y-69479815D01*
X75594753Y-69479815D01*
X75689992Y-69527434D01*
X75737611Y-69622672D01*
X75737611Y-70003624D01*
X75689992Y-70098862D01*
X75594753Y-70146481D01*
X75404277Y-70146481D01*
X75309039Y-70098862D01*
X75261420Y-70003624D01*
X75261420Y-69908386D01*
X75737611Y-69813148D01*
X74404277Y-69527434D02*
X74499515Y-69479815D01*
X74689992Y-69479815D01*
X74785230Y-69527434D01*
X74832849Y-69575053D01*
X74880468Y-69670291D01*
X74880468Y-69956005D01*
X74832849Y-70051243D01*
X74785230Y-70098862D01*
X74689992Y-70146481D01*
X74499515Y-70146481D01*
X74404277Y-70098862D01*
X74118563Y-70146481D02*
X73737611Y-70146481D01*
X73975706Y-70479815D02*
X73975706Y-69622672D01*
X73928087Y-69527434D01*
X73832849Y-69479815D01*
X73737611Y-69479815D01*
X73261420Y-69479815D02*
X73356658Y-69527434D01*
X73404277Y-69575053D01*
X73451896Y-69670291D01*
X73451896Y-69956005D01*
X73404277Y-70051243D01*
X73356658Y-70098862D01*
X73261420Y-70146481D01*
X73118563Y-70146481D01*
X73023325Y-70098862D01*
X72975706Y-70051243D01*
X72928087Y-69956005D01*
X72928087Y-69670291D01*
X72975706Y-69575053D01*
X73023325Y-69527434D01*
X73118563Y-69479815D01*
X73261420Y-69479815D01*
X72499515Y-69479815D02*
X72499515Y-70146481D01*
X72499515Y-69956005D02*
X72451896Y-70051243D01*
X72404277Y-70098862D01*
X72309039Y-70146481D01*
X72213801Y-70146481D01*
X77118563Y-67869815D02*
X77118563Y-68869815D01*
X76880468Y-68869815D01*
X76737611Y-68822196D01*
X76642372Y-68726957D01*
X76594753Y-68631719D01*
X76547134Y-68441243D01*
X76547134Y-68298386D01*
X76594753Y-68107910D01*
X76642372Y-68012672D01*
X76737611Y-67917434D01*
X76880468Y-67869815D01*
X77118563Y-67869815D01*
X76118563Y-67869815D02*
X76118563Y-68536481D01*
X76118563Y-68346005D02*
X76070944Y-68441243D01*
X76023325Y-68488862D01*
X75928087Y-68536481D01*
X75832849Y-68536481D01*
X75499515Y-67869815D02*
X75499515Y-68536481D01*
X75499515Y-68869815D02*
X75547134Y-68822196D01*
X75499515Y-68774576D01*
X75451896Y-68822196D01*
X75499515Y-68869815D01*
X75499515Y-68774576D01*
X75118563Y-68536481D02*
X74880468Y-67869815D01*
X74642372Y-68536481D01*
X73880468Y-67917434D02*
X73975706Y-67869815D01*
X74166182Y-67869815D01*
X74261420Y-67917434D01*
X74309039Y-68012672D01*
X74309039Y-68393624D01*
X74261420Y-68488862D01*
X74166182Y-68536481D01*
X73975706Y-68536481D01*
X73880468Y-68488862D01*
X73832849Y-68393624D01*
X73832849Y-68298386D01*
X74309039Y-68203148D01*
X73404277Y-67869815D02*
X73404277Y-68536481D01*
X73404277Y-68346005D02*
X73356658Y-68441243D01*
X73309039Y-68488862D01*
X73213801Y-68536481D01*
X73118563Y-68536481D01*
X62421785Y-69080000D02*
X62517023Y-69127619D01*
X62659880Y-69127619D01*
X62802738Y-69080000D01*
X62897976Y-68984761D01*
X62945595Y-68889523D01*
X62993214Y-68699047D01*
X62993214Y-68556190D01*
X62945595Y-68365714D01*
X62897976Y-68270476D01*
X62802738Y-68175238D01*
X62659880Y-68127619D01*
X62564642Y-68127619D01*
X62421785Y-68175238D01*
X62374166Y-68222857D01*
X62374166Y-68556190D01*
X62564642Y-68556190D01*
X61564642Y-68175238D02*
X61659880Y-68127619D01*
X61850357Y-68127619D01*
X61945595Y-68175238D01*
X61993214Y-68270476D01*
X61993214Y-68651428D01*
X61945595Y-68746666D01*
X61850357Y-68794285D01*
X61659880Y-68794285D01*
X61564642Y-68746666D01*
X61517023Y-68651428D01*
X61517023Y-68556190D01*
X61993214Y-68460952D01*
X60659880Y-68127619D02*
X60659880Y-68651428D01*
X60707500Y-68746666D01*
X60802738Y-68794285D01*
X60993214Y-68794285D01*
X61088452Y-68746666D01*
X60659880Y-68175238D02*
X60755119Y-68127619D01*
X60993214Y-68127619D01*
X61088452Y-68175238D01*
X61136071Y-68270476D01*
X61136071Y-68365714D01*
X61088452Y-68460952D01*
X60993214Y-68508571D01*
X60755119Y-68508571D01*
X60659880Y-68556190D01*
X60183690Y-68127619D02*
X60183690Y-68794285D01*
X60183690Y-68603809D02*
X60136071Y-68699047D01*
X60088452Y-68746666D01*
X59993214Y-68794285D01*
X59897976Y-68794285D01*
X58802738Y-68127619D02*
X58802738Y-69127619D01*
X58564642Y-69127619D01*
X58421785Y-69080000D01*
X58326547Y-68984761D01*
X58278928Y-68889523D01*
X58231309Y-68699047D01*
X58231309Y-68556190D01*
X58278928Y-68365714D01*
X58326547Y-68270476D01*
X58421785Y-68175238D01*
X58564642Y-68127619D01*
X58802738Y-68127619D01*
X57802738Y-68127619D02*
X57802738Y-68794285D01*
X57802738Y-68603809D02*
X57755119Y-68699047D01*
X57707500Y-68746666D01*
X57612261Y-68794285D01*
X57517023Y-68794285D01*
X57183690Y-68127619D02*
X57183690Y-68794285D01*
X57183690Y-69127619D02*
X57231309Y-69080000D01*
X57183690Y-69032380D01*
X57136071Y-69080000D01*
X57183690Y-69127619D01*
X57183690Y-69032380D01*
X56802738Y-68794285D02*
X56564642Y-68127619D01*
X56326547Y-68794285D01*
X55564642Y-68175238D02*
X55659880Y-68127619D01*
X55850357Y-68127619D01*
X55945595Y-68175238D01*
X55993214Y-68270476D01*
X55993214Y-68651428D01*
X55945595Y-68746666D01*
X55850357Y-68794285D01*
X55659880Y-68794285D01*
X55564642Y-68746666D01*
X55517023Y-68651428D01*
X55517023Y-68556190D01*
X55993214Y-68460952D01*
X55088452Y-68127619D02*
X55088452Y-68794285D01*
X55088452Y-68603809D02*
X55040833Y-68699047D01*
X54993214Y-68746666D01*
X54897976Y-68794285D01*
X54802738Y-68794285D01*
X109624761Y-86272380D02*
X109672380Y-86272380D01*
X109529523Y-86224761D02*
X109672380Y-86224761D01*
X109434285Y-86177142D02*
X109672380Y-86177142D01*
X109339047Y-86129523D02*
X109672380Y-86129523D01*
X109291428Y-86081904D02*
X109672380Y-86081904D01*
X109196190Y-86034285D02*
X109672380Y-86034285D01*
X109100952Y-85986666D02*
X109672380Y-85986666D01*
X109005714Y-85939047D02*
X109672380Y-85939047D01*
X108910476Y-85891428D02*
X109672380Y-85891428D01*
X109005714Y-85843809D02*
X109672380Y-85843809D01*
X109100952Y-85796190D02*
X109672380Y-85796190D01*
X109196190Y-85748571D02*
X109672380Y-85748571D01*
X109291428Y-85700952D02*
X109672380Y-85700952D01*
X109339047Y-85653333D02*
X109672380Y-85653333D01*
X109434285Y-85605714D02*
X109672380Y-85605714D01*
X109529523Y-85558095D02*
X109672380Y-85558095D01*
X109672380Y-85510476D02*
X108958095Y-85891428D01*
X109672380Y-86272380D01*
X109624761Y-85510476D02*
X109672380Y-85510476D01*
X108910476Y-85891428D02*
X109672380Y-85462857D01*
X109672380Y-86320000D01*
X108910476Y-85891428D01*
X109672380Y-85034285D02*
X108672380Y-85034285D01*
X108672380Y-84796190D01*
X108720000Y-84653333D01*
X108815238Y-84558095D01*
X108910476Y-84510476D01*
X109100952Y-84462857D01*
X109243809Y-84462857D01*
X109434285Y-84510476D01*
X109529523Y-84558095D01*
X109624761Y-84653333D01*
X109672380Y-84796190D01*
X109672380Y-85034285D01*
X109672380Y-84034285D02*
X108672380Y-84034285D01*
X109624761Y-83605714D02*
X109672380Y-83462857D01*
X109672380Y-83224761D01*
X109624761Y-83129523D01*
X109577142Y-83081904D01*
X109481904Y-83034285D01*
X109386666Y-83034285D01*
X109291428Y-83081904D01*
X109243809Y-83129523D01*
X109196190Y-83224761D01*
X109148571Y-83415238D01*
X109100952Y-83510476D01*
X109053333Y-83558095D01*
X108958095Y-83605714D01*
X108862857Y-83605714D01*
X108767619Y-83558095D01*
X108720000Y-83510476D01*
X108672380Y-83415238D01*
X108672380Y-83177142D01*
X108720000Y-83034285D01*
X108672380Y-82748571D02*
X108672380Y-82177142D01*
X109672380Y-82462857D02*
X108672380Y-82462857D01*
X108672380Y-81939047D02*
X108672380Y-81320000D01*
X109053333Y-81653333D01*
X109053333Y-81510476D01*
X109100952Y-81415238D01*
X109148571Y-81367619D01*
X109243809Y-81320000D01*
X109481904Y-81320000D01*
X109577142Y-81367619D01*
X109624761Y-81415238D01*
X109672380Y-81510476D01*
X109672380Y-81796190D01*
X109624761Y-81891428D01*
X109577142Y-81939047D01*
X77081428Y-14978095D02*
X77081428Y-14930476D01*
X77033809Y-15073333D02*
X77033809Y-14930476D01*
X76986190Y-15168571D02*
X76986190Y-14930476D01*
X76938571Y-15263809D02*
X76938571Y-14930476D01*
X76890952Y-15311428D02*
X76890952Y-14930476D01*
X76843333Y-15406666D02*
X76843333Y-14930476D01*
X76795714Y-15501904D02*
X76795714Y-14930476D01*
X76748095Y-15597142D02*
X76748095Y-14930476D01*
X76700476Y-15692380D02*
X76700476Y-14930476D01*
X76652857Y-15597142D02*
X76652857Y-14930476D01*
X76605238Y-15501904D02*
X76605238Y-14930476D01*
X76557619Y-15406666D02*
X76557619Y-14930476D01*
X76510000Y-15311428D02*
X76510000Y-14930476D01*
X76462380Y-15263809D02*
X76462380Y-14930476D01*
X76414761Y-15168571D02*
X76414761Y-14930476D01*
X76367142Y-15073333D02*
X76367142Y-14930476D01*
X76319523Y-14930476D02*
X76700476Y-15644761D01*
X77081428Y-14930476D01*
X76319523Y-14978095D02*
X76319523Y-14930476D01*
X76700476Y-15692380D02*
X76271904Y-14930476D01*
X77129047Y-14930476D01*
X76700476Y-15692380D01*
X78129047Y-15597142D02*
X78081428Y-15644761D01*
X77938571Y-15692380D01*
X77843333Y-15692380D01*
X77700476Y-15644761D01*
X77605238Y-15549523D01*
X77557619Y-15454285D01*
X77510000Y-15263809D01*
X77510000Y-15120952D01*
X77557619Y-14930476D01*
X77605238Y-14835238D01*
X77700476Y-14740000D01*
X77843333Y-14692380D01*
X77938571Y-14692380D01*
X78081428Y-14740000D01*
X78129047Y-14787619D01*
X79033809Y-15692380D02*
X78557619Y-15692380D01*
X78557619Y-14692380D01*
X79367142Y-14692380D02*
X79367142Y-15501904D01*
X79414761Y-15597142D01*
X79462380Y-15644761D01*
X79557619Y-15692380D01*
X79748095Y-15692380D01*
X79843333Y-15644761D01*
X79890952Y-15597142D01*
X79938571Y-15501904D01*
X79938571Y-14692380D01*
X80271904Y-14692380D02*
X80843333Y-14692380D01*
X80557619Y-15692380D02*
X80557619Y-14692380D01*
X81748095Y-15597142D02*
X81700476Y-15644761D01*
X81557619Y-15692380D01*
X81462380Y-15692380D01*
X81319523Y-15644761D01*
X81224285Y-15549523D01*
X81176666Y-15454285D01*
X81129047Y-15263809D01*
X81129047Y-15120952D01*
X81176666Y-14930476D01*
X81224285Y-14835238D01*
X81319523Y-14740000D01*
X81462380Y-14692380D01*
X81557619Y-14692380D01*
X81700476Y-14740000D01*
X81748095Y-14787619D01*
X82176666Y-15692380D02*
X82176666Y-14692380D01*
X82176666Y-15168571D02*
X82748095Y-15168571D01*
X82748095Y-15692380D02*
X82748095Y-14692380D01*
X83748095Y-15692380D02*
X83176666Y-15692380D01*
X83462380Y-15692380D02*
X83462380Y-14692380D01*
X83367142Y-14835238D01*
X83271904Y-14930476D01*
X83176666Y-14978095D01*
X57546666Y-85955238D02*
X57546666Y-85907619D01*
X57499047Y-86050476D02*
X57499047Y-85907619D01*
X57451428Y-86145714D02*
X57451428Y-85907619D01*
X57403809Y-86240952D02*
X57403809Y-85907619D01*
X57356190Y-86288571D02*
X57356190Y-85907619D01*
X57308571Y-86383809D02*
X57308571Y-85907619D01*
X57260952Y-86479047D02*
X57260952Y-85907619D01*
X57213333Y-86574285D02*
X57213333Y-85907619D01*
X57165714Y-86669523D02*
X57165714Y-85907619D01*
X57118095Y-86574285D02*
X57118095Y-85907619D01*
X57070476Y-86479047D02*
X57070476Y-85907619D01*
X57022857Y-86383809D02*
X57022857Y-85907619D01*
X56975238Y-86288571D02*
X56975238Y-85907619D01*
X56927619Y-86240952D02*
X56927619Y-85907619D01*
X56880000Y-86145714D02*
X56880000Y-85907619D01*
X56832380Y-86050476D02*
X56832380Y-85907619D01*
X56784761Y-85907619D02*
X57165714Y-86621904D01*
X57546666Y-85907619D01*
X56784761Y-85955238D02*
X56784761Y-85907619D01*
X57165714Y-86669523D02*
X56737142Y-85907619D01*
X57594285Y-85907619D01*
X57165714Y-86669523D01*
X56451428Y-86907619D02*
X55880000Y-86907619D01*
X56165714Y-85907619D02*
X56165714Y-86907619D01*
X55403809Y-85907619D02*
X55499047Y-85955238D01*
X55546666Y-86002857D01*
X55594285Y-86098095D01*
X55594285Y-86383809D01*
X55546666Y-86479047D01*
X55499047Y-86526666D01*
X55403809Y-86574285D01*
X55260952Y-86574285D01*
X55165714Y-86526666D01*
X55118095Y-86479047D01*
X55070476Y-86383809D01*
X55070476Y-86098095D01*
X55118095Y-86002857D01*
X55165714Y-85955238D01*
X55260952Y-85907619D01*
X55403809Y-85907619D01*
X54641904Y-86574285D02*
X54641904Y-85574285D01*
X54641904Y-86526666D02*
X54546666Y-86574285D01*
X54356190Y-86574285D01*
X54260952Y-86526666D01*
X54213333Y-86479047D01*
X54165714Y-86383809D01*
X54165714Y-86098095D01*
X54213333Y-86002857D01*
X54260952Y-85955238D01*
X54356190Y-85907619D01*
X54546666Y-85907619D01*
X54641904Y-85955238D01*
X81321464Y-98768038D02*
X81321464Y-98815657D01*
X81369083Y-98672800D02*
X81369083Y-98815657D01*
X81416702Y-98577562D02*
X81416702Y-98815657D01*
X81464321Y-98482324D02*
X81464321Y-98815657D01*
X81511940Y-98434705D02*
X81511940Y-98815657D01*
X81559559Y-98339467D02*
X81559559Y-98815657D01*
X81607178Y-98244229D02*
X81607178Y-98815657D01*
X81654797Y-98148991D02*
X81654797Y-98815657D01*
X81702416Y-98053753D02*
X81702416Y-98815657D01*
X81750035Y-98148991D02*
X81750035Y-98815657D01*
X81797654Y-98244229D02*
X81797654Y-98815657D01*
X81845273Y-98339467D02*
X81845273Y-98815657D01*
X81892892Y-98434705D02*
X81892892Y-98815657D01*
X81940511Y-98482324D02*
X81940511Y-98815657D01*
X81988130Y-98577562D02*
X81988130Y-98815657D01*
X82035749Y-98672800D02*
X82035749Y-98815657D01*
X82083368Y-98815657D02*
X81702416Y-98101372D01*
X81321464Y-98815657D01*
X82083368Y-98768038D02*
X82083368Y-98815657D01*
X81702416Y-98053753D02*
X82130987Y-98815657D01*
X81273845Y-98815657D01*
X81702416Y-98053753D01*
X82559559Y-98815657D02*
X82559559Y-97815657D01*
X82797654Y-97815657D01*
X82940511Y-97863277D01*
X83035749Y-97958515D01*
X83083368Y-98053753D01*
X83130987Y-98244229D01*
X83130987Y-98387086D01*
X83083368Y-98577562D01*
X83035749Y-98672800D01*
X82940511Y-98768038D01*
X82797654Y-98815657D01*
X82559559Y-98815657D01*
X83559559Y-98815657D02*
X83559559Y-97815657D01*
X83988130Y-98768038D02*
X84130987Y-98815657D01*
X84369083Y-98815657D01*
X84464321Y-98768038D01*
X84511940Y-98720419D01*
X84559559Y-98625181D01*
X84559559Y-98529943D01*
X84511940Y-98434705D01*
X84464321Y-98387086D01*
X84369083Y-98339467D01*
X84178606Y-98291848D01*
X84083368Y-98244229D01*
X84035749Y-98196610D01*
X83988130Y-98101372D01*
X83988130Y-98006134D01*
X84035749Y-97910896D01*
X84083368Y-97863277D01*
X84178606Y-97815657D01*
X84416702Y-97815657D01*
X84559559Y-97863277D01*
X84845273Y-97815657D02*
X85416702Y-97815657D01*
X85130987Y-98815657D02*
X85130987Y-97815657D01*
X86226225Y-97815657D02*
X85750035Y-97815657D01*
X85702416Y-98291848D01*
X85750035Y-98244229D01*
X85845273Y-98196610D01*
X86083368Y-98196610D01*
X86178606Y-98244229D01*
X86226225Y-98291848D01*
X86273845Y-98387086D01*
X86273845Y-98625181D01*
X86226225Y-98720419D01*
X86178606Y-98768038D01*
X86083368Y-98815657D01*
X85845273Y-98815657D01*
X85750035Y-98768038D01*
X85702416Y-98720419D01*
X50411428Y-14978095D02*
X50411428Y-14930476D01*
X50363809Y-15073333D02*
X50363809Y-14930476D01*
X50316190Y-15168571D02*
X50316190Y-14930476D01*
X50268571Y-15263809D02*
X50268571Y-14930476D01*
X50220952Y-15311428D02*
X50220952Y-14930476D01*
X50173333Y-15406666D02*
X50173333Y-14930476D01*
X50125714Y-15501904D02*
X50125714Y-14930476D01*
X50078095Y-15597142D02*
X50078095Y-14930476D01*
X50030476Y-15692380D02*
X50030476Y-14930476D01*
X49982857Y-15597142D02*
X49982857Y-14930476D01*
X49935238Y-15501904D02*
X49935238Y-14930476D01*
X49887619Y-15406666D02*
X49887619Y-14930476D01*
X49840000Y-15311428D02*
X49840000Y-14930476D01*
X49792380Y-15263809D02*
X49792380Y-14930476D01*
X49744761Y-15168571D02*
X49744761Y-14930476D01*
X49697142Y-15073333D02*
X49697142Y-14930476D01*
X49649523Y-14930476D02*
X50030476Y-15644761D01*
X50411428Y-14930476D01*
X49649523Y-14978095D02*
X49649523Y-14930476D01*
X50030476Y-15692380D02*
X49601904Y-14930476D01*
X50459047Y-14930476D01*
X50030476Y-15692380D01*
X51459047Y-15597142D02*
X51411428Y-15644761D01*
X51268571Y-15692380D01*
X51173333Y-15692380D01*
X51030476Y-15644761D01*
X50935238Y-15549523D01*
X50887619Y-15454285D01*
X50840000Y-15263809D01*
X50840000Y-15120952D01*
X50887619Y-14930476D01*
X50935238Y-14835238D01*
X51030476Y-14740000D01*
X51173333Y-14692380D01*
X51268571Y-14692380D01*
X51411428Y-14740000D01*
X51459047Y-14787619D01*
X52363809Y-15692380D02*
X51887619Y-15692380D01*
X51887619Y-14692380D01*
X52697142Y-14692380D02*
X52697142Y-15501904D01*
X52744761Y-15597142D01*
X52792380Y-15644761D01*
X52887619Y-15692380D01*
X53078095Y-15692380D01*
X53173333Y-15644761D01*
X53220952Y-15597142D01*
X53268571Y-15501904D01*
X53268571Y-14692380D01*
X53601904Y-14692380D02*
X54173333Y-14692380D01*
X53887619Y-15692380D02*
X53887619Y-14692380D01*
X55078095Y-15597142D02*
X55030476Y-15644761D01*
X54887619Y-15692380D01*
X54792380Y-15692380D01*
X54649523Y-15644761D01*
X54554285Y-15549523D01*
X54506666Y-15454285D01*
X54459047Y-15263809D01*
X54459047Y-15120952D01*
X54506666Y-14930476D01*
X54554285Y-14835238D01*
X54649523Y-14740000D01*
X54792380Y-14692380D01*
X54887619Y-14692380D01*
X55030476Y-14740000D01*
X55078095Y-14787619D01*
X55506666Y-15692380D02*
X55506666Y-14692380D01*
X55506666Y-15168571D02*
X56078095Y-15168571D01*
X56078095Y-15692380D02*
X56078095Y-14692380D01*
X56982857Y-15025714D02*
X56982857Y-15692380D01*
X56744761Y-14644761D02*
X56506666Y-15359047D01*
X57125714Y-15359047D01*
X53478810Y-98810215D02*
X53478810Y-98857834D01*
X53526429Y-98714977D02*
X53526429Y-98857834D01*
X53574048Y-98619739D02*
X53574048Y-98857834D01*
X53621667Y-98524501D02*
X53621667Y-98857834D01*
X53669286Y-98476882D02*
X53669286Y-98857834D01*
X53716905Y-98381644D02*
X53716905Y-98857834D01*
X53764524Y-98286406D02*
X53764524Y-98857834D01*
X53812143Y-98191168D02*
X53812143Y-98857834D01*
X53859762Y-98095930D02*
X53859762Y-98857834D01*
X53907381Y-98191168D02*
X53907381Y-98857834D01*
X53955000Y-98286406D02*
X53955000Y-98857834D01*
X54002619Y-98381644D02*
X54002619Y-98857834D01*
X54050238Y-98476882D02*
X54050238Y-98857834D01*
X54097857Y-98524501D02*
X54097857Y-98857834D01*
X54145476Y-98619739D02*
X54145476Y-98857834D01*
X54193095Y-98714977D02*
X54193095Y-98857834D01*
X54240714Y-98857834D02*
X53859762Y-98143549D01*
X53478810Y-98857834D01*
X54240714Y-98810215D02*
X54240714Y-98857834D01*
X53859762Y-98095930D02*
X54288333Y-98857834D01*
X53431191Y-98857834D01*
X53859762Y-98095930D01*
X54716905Y-98857834D02*
X54716905Y-97857834D01*
X54955000Y-97857834D01*
X55097857Y-97905454D01*
X55193095Y-98000692D01*
X55240714Y-98095930D01*
X55288333Y-98286406D01*
X55288333Y-98429263D01*
X55240714Y-98619739D01*
X55193095Y-98714977D01*
X55097857Y-98810215D01*
X54955000Y-98857834D01*
X54716905Y-98857834D01*
X55716905Y-98857834D02*
X55716905Y-97857834D01*
X56145476Y-98810215D02*
X56288333Y-98857834D01*
X56526429Y-98857834D01*
X56621667Y-98810215D01*
X56669286Y-98762596D01*
X56716905Y-98667358D01*
X56716905Y-98572120D01*
X56669286Y-98476882D01*
X56621667Y-98429263D01*
X56526429Y-98381644D01*
X56335952Y-98334025D01*
X56240714Y-98286406D01*
X56193095Y-98238787D01*
X56145476Y-98143549D01*
X56145476Y-98048311D01*
X56193095Y-97953073D01*
X56240714Y-97905454D01*
X56335952Y-97857834D01*
X56574048Y-97857834D01*
X56716905Y-97905454D01*
X57002619Y-97857834D02*
X57574048Y-97857834D01*
X57288333Y-98857834D02*
X57288333Y-97857834D01*
X57812143Y-97857834D02*
X58478810Y-97857834D01*
X58050238Y-98857834D01*
X29713419Y-23606706D02*
X29713419Y-23559087D01*
X29665799Y-23701944D02*
X29665799Y-23559087D01*
X29618180Y-23797182D02*
X29618180Y-23559087D01*
X29570561Y-23892420D02*
X29570561Y-23559087D01*
X29522942Y-23940039D02*
X29522942Y-23559087D01*
X29475323Y-24035277D02*
X29475323Y-23559087D01*
X29427704Y-24130515D02*
X29427704Y-23559087D01*
X29380085Y-24225753D02*
X29380085Y-23559087D01*
X29332466Y-24320991D02*
X29332466Y-23559087D01*
X29284847Y-24225753D02*
X29284847Y-23559087D01*
X29237228Y-24130515D02*
X29237228Y-23559087D01*
X29189609Y-24035277D02*
X29189609Y-23559087D01*
X29141990Y-23940039D02*
X29141990Y-23559087D01*
X29094371Y-23892420D02*
X29094371Y-23559087D01*
X29046752Y-23797182D02*
X29046752Y-23559087D01*
X28999133Y-23701944D02*
X28999133Y-23559087D01*
X28951514Y-23559087D02*
X29332466Y-24273372D01*
X29713419Y-23559087D01*
X28951514Y-23606706D02*
X28951514Y-23559087D01*
X29332466Y-24320991D02*
X28903895Y-23559087D01*
X29761038Y-23559087D01*
X29332466Y-24320991D01*
X30141990Y-24273372D02*
X30284847Y-24320991D01*
X30522942Y-24320991D01*
X30618180Y-24273372D01*
X30665799Y-24225753D01*
X30713419Y-24130515D01*
X30713419Y-24035277D01*
X30665799Y-23940039D01*
X30618180Y-23892420D01*
X30522942Y-23844801D01*
X30332466Y-23797182D01*
X30237228Y-23749563D01*
X30189609Y-23701944D01*
X30141990Y-23606706D01*
X30141990Y-23511468D01*
X30189609Y-23416230D01*
X30237228Y-23368611D01*
X30332466Y-23320991D01*
X30570561Y-23320991D01*
X30713419Y-23368611D01*
X31141990Y-23797182D02*
X31475323Y-23797182D01*
X31618180Y-24320991D02*
X31141990Y-24320991D01*
X31141990Y-23320991D01*
X31618180Y-23320991D01*
X32618180Y-24320991D02*
X32284847Y-23844801D01*
X32046752Y-24320991D02*
X32046752Y-23320991D01*
X32427704Y-23320991D01*
X32522942Y-23368611D01*
X32570561Y-23416230D01*
X32618180Y-23511468D01*
X32618180Y-23654325D01*
X32570561Y-23749563D01*
X32522942Y-23797182D01*
X32427704Y-23844801D01*
X32046752Y-23844801D01*
X32903895Y-23320991D02*
X33237228Y-24320991D01*
X33570561Y-23320991D01*
X34094371Y-23320991D02*
X34284847Y-23320991D01*
X34380085Y-23368611D01*
X34475323Y-23463849D01*
X34522942Y-23654325D01*
X34522942Y-23987658D01*
X34475323Y-24178134D01*
X34380085Y-24273372D01*
X34284847Y-24320991D01*
X34094371Y-24320991D01*
X33999133Y-24273372D01*
X33903895Y-24178134D01*
X33856276Y-23987658D01*
X33856276Y-23654325D01*
X33903895Y-23463849D01*
X33999133Y-23368611D01*
X34094371Y-23320991D01*
X87833324Y-66690574D02*
X87833324Y-66738193D01*
X87880943Y-66595336D02*
X87880943Y-66738193D01*
X87928562Y-66500098D02*
X87928562Y-66738193D01*
X87976181Y-66404860D02*
X87976181Y-66738193D01*
X88023800Y-66357241D02*
X88023800Y-66738193D01*
X88071419Y-66262003D02*
X88071419Y-66738193D01*
X88119038Y-66166765D02*
X88119038Y-66738193D01*
X88166657Y-66071527D02*
X88166657Y-66738193D01*
X88214276Y-65976289D02*
X88214276Y-66738193D01*
X88261895Y-66071527D02*
X88261895Y-66738193D01*
X88309514Y-66166765D02*
X88309514Y-66738193D01*
X88357133Y-66262003D02*
X88357133Y-66738193D01*
X88404752Y-66357241D02*
X88404752Y-66738193D01*
X88452371Y-66404860D02*
X88452371Y-66738193D01*
X88499990Y-66500098D02*
X88499990Y-66738193D01*
X88547610Y-66595336D02*
X88547610Y-66738193D01*
X88595229Y-66738193D02*
X88214276Y-66023908D01*
X87833324Y-66738193D01*
X88595229Y-66690574D02*
X88595229Y-66738193D01*
X88214276Y-65976289D02*
X88642848Y-66738193D01*
X87785705Y-66738193D01*
X88214276Y-65976289D01*
X89642848Y-66738193D02*
X89309514Y-66262003D01*
X89071419Y-66738193D02*
X89071419Y-65738193D01*
X89452371Y-65738193D01*
X89547610Y-65785813D01*
X89595229Y-65833432D01*
X89642848Y-65928670D01*
X89642848Y-66071527D01*
X89595229Y-66166765D01*
X89547610Y-66214384D01*
X89452371Y-66262003D01*
X89071419Y-66262003D01*
X90452371Y-66690574D02*
X90357133Y-66738193D01*
X90166657Y-66738193D01*
X90071419Y-66690574D01*
X90023800Y-66595336D01*
X90023800Y-66214384D01*
X90071419Y-66119146D01*
X90166657Y-66071527D01*
X90357133Y-66071527D01*
X90452371Y-66119146D01*
X90499990Y-66214384D01*
X90499990Y-66309622D01*
X90023800Y-66404860D01*
X90833324Y-66071527D02*
X91023800Y-66738193D01*
X91214276Y-66262003D01*
X91404752Y-66738193D01*
X91595229Y-66071527D01*
X91976181Y-66738193D02*
X91976181Y-66071527D01*
X91976181Y-65738193D02*
X91928562Y-65785813D01*
X91976181Y-65833432D01*
X92023800Y-65785813D01*
X91976181Y-65738193D01*
X91976181Y-65833432D01*
X92452371Y-66071527D02*
X92452371Y-66738193D01*
X92452371Y-66166765D02*
X92499990Y-66119146D01*
X92595229Y-66071527D01*
X92738086Y-66071527D01*
X92833324Y-66119146D01*
X92880943Y-66214384D01*
X92880943Y-66738193D01*
X93785705Y-66738193D02*
X93785705Y-65738193D01*
X93785705Y-66690574D02*
X93690467Y-66738193D01*
X93499990Y-66738193D01*
X93404752Y-66690574D01*
X93357133Y-66642955D01*
X93309514Y-66547717D01*
X93309514Y-66262003D01*
X93357133Y-66166765D01*
X93404752Y-66119146D01*
X93499990Y-66071527D01*
X93690467Y-66071527D01*
X93785705Y-66119146D01*
X94642848Y-66690574D02*
X94547610Y-66738193D01*
X94357133Y-66738193D01*
X94261895Y-66690574D01*
X94214276Y-66595336D01*
X94214276Y-66214384D01*
X94261895Y-66119146D01*
X94357133Y-66071527D01*
X94547610Y-66071527D01*
X94642848Y-66119146D01*
X94690467Y-66214384D01*
X94690467Y-66309622D01*
X94214276Y-66404860D01*
X95119038Y-66738193D02*
X95119038Y-66071527D01*
X95119038Y-66262003D02*
X95166657Y-66166765D01*
X95214276Y-66119146D01*
X95309514Y-66071527D01*
X95404752Y-66071527D01*
X23741428Y-14978095D02*
X23741428Y-14930476D01*
X23693809Y-15073333D02*
X23693809Y-14930476D01*
X23646190Y-15168571D02*
X23646190Y-14930476D01*
X23598571Y-15263809D02*
X23598571Y-14930476D01*
X23550952Y-15311428D02*
X23550952Y-14930476D01*
X23503333Y-15406666D02*
X23503333Y-14930476D01*
X23455714Y-15501904D02*
X23455714Y-14930476D01*
X23408095Y-15597142D02*
X23408095Y-14930476D01*
X23360476Y-15692380D02*
X23360476Y-14930476D01*
X23312857Y-15597142D02*
X23312857Y-14930476D01*
X23265238Y-15501904D02*
X23265238Y-14930476D01*
X23217619Y-15406666D02*
X23217619Y-14930476D01*
X23170000Y-15311428D02*
X23170000Y-14930476D01*
X23122380Y-15263809D02*
X23122380Y-14930476D01*
X23074761Y-15168571D02*
X23074761Y-14930476D01*
X23027142Y-15073333D02*
X23027142Y-14930476D01*
X22979523Y-14930476D02*
X23360476Y-15644761D01*
X23741428Y-14930476D01*
X22979523Y-14978095D02*
X22979523Y-14930476D01*
X23360476Y-15692380D02*
X22931904Y-14930476D01*
X23789047Y-14930476D01*
X23360476Y-15692380D01*
X24789047Y-15597142D02*
X24741428Y-15644761D01*
X24598571Y-15692380D01*
X24503333Y-15692380D01*
X24360476Y-15644761D01*
X24265238Y-15549523D01*
X24217619Y-15454285D01*
X24170000Y-15263809D01*
X24170000Y-15120952D01*
X24217619Y-14930476D01*
X24265238Y-14835238D01*
X24360476Y-14740000D01*
X24503333Y-14692380D01*
X24598571Y-14692380D01*
X24741428Y-14740000D01*
X24789047Y-14787619D01*
X25693809Y-15692380D02*
X25217619Y-15692380D01*
X25217619Y-14692380D01*
X26027142Y-14692380D02*
X26027142Y-15501904D01*
X26074761Y-15597142D01*
X26122380Y-15644761D01*
X26217619Y-15692380D01*
X26408095Y-15692380D01*
X26503333Y-15644761D01*
X26550952Y-15597142D01*
X26598571Y-15501904D01*
X26598571Y-14692380D01*
X26931904Y-14692380D02*
X27503333Y-14692380D01*
X27217619Y-15692380D02*
X27217619Y-14692380D01*
X28408095Y-15597142D02*
X28360476Y-15644761D01*
X28217619Y-15692380D01*
X28122380Y-15692380D01*
X27979523Y-15644761D01*
X27884285Y-15549523D01*
X27836666Y-15454285D01*
X27789047Y-15263809D01*
X27789047Y-15120952D01*
X27836666Y-14930476D01*
X27884285Y-14835238D01*
X27979523Y-14740000D01*
X28122380Y-14692380D01*
X28217619Y-14692380D01*
X28360476Y-14740000D01*
X28408095Y-14787619D01*
X28836666Y-15692380D02*
X28836666Y-14692380D01*
X28836666Y-15168571D02*
X29408095Y-15168571D01*
X29408095Y-15692380D02*
X29408095Y-14692380D01*
X29789047Y-14692380D02*
X30455714Y-14692380D01*
X30027142Y-15692380D01*
X35282380Y-56332380D02*
X34710952Y-56332380D01*
X34996666Y-56332380D02*
X34996666Y-55332380D01*
X34901428Y-55475238D01*
X34806190Y-55570476D01*
X34710952Y-55618095D01*
X35901428Y-55332380D02*
X35996666Y-55332380D01*
X36091904Y-55380000D01*
X36139523Y-55427619D01*
X36187142Y-55522857D01*
X36234761Y-55713333D01*
X36234761Y-55951428D01*
X36187142Y-56141904D01*
X36139523Y-56237142D01*
X36091904Y-56284761D01*
X35996666Y-56332380D01*
X35901428Y-56332380D01*
X35806190Y-56284761D01*
X35758571Y-56237142D01*
X35710952Y-56141904D01*
X35663333Y-55951428D01*
X35663333Y-55713333D01*
X35710952Y-55522857D01*
X35758571Y-55427619D01*
X35806190Y-55380000D01*
X35901428Y-55332380D01*
X36853809Y-55332380D02*
X36949047Y-55332380D01*
X37044285Y-55380000D01*
X37091904Y-55427619D01*
X37139523Y-55522857D01*
X37187142Y-55713333D01*
X37187142Y-55951428D01*
X37139523Y-56141904D01*
X37091904Y-56237142D01*
X37044285Y-56284761D01*
X36949047Y-56332380D01*
X36853809Y-56332380D01*
X36758571Y-56284761D01*
X36710952Y-56237142D01*
X36663333Y-56141904D01*
X36615714Y-55951428D01*
X36615714Y-55713333D01*
X36663333Y-55522857D01*
X36710952Y-55427619D01*
X36758571Y-55380000D01*
X36853809Y-55332380D01*
X38044285Y-55665714D02*
X38044285Y-56332380D01*
X37615714Y-55665714D02*
X37615714Y-56189523D01*
X37663333Y-56284761D01*
X37758571Y-56332380D01*
X37901428Y-56332380D01*
X37996666Y-56284761D01*
X38044285Y-56237142D01*
X38853809Y-55808571D02*
X38520476Y-55808571D01*
X38520476Y-56332380D02*
X38520476Y-55332380D01*
X38996666Y-55332380D01*
X91047142Y-24081527D02*
X91142380Y-24081527D01*
X91237619Y-24129147D01*
X91285238Y-24176766D01*
X91332857Y-24272004D01*
X91380476Y-24462480D01*
X91380476Y-24700575D01*
X91332857Y-24891051D01*
X91285238Y-24986289D01*
X91237619Y-25033908D01*
X91142380Y-25081527D01*
X91047142Y-25081527D01*
X90951904Y-25033908D01*
X90904285Y-24986289D01*
X90856666Y-24891051D01*
X90809047Y-24700575D01*
X90809047Y-24462480D01*
X90856666Y-24272004D01*
X90904285Y-24176766D01*
X90951904Y-24129147D01*
X91047142Y-24081527D01*
X91809047Y-24986289D02*
X91856666Y-25033908D01*
X91809047Y-25081527D01*
X91761428Y-25033908D01*
X91809047Y-24986289D01*
X91809047Y-25081527D01*
X92809047Y-25081527D02*
X92237619Y-25081527D01*
X92523333Y-25081527D02*
X92523333Y-24081527D01*
X92428095Y-24224385D01*
X92332857Y-24319623D01*
X92237619Y-24367242D01*
X93666190Y-24414861D02*
X93666190Y-25081527D01*
X93237619Y-24414861D02*
X93237619Y-24938670D01*
X93285238Y-25033908D01*
X93380476Y-25081527D01*
X93523333Y-25081527D01*
X93618571Y-25033908D01*
X93666190Y-24986289D01*
X94475714Y-24557718D02*
X94142380Y-24557718D01*
X94142380Y-25081527D02*
X94142380Y-24081527D01*
X94618571Y-24081527D01*
X59301428Y-14978095D02*
X59301428Y-14930476D01*
X59253809Y-15073333D02*
X59253809Y-14930476D01*
X59206190Y-15168571D02*
X59206190Y-14930476D01*
X59158571Y-15263809D02*
X59158571Y-14930476D01*
X59110952Y-15311428D02*
X59110952Y-14930476D01*
X59063333Y-15406666D02*
X59063333Y-14930476D01*
X59015714Y-15501904D02*
X59015714Y-14930476D01*
X58968095Y-15597142D02*
X58968095Y-14930476D01*
X58920476Y-15692380D02*
X58920476Y-14930476D01*
X58872857Y-15597142D02*
X58872857Y-14930476D01*
X58825238Y-15501904D02*
X58825238Y-14930476D01*
X58777619Y-15406666D02*
X58777619Y-14930476D01*
X58730000Y-15311428D02*
X58730000Y-14930476D01*
X58682380Y-15263809D02*
X58682380Y-14930476D01*
X58634761Y-15168571D02*
X58634761Y-14930476D01*
X58587142Y-15073333D02*
X58587142Y-14930476D01*
X58539523Y-14930476D02*
X58920476Y-15644761D01*
X59301428Y-14930476D01*
X58539523Y-14978095D02*
X58539523Y-14930476D01*
X58920476Y-15692380D02*
X58491904Y-14930476D01*
X59349047Y-14930476D01*
X58920476Y-15692380D01*
X60349047Y-15597142D02*
X60301428Y-15644761D01*
X60158571Y-15692380D01*
X60063333Y-15692380D01*
X59920476Y-15644761D01*
X59825238Y-15549523D01*
X59777619Y-15454285D01*
X59730000Y-15263809D01*
X59730000Y-15120952D01*
X59777619Y-14930476D01*
X59825238Y-14835238D01*
X59920476Y-14740000D01*
X60063333Y-14692380D01*
X60158571Y-14692380D01*
X60301428Y-14740000D01*
X60349047Y-14787619D01*
X61253809Y-15692380D02*
X60777619Y-15692380D01*
X60777619Y-14692380D01*
X61587142Y-14692380D02*
X61587142Y-15501904D01*
X61634761Y-15597142D01*
X61682380Y-15644761D01*
X61777619Y-15692380D01*
X61968095Y-15692380D01*
X62063333Y-15644761D01*
X62110952Y-15597142D01*
X62158571Y-15501904D01*
X62158571Y-14692380D01*
X62491904Y-14692380D02*
X63063333Y-14692380D01*
X62777619Y-15692380D02*
X62777619Y-14692380D01*
X63968095Y-15597142D02*
X63920476Y-15644761D01*
X63777619Y-15692380D01*
X63682380Y-15692380D01*
X63539523Y-15644761D01*
X63444285Y-15549523D01*
X63396666Y-15454285D01*
X63349047Y-15263809D01*
X63349047Y-15120952D01*
X63396666Y-14930476D01*
X63444285Y-14835238D01*
X63539523Y-14740000D01*
X63682380Y-14692380D01*
X63777619Y-14692380D01*
X63920476Y-14740000D01*
X63968095Y-14787619D01*
X64396666Y-15692380D02*
X64396666Y-14692380D01*
X64396666Y-15168571D02*
X64968095Y-15168571D01*
X64968095Y-15692380D02*
X64968095Y-14692380D01*
X65349047Y-14692380D02*
X65968095Y-14692380D01*
X65634761Y-15073333D01*
X65777619Y-15073333D01*
X65872857Y-15120952D01*
X65920476Y-15168571D01*
X65968095Y-15263809D01*
X65968095Y-15501904D01*
X65920476Y-15597142D01*
X65872857Y-15644761D01*
X65777619Y-15692380D01*
X65491904Y-15692380D01*
X65396666Y-15644761D01*
X65349047Y-15597142D01*
X17502380Y-56332380D02*
X16930952Y-56332380D01*
X17216666Y-56332380D02*
X17216666Y-55332380D01*
X17121428Y-55475238D01*
X17026190Y-55570476D01*
X16930952Y-55618095D01*
X18121428Y-55332380D02*
X18216666Y-55332380D01*
X18311904Y-55380000D01*
X18359523Y-55427619D01*
X18407142Y-55522857D01*
X18454761Y-55713333D01*
X18454761Y-55951428D01*
X18407142Y-56141904D01*
X18359523Y-56237142D01*
X18311904Y-56284761D01*
X18216666Y-56332380D01*
X18121428Y-56332380D01*
X18026190Y-56284761D01*
X17978571Y-56237142D01*
X17930952Y-56141904D01*
X17883333Y-55951428D01*
X17883333Y-55713333D01*
X17930952Y-55522857D01*
X17978571Y-55427619D01*
X18026190Y-55380000D01*
X18121428Y-55332380D01*
X19073809Y-55332380D02*
X19169047Y-55332380D01*
X19264285Y-55380000D01*
X19311904Y-55427619D01*
X19359523Y-55522857D01*
X19407142Y-55713333D01*
X19407142Y-55951428D01*
X19359523Y-56141904D01*
X19311904Y-56237142D01*
X19264285Y-56284761D01*
X19169047Y-56332380D01*
X19073809Y-56332380D01*
X18978571Y-56284761D01*
X18930952Y-56237142D01*
X18883333Y-56141904D01*
X18835714Y-55951428D01*
X18835714Y-55713333D01*
X18883333Y-55522857D01*
X18930952Y-55427619D01*
X18978571Y-55380000D01*
X19073809Y-55332380D01*
X20264285Y-55665714D02*
X20264285Y-56332380D01*
X19835714Y-55665714D02*
X19835714Y-56189523D01*
X19883333Y-56284761D01*
X19978571Y-56332380D01*
X20121428Y-56332380D01*
X20216666Y-56284761D01*
X20264285Y-56237142D01*
X21073809Y-55808571D02*
X20740476Y-55808571D01*
X20740476Y-56332380D02*
X20740476Y-55332380D01*
X21216666Y-55332380D01*
X68191428Y-14978095D02*
X68191428Y-14930476D01*
X68143809Y-15073333D02*
X68143809Y-14930476D01*
X68096190Y-15168571D02*
X68096190Y-14930476D01*
X68048571Y-15263809D02*
X68048571Y-14930476D01*
X68000952Y-15311428D02*
X68000952Y-14930476D01*
X67953333Y-15406666D02*
X67953333Y-14930476D01*
X67905714Y-15501904D02*
X67905714Y-14930476D01*
X67858095Y-15597142D02*
X67858095Y-14930476D01*
X67810476Y-15692380D02*
X67810476Y-14930476D01*
X67762857Y-15597142D02*
X67762857Y-14930476D01*
X67715238Y-15501904D02*
X67715238Y-14930476D01*
X67667619Y-15406666D02*
X67667619Y-14930476D01*
X67620000Y-15311428D02*
X67620000Y-14930476D01*
X67572380Y-15263809D02*
X67572380Y-14930476D01*
X67524761Y-15168571D02*
X67524761Y-14930476D01*
X67477142Y-15073333D02*
X67477142Y-14930476D01*
X67429523Y-14930476D02*
X67810476Y-15644761D01*
X68191428Y-14930476D01*
X67429523Y-14978095D02*
X67429523Y-14930476D01*
X67810476Y-15692380D02*
X67381904Y-14930476D01*
X68239047Y-14930476D01*
X67810476Y-15692380D01*
X69239047Y-15597142D02*
X69191428Y-15644761D01*
X69048571Y-15692380D01*
X68953333Y-15692380D01*
X68810476Y-15644761D01*
X68715238Y-15549523D01*
X68667619Y-15454285D01*
X68620000Y-15263809D01*
X68620000Y-15120952D01*
X68667619Y-14930476D01*
X68715238Y-14835238D01*
X68810476Y-14740000D01*
X68953333Y-14692380D01*
X69048571Y-14692380D01*
X69191428Y-14740000D01*
X69239047Y-14787619D01*
X70143809Y-15692380D02*
X69667619Y-15692380D01*
X69667619Y-14692380D01*
X70477142Y-14692380D02*
X70477142Y-15501904D01*
X70524761Y-15597142D01*
X70572380Y-15644761D01*
X70667619Y-15692380D01*
X70858095Y-15692380D01*
X70953333Y-15644761D01*
X71000952Y-15597142D01*
X71048571Y-15501904D01*
X71048571Y-14692380D01*
X71381904Y-14692380D02*
X71953333Y-14692380D01*
X71667619Y-15692380D02*
X71667619Y-14692380D01*
X72858095Y-15597142D02*
X72810476Y-15644761D01*
X72667619Y-15692380D01*
X72572380Y-15692380D01*
X72429523Y-15644761D01*
X72334285Y-15549523D01*
X72286666Y-15454285D01*
X72239047Y-15263809D01*
X72239047Y-15120952D01*
X72286666Y-14930476D01*
X72334285Y-14835238D01*
X72429523Y-14740000D01*
X72572380Y-14692380D01*
X72667619Y-14692380D01*
X72810476Y-14740000D01*
X72858095Y-14787619D01*
X73286666Y-15692380D02*
X73286666Y-14692380D01*
X73286666Y-15168571D02*
X73858095Y-15168571D01*
X73858095Y-15692380D02*
X73858095Y-14692380D01*
X74286666Y-14787619D02*
X74334285Y-14740000D01*
X74429523Y-14692380D01*
X74667619Y-14692380D01*
X74762857Y-14740000D01*
X74810476Y-14787619D01*
X74858095Y-14882857D01*
X74858095Y-14978095D01*
X74810476Y-15120952D01*
X74239047Y-15692380D01*
X74858095Y-15692380D01*
X84843636Y-24125923D02*
X84938874Y-24125923D01*
X85034113Y-24173543D01*
X85081732Y-24221162D01*
X85129351Y-24316400D01*
X85176970Y-24506876D01*
X85176970Y-24744971D01*
X85129351Y-24935447D01*
X85081732Y-25030685D01*
X85034113Y-25078304D01*
X84938874Y-25125923D01*
X84843636Y-25125923D01*
X84748398Y-25078304D01*
X84700779Y-25030685D01*
X84653160Y-24935447D01*
X84605541Y-24744971D01*
X84605541Y-24506876D01*
X84653160Y-24316400D01*
X84700779Y-24221162D01*
X84748398Y-24173543D01*
X84843636Y-24125923D01*
X85605541Y-25030685D02*
X85653160Y-25078304D01*
X85605541Y-25125923D01*
X85557922Y-25078304D01*
X85605541Y-25030685D01*
X85605541Y-25125923D01*
X86605541Y-25125923D02*
X86034113Y-25125923D01*
X86319827Y-25125923D02*
X86319827Y-24125923D01*
X86224589Y-24268781D01*
X86129351Y-24364019D01*
X86034113Y-24411638D01*
X87462684Y-24459257D02*
X87462684Y-25125923D01*
X87034113Y-24459257D02*
X87034113Y-24983066D01*
X87081732Y-25078304D01*
X87176970Y-25125923D01*
X87319827Y-25125923D01*
X87415065Y-25078304D01*
X87462684Y-25030685D01*
X88272208Y-24602114D02*
X87938874Y-24602114D01*
X87938874Y-25125923D02*
X87938874Y-24125923D01*
X88415065Y-24125923D01*
X67291968Y-98765074D02*
X67291968Y-98812693D01*
X67339587Y-98669836D02*
X67339587Y-98812693D01*
X67387206Y-98574598D02*
X67387206Y-98812693D01*
X67434825Y-98479360D02*
X67434825Y-98812693D01*
X67482444Y-98431741D02*
X67482444Y-98812693D01*
X67530063Y-98336503D02*
X67530063Y-98812693D01*
X67577682Y-98241265D02*
X67577682Y-98812693D01*
X67625301Y-98146027D02*
X67625301Y-98812693D01*
X67672920Y-98050789D02*
X67672920Y-98812693D01*
X67720539Y-98146027D02*
X67720539Y-98812693D01*
X67768158Y-98241265D02*
X67768158Y-98812693D01*
X67815777Y-98336503D02*
X67815777Y-98812693D01*
X67863396Y-98431741D02*
X67863396Y-98812693D01*
X67911015Y-98479360D02*
X67911015Y-98812693D01*
X67958634Y-98574598D02*
X67958634Y-98812693D01*
X68006253Y-98669836D02*
X68006253Y-98812693D01*
X68053872Y-98812693D02*
X67672920Y-98098408D01*
X67291968Y-98812693D01*
X68053872Y-98765074D02*
X68053872Y-98812693D01*
X67672920Y-98050789D02*
X68101491Y-98812693D01*
X67244349Y-98812693D01*
X67672920Y-98050789D01*
X68530063Y-98812693D02*
X68530063Y-97812693D01*
X68768158Y-97812693D01*
X68911015Y-97860313D01*
X69006253Y-97955551D01*
X69053872Y-98050789D01*
X69101491Y-98241265D01*
X69101491Y-98384122D01*
X69053872Y-98574598D01*
X69006253Y-98669836D01*
X68911015Y-98765074D01*
X68768158Y-98812693D01*
X68530063Y-98812693D01*
X69530063Y-98812693D02*
X69530063Y-97812693D01*
X69958634Y-98765074D02*
X70101491Y-98812693D01*
X70339587Y-98812693D01*
X70434825Y-98765074D01*
X70482444Y-98717455D01*
X70530063Y-98622217D01*
X70530063Y-98526979D01*
X70482444Y-98431741D01*
X70434825Y-98384122D01*
X70339587Y-98336503D01*
X70149110Y-98288884D01*
X70053872Y-98241265D01*
X70006253Y-98193646D01*
X69958634Y-98098408D01*
X69958634Y-98003170D01*
X70006253Y-97907932D01*
X70053872Y-97860313D01*
X70149110Y-97812693D01*
X70387206Y-97812693D01*
X70530063Y-97860313D01*
X70815777Y-97812693D02*
X71387206Y-97812693D01*
X71101491Y-98812693D02*
X71101491Y-97812693D01*
X72149110Y-97812693D02*
X71958634Y-97812693D01*
X71863396Y-97860313D01*
X71815777Y-97907932D01*
X71720539Y-98050789D01*
X71672920Y-98241265D01*
X71672920Y-98622217D01*
X71720539Y-98717455D01*
X71768158Y-98765074D01*
X71863396Y-98812693D01*
X72053872Y-98812693D01*
X72149110Y-98765074D01*
X72196729Y-98717455D01*
X72244349Y-98622217D01*
X72244349Y-98384122D01*
X72196729Y-98288884D01*
X72149110Y-98241265D01*
X72053872Y-98193646D01*
X71863396Y-98193646D01*
X71768158Y-98241265D01*
X71720539Y-98288884D01*
X71672920Y-98384122D01*
%TO.C,*%
D11*
%TO.C,J28*%
X98583840Y-36763623D02*
X98583840Y-36013623D01*
X98583840Y-36013623D02*
X95633840Y-36013623D01*
X95633840Y-36013623D02*
X95633840Y-32963623D01*
X98583840Y-29913623D02*
X95633840Y-29913623D01*
X100833840Y-33463623D02*
X100833840Y-32463623D01*
X100833840Y-32463623D02*
X100083840Y-32463623D01*
X100083840Y-32463623D02*
X100083840Y-33463623D01*
X100083840Y-34963623D02*
X100083840Y-36763623D01*
X100833840Y-36763623D02*
X100833840Y-34963623D01*
X101133840Y-28863623D02*
X99883840Y-28863623D01*
X100843840Y-29153623D02*
X94873840Y-29153623D01*
X100833840Y-29163623D02*
X100083840Y-29163623D01*
X94873840Y-29153623D02*
X94873840Y-36773623D01*
X100083840Y-33463623D02*
X100833840Y-33463623D01*
X98583840Y-29163623D02*
X98583840Y-29913623D01*
X100083840Y-29163623D02*
X100083840Y-30963623D01*
X101133840Y-30113623D02*
X101133840Y-28863623D01*
X100083840Y-36763623D02*
X100833840Y-36763623D01*
X100833840Y-30963623D02*
X100833840Y-29163623D01*
X100843840Y-36773623D02*
X100843840Y-29153623D01*
X95633840Y-29913623D02*
X95633840Y-32963623D01*
X100833840Y-34963623D02*
X100083840Y-34963623D01*
X94873840Y-36773623D02*
X100843840Y-36773623D01*
X100083840Y-30963623D02*
X100833840Y-30963623D01*
%TO.C,J29*%
X24190000Y-27940000D02*
X21530000Y-27940000D01*
X21530000Y-27940000D02*
X21530000Y-25340000D01*
X21530000Y-30540000D02*
X21530000Y-29210000D01*
X22860000Y-30540000D02*
X21530000Y-30540000D01*
X24190000Y-27940000D02*
X24190000Y-25340000D01*
X24190000Y-25340000D02*
X21530000Y-25340000D01*
%TO.C,J10*%
X90070000Y-96965000D02*
X90070000Y-90995000D01*
X88260000Y-91005000D02*
X88260000Y-91755000D01*
X86760000Y-91005000D02*
X80760000Y-91005000D01*
X88260000Y-91755000D02*
X90060000Y-91755000D01*
X90060000Y-91005000D02*
X88260000Y-91005000D01*
X90060000Y-93255000D02*
X89310000Y-93255000D01*
X78210000Y-93255000D02*
X78210000Y-96205000D01*
X79260000Y-91005000D02*
X77460000Y-91005000D01*
X80760000Y-91755000D02*
X86760000Y-91755000D01*
X78410000Y-90705000D02*
X77160000Y-90705000D01*
X89310000Y-96205000D02*
X83760000Y-96205000D01*
X89310000Y-93255000D02*
X89310000Y-96205000D01*
X86760000Y-91755000D02*
X86760000Y-91005000D01*
X77460000Y-93255000D02*
X78210000Y-93255000D01*
X77460000Y-91755000D02*
X79260000Y-91755000D01*
X77450000Y-96965000D02*
X90070000Y-96965000D01*
X78210000Y-96205000D02*
X83760000Y-96205000D01*
X90060000Y-91755000D02*
X90060000Y-91005000D01*
X80760000Y-91005000D02*
X80760000Y-91755000D01*
X77160000Y-90705000D02*
X77160000Y-91955000D01*
X77450000Y-90995000D02*
X77450000Y-96965000D01*
X90070000Y-90995000D02*
X77450000Y-90995000D01*
X77460000Y-91005000D02*
X77460000Y-91755000D01*
X79260000Y-91755000D02*
X79260000Y-91005000D01*
%TO.C,Q9*%
X103916000Y-26710000D02*
X103916000Y-16470000D01*
X99275000Y-26710000D02*
X99275000Y-16470000D01*
X99275000Y-16470000D02*
X103916000Y-16470000D01*
X100785000Y-26710000D02*
X100785000Y-16470000D01*
X99275000Y-26710000D02*
X103916000Y-26710000D01*
X99275000Y-19739000D02*
X100785000Y-19739000D01*
X99275000Y-23440000D02*
X100785000Y-23440000D01*
%TO.C,J4*%
X61312363Y-65205000D02*
X61312363Y-64455000D01*
X62812363Y-64455000D02*
X62812363Y-65205000D01*
X52012363Y-65205000D02*
X53812363Y-65205000D01*
X63862363Y-62955000D02*
X63862363Y-60005000D01*
X61312363Y-64455000D02*
X55312363Y-64455000D01*
X53812363Y-65205000D02*
X53812363Y-64455000D01*
X63662363Y-65505000D02*
X64912363Y-65505000D01*
X64612363Y-64455000D02*
X62812363Y-64455000D01*
X52002363Y-59245000D02*
X52002363Y-65215000D01*
X64612363Y-65205000D02*
X64612363Y-64455000D01*
X55312363Y-64455000D02*
X55312363Y-65205000D01*
X53812363Y-64455000D02*
X52012363Y-64455000D01*
X55312363Y-65205000D02*
X61312363Y-65205000D01*
X52762363Y-62955000D02*
X52762363Y-60005000D01*
X63862363Y-60005000D02*
X58312363Y-60005000D01*
X52012363Y-64455000D02*
X52012363Y-65205000D01*
X64622363Y-59245000D02*
X52002363Y-59245000D01*
X64912363Y-65505000D02*
X64912363Y-64255000D01*
X62812363Y-65205000D02*
X64612363Y-65205000D01*
X64622363Y-65215000D02*
X64622363Y-59245000D01*
X52002363Y-65215000D02*
X64622363Y-65215000D01*
X64612363Y-62955000D02*
X63862363Y-62955000D01*
X52012363Y-62955000D02*
X52762363Y-62955000D01*
X52762363Y-60005000D02*
X58312363Y-60005000D01*
%TO.C,J26*%
X64800000Y-30915000D02*
X66600000Y-30915000D01*
X71600000Y-30915000D02*
X71600000Y-30165000D01*
X64790000Y-30925000D02*
X74910000Y-30925000D01*
X74150000Y-25715000D02*
X69850000Y-25715000D01*
X75200000Y-31215000D02*
X75200000Y-29965000D01*
X74900000Y-30915000D02*
X74900000Y-30165000D01*
X74150000Y-28665000D02*
X74150000Y-25715000D01*
X74910000Y-30925000D02*
X74910000Y-24955000D01*
X74910000Y-24955000D02*
X64790000Y-24955000D01*
X68100000Y-30165000D02*
X68100000Y-30915000D01*
X73100000Y-30165000D02*
X73100000Y-30915000D01*
X68100000Y-30915000D02*
X71600000Y-30915000D01*
X64800000Y-28665000D02*
X65550000Y-28665000D01*
X64800000Y-30165000D02*
X64800000Y-30915000D01*
X71600000Y-30165000D02*
X68100000Y-30165000D01*
X73950000Y-31215000D02*
X75200000Y-31215000D01*
X64790000Y-24955000D02*
X64790000Y-30925000D01*
X66600000Y-30915000D02*
X66600000Y-30165000D01*
X73100000Y-30915000D02*
X74900000Y-30915000D01*
X74900000Y-30165000D02*
X73100000Y-30165000D01*
X66600000Y-30165000D02*
X64800000Y-30165000D01*
X65550000Y-25715000D02*
X69850000Y-25715000D01*
X65550000Y-28665000D02*
X65550000Y-25715000D01*
X74900000Y-28665000D02*
X74150000Y-28665000D01*
%TO.C,J17*%
X67370000Y-16590000D02*
X67370000Y-22560000D01*
X74230000Y-20300000D02*
X74230000Y-17350000D01*
X70680000Y-22550000D02*
X71680000Y-22550000D01*
X74990000Y-16590000D02*
X67370000Y-16590000D01*
X74990000Y-22560000D02*
X74990000Y-16590000D01*
X67370000Y-22560000D02*
X74990000Y-22560000D01*
X67380000Y-22550000D02*
X69180000Y-22550000D01*
X68130000Y-20300000D02*
X68130000Y-17350000D01*
X68130000Y-17350000D02*
X71180000Y-17350000D01*
X71680000Y-22550000D02*
X71680000Y-21800000D01*
X74230000Y-17350000D02*
X71180000Y-17350000D01*
X73180000Y-21800000D02*
X73180000Y-22550000D01*
X67380000Y-20300000D02*
X68130000Y-20300000D01*
X70680000Y-21800000D02*
X70680000Y-22550000D01*
X75280000Y-22850000D02*
X75280000Y-21600000D01*
X69180000Y-21800000D02*
X67380000Y-21800000D01*
X74980000Y-21800000D02*
X73180000Y-21800000D01*
X71680000Y-21800000D02*
X70680000Y-21800000D01*
X73180000Y-22550000D02*
X74980000Y-22550000D01*
X74980000Y-22550000D02*
X74980000Y-21800000D01*
X74980000Y-20300000D02*
X74230000Y-20300000D01*
X67380000Y-21800000D02*
X67380000Y-22550000D01*
X74030000Y-22850000D02*
X75280000Y-22850000D01*
X69180000Y-22550000D02*
X69180000Y-21800000D01*
%TO.C,R7*%
X92170000Y-29110000D02*
X85630000Y-29110000D01*
X92170000Y-29440000D02*
X92170000Y-29110000D01*
X85630000Y-31850000D02*
X85630000Y-31520000D01*
X85630000Y-29110000D02*
X85630000Y-29440000D01*
X92170000Y-31520000D02*
X92170000Y-31850000D01*
X92170000Y-31850000D02*
X85630000Y-31850000D01*
%TO.C,C1*%
X95600000Y-19699000D02*
X95600000Y-18441000D01*
X97440000Y-19699000D02*
X97440000Y-18441000D01*
%TO.C,J6*%
X48150000Y-91755000D02*
X48150000Y-91005000D01*
X44850000Y-91005000D02*
X38850000Y-91005000D01*
X35550000Y-91755000D02*
X37350000Y-91755000D01*
X38850000Y-91755000D02*
X44850000Y-91755000D01*
X47400000Y-96205000D02*
X41850000Y-96205000D01*
X37350000Y-91755000D02*
X37350000Y-91005000D01*
X48150000Y-93255000D02*
X47400000Y-93255000D01*
X35540000Y-96965000D02*
X48160000Y-96965000D01*
X36500000Y-90705000D02*
X35250000Y-90705000D01*
X47400000Y-93255000D02*
X47400000Y-96205000D01*
X35540000Y-90995000D02*
X35540000Y-96965000D01*
X35250000Y-90705000D02*
X35250000Y-91955000D01*
X35550000Y-91005000D02*
X35550000Y-91755000D01*
X48150000Y-91005000D02*
X46350000Y-91005000D01*
X46350000Y-91755000D02*
X48150000Y-91755000D01*
X37350000Y-91005000D02*
X35550000Y-91005000D01*
X48160000Y-90995000D02*
X35540000Y-90995000D01*
X35550000Y-93255000D02*
X36300000Y-93255000D01*
X36300000Y-96205000D02*
X41850000Y-96205000D01*
X46350000Y-91005000D02*
X46350000Y-91755000D01*
X36300000Y-93255000D02*
X36300000Y-96205000D01*
X48160000Y-96965000D02*
X48160000Y-90995000D01*
X44850000Y-91755000D02*
X44850000Y-91005000D01*
X38850000Y-91005000D02*
X38850000Y-91755000D01*
%TO.C,C3*%
X35377000Y-56639000D02*
X38283000Y-56639000D01*
X32778000Y-60000000D02*
X40882000Y-60000000D01*
X32751000Y-60360000D02*
X40909000Y-60360000D01*
X37870000Y-58479000D02*
X40392000Y-58479000D01*
X34115000Y-64489698D02*
X34915000Y-64489698D01*
X37870000Y-59599000D02*
X40815000Y-59599000D01*
X34325000Y-57239000D02*
X39335000Y-57239000D01*
X37870000Y-59239000D02*
X40719000Y-59239000D01*
X33847000Y-57679000D02*
X39813000Y-57679000D01*
X37870000Y-59279000D02*
X40732000Y-59279000D01*
X33550000Y-58039000D02*
X35790000Y-58039000D01*
X32788000Y-59920000D02*
X40872000Y-59920000D01*
X33246000Y-58519000D02*
X35790000Y-58519000D01*
X32754000Y-60280000D02*
X40906000Y-60280000D01*
X33610000Y-57959000D02*
X35790000Y-57959000D01*
X33412000Y-58239000D02*
X35790000Y-58239000D01*
X34089000Y-57439000D02*
X39571000Y-57439000D01*
X37870000Y-57999000D02*
X40080000Y-57999000D01*
X34376000Y-57199000D02*
X39284000Y-57199000D01*
X32765000Y-60120000D02*
X40895000Y-60120000D01*
X37870000Y-57799000D02*
X39920000Y-57799000D01*
X35882000Y-56479000D02*
X37778000Y-56479000D01*
X33268000Y-58479000D02*
X35790000Y-58479000D01*
X37870000Y-57719000D02*
X39849000Y-57719000D01*
X34485000Y-57119000D02*
X39175000Y-57119000D01*
X33073000Y-58879000D02*
X35790000Y-58879000D01*
X32953000Y-59199000D02*
X35790000Y-59199000D01*
X33740000Y-57799000D02*
X35790000Y-57799000D01*
X33313000Y-58399000D02*
X35790000Y-58399000D01*
X32828000Y-59679000D02*
X35790000Y-59679000D01*
X37870000Y-58719000D02*
X40516000Y-58719000D01*
X33386000Y-58279000D02*
X35790000Y-58279000D01*
X32905000Y-59359000D02*
X35790000Y-59359000D01*
X37870000Y-58119000D02*
X40168000Y-58119000D01*
X32750000Y-60400000D02*
X40910000Y-60400000D01*
X33580000Y-57999000D02*
X35790000Y-57999000D01*
X32756000Y-60240000D02*
X40904000Y-60240000D01*
X34940000Y-56839000D02*
X38720000Y-56839000D01*
X33183000Y-58639000D02*
X35790000Y-58639000D01*
X35484000Y-56599000D02*
X38176000Y-56599000D01*
X35278000Y-56679000D02*
X38382000Y-56679000D01*
X32845000Y-59599000D02*
X35790000Y-59599000D01*
X33090000Y-58839000D02*
X35790000Y-58839000D01*
X33290000Y-58439000D02*
X35790000Y-58439000D01*
X33492000Y-58119000D02*
X35790000Y-58119000D01*
X34274000Y-57279000D02*
X39386000Y-57279000D01*
X36297000Y-56399000D02*
X37363000Y-56399000D01*
X34796000Y-56919000D02*
X38864000Y-56919000D01*
X37870000Y-59439000D02*
X40777000Y-59439000D01*
X33963000Y-57559000D02*
X39697000Y-57559000D01*
X33224000Y-58559000D02*
X35790000Y-58559000D01*
X32941000Y-59239000D02*
X35790000Y-59239000D01*
X34046000Y-57479000D02*
X39614000Y-57479000D01*
X37870000Y-58999000D02*
X40635000Y-58999000D01*
X32980000Y-59119000D02*
X35790000Y-59119000D01*
X37870000Y-59639000D02*
X40824000Y-59639000D01*
X32916000Y-59319000D02*
X35790000Y-59319000D01*
X37870000Y-58559000D02*
X40436000Y-58559000D01*
X37870000Y-58199000D02*
X40222000Y-58199000D01*
X33126000Y-58759000D02*
X35790000Y-58759000D01*
X37870000Y-58519000D02*
X40414000Y-58519000D01*
X37870000Y-58919000D02*
X40604000Y-58919000D01*
X33108000Y-58799000D02*
X35790000Y-58799000D01*
X32883000Y-59439000D02*
X35790000Y-59439000D01*
X37870000Y-58599000D02*
X40457000Y-58599000D01*
X37870000Y-58439000D02*
X40370000Y-58439000D01*
X34543000Y-57079000D02*
X39117000Y-57079000D01*
X35185000Y-56719000D02*
X38475000Y-56719000D01*
X32863000Y-59519000D02*
X35790000Y-59519000D01*
X37870000Y-59119000D02*
X40680000Y-59119000D01*
X32782000Y-59960000D02*
X40878000Y-59960000D01*
X35732000Y-56519000D02*
X37928000Y-56519000D01*
X32750000Y-60440000D02*
X40910000Y-60440000D01*
X37870000Y-57919000D02*
X40019000Y-57919000D01*
X32813000Y-59759000D02*
X35790000Y-59759000D01*
X33164000Y-58679000D02*
X35790000Y-58679000D01*
X32793000Y-59880000D02*
X40867000Y-59880000D01*
X34430000Y-57159000D02*
X39230000Y-57159000D01*
X37870000Y-58319000D02*
X40299000Y-58319000D01*
X37870000Y-59039000D02*
X40651000Y-59039000D01*
X33674000Y-57879000D02*
X35790000Y-57879000D01*
X37870000Y-58799000D02*
X40552000Y-58799000D01*
X37870000Y-57879000D02*
X39986000Y-57879000D01*
X33009000Y-59039000D02*
X35790000Y-59039000D01*
X32995000Y-59079000D02*
X35790000Y-59079000D01*
X32753000Y-60320000D02*
X40907000Y-60320000D01*
X32750000Y-60480000D02*
X40910000Y-60480000D01*
X32873000Y-59479000D02*
X35790000Y-59479000D01*
X37870000Y-57959000D02*
X40050000Y-57959000D01*
X32928000Y-59279000D02*
X35790000Y-59279000D01*
X32854000Y-59559000D02*
X35790000Y-59559000D01*
X33144000Y-58719000D02*
X35790000Y-58719000D01*
X34133000Y-57399000D02*
X39527000Y-57399000D01*
X37870000Y-59319000D02*
X40744000Y-59319000D01*
X37870000Y-58239000D02*
X40248000Y-58239000D01*
X32820000Y-59719000D02*
X35790000Y-59719000D01*
X33040000Y-58959000D02*
X35790000Y-58959000D01*
X35099000Y-56759000D02*
X38561000Y-56759000D01*
X37870000Y-58399000D02*
X40347000Y-58399000D01*
X37870000Y-58039000D02*
X40110000Y-58039000D01*
X37870000Y-59519000D02*
X40797000Y-59519000D01*
X37870000Y-58879000D02*
X40587000Y-58879000D01*
X33641000Y-57919000D02*
X35790000Y-57919000D01*
X37870000Y-58679000D02*
X40496000Y-58679000D01*
X37870000Y-58959000D02*
X40620000Y-58959000D01*
X34179000Y-57359000D02*
X39481000Y-57359000D01*
X32836000Y-59639000D02*
X35790000Y-59639000D01*
X33465000Y-58159000D02*
X35790000Y-58159000D01*
X34515000Y-64889698D02*
X34515000Y-64089698D01*
X32894000Y-59399000D02*
X35790000Y-59399000D01*
X33775000Y-57759000D02*
X35790000Y-57759000D01*
X33438000Y-58199000D02*
X35790000Y-58199000D01*
X33056000Y-58919000D02*
X35790000Y-58919000D01*
X34664000Y-56999000D02*
X38996000Y-56999000D01*
X32806000Y-59800000D02*
X40854000Y-59800000D01*
X37870000Y-57759000D02*
X39885000Y-57759000D01*
X36062000Y-56439000D02*
X37598000Y-56439000D01*
X34866000Y-56879000D02*
X38794000Y-56879000D01*
X33706000Y-57839000D02*
X35790000Y-57839000D01*
X37870000Y-59079000D02*
X40665000Y-59079000D01*
X35017000Y-56799000D02*
X38643000Y-56799000D01*
X34602000Y-57039000D02*
X39058000Y-57039000D01*
X37870000Y-59559000D02*
X40806000Y-59559000D01*
X37870000Y-59399000D02*
X40766000Y-59399000D01*
X32759000Y-60200000D02*
X40901000Y-60200000D01*
X33025000Y-58999000D02*
X35790000Y-58999000D01*
X37870000Y-59159000D02*
X40693000Y-59159000D01*
X34728000Y-56959000D02*
X38932000Y-56959000D01*
X37870000Y-58079000D02*
X40139000Y-58079000D01*
X37870000Y-59679000D02*
X40832000Y-59679000D01*
X37870000Y-59479000D02*
X40787000Y-59479000D01*
X37870000Y-58839000D02*
X40570000Y-58839000D01*
X33923000Y-57599000D02*
X39737000Y-57599000D01*
X37870000Y-58639000D02*
X40477000Y-58639000D01*
X37870000Y-59359000D02*
X40755000Y-59359000D01*
X34226000Y-57319000D02*
X39434000Y-57319000D01*
X37870000Y-58159000D02*
X40195000Y-58159000D01*
X33337000Y-58359000D02*
X35790000Y-58359000D01*
X32800000Y-59840000D02*
X40860000Y-59840000D01*
X34004000Y-57519000D02*
X39656000Y-57519000D01*
X32762000Y-60160000D02*
X40898000Y-60160000D01*
X37870000Y-58279000D02*
X40274000Y-58279000D01*
X37870000Y-58359000D02*
X40323000Y-58359000D01*
X37870000Y-58759000D02*
X40534000Y-58759000D01*
X35601000Y-56559000D02*
X38059000Y-56559000D01*
X33203000Y-58599000D02*
X35790000Y-58599000D01*
X32769000Y-60080000D02*
X40891000Y-60080000D01*
X32967000Y-59159000D02*
X35790000Y-59159000D01*
X37870000Y-59199000D02*
X40707000Y-59199000D01*
X37870000Y-59759000D02*
X40847000Y-59759000D01*
X33885000Y-57639000D02*
X39775000Y-57639000D01*
X32773000Y-60040000D02*
X40887000Y-60040000D01*
X33811000Y-57719000D02*
X35790000Y-57719000D01*
X33521000Y-58079000D02*
X35790000Y-58079000D01*
X37870000Y-59719000D02*
X40840000Y-59719000D01*
X37870000Y-57839000D02*
X39954000Y-57839000D01*
X33361000Y-58319000D02*
X35790000Y-58319000D01*
X40950000Y-60480000D02*
G75*
G03*
X40950000Y-60480000I-4120000J0D01*
G01*
D12*
%TO.C,U4*%
X50692363Y-67310000D02*
X50692363Y-87630000D01*
X65932363Y-87630000D02*
X65932363Y-67310000D01*
X50692363Y-87630000D02*
X65932363Y-87630000D01*
X65932363Y-67310000D02*
X50692363Y-67310000D01*
D11*
%TO.C,J30*%
X70427152Y-50266266D02*
X73087152Y-50266266D01*
X73087152Y-37446266D02*
X73087152Y-38776266D01*
X70427152Y-40046266D02*
X70427152Y-50266266D01*
X70427152Y-40046266D02*
X73087152Y-40046266D01*
X73087152Y-40046266D02*
X73087152Y-50266266D01*
X71757152Y-37446266D02*
X73087152Y-37446266D01*
%TO.C,R1*%
X42878995Y-59744772D02*
X42878995Y-59414772D01*
X42878995Y-62154772D02*
X49418995Y-62154772D01*
X49418995Y-62154772D02*
X49418995Y-61824772D01*
X42878995Y-61824772D02*
X42878995Y-62154772D01*
X49418995Y-59414772D02*
X49418995Y-59744772D01*
X42878995Y-59414772D02*
X49418995Y-59414772D01*
%TO.C,R5*%
X92170000Y-42010000D02*
X85630000Y-42010000D01*
X92170000Y-39270000D02*
X85630000Y-39270000D01*
X92170000Y-39600000D02*
X92170000Y-39270000D01*
X85630000Y-42010000D02*
X85630000Y-41680000D01*
X85630000Y-39270000D02*
X85630000Y-39600000D01*
X92170000Y-41680000D02*
X92170000Y-42010000D01*
%TO.C,J2*%
X97642363Y-65215000D02*
X97642363Y-59245000D01*
X96882363Y-60005000D02*
X91332363Y-60005000D01*
X97632363Y-64455000D02*
X95832363Y-64455000D01*
X85022363Y-59245000D02*
X85022363Y-65215000D01*
X88332363Y-65205000D02*
X94332363Y-65205000D01*
X97642363Y-59245000D02*
X85022363Y-59245000D01*
X96882363Y-62955000D02*
X96882363Y-60005000D01*
X86832363Y-65205000D02*
X86832363Y-64455000D01*
X97932363Y-65505000D02*
X97932363Y-64255000D01*
X85032363Y-64455000D02*
X85032363Y-65205000D01*
X88332363Y-64455000D02*
X88332363Y-65205000D01*
X85782363Y-62955000D02*
X85782363Y-60005000D01*
X85032363Y-65205000D02*
X86832363Y-65205000D01*
X97632363Y-62955000D02*
X96882363Y-62955000D01*
X85032363Y-62955000D02*
X85782363Y-62955000D01*
X86832363Y-64455000D02*
X85032363Y-64455000D01*
X96682363Y-65505000D02*
X97932363Y-65505000D01*
X85022363Y-65215000D02*
X97642363Y-65215000D01*
X94332363Y-64455000D02*
X88332363Y-64455000D01*
X95832363Y-64455000D02*
X95832363Y-65205000D01*
X97632363Y-65205000D02*
X97632363Y-64455000D01*
X94332363Y-65205000D02*
X94332363Y-64455000D01*
X85782363Y-60005000D02*
X91332363Y-60005000D01*
X95832363Y-65205000D02*
X97632363Y-65205000D01*
%TO.C,J25*%
X30000000Y-30915000D02*
X33500000Y-30915000D01*
X36810000Y-30925000D02*
X36810000Y-24955000D01*
X27450000Y-28665000D02*
X27450000Y-25715000D01*
X26690000Y-24955000D02*
X26690000Y-30925000D01*
X26700000Y-28665000D02*
X27450000Y-28665000D01*
X26690000Y-30925000D02*
X36810000Y-30925000D01*
X36050000Y-28665000D02*
X36050000Y-25715000D01*
X33500000Y-30915000D02*
X33500000Y-30165000D01*
X36800000Y-30915000D02*
X36800000Y-30165000D01*
X26700000Y-30165000D02*
X26700000Y-30915000D01*
X28500000Y-30915000D02*
X28500000Y-30165000D01*
X30000000Y-30165000D02*
X30000000Y-30915000D01*
X26700000Y-30915000D02*
X28500000Y-30915000D01*
X35850000Y-31215000D02*
X37100000Y-31215000D01*
X35000000Y-30165000D02*
X35000000Y-30915000D01*
X36810000Y-24955000D02*
X26690000Y-24955000D01*
X28500000Y-30165000D02*
X26700000Y-30165000D01*
X36050000Y-25715000D02*
X31750000Y-25715000D01*
X27450000Y-25715000D02*
X31750000Y-25715000D01*
X35000000Y-30915000D02*
X36800000Y-30915000D01*
X36800000Y-28665000D02*
X36050000Y-28665000D01*
X37100000Y-31215000D02*
X37100000Y-29965000D01*
X36800000Y-30165000D02*
X35000000Y-30165000D01*
X33500000Y-30165000D02*
X30000000Y-30165000D01*
%TO.C,U2*%
X77694000Y-25360000D02*
X77694000Y-35600000D01*
X80825000Y-25360000D02*
X80825000Y-35600000D01*
X82335000Y-28630000D02*
X80825000Y-28630000D01*
X82335000Y-25360000D02*
X77694000Y-25360000D01*
X82335000Y-35600000D02*
X77694000Y-35600000D01*
X82335000Y-25360000D02*
X82335000Y-35600000D01*
X82335000Y-32331000D02*
X80825000Y-32331000D01*
%TO.C,J5*%
X21640000Y-93255000D02*
X22390000Y-93255000D01*
X24940000Y-91005000D02*
X24940000Y-91755000D01*
X32440000Y-91755000D02*
X34240000Y-91755000D01*
X34240000Y-93255000D02*
X33490000Y-93255000D01*
X21630000Y-96965000D02*
X34250000Y-96965000D01*
X23440000Y-91755000D02*
X23440000Y-91005000D01*
X22590000Y-90705000D02*
X21340000Y-90705000D01*
X32440000Y-91005000D02*
X32440000Y-91755000D01*
X30940000Y-91005000D02*
X24940000Y-91005000D01*
X21340000Y-90705000D02*
X21340000Y-91955000D01*
X22390000Y-96205000D02*
X27940000Y-96205000D01*
X34240000Y-91005000D02*
X32440000Y-91005000D01*
X34240000Y-91755000D02*
X34240000Y-91005000D01*
X21640000Y-91755000D02*
X23440000Y-91755000D01*
X21640000Y-91005000D02*
X21640000Y-91755000D01*
X34250000Y-96965000D02*
X34250000Y-90995000D01*
X23440000Y-91005000D02*
X21640000Y-91005000D01*
X30940000Y-91755000D02*
X30940000Y-91005000D01*
X34250000Y-90995000D02*
X21630000Y-90995000D01*
X33490000Y-96205000D02*
X27940000Y-96205000D01*
X21630000Y-90995000D02*
X21630000Y-96965000D01*
X33490000Y-93255000D02*
X33490000Y-96205000D01*
X24940000Y-91755000D02*
X30940000Y-91755000D01*
X22390000Y-93255000D02*
X22390000Y-96205000D01*
%TO.C,C5*%
X20090000Y-58359000D02*
X22543000Y-58359000D01*
X20090000Y-59759000D02*
X23067000Y-59759000D01*
X16705000Y-57119000D02*
X21395000Y-57119000D01*
X20090000Y-58239000D02*
X22468000Y-58239000D01*
X15926000Y-57839000D02*
X18010000Y-57839000D01*
X14979000Y-60200000D02*
X23121000Y-60200000D01*
X16031000Y-57719000D02*
X18010000Y-57719000D01*
X15557000Y-58359000D02*
X18010000Y-58359000D01*
X15533000Y-58399000D02*
X18010000Y-58399000D01*
X17086000Y-56879000D02*
X21014000Y-56879000D01*
X15040000Y-59719000D02*
X18010000Y-59719000D01*
X15830000Y-57959000D02*
X18010000Y-57959000D01*
X16446000Y-57319000D02*
X21654000Y-57319000D01*
X15466000Y-58519000D02*
X18010000Y-58519000D01*
X20090000Y-59239000D02*
X22939000Y-59239000D01*
X14998000Y-60000000D02*
X23102000Y-60000000D01*
X15187000Y-59159000D02*
X18010000Y-59159000D01*
X15423000Y-58599000D02*
X18010000Y-58599000D01*
X20090000Y-58119000D02*
X22388000Y-58119000D01*
X18102000Y-56479000D02*
X19998000Y-56479000D01*
X15013000Y-59880000D02*
X23087000Y-59880000D01*
X15008000Y-59920000D02*
X23092000Y-59920000D01*
X20090000Y-58839000D02*
X22790000Y-58839000D01*
X20090000Y-59559000D02*
X23026000Y-59559000D01*
X16545000Y-57239000D02*
X21555000Y-57239000D01*
X20090000Y-59519000D02*
X23017000Y-59519000D01*
X15200000Y-59119000D02*
X18010000Y-59119000D01*
X14993000Y-60040000D02*
X23107000Y-60040000D01*
X15026000Y-59800000D02*
X23074000Y-59800000D01*
X20090000Y-58959000D02*
X22840000Y-58959000D01*
X17160000Y-56839000D02*
X20940000Y-56839000D01*
X16763000Y-57079000D02*
X21337000Y-57079000D01*
X20090000Y-57919000D02*
X22239000Y-57919000D01*
X15125000Y-59359000D02*
X18010000Y-59359000D01*
X16309000Y-57439000D02*
X21791000Y-57439000D01*
X15364000Y-58719000D02*
X18010000Y-58719000D01*
X15800000Y-57999000D02*
X18010000Y-57999000D01*
X15260000Y-58959000D02*
X18010000Y-58959000D01*
X20090000Y-57799000D02*
X22140000Y-57799000D01*
X15173000Y-59199000D02*
X18010000Y-59199000D01*
X17821000Y-56559000D02*
X20279000Y-56559000D01*
X15065000Y-59599000D02*
X18010000Y-59599000D01*
X17952000Y-56519000D02*
X20148000Y-56519000D01*
X20090000Y-58919000D02*
X22824000Y-58919000D01*
X14973000Y-60320000D02*
X23127000Y-60320000D01*
X15310000Y-58839000D02*
X18010000Y-58839000D01*
X20090000Y-58479000D02*
X22612000Y-58479000D01*
X15002000Y-59960000D02*
X23098000Y-59960000D01*
X17704000Y-56599000D02*
X20396000Y-56599000D01*
X20090000Y-58319000D02*
X22519000Y-58319000D01*
X15093000Y-59479000D02*
X18010000Y-59479000D01*
X16143000Y-57599000D02*
X21957000Y-57599000D01*
X14970000Y-60440000D02*
X23130000Y-60440000D01*
X20090000Y-59359000D02*
X22975000Y-59359000D01*
X20090000Y-58159000D02*
X22415000Y-58159000D01*
X16822000Y-57039000D02*
X21278000Y-57039000D01*
X16948000Y-56959000D02*
X21152000Y-56959000D01*
X15276000Y-58919000D02*
X18010000Y-58919000D01*
X20090000Y-58599000D02*
X22677000Y-58599000D01*
X20090000Y-59199000D02*
X22927000Y-59199000D01*
X16596000Y-57199000D02*
X21504000Y-57199000D01*
X20090000Y-57759000D02*
X22105000Y-57759000D01*
X17237000Y-56799000D02*
X20863000Y-56799000D01*
X14985000Y-60120000D02*
X23115000Y-60120000D01*
X20090000Y-59399000D02*
X22986000Y-59399000D01*
X20090000Y-59639000D02*
X23044000Y-59639000D01*
X15083000Y-59519000D02*
X18010000Y-59519000D01*
X20090000Y-59679000D02*
X23052000Y-59679000D01*
X20090000Y-57959000D02*
X22270000Y-57959000D01*
X16266000Y-57479000D02*
X21834000Y-57479000D01*
X15894000Y-57879000D02*
X18010000Y-57879000D01*
X20090000Y-58399000D02*
X22567000Y-58399000D01*
X20090000Y-59439000D02*
X22997000Y-59439000D01*
X15606000Y-58279000D02*
X18010000Y-58279000D01*
X20090000Y-59079000D02*
X22885000Y-59079000D01*
X20090000Y-57999000D02*
X22300000Y-57999000D01*
X15861000Y-57919000D02*
X18010000Y-57919000D01*
X14976000Y-60240000D02*
X23124000Y-60240000D01*
X15581000Y-58319000D02*
X18010000Y-58319000D01*
X18517000Y-56399000D02*
X19583000Y-56399000D01*
X16353000Y-57399000D02*
X21747000Y-57399000D01*
X20090000Y-58079000D02*
X22359000Y-58079000D01*
X15103000Y-59439000D02*
X18010000Y-59439000D01*
X15685000Y-58159000D02*
X18010000Y-58159000D01*
X20090000Y-58719000D02*
X22736000Y-58719000D01*
X15033000Y-59759000D02*
X18010000Y-59759000D01*
X15148000Y-59279000D02*
X18010000Y-59279000D01*
X15346000Y-58759000D02*
X18010000Y-58759000D01*
X20090000Y-59479000D02*
X23007000Y-59479000D01*
X15293000Y-58879000D02*
X18010000Y-58879000D01*
X17498000Y-56679000D02*
X20602000Y-56679000D01*
X15995000Y-57759000D02*
X18010000Y-57759000D01*
X18282000Y-56439000D02*
X19818000Y-56439000D01*
X20090000Y-59039000D02*
X22871000Y-59039000D01*
X20090000Y-59319000D02*
X22964000Y-59319000D01*
X15136000Y-59319000D02*
X18010000Y-59319000D01*
X20090000Y-57719000D02*
X22069000Y-57719000D01*
X16067000Y-57679000D02*
X22033000Y-57679000D01*
X20090000Y-59159000D02*
X22913000Y-59159000D01*
X15328000Y-58799000D02*
X18010000Y-58799000D01*
X15114000Y-59399000D02*
X18010000Y-59399000D01*
X15510000Y-58439000D02*
X18010000Y-58439000D01*
X15444000Y-58559000D02*
X18010000Y-58559000D01*
X15048000Y-59679000D02*
X18010000Y-59679000D01*
X15632000Y-58239000D02*
X18010000Y-58239000D01*
X16399000Y-57359000D02*
X21701000Y-57359000D01*
X15056000Y-59639000D02*
X18010000Y-59639000D01*
X15741000Y-58079000D02*
X18010000Y-58079000D01*
X20090000Y-58559000D02*
X22656000Y-58559000D01*
X20090000Y-58039000D02*
X22330000Y-58039000D01*
X15488000Y-58479000D02*
X18010000Y-58479000D01*
X15712000Y-58119000D02*
X18010000Y-58119000D01*
X20090000Y-58279000D02*
X22494000Y-58279000D01*
X15215000Y-59079000D02*
X18010000Y-59079000D01*
X20090000Y-58999000D02*
X22855000Y-58999000D01*
X15245000Y-58999000D02*
X18010000Y-58999000D01*
X20090000Y-57879000D02*
X22206000Y-57879000D01*
X15403000Y-58639000D02*
X18010000Y-58639000D01*
X20090000Y-58519000D02*
X22634000Y-58519000D01*
X17405000Y-56719000D02*
X20695000Y-56719000D01*
X20090000Y-58439000D02*
X22590000Y-58439000D01*
X20090000Y-58799000D02*
X22772000Y-58799000D01*
X16183000Y-57559000D02*
X21917000Y-57559000D01*
X20090000Y-58879000D02*
X22807000Y-58879000D01*
X15074000Y-59559000D02*
X18010000Y-59559000D01*
X17016000Y-56919000D02*
X21084000Y-56919000D01*
X16735000Y-64889698D02*
X16735000Y-64089698D01*
X15020000Y-59840000D02*
X23080000Y-59840000D01*
X15229000Y-59039000D02*
X18010000Y-59039000D01*
X20090000Y-58639000D02*
X22697000Y-58639000D01*
X16335000Y-64489698D02*
X17135000Y-64489698D01*
X15161000Y-59239000D02*
X18010000Y-59239000D01*
X17597000Y-56639000D02*
X20503000Y-56639000D01*
X20090000Y-58199000D02*
X22442000Y-58199000D01*
X16884000Y-56999000D02*
X21216000Y-56999000D01*
X20090000Y-58759000D02*
X22754000Y-58759000D01*
X14982000Y-60160000D02*
X23118000Y-60160000D01*
X20090000Y-58679000D02*
X22716000Y-58679000D01*
X16650000Y-57159000D02*
X21450000Y-57159000D01*
X15770000Y-58039000D02*
X18010000Y-58039000D01*
X14970000Y-60400000D02*
X23130000Y-60400000D01*
X15384000Y-58679000D02*
X18010000Y-58679000D01*
X16224000Y-57519000D02*
X21876000Y-57519000D01*
X15658000Y-58199000D02*
X18010000Y-58199000D01*
X20090000Y-59119000D02*
X22900000Y-59119000D01*
X20090000Y-59599000D02*
X23035000Y-59599000D01*
X20090000Y-59719000D02*
X23060000Y-59719000D01*
X15960000Y-57799000D02*
X18010000Y-57799000D01*
X20090000Y-59279000D02*
X22952000Y-59279000D01*
X14970000Y-60480000D02*
X23130000Y-60480000D01*
X20090000Y-57839000D02*
X22174000Y-57839000D01*
X16494000Y-57279000D02*
X21606000Y-57279000D01*
X14971000Y-60360000D02*
X23129000Y-60360000D01*
X14974000Y-60280000D02*
X23126000Y-60280000D01*
X16105000Y-57639000D02*
X21995000Y-57639000D01*
X17319000Y-56759000D02*
X20781000Y-56759000D01*
X14989000Y-60080000D02*
X23111000Y-60080000D01*
X23170000Y-60480000D02*
G75*
G03*
X23170000Y-60480000I-4120000J0D01*
G01*
%TO.C,J1*%
X85782363Y-52205000D02*
X91332363Y-52205000D01*
X96882363Y-55155000D02*
X96882363Y-52205000D01*
X97632363Y-57405000D02*
X97632363Y-56655000D01*
X97632363Y-56655000D02*
X95832363Y-56655000D01*
X85032363Y-56655000D02*
X85032363Y-57405000D01*
X94332363Y-56655000D02*
X88332363Y-56655000D01*
X86832363Y-57405000D02*
X86832363Y-56655000D01*
X85032363Y-57405000D02*
X86832363Y-57405000D01*
X97642363Y-57415000D02*
X97642363Y-51445000D01*
X88332363Y-56655000D02*
X88332363Y-57405000D01*
X85032363Y-55155000D02*
X85782363Y-55155000D01*
X85022363Y-51445000D02*
X85022363Y-57415000D01*
X97642363Y-51445000D02*
X85022363Y-51445000D01*
X88332363Y-57405000D02*
X94332363Y-57405000D01*
X85022363Y-57415000D02*
X97642363Y-57415000D01*
X95832363Y-56655000D02*
X95832363Y-57405000D01*
X97932363Y-57705000D02*
X97932363Y-56455000D01*
X96882363Y-52205000D02*
X91332363Y-52205000D01*
X86832363Y-56655000D02*
X85032363Y-56655000D01*
X85782363Y-55155000D02*
X85782363Y-52205000D01*
X95832363Y-57405000D02*
X97632363Y-57405000D01*
X94332363Y-57405000D02*
X94332363Y-56655000D01*
X96682363Y-57705000D02*
X97932363Y-57705000D01*
X97632363Y-55155000D02*
X96882363Y-55155000D01*
%TO.C,J7*%
X102332363Y-66850000D02*
X101582363Y-66850000D01*
X103832363Y-64300000D02*
X106782363Y-64300000D01*
X101582363Y-74350000D02*
X101582363Y-76150000D01*
X102332363Y-63550000D02*
X101582363Y-63550000D01*
X101282363Y-76450000D02*
X102532363Y-76450000D01*
X106782363Y-75400000D02*
X106782363Y-69850000D01*
X102332363Y-76150000D02*
X102332363Y-74350000D01*
X101282363Y-75200000D02*
X101282363Y-76450000D01*
X101572363Y-76160000D02*
X107542363Y-76160000D01*
X101572363Y-63540000D02*
X101572363Y-76160000D01*
X106782363Y-64300000D02*
X106782363Y-69850000D01*
X107542363Y-63540000D02*
X101572363Y-63540000D01*
X103832363Y-75400000D02*
X106782363Y-75400000D01*
X102332363Y-65350000D02*
X102332363Y-63550000D01*
X101582363Y-66850000D02*
X101582363Y-72850000D01*
X103832363Y-63550000D02*
X103832363Y-64300000D01*
X101582363Y-63550000D02*
X101582363Y-65350000D01*
X102332363Y-72850000D02*
X102332363Y-66850000D01*
X101582363Y-72850000D02*
X102332363Y-72850000D01*
X102332363Y-74350000D02*
X101582363Y-74350000D01*
X101582363Y-76150000D02*
X102332363Y-76150000D01*
X103832363Y-76150000D02*
X103832363Y-75400000D01*
X101582363Y-65350000D02*
X102332363Y-65350000D01*
X107542363Y-76160000D02*
X107542363Y-63540000D01*
%TO.C,C4*%
X23938000Y-59679000D02*
X26900000Y-59679000D01*
X28980000Y-58879000D02*
X31697000Y-58879000D01*
X24254000Y-58719000D02*
X26900000Y-58719000D01*
X28980000Y-59719000D02*
X31950000Y-59719000D01*
X25336000Y-57319000D02*
X30544000Y-57319000D01*
X28980000Y-59159000D02*
X31803000Y-59159000D01*
X24378000Y-58479000D02*
X26900000Y-58479000D01*
X28980000Y-58679000D02*
X31606000Y-58679000D01*
X26050000Y-56839000D02*
X29830000Y-56839000D01*
X28980000Y-58319000D02*
X31409000Y-58319000D01*
X25653000Y-57079000D02*
X30227000Y-57079000D01*
X25774000Y-56999000D02*
X30106000Y-56999000D01*
X23888000Y-60000000D02*
X31992000Y-60000000D01*
X24135000Y-58999000D02*
X26900000Y-58999000D01*
X28980000Y-58479000D02*
X31502000Y-58479000D01*
X23872000Y-60160000D02*
X32008000Y-60160000D01*
X24690000Y-57999000D02*
X26900000Y-57999000D01*
X25540000Y-57159000D02*
X30340000Y-57159000D01*
X25906000Y-56919000D02*
X29974000Y-56919000D01*
X23863000Y-60320000D02*
X32017000Y-60320000D01*
X24784000Y-57879000D02*
X26900000Y-57879000D01*
X24447000Y-58359000D02*
X26900000Y-58359000D01*
X27407000Y-56399000D02*
X28473000Y-56399000D01*
X24051000Y-59239000D02*
X26900000Y-59239000D01*
X28980000Y-57719000D02*
X30959000Y-57719000D01*
X24995000Y-57639000D02*
X30885000Y-57639000D01*
X24660000Y-58039000D02*
X26900000Y-58039000D01*
X25289000Y-57359000D02*
X30591000Y-57359000D01*
X28980000Y-58919000D02*
X31714000Y-58919000D01*
X24150000Y-58959000D02*
X26900000Y-58959000D01*
X25225000Y-64489698D02*
X26025000Y-64489698D01*
X23916000Y-59800000D02*
X31964000Y-59800000D01*
X26711000Y-56559000D02*
X29169000Y-56559000D01*
X28980000Y-58359000D02*
X31433000Y-58359000D01*
X28980000Y-59679000D02*
X31942000Y-59679000D01*
X24236000Y-58759000D02*
X26900000Y-58759000D01*
X24313000Y-58599000D02*
X26900000Y-58599000D01*
X28980000Y-58959000D02*
X31730000Y-58959000D01*
X24026000Y-59319000D02*
X26900000Y-59319000D01*
X28980000Y-59439000D02*
X31887000Y-59439000D01*
X28980000Y-58039000D02*
X31220000Y-58039000D01*
X24077000Y-59159000D02*
X26900000Y-59159000D01*
X24496000Y-58279000D02*
X26900000Y-58279000D01*
X24850000Y-57799000D02*
X26900000Y-57799000D01*
X24119000Y-59039000D02*
X26900000Y-59039000D01*
X23930000Y-59719000D02*
X26900000Y-59719000D01*
X24105000Y-59079000D02*
X26900000Y-59079000D01*
X28980000Y-58599000D02*
X31567000Y-58599000D01*
X23860000Y-60440000D02*
X32020000Y-60440000D01*
X24090000Y-59119000D02*
X26900000Y-59119000D01*
X24423000Y-58399000D02*
X26900000Y-58399000D01*
X28980000Y-58239000D02*
X31358000Y-58239000D01*
X23983000Y-59479000D02*
X26900000Y-59479000D01*
X23860000Y-60480000D02*
X32020000Y-60480000D01*
X28980000Y-59479000D02*
X31897000Y-59479000D01*
X28980000Y-58079000D02*
X31249000Y-58079000D01*
X24631000Y-58079000D02*
X26900000Y-58079000D01*
X28980000Y-57879000D02*
X31096000Y-57879000D01*
X24751000Y-57919000D02*
X26900000Y-57919000D01*
X23964000Y-59559000D02*
X26900000Y-59559000D01*
X28980000Y-58839000D02*
X31680000Y-58839000D01*
X24063000Y-59199000D02*
X26900000Y-59199000D01*
X28980000Y-59359000D02*
X31865000Y-59359000D01*
X24720000Y-57959000D02*
X26900000Y-57959000D01*
X28980000Y-59639000D02*
X31934000Y-59639000D01*
X23879000Y-60080000D02*
X32001000Y-60080000D01*
X23973000Y-59519000D02*
X26900000Y-59519000D01*
X23910000Y-59840000D02*
X31970000Y-59840000D01*
X28980000Y-58759000D02*
X31644000Y-58759000D01*
X24816000Y-57839000D02*
X26900000Y-57839000D01*
X24885000Y-57759000D02*
X26900000Y-57759000D01*
X23946000Y-59639000D02*
X26900000Y-59639000D01*
X28980000Y-59199000D02*
X31817000Y-59199000D01*
X24602000Y-58119000D02*
X26900000Y-58119000D01*
X23883000Y-60040000D02*
X31997000Y-60040000D01*
X28980000Y-59119000D02*
X31790000Y-59119000D01*
X24293000Y-58639000D02*
X26900000Y-58639000D01*
X24522000Y-58239000D02*
X26900000Y-58239000D01*
X28980000Y-58519000D02*
X31524000Y-58519000D01*
X23866000Y-60240000D02*
X32014000Y-60240000D01*
X28980000Y-57919000D02*
X31129000Y-57919000D01*
X25114000Y-57519000D02*
X30766000Y-57519000D01*
X24356000Y-58519000D02*
X26900000Y-58519000D01*
X28980000Y-58279000D02*
X31384000Y-58279000D01*
X25435000Y-57239000D02*
X30445000Y-57239000D01*
X28980000Y-58559000D02*
X31546000Y-58559000D01*
X25625000Y-64889698D02*
X25625000Y-64089698D01*
X24166000Y-58919000D02*
X26900000Y-58919000D01*
X28980000Y-59239000D02*
X31829000Y-59239000D01*
X28980000Y-59079000D02*
X31775000Y-59079000D01*
X28980000Y-59519000D02*
X31907000Y-59519000D01*
X28980000Y-58199000D02*
X31332000Y-58199000D01*
X28980000Y-58119000D02*
X31278000Y-58119000D01*
X28980000Y-57839000D02*
X31064000Y-57839000D01*
X25033000Y-57599000D02*
X30847000Y-57599000D01*
X24038000Y-59279000D02*
X26900000Y-59279000D01*
X28980000Y-58399000D02*
X31457000Y-58399000D01*
X26842000Y-56519000D02*
X29038000Y-56519000D01*
X24471000Y-58319000D02*
X26900000Y-58319000D01*
X23903000Y-59880000D02*
X31977000Y-59880000D01*
X28980000Y-59599000D02*
X31925000Y-59599000D01*
X23860000Y-60400000D02*
X32020000Y-60400000D01*
X25384000Y-57279000D02*
X30496000Y-57279000D01*
X23861000Y-60360000D02*
X32019000Y-60360000D01*
X28980000Y-57959000D02*
X31160000Y-57959000D01*
X25595000Y-57119000D02*
X30285000Y-57119000D01*
X25712000Y-57039000D02*
X30168000Y-57039000D01*
X24921000Y-57719000D02*
X26900000Y-57719000D01*
X24200000Y-58839000D02*
X26900000Y-58839000D01*
X28980000Y-58719000D02*
X31626000Y-58719000D01*
X25243000Y-57399000D02*
X30637000Y-57399000D01*
X26992000Y-56479000D02*
X28888000Y-56479000D01*
X28980000Y-57799000D02*
X31030000Y-57799000D01*
X26127000Y-56799000D02*
X29753000Y-56799000D01*
X25838000Y-56959000D02*
X30042000Y-56959000D01*
X23875000Y-60120000D02*
X32005000Y-60120000D01*
X28980000Y-58639000D02*
X31587000Y-58639000D01*
X26295000Y-56719000D02*
X29585000Y-56719000D01*
X24548000Y-58199000D02*
X26900000Y-58199000D01*
X23864000Y-60280000D02*
X32016000Y-60280000D01*
X23869000Y-60200000D02*
X32011000Y-60200000D01*
X24274000Y-58679000D02*
X26900000Y-58679000D01*
X25976000Y-56879000D02*
X29904000Y-56879000D01*
X28980000Y-58159000D02*
X31305000Y-58159000D01*
X23993000Y-59439000D02*
X26900000Y-59439000D01*
X28980000Y-59759000D02*
X31957000Y-59759000D01*
X24575000Y-58159000D02*
X26900000Y-58159000D01*
X27172000Y-56439000D02*
X28708000Y-56439000D01*
X25486000Y-57199000D02*
X30394000Y-57199000D01*
X25199000Y-57439000D02*
X30681000Y-57439000D01*
X28980000Y-58439000D02*
X31480000Y-58439000D01*
X24218000Y-58799000D02*
X26900000Y-58799000D01*
X24015000Y-59359000D02*
X26900000Y-59359000D01*
X28980000Y-57759000D02*
X30995000Y-57759000D01*
X23898000Y-59920000D02*
X31982000Y-59920000D01*
X28980000Y-59399000D02*
X31876000Y-59399000D01*
X26388000Y-56679000D02*
X29492000Y-56679000D01*
X24183000Y-58879000D02*
X26900000Y-58879000D01*
X23892000Y-59960000D02*
X31988000Y-59960000D01*
X23923000Y-59759000D02*
X26900000Y-59759000D01*
X24400000Y-58439000D02*
X26900000Y-58439000D01*
X26594000Y-56599000D02*
X29286000Y-56599000D01*
X26209000Y-56759000D02*
X29671000Y-56759000D01*
X24004000Y-59399000D02*
X26900000Y-59399000D01*
X28980000Y-59319000D02*
X31854000Y-59319000D01*
X28980000Y-57999000D02*
X31190000Y-57999000D01*
X25073000Y-57559000D02*
X30807000Y-57559000D01*
X24334000Y-58559000D02*
X26900000Y-58559000D01*
X28980000Y-58799000D02*
X31662000Y-58799000D01*
X28980000Y-59279000D02*
X31842000Y-59279000D01*
X23955000Y-59599000D02*
X26900000Y-59599000D01*
X28980000Y-58999000D02*
X31745000Y-58999000D01*
X24957000Y-57679000D02*
X30923000Y-57679000D01*
X26487000Y-56639000D02*
X29393000Y-56639000D01*
X28980000Y-59039000D02*
X31761000Y-59039000D01*
X25156000Y-57479000D02*
X30724000Y-57479000D01*
X28980000Y-59559000D02*
X31916000Y-59559000D01*
X32060000Y-60480000D02*
G75*
G03*
X32060000Y-60480000I-4120000J0D01*
G01*
%TO.C,J16*%
X83870000Y-22550000D02*
X83870000Y-21800000D01*
X79570000Y-21800000D02*
X79570000Y-22550000D01*
X83870000Y-20300000D02*
X83120000Y-20300000D01*
X83880000Y-16590000D02*
X76260000Y-16590000D01*
X76270000Y-20300000D02*
X77020000Y-20300000D01*
X82070000Y-22550000D02*
X83870000Y-22550000D01*
X82920000Y-22850000D02*
X84170000Y-22850000D01*
X80570000Y-22550000D02*
X80570000Y-21800000D01*
X82070000Y-21800000D02*
X82070000Y-22550000D01*
X76270000Y-22550000D02*
X78070000Y-22550000D01*
X80570000Y-21800000D02*
X79570000Y-21800000D01*
X76260000Y-22560000D02*
X83880000Y-22560000D01*
X83870000Y-21800000D02*
X82070000Y-21800000D01*
X76260000Y-16590000D02*
X76260000Y-22560000D01*
X83120000Y-20300000D02*
X83120000Y-17350000D01*
X77020000Y-17350000D02*
X80070000Y-17350000D01*
X78070000Y-22550000D02*
X78070000Y-21800000D01*
X83120000Y-17350000D02*
X80070000Y-17350000D01*
X77020000Y-20300000D02*
X77020000Y-17350000D01*
X78070000Y-21800000D02*
X76270000Y-21800000D01*
X83880000Y-22560000D02*
X83880000Y-16590000D01*
X79570000Y-22550000D02*
X80570000Y-22550000D01*
X76270000Y-21800000D02*
X76270000Y-22550000D01*
X84170000Y-22850000D02*
X84170000Y-21600000D01*
%TO.C,C2*%
X85711000Y-25750000D02*
X86969000Y-25750000D01*
X85711000Y-27590000D02*
X86969000Y-27590000D01*
%TO.C,J20*%
X48310000Y-22550000D02*
X48310000Y-21800000D01*
X45010000Y-22550000D02*
X45010000Y-21800000D01*
X44010000Y-22550000D02*
X45010000Y-22550000D01*
X45010000Y-21800000D02*
X44010000Y-21800000D01*
X47360000Y-22850000D02*
X48610000Y-22850000D01*
X42510000Y-22550000D02*
X42510000Y-21800000D01*
X48310000Y-20300000D02*
X47560000Y-20300000D01*
X41460000Y-17350000D02*
X44510000Y-17350000D01*
X47560000Y-17350000D02*
X44510000Y-17350000D01*
X44010000Y-21800000D02*
X44010000Y-22550000D01*
X40700000Y-22560000D02*
X48320000Y-22560000D01*
X46510000Y-21800000D02*
X46510000Y-22550000D01*
X48610000Y-22850000D02*
X48610000Y-21600000D01*
X40710000Y-21800000D02*
X40710000Y-22550000D01*
X42510000Y-21800000D02*
X40710000Y-21800000D01*
X47560000Y-20300000D02*
X47560000Y-17350000D01*
X40710000Y-22550000D02*
X42510000Y-22550000D01*
X48310000Y-21800000D02*
X46510000Y-21800000D01*
X48320000Y-22560000D02*
X48320000Y-16590000D01*
X40700000Y-16590000D02*
X40700000Y-22560000D01*
X40710000Y-20300000D02*
X41460000Y-20300000D01*
X46510000Y-22550000D02*
X48310000Y-22550000D01*
X48320000Y-16590000D02*
X40700000Y-16590000D01*
X41460000Y-20300000D02*
X41460000Y-17350000D01*
%TO.C,J11*%
X74290000Y-91005000D02*
X74290000Y-91755000D01*
X76090000Y-93255000D02*
X75340000Y-93255000D01*
X66790000Y-91005000D02*
X66790000Y-91755000D01*
X64240000Y-96205000D02*
X69790000Y-96205000D01*
X72790000Y-91755000D02*
X72790000Y-91005000D01*
X66790000Y-91755000D02*
X72790000Y-91755000D01*
X63490000Y-93255000D02*
X64240000Y-93255000D01*
X76100000Y-90995000D02*
X63480000Y-90995000D01*
X63480000Y-96965000D02*
X76100000Y-96965000D01*
X75340000Y-93255000D02*
X75340000Y-96205000D01*
X72790000Y-91005000D02*
X66790000Y-91005000D01*
X65290000Y-91755000D02*
X65290000Y-91005000D01*
X64440000Y-90705000D02*
X63190000Y-90705000D01*
X76090000Y-91755000D02*
X76090000Y-91005000D01*
X64240000Y-93255000D02*
X64240000Y-96205000D01*
X75340000Y-96205000D02*
X69790000Y-96205000D01*
X63490000Y-91005000D02*
X63490000Y-91755000D01*
X74290000Y-91755000D02*
X76090000Y-91755000D01*
X63490000Y-91755000D02*
X65290000Y-91755000D01*
X63190000Y-90705000D02*
X63190000Y-91955000D01*
X65290000Y-91005000D02*
X63490000Y-91005000D01*
X76090000Y-91005000D02*
X74290000Y-91005000D01*
X63480000Y-90995000D02*
X63480000Y-96965000D01*
X76100000Y-96965000D02*
X76100000Y-90995000D01*
%TO.C,J15*%
X90960000Y-21800000D02*
X90960000Y-22550000D01*
X86960000Y-21800000D02*
X85160000Y-21800000D01*
X85160000Y-21800000D02*
X85160000Y-22550000D01*
X85150000Y-16590000D02*
X85150000Y-22560000D01*
X92770000Y-16590000D02*
X85150000Y-16590000D01*
X85150000Y-22560000D02*
X92770000Y-22560000D01*
X89460000Y-21800000D02*
X88460000Y-21800000D01*
X89460000Y-22550000D02*
X89460000Y-21800000D01*
X92760000Y-22550000D02*
X92760000Y-21800000D01*
X85910000Y-17350000D02*
X88960000Y-17350000D01*
X85910000Y-20300000D02*
X85910000Y-17350000D01*
X88460000Y-22550000D02*
X89460000Y-22550000D01*
X92760000Y-20300000D02*
X92010000Y-20300000D01*
X88460000Y-21800000D02*
X88460000Y-22550000D01*
X90960000Y-22550000D02*
X92760000Y-22550000D01*
X92770000Y-22560000D02*
X92770000Y-16590000D01*
X85160000Y-20300000D02*
X85910000Y-20300000D01*
X92760000Y-21800000D02*
X90960000Y-21800000D01*
X86960000Y-22550000D02*
X86960000Y-21800000D01*
X92010000Y-20300000D02*
X92010000Y-17350000D01*
X85160000Y-22550000D02*
X86960000Y-22550000D01*
X92010000Y-17350000D02*
X88960000Y-17350000D01*
X93060000Y-22850000D02*
X93060000Y-21600000D01*
X91810000Y-22850000D02*
X93060000Y-22850000D01*
%TO.C,R2*%
X95046802Y-81127602D02*
X95046802Y-80797602D01*
X88506802Y-83537602D02*
X88506802Y-83207602D01*
X95046802Y-83207602D02*
X95046802Y-83537602D01*
X88506802Y-80797602D02*
X88506802Y-81127602D01*
X95046802Y-83537602D02*
X88506802Y-83537602D01*
X95046802Y-80797602D02*
X88506802Y-80797602D01*
%TO.C,J9*%
X93230000Y-91005000D02*
X91430000Y-91005000D01*
X91430000Y-91005000D02*
X91430000Y-91755000D01*
X91130000Y-90705000D02*
X91130000Y-91955000D01*
X102230000Y-91755000D02*
X104030000Y-91755000D01*
X104040000Y-90995000D02*
X91420000Y-90995000D01*
X104030000Y-91755000D02*
X104030000Y-91005000D01*
X92180000Y-93255000D02*
X92180000Y-96205000D01*
X104030000Y-91005000D02*
X102230000Y-91005000D01*
X103280000Y-96205000D02*
X97730000Y-96205000D01*
X92180000Y-96205000D02*
X97730000Y-96205000D01*
X100730000Y-91005000D02*
X94730000Y-91005000D01*
X91420000Y-90995000D02*
X91420000Y-96965000D01*
X103280000Y-93255000D02*
X103280000Y-96205000D01*
X92380000Y-90705000D02*
X91130000Y-90705000D01*
X104030000Y-93255000D02*
X103280000Y-93255000D01*
X94730000Y-91755000D02*
X100730000Y-91755000D01*
X104040000Y-96965000D02*
X104040000Y-90995000D01*
X93230000Y-91755000D02*
X93230000Y-91005000D01*
X102230000Y-91005000D02*
X102230000Y-91755000D01*
X91430000Y-93255000D02*
X92180000Y-93255000D01*
X91430000Y-91755000D02*
X93230000Y-91755000D01*
X94730000Y-91005000D02*
X94730000Y-91755000D01*
X100730000Y-91755000D02*
X100730000Y-91005000D01*
X91420000Y-96965000D02*
X104040000Y-96965000D01*
%TO.C,R4*%
X60737090Y-82010000D02*
X60407090Y-82010000D01*
X60407090Y-82010000D02*
X60407090Y-75470000D01*
X63147090Y-75470000D02*
X62817090Y-75470000D01*
X60407090Y-75470000D02*
X60737090Y-75470000D01*
X62817090Y-82010000D02*
X63147090Y-82010000D01*
X63147090Y-82010000D02*
X63147090Y-75470000D01*
%TO.C,U8*%
X108070000Y-62300000D02*
X108070000Y-39320000D01*
X104420000Y-39320000D02*
X102770000Y-39320000D01*
X102770000Y-39320000D02*
X102770000Y-62300000D01*
X108070000Y-39320000D02*
X106420000Y-39320000D01*
X102770000Y-62300000D02*
X108070000Y-62300000D01*
X104420000Y-39320000D02*
G75*
G03*
X106420000Y-39320000I1000000J0D01*
G01*
%TO.C,J18*%
X64290000Y-21800000D02*
X64290000Y-22550000D01*
X58480000Y-16590000D02*
X58480000Y-22560000D01*
X65340000Y-17350000D02*
X62290000Y-17350000D01*
X58490000Y-20300000D02*
X59240000Y-20300000D01*
X60290000Y-22550000D02*
X60290000Y-21800000D01*
X61790000Y-21800000D02*
X61790000Y-22550000D01*
X62790000Y-21800000D02*
X61790000Y-21800000D01*
X66090000Y-22550000D02*
X66090000Y-21800000D01*
X61790000Y-22550000D02*
X62790000Y-22550000D01*
X62790000Y-22550000D02*
X62790000Y-21800000D01*
X59240000Y-20300000D02*
X59240000Y-17350000D01*
X66100000Y-16590000D02*
X58480000Y-16590000D01*
X59240000Y-17350000D02*
X62290000Y-17350000D01*
X58490000Y-21800000D02*
X58490000Y-22550000D01*
X66100000Y-22560000D02*
X66100000Y-16590000D01*
X65340000Y-20300000D02*
X65340000Y-17350000D01*
X64290000Y-22550000D02*
X66090000Y-22550000D01*
X66390000Y-22850000D02*
X66390000Y-21600000D01*
X65140000Y-22850000D02*
X66390000Y-22850000D01*
X60290000Y-21800000D02*
X58490000Y-21800000D01*
X66090000Y-21800000D02*
X64290000Y-21800000D01*
X58490000Y-22550000D02*
X60290000Y-22550000D01*
X58480000Y-22560000D02*
X66100000Y-22560000D01*
X66090000Y-20300000D02*
X65340000Y-20300000D01*
%TO.C,J19*%
X55400000Y-21800000D02*
X55400000Y-22550000D01*
X52900000Y-22550000D02*
X53900000Y-22550000D01*
X56450000Y-20300000D02*
X56450000Y-17350000D01*
X52900000Y-21800000D02*
X52900000Y-22550000D01*
X51400000Y-22550000D02*
X51400000Y-21800000D01*
X50350000Y-17350000D02*
X53400000Y-17350000D01*
X49590000Y-16590000D02*
X49590000Y-22560000D01*
X57210000Y-16590000D02*
X49590000Y-16590000D01*
X57500000Y-22850000D02*
X57500000Y-21600000D01*
X49590000Y-22560000D02*
X57210000Y-22560000D01*
X57210000Y-22560000D02*
X57210000Y-16590000D01*
X49600000Y-20300000D02*
X50350000Y-20300000D01*
X55400000Y-22550000D02*
X57200000Y-22550000D01*
X53900000Y-22550000D02*
X53900000Y-21800000D01*
X49600000Y-21800000D02*
X49600000Y-22550000D01*
X49600000Y-22550000D02*
X51400000Y-22550000D01*
X57200000Y-21800000D02*
X55400000Y-21800000D01*
X50350000Y-20300000D02*
X50350000Y-17350000D01*
X57200000Y-22550000D02*
X57200000Y-21800000D01*
X51400000Y-21800000D02*
X49600000Y-21800000D01*
X56450000Y-17350000D02*
X53400000Y-17350000D01*
X57200000Y-20300000D02*
X56450000Y-20300000D01*
X56250000Y-22850000D02*
X57500000Y-22850000D01*
X53900000Y-21800000D02*
X52900000Y-21800000D01*
%TO.C,J24*%
X58940000Y-30165000D02*
X55440000Y-30165000D01*
X62250000Y-24955000D02*
X52130000Y-24955000D01*
X60440000Y-30165000D02*
X60440000Y-30915000D01*
X62240000Y-30915000D02*
X62240000Y-30165000D01*
X52890000Y-25715000D02*
X57190000Y-25715000D01*
X52130000Y-30925000D02*
X62250000Y-30925000D01*
X52140000Y-30165000D02*
X52140000Y-30915000D01*
X52130000Y-24955000D02*
X52130000Y-30925000D01*
X55440000Y-30915000D02*
X58940000Y-30915000D01*
X55440000Y-30165000D02*
X55440000Y-30915000D01*
X62240000Y-30165000D02*
X60440000Y-30165000D01*
X62240000Y-28665000D02*
X61490000Y-28665000D01*
X61490000Y-28665000D02*
X61490000Y-25715000D01*
X62250000Y-30925000D02*
X62250000Y-24955000D01*
X61290000Y-31215000D02*
X62540000Y-31215000D01*
X60440000Y-30915000D02*
X62240000Y-30915000D01*
X52140000Y-28665000D02*
X52890000Y-28665000D01*
X53940000Y-30165000D02*
X52140000Y-30165000D01*
X52140000Y-30915000D02*
X53940000Y-30915000D01*
X52890000Y-28665000D02*
X52890000Y-25715000D01*
X53940000Y-30915000D02*
X53940000Y-30165000D01*
X62540000Y-31215000D02*
X62540000Y-29965000D01*
X58940000Y-30915000D02*
X58940000Y-30165000D01*
X61490000Y-25715000D02*
X57190000Y-25715000D01*
%TO.C,J27*%
X110005108Y-28451144D02*
X110005108Y-38611144D01*
X103655108Y-38611144D02*
X111275108Y-38611144D01*
X111275108Y-28451144D02*
X103655108Y-28451144D01*
X111275108Y-38611144D02*
X111275108Y-28451144D01*
X103655108Y-28451144D02*
X103655108Y-38611144D01*
%TO.C,J8*%
X101567939Y-89879486D02*
X107537939Y-89879486D01*
X101277939Y-90169486D02*
X102527939Y-90169486D01*
X103827939Y-77269486D02*
X103827939Y-78019486D01*
X101577939Y-79069486D02*
X102327939Y-79069486D01*
X102327939Y-86569486D02*
X102327939Y-80569486D01*
X106777939Y-78019486D02*
X106777939Y-83569486D01*
X106777939Y-89119486D02*
X106777939Y-83569486D01*
X103827939Y-89869486D02*
X103827939Y-89119486D01*
X101577939Y-88069486D02*
X101577939Y-89869486D01*
X101567939Y-77259486D02*
X101567939Y-89879486D01*
X103827939Y-89119486D02*
X106777939Y-89119486D01*
X101277939Y-88919486D02*
X101277939Y-90169486D01*
X107537939Y-77259486D02*
X101567939Y-77259486D01*
X101577939Y-89869486D02*
X102327939Y-89869486D01*
X102327939Y-89869486D02*
X102327939Y-88069486D01*
X102327939Y-80569486D02*
X101577939Y-80569486D01*
X101577939Y-80569486D02*
X101577939Y-86569486D01*
X103827939Y-78019486D02*
X106777939Y-78019486D01*
X101577939Y-86569486D02*
X102327939Y-86569486D01*
X102327939Y-88069486D02*
X101577939Y-88069486D01*
X102327939Y-79069486D02*
X102327939Y-77269486D01*
X101577939Y-77269486D02*
X101577939Y-79069486D01*
X107537939Y-89879486D02*
X107537939Y-77259486D01*
X102327939Y-77269486D02*
X101577939Y-77269486D01*
%TO.C,U7*%
X76100000Y-37317160D02*
X76100000Y-57757160D01*
X81400000Y-37317160D02*
X79750000Y-37317160D01*
X81400000Y-57757160D02*
X81400000Y-37317160D01*
X77750000Y-37317160D02*
X76100000Y-37317160D01*
X76100000Y-57757160D02*
X81400000Y-57757160D01*
X77750000Y-37317160D02*
G75*
G03*
X79750000Y-37317160I1000000J0D01*
G01*
%TO.C,U6*%
X17037363Y-85725000D02*
X48787363Y-85725000D01*
X48787363Y-85725000D02*
X48787363Y-66675000D01*
X48787363Y-66675000D02*
X17037363Y-66675000D01*
X17037363Y-66675000D02*
X17037363Y-85725000D01*
%TO.C,U1*%
X55572363Y-53680000D02*
X55972363Y-53680000D01*
X58172363Y-32680000D02*
X58572363Y-32680000D01*
X22572363Y-53680000D02*
X22972363Y-53680000D01*
X68572363Y-46880000D02*
X68572363Y-53680000D01*
X32672363Y-32680000D02*
X33072363Y-32680000D01*
X17572363Y-53680000D02*
X17572363Y-32680000D01*
X37772363Y-32680000D02*
X38172363Y-32680000D01*
X45372363Y-32680000D02*
X45772363Y-32680000D01*
X55572363Y-32680000D02*
X55972363Y-32680000D01*
X37772363Y-53680000D02*
X38172363Y-53680000D01*
X68572363Y-42080000D02*
X68572363Y-41680000D01*
X53072363Y-53680000D02*
X53472363Y-53680000D01*
X58172363Y-53680000D02*
X58572363Y-53680000D01*
X42872363Y-32680000D02*
X43272363Y-32680000D01*
X19972363Y-32680000D02*
X20372363Y-32680000D01*
X40372363Y-53680000D02*
X40772363Y-53680000D01*
X68572363Y-44680000D02*
X68572363Y-44280000D01*
X63172363Y-32680000D02*
X63572363Y-32680000D01*
X47972363Y-53680000D02*
X48372363Y-53680000D01*
X17572363Y-32680000D02*
X17872363Y-32680000D01*
X22572363Y-32680000D02*
X22972363Y-32680000D01*
X30172363Y-53680000D02*
X30572363Y-53680000D01*
X30172363Y-32680000D02*
X30572363Y-32680000D01*
X42872363Y-53680000D02*
X43272363Y-53680000D01*
X27672363Y-32680000D02*
X28072363Y-32680000D01*
X20239363Y-50673000D02*
X17572363Y-50673000D01*
X32672363Y-53680000D02*
X33072363Y-53680000D01*
X50472363Y-53680000D02*
X50872363Y-53680000D01*
X65772363Y-32680000D02*
X66172363Y-32680000D01*
X65772363Y-53680000D02*
X66172363Y-53680000D01*
X25072363Y-53680000D02*
X25472363Y-53680000D01*
X68572363Y-32680000D02*
X68572363Y-39480000D01*
X60672363Y-32680000D02*
X61072363Y-32680000D01*
X50472363Y-32680000D02*
X50872363Y-32680000D01*
X60672363Y-53680000D02*
X61072363Y-53680000D01*
X27672363Y-53680000D02*
X28072363Y-53680000D01*
X35272363Y-53680000D02*
X35672363Y-53680000D01*
X63172363Y-53680000D02*
X63572363Y-53680000D01*
X53072363Y-32680000D02*
X53472363Y-32680000D01*
X19972363Y-53680000D02*
X20372363Y-53680000D01*
X47972363Y-32680000D02*
X48372363Y-32680000D01*
X25072363Y-32680000D02*
X25472363Y-32680000D01*
X40372363Y-32680000D02*
X40772363Y-32680000D01*
X35272363Y-32680000D02*
X35672363Y-32680000D01*
X45372363Y-53680000D02*
X45772363Y-53680000D01*
X20239363Y-53680000D02*
X20239363Y-50673000D01*
X17572363Y-53680000D02*
X17872363Y-53680000D01*
%TO.C,J22*%
X30540000Y-16590000D02*
X22920000Y-16590000D01*
X22920000Y-22560000D02*
X30540000Y-22560000D01*
X23680000Y-17350000D02*
X26730000Y-17350000D01*
X22930000Y-22550000D02*
X24730000Y-22550000D01*
X30530000Y-20300000D02*
X29780000Y-20300000D01*
X29780000Y-20300000D02*
X29780000Y-17350000D01*
X24730000Y-22550000D02*
X24730000Y-21800000D01*
X22930000Y-20300000D02*
X23680000Y-20300000D01*
X28730000Y-21800000D02*
X28730000Y-22550000D01*
X30540000Y-22560000D02*
X30540000Y-16590000D01*
X23680000Y-20300000D02*
X23680000Y-17350000D01*
X22930000Y-21800000D02*
X22930000Y-22550000D01*
X30530000Y-21800000D02*
X28730000Y-21800000D01*
X24730000Y-21800000D02*
X22930000Y-21800000D01*
X29580000Y-22850000D02*
X30830000Y-22850000D01*
X27230000Y-22550000D02*
X27230000Y-21800000D01*
X30830000Y-22850000D02*
X30830000Y-21600000D01*
X26230000Y-21800000D02*
X26230000Y-22550000D01*
X30530000Y-22550000D02*
X30530000Y-21800000D01*
X22920000Y-16590000D02*
X22920000Y-22560000D01*
X26230000Y-22550000D02*
X27230000Y-22550000D01*
X27230000Y-21800000D02*
X26230000Y-21800000D01*
X29780000Y-17350000D02*
X26730000Y-17350000D01*
X28730000Y-22550000D02*
X30530000Y-22550000D01*
%TO.C,J14*%
X20330000Y-86810270D02*
X28010000Y-86810270D01*
X28010000Y-89470270D02*
X28010000Y-86810270D01*
X20330000Y-89470270D02*
X28010000Y-89470270D01*
X20330000Y-89470270D02*
X20330000Y-86810270D01*
X17730000Y-88140270D02*
X17730000Y-86810270D01*
X17730000Y-86810270D02*
X19060000Y-86810270D01*
%TO.C,R6*%
X85630000Y-36930000D02*
X85630000Y-36600000D01*
X85630000Y-34190000D02*
X85630000Y-34520000D01*
X92170000Y-36600000D02*
X92170000Y-36930000D01*
X92170000Y-36930000D02*
X85630000Y-36930000D01*
X92170000Y-34190000D02*
X85630000Y-34190000D01*
X92170000Y-34520000D02*
X92170000Y-34190000D01*
%TO.C,R3*%
X78380883Y-83167586D02*
X78380883Y-83497586D01*
X78380883Y-81087586D02*
X78380883Y-80757586D01*
X78380883Y-80757586D02*
X71840883Y-80757586D01*
X71840883Y-80757586D02*
X71840883Y-81087586D01*
X71840883Y-83497586D02*
X71840883Y-83167586D01*
X78380883Y-83497586D02*
X71840883Y-83497586D01*
%TO.C,J23*%
X49840000Y-31215000D02*
X49840000Y-29965000D01*
X39440000Y-28665000D02*
X40190000Y-28665000D01*
X40190000Y-28665000D02*
X40190000Y-25715000D01*
X46240000Y-30915000D02*
X46240000Y-30165000D01*
X39440000Y-30165000D02*
X39440000Y-30915000D01*
X47740000Y-30915000D02*
X49540000Y-30915000D01*
X39430000Y-24955000D02*
X39430000Y-30925000D01*
X39440000Y-30915000D02*
X41240000Y-30915000D01*
X39430000Y-30925000D02*
X49550000Y-30925000D01*
X48790000Y-28665000D02*
X48790000Y-25715000D01*
X41240000Y-30915000D02*
X41240000Y-30165000D01*
X49550000Y-30925000D02*
X49550000Y-24955000D01*
X47740000Y-30165000D02*
X47740000Y-30915000D01*
X49550000Y-24955000D02*
X39430000Y-24955000D01*
X41240000Y-30165000D02*
X39440000Y-30165000D01*
X42740000Y-30915000D02*
X46240000Y-30915000D01*
X48590000Y-31215000D02*
X49840000Y-31215000D01*
X46240000Y-30165000D02*
X42740000Y-30165000D01*
X42740000Y-30165000D02*
X42740000Y-30915000D01*
X49540000Y-28665000D02*
X48790000Y-28665000D01*
X49540000Y-30915000D02*
X49540000Y-30165000D01*
X48790000Y-25715000D02*
X44490000Y-25715000D01*
X40190000Y-25715000D02*
X44490000Y-25715000D01*
X49540000Y-30165000D02*
X47740000Y-30165000D01*
%TO.C,J13*%
X14299127Y-31327856D02*
X14299127Y-21167856D01*
X20649127Y-21167856D02*
X13029127Y-21167856D01*
X13029127Y-31327856D02*
X20649127Y-31327856D01*
X20649127Y-31327856D02*
X20649127Y-21167856D01*
X13029127Y-21167856D02*
X13029127Y-31327856D01*
%TO.C,J12*%
X52820000Y-91755000D02*
X58820000Y-91755000D01*
X58820000Y-91005000D02*
X52820000Y-91005000D01*
X49520000Y-91005000D02*
X49520000Y-91755000D01*
X49220000Y-90705000D02*
X49220000Y-91955000D01*
X61370000Y-93255000D02*
X61370000Y-96205000D01*
X62120000Y-93255000D02*
X61370000Y-93255000D01*
X49510000Y-96965000D02*
X62130000Y-96965000D01*
X62120000Y-91755000D02*
X62120000Y-91005000D01*
X50470000Y-90705000D02*
X49220000Y-90705000D01*
X50270000Y-96205000D02*
X55820000Y-96205000D01*
X49520000Y-93255000D02*
X50270000Y-93255000D01*
X51320000Y-91755000D02*
X51320000Y-91005000D01*
X62130000Y-90995000D02*
X49510000Y-90995000D01*
X58820000Y-91755000D02*
X58820000Y-91005000D01*
X52820000Y-91005000D02*
X52820000Y-91755000D01*
X49510000Y-90995000D02*
X49510000Y-96965000D01*
X62130000Y-96965000D02*
X62130000Y-90995000D01*
X62120000Y-91005000D02*
X60320000Y-91005000D01*
X61370000Y-96205000D02*
X55820000Y-96205000D01*
X50270000Y-93255000D02*
X50270000Y-96205000D01*
X49520000Y-91755000D02*
X51320000Y-91755000D01*
X60320000Y-91755000D02*
X62120000Y-91755000D01*
X51320000Y-91005000D02*
X49520000Y-91005000D01*
X60320000Y-91005000D02*
X60320000Y-91755000D01*
%TO.C,J3*%
X68522363Y-62955000D02*
X69272363Y-62955000D01*
X79322363Y-65205000D02*
X81122363Y-65205000D01*
X81132363Y-65215000D02*
X81132363Y-59245000D01*
X71822363Y-64455000D02*
X71822363Y-65205000D01*
X77822363Y-65205000D02*
X77822363Y-64455000D01*
X81122363Y-64455000D02*
X79322363Y-64455000D01*
X68522363Y-65205000D02*
X70322363Y-65205000D01*
X71822363Y-65205000D02*
X77822363Y-65205000D01*
X70322363Y-64455000D02*
X68522363Y-64455000D01*
X77822363Y-64455000D02*
X71822363Y-64455000D01*
X79322363Y-64455000D02*
X79322363Y-65205000D01*
X68512363Y-65215000D02*
X81132363Y-65215000D01*
X80172363Y-65505000D02*
X81422363Y-65505000D01*
X69272363Y-60005000D02*
X74822363Y-60005000D01*
X81122363Y-62955000D02*
X80372363Y-62955000D01*
X68512363Y-59245000D02*
X68512363Y-65215000D01*
X69272363Y-62955000D02*
X69272363Y-60005000D01*
X81132363Y-59245000D02*
X68512363Y-59245000D01*
X68522363Y-64455000D02*
X68522363Y-65205000D01*
X81422363Y-65505000D02*
X81422363Y-64255000D01*
X81122363Y-65205000D02*
X81122363Y-64455000D01*
X80372363Y-62955000D02*
X80372363Y-60005000D01*
X80372363Y-60005000D02*
X74822363Y-60005000D01*
X70322363Y-65205000D02*
X70322363Y-64455000D01*
%TO.C,C6*%
X92061000Y-25750000D02*
X93319000Y-25750000D01*
X92061000Y-27590000D02*
X93319000Y-27590000D01*
%TO.C,D1*%
X73660000Y-32730000D02*
X71985000Y-32730000D01*
X73660000Y-35850000D02*
X74310000Y-35850000D01*
X73660000Y-35850000D02*
X73010000Y-35850000D01*
X73660000Y-32730000D02*
X74310000Y-32730000D01*
D12*
%TO.C,U3*%
X98952363Y-87630000D02*
X98952363Y-67310000D01*
X83712363Y-67310000D02*
X83712363Y-87630000D01*
X83712363Y-87630000D02*
X98952363Y-87630000D01*
X98952363Y-67310000D02*
X83712363Y-67310000D01*
D11*
%TO.C,J21*%
X39720000Y-22850000D02*
X39720000Y-21600000D01*
X31810000Y-22560000D02*
X39430000Y-22560000D01*
X32570000Y-20300000D02*
X32570000Y-17350000D01*
X36120000Y-21800000D02*
X35120000Y-21800000D01*
X33620000Y-21800000D02*
X31820000Y-21800000D01*
X31820000Y-22550000D02*
X33620000Y-22550000D01*
X33620000Y-22550000D02*
X33620000Y-21800000D01*
X38670000Y-17350000D02*
X35620000Y-17350000D01*
X37620000Y-22550000D02*
X39420000Y-22550000D01*
X31820000Y-20300000D02*
X32570000Y-20300000D01*
X32570000Y-17350000D02*
X35620000Y-17350000D01*
X31810000Y-16590000D02*
X31810000Y-22560000D01*
X38670000Y-20300000D02*
X38670000Y-17350000D01*
X35120000Y-21800000D02*
X35120000Y-22550000D01*
X39420000Y-21800000D02*
X37620000Y-21800000D01*
X31820000Y-21800000D02*
X31820000Y-22550000D01*
X39430000Y-22560000D02*
X39430000Y-16590000D01*
X36120000Y-22550000D02*
X36120000Y-21800000D01*
X37620000Y-21800000D02*
X37620000Y-22550000D01*
X39420000Y-22550000D02*
X39420000Y-21800000D01*
X35120000Y-22550000D02*
X36120000Y-22550000D01*
X39430000Y-16590000D02*
X31810000Y-16590000D01*
X38470000Y-22850000D02*
X39720000Y-22850000D01*
X39420000Y-20300000D02*
X38670000Y-20300000D01*
D12*
%TO.C,U5*%
X67202363Y-87630000D02*
X82442363Y-87630000D01*
X82442363Y-87630000D02*
X82442363Y-67310000D01*
X82442363Y-67310000D02*
X67202363Y-67310000D01*
X67202363Y-67310000D02*
X67202363Y-87630000D01*
%TD*%
M02*
