%TF.GenerationSoftware,KiCad,Pcbnew,(6.0.4-0)*%
%TF.CreationDate,2022-08-15T16:31:54-05:00*%
%TF.ProjectId,owl-brd,6f776c2d-6272-4642-9e6b-696361645f70,v1.0*%
%TF.SameCoordinates,Original*%
%TF.FileFunction,Soldermask,Top*%
%TF.FilePolarity,Negative*%
%FSLAX46Y46*%
G04 Gerber Fmt 4.6, Leading zero omitted, Abs format (unit mm)*
G04 Created by KiCad (PCBNEW (6.0.4-0)) date 2022-08-15 16:31:54*
%MOMM*%
%LPD*%
G01*
G04 APERTURE LIST*
G04 Aperture macros list*
%AMRoundRect*
0 Rectangle with rounded corners*
0 $1 Rounding radius*
0 $2 $3 $4 $5 $6 $7 $8 $9 X,Y pos of 4 corners*
0 Add a 4 corners polygon primitive as box body*
4,1,4,$2,$3,$4,$5,$6,$7,$8,$9,$2,$3,0*
0 Add four circle primitives for the rounded corners*
1,1,$1+$1,$2,$3*
1,1,$1+$1,$4,$5*
1,1,$1+$1,$6,$7*
1,1,$1+$1,$8,$9*
0 Add four rect primitives between the rounded corners*
20,1,$1+$1,$2,$3,$4,$5,0*
20,1,$1+$1,$4,$5,$6,$7,0*
20,1,$1+$1,$6,$7,$8,$9,0*
20,1,$1+$1,$8,$9,$2,$3,0*%
G04 Aperture macros list end*
%ADD10C,6.400000*%
%ADD11C,0.800000*%
%ADD12R,1.700000X1.700000*%
%ADD13O,1.700000X1.700000*%
%ADD14RoundRect,0.250000X-0.750000X0.600000X-0.750000X-0.600000X0.750000X-0.600000X0.750000X0.600000X0*%
%ADD15O,2.000000X1.700000*%
%ADD16R,2.000000X1.905000*%
%ADD17O,2.000000X1.905000*%
%ADD18O,1.600000X1.600000*%
%ADD19R,1.600000X1.600000*%
%ADD20C,1.600000*%
%ADD21R,3.000000X3.000000*%
%ADD22C,3.000000*%
%ADD23RoundRect,0.150000X-0.587500X-0.150000X0.587500X-0.150000X0.587500X0.150000X-0.587500X0.150000X0*%
%ADD24RoundRect,0.250000X-0.600000X-0.725000X0.600000X-0.725000X0.600000X0.725000X-0.600000X0.725000X0*%
%ADD25O,1.700000X1.950000*%
%ADD26RoundRect,0.250000X0.600000X0.725000X-0.600000X0.725000X-0.600000X-0.725000X0.600000X-0.725000X0*%
%ADD27O,1.700000X2.000000*%
%ADD28RoundRect,0.250000X0.600000X0.750000X-0.600000X0.750000X-0.600000X-0.750000X0.600000X-0.750000X0*%
%ADD29R,1.524000X1.524000*%
%ADD30C,1.524000*%
%ADD31RoundRect,0.250000X0.725000X-0.600000X0.725000X0.600000X-0.725000X0.600000X-0.725000X-0.600000X0*%
%ADD32O,1.950000X1.700000*%
%ADD33O,1.500000X1.500000*%
%ADD34O,1.800000X1.800000*%
%ADD35R,1.700000X3.500000*%
%ADD36R,3.500000X1.700000*%
G04 APERTURE END LIST*
D10*
%TO.C,*%
X108090000Y-96520000D03*
%TD*%
D11*
%TO.C,REF\u002A\u002A*%
X106392944Y-94822944D03*
X109787056Y-98217056D03*
X108090000Y-98920000D03*
X106392944Y-98217056D03*
D10*
X108090000Y-96520000D03*
D11*
X105690000Y-96520000D03*
X108090000Y-94120000D03*
X110490000Y-96520000D03*
X109787056Y-94822944D03*
%TD*%
D10*
%TO.C,*%
X16650000Y-96520000D03*
%TD*%
D11*
%TO.C,REF\u002A\u002A*%
X14952944Y-94822944D03*
X18347056Y-98217056D03*
X16650000Y-98920000D03*
X14952944Y-98217056D03*
D10*
X16650000Y-96520000D03*
D11*
X14250000Y-96520000D03*
X16650000Y-94120000D03*
X19050000Y-96520000D03*
X18347056Y-94822944D03*
%TD*%
%TO.C,REF\u002A\u002A*%
X16510000Y-15380000D03*
X18207056Y-19477056D03*
X18207056Y-16082944D03*
X18910000Y-17780000D03*
D10*
X16510000Y-17780000D03*
D11*
X16510000Y-20180000D03*
X14812944Y-16082944D03*
X14812944Y-19477056D03*
X14110000Y-17780000D03*
%TD*%
%TO.C,REF\u002A\u002A*%
X107950000Y-15380000D03*
X109647056Y-19477056D03*
X109647056Y-16082944D03*
X110350000Y-17780000D03*
D10*
X107950000Y-17780000D03*
D11*
X107950000Y-20180000D03*
X106252944Y-16082944D03*
X106252944Y-19477056D03*
X105550000Y-17780000D03*
%TD*%
D12*
%TO.C,J30*%
X71757152Y-38776266D03*
D13*
X71757152Y-41316266D03*
X71757152Y-43856266D03*
X71757152Y-46396266D03*
X71757152Y-48936266D03*
%TD*%
D14*
%TO.C,J28*%
X97790000Y-31750000D03*
D15*
X97790000Y-34250000D03*
%TD*%
D16*
%TO.C,U2*%
X79065000Y-27940000D03*
D17*
X79065000Y-30480000D03*
X79065000Y-33020000D03*
%TD*%
D16*
%TO.C,Q9*%
X102545000Y-24130000D03*
D17*
X102545000Y-21590000D03*
X102545000Y-19050000D03*
%TD*%
D18*
%TO.C,U8*%
X109230000Y-40650000D03*
X109230000Y-43190000D03*
X109230000Y-45730000D03*
X109230000Y-48270000D03*
X109230000Y-50810000D03*
X109230000Y-53350000D03*
X109230000Y-55890000D03*
X109230000Y-58430000D03*
X109230000Y-60970000D03*
X101610000Y-60970000D03*
X101610000Y-58430000D03*
X101610000Y-55890000D03*
X101610000Y-53350000D03*
X101610000Y-50810000D03*
X101610000Y-48270000D03*
X101610000Y-45730000D03*
X101610000Y-43190000D03*
D19*
X101610000Y-40650000D03*
%TD*%
D20*
%TO.C,R7*%
X92710000Y-30480000D03*
D18*
X85090000Y-30480000D03*
%TD*%
D20*
%TO.C,R6*%
X92710000Y-35560000D03*
D18*
X85090000Y-35560000D03*
%TD*%
D20*
%TO.C,R5*%
X92710000Y-40640000D03*
D18*
X85090000Y-40640000D03*
%TD*%
D20*
%TO.C,R4*%
X61777090Y-82550000D03*
D18*
X61777090Y-74930000D03*
%TD*%
D20*
%TO.C,R3*%
X78920883Y-82127586D03*
D18*
X71300883Y-82127586D03*
%TD*%
D20*
%TO.C,R2*%
X95586802Y-82167602D03*
D18*
X87966802Y-82167602D03*
%TD*%
D20*
%TO.C,R1*%
X42338995Y-60784772D03*
D18*
X49958995Y-60784772D03*
%TD*%
D12*
%TO.C,J29*%
X22860000Y-29210000D03*
D13*
X22860000Y-26670000D03*
%TD*%
D21*
%TO.C,J27*%
X107465108Y-36071144D03*
D22*
X107465108Y-30991144D03*
%TD*%
D23*
%TO.C,D1*%
X74597500Y-34290000D03*
X72722500Y-35240000D03*
X72722500Y-33340000D03*
%TD*%
D20*
%TO.C,C6*%
X91440000Y-26670000D03*
X93940000Y-26670000D03*
%TD*%
D19*
%TO.C,U7*%
X74940000Y-38647160D03*
D18*
X74940000Y-41187160D03*
X74940000Y-43727160D03*
X74940000Y-46267160D03*
X74940000Y-48807160D03*
X74940000Y-51347160D03*
X74940000Y-53887160D03*
X74940000Y-56427160D03*
X82560000Y-56427160D03*
X82560000Y-53887160D03*
X82560000Y-51347160D03*
X82560000Y-48807160D03*
X82560000Y-46267160D03*
X82560000Y-43727160D03*
X82560000Y-41187160D03*
X82560000Y-38647160D03*
%TD*%
D24*
%TO.C,J10*%
X80010000Y-93455000D03*
D25*
X82510000Y-93455000D03*
X85010000Y-93455000D03*
X87510000Y-93455000D03*
%TD*%
D26*
%TO.C,J4*%
X62062363Y-62755000D03*
D25*
X59562363Y-62755000D03*
X57062363Y-62755000D03*
X54562363Y-62755000D03*
%TD*%
D26*
%TO.C,J26*%
X72350000Y-28465000D03*
D25*
X69850000Y-28465000D03*
X67350000Y-28465000D03*
%TD*%
D27*
%TO.C,J17*%
X69930000Y-20100000D03*
D28*
X72430000Y-20100000D03*
%TD*%
D20*
%TO.C,C1*%
X96520000Y-20320000D03*
X96520000Y-17820000D03*
%TD*%
D24*
%TO.C,J6*%
X38100000Y-93455000D03*
D25*
X40600000Y-93455000D03*
X43100000Y-93455000D03*
X45600000Y-93455000D03*
%TD*%
D19*
%TO.C,C3*%
X36830000Y-62230000D03*
D20*
X36830000Y-58730000D03*
%TD*%
D29*
%TO.C,U4*%
X64662363Y-68580000D03*
D30*
X64662363Y-71120000D03*
X64662363Y-73660000D03*
X64662363Y-76200000D03*
X64662363Y-78740000D03*
X64662363Y-81280000D03*
X64662363Y-83820000D03*
X64662363Y-86360000D03*
D29*
X51962363Y-86360000D03*
D30*
X51962363Y-83820000D03*
X51962363Y-81280000D03*
X51962363Y-78740000D03*
X51962363Y-76200000D03*
X51962363Y-73660000D03*
X51962363Y-71120000D03*
X51962363Y-68580000D03*
X60852363Y-84709000D03*
X59582363Y-86360000D03*
X62122363Y-86360000D03*
%TD*%
D26*
%TO.C,J2*%
X95082363Y-62755000D03*
D25*
X92582363Y-62755000D03*
X90082363Y-62755000D03*
X87582363Y-62755000D03*
%TD*%
D26*
%TO.C,J25*%
X34250000Y-28465000D03*
D25*
X31750000Y-28465000D03*
X29250000Y-28465000D03*
%TD*%
D24*
%TO.C,J5*%
X24190000Y-93455000D03*
D25*
X26690000Y-93455000D03*
X29190000Y-93455000D03*
X31690000Y-93455000D03*
%TD*%
D19*
%TO.C,C5*%
X19050000Y-62230000D03*
D20*
X19050000Y-58730000D03*
%TD*%
D26*
%TO.C,J1*%
X95082363Y-54955000D03*
D25*
X92582363Y-54955000D03*
X90082363Y-54955000D03*
X87582363Y-54955000D03*
%TD*%
D31*
%TO.C,J7*%
X104032363Y-73600000D03*
D32*
X104032363Y-71100000D03*
X104032363Y-68600000D03*
X104032363Y-66100000D03*
%TD*%
D19*
%TO.C,C4*%
X27940000Y-62230000D03*
D20*
X27940000Y-58730000D03*
%TD*%
D27*
%TO.C,J16*%
X78820000Y-20100000D03*
D28*
X81320000Y-20100000D03*
%TD*%
D20*
%TO.C,C2*%
X85090000Y-26670000D03*
X87590000Y-26670000D03*
%TD*%
D27*
%TO.C,J20*%
X43260000Y-20100000D03*
D28*
X45760000Y-20100000D03*
%TD*%
D24*
%TO.C,J11*%
X66040000Y-93455000D03*
D25*
X68540000Y-93455000D03*
X71040000Y-93455000D03*
X73540000Y-93455000D03*
%TD*%
D28*
%TO.C,J15*%
X90210000Y-20100000D03*
D27*
X87710000Y-20100000D03*
%TD*%
D24*
%TO.C,J9*%
X93980000Y-93455000D03*
D25*
X96480000Y-93455000D03*
X98980000Y-93455000D03*
X101480000Y-93455000D03*
%TD*%
D27*
%TO.C,J18*%
X61040000Y-20100000D03*
D28*
X63540000Y-20100000D03*
%TD*%
D27*
%TO.C,J19*%
X52150000Y-20100000D03*
D28*
X54650000Y-20100000D03*
%TD*%
D26*
%TO.C,J24*%
X59690000Y-28465000D03*
D25*
X57190000Y-28465000D03*
X54690000Y-28465000D03*
%TD*%
D31*
%TO.C,J8*%
X104027939Y-87319486D03*
D32*
X104027939Y-84819486D03*
X104027939Y-82319486D03*
X104027939Y-79819486D03*
%TD*%
D13*
%TO.C,U6*%
X31537363Y-83925000D03*
X34077363Y-83925000D03*
X28997363Y-83925000D03*
X39157363Y-83925000D03*
X41697363Y-83925000D03*
X44237363Y-83925000D03*
X46777363Y-83925000D03*
X46777363Y-68685000D03*
X44237363Y-68685000D03*
X41697363Y-68685000D03*
X39157363Y-68685000D03*
X21377363Y-83925000D03*
X36617363Y-68685000D03*
X34077363Y-68685000D03*
X31537363Y-68685000D03*
X28997363Y-68685000D03*
X26457363Y-68685000D03*
X23917363Y-68685000D03*
X21377363Y-68685000D03*
D12*
X18837363Y-68685000D03*
D13*
X36617363Y-83925000D03*
X26457363Y-83925000D03*
X23917363Y-83925000D03*
D12*
X18837363Y-83925000D03*
%TD*%
D33*
%TO.C,U1*%
X22102363Y-40755000D03*
X22102363Y-45605000D03*
D34*
X19072363Y-40455000D03*
X19072363Y-45905000D03*
D13*
X18942363Y-52070000D03*
D35*
X18942363Y-52970000D03*
X21482363Y-52970000D03*
D13*
X21482363Y-52070000D03*
D35*
X24022363Y-52970000D03*
D12*
X24022363Y-52070000D03*
D13*
X26562363Y-52070000D03*
D35*
X26562363Y-52970000D03*
X29102363Y-52970000D03*
D13*
X29102363Y-52070000D03*
X31642363Y-52070000D03*
D35*
X31642363Y-52970000D03*
D13*
X34182363Y-52070000D03*
D35*
X34182363Y-52970000D03*
D12*
X36722363Y-52070000D03*
D35*
X36722363Y-52970000D03*
D13*
X39262363Y-52070000D03*
D35*
X39262363Y-52970000D03*
D13*
X41802363Y-52070000D03*
D35*
X41802363Y-52970000D03*
X44342363Y-52970000D03*
D13*
X44342363Y-52070000D03*
X46882363Y-52070000D03*
D35*
X46882363Y-52970000D03*
X49422363Y-52970000D03*
D12*
X49422363Y-52070000D03*
D35*
X51962363Y-52970000D03*
D13*
X51962363Y-52070000D03*
X54502363Y-52070000D03*
D35*
X54502363Y-52970000D03*
X57042363Y-52970000D03*
D13*
X57042363Y-52070000D03*
D35*
X59582363Y-52970000D03*
D13*
X59582363Y-52070000D03*
D35*
X62122363Y-52970000D03*
D12*
X62122363Y-52070000D03*
D13*
X64662363Y-52070000D03*
D35*
X64662363Y-52970000D03*
X67202363Y-52970000D03*
D13*
X67202363Y-52070000D03*
D35*
X67202363Y-33390000D03*
D13*
X67202363Y-34290000D03*
D35*
X64662363Y-33390000D03*
D13*
X64662363Y-34290000D03*
D35*
X62122363Y-33390000D03*
D12*
X62122363Y-34290000D03*
D35*
X59582363Y-33390000D03*
D13*
X59582363Y-34290000D03*
X57042363Y-34290000D03*
D35*
X57042363Y-33390000D03*
X54502363Y-33390000D03*
D13*
X54502363Y-34290000D03*
D35*
X51962363Y-33390000D03*
D13*
X51962363Y-34290000D03*
D12*
X49422363Y-34290000D03*
D35*
X49422363Y-33390000D03*
X46882363Y-33390000D03*
D13*
X46882363Y-34290000D03*
D35*
X44342363Y-33390000D03*
D13*
X44342363Y-34290000D03*
X41802363Y-34290000D03*
D35*
X41802363Y-33390000D03*
D13*
X39262363Y-34290000D03*
D35*
X39262363Y-33390000D03*
D12*
X36722363Y-34290000D03*
D35*
X36722363Y-33390000D03*
D13*
X34182363Y-34290000D03*
D35*
X34182363Y-33390000D03*
X31642363Y-33390000D03*
D13*
X31642363Y-34290000D03*
D35*
X29102363Y-33390000D03*
D13*
X29102363Y-34290000D03*
D35*
X26562363Y-33390000D03*
D13*
X26562363Y-34290000D03*
D35*
X24022363Y-33390000D03*
D12*
X24022363Y-34290000D03*
D35*
X21482363Y-33390000D03*
D13*
X21482363Y-34290000D03*
X18942363Y-34290000D03*
D35*
X18942363Y-33390000D03*
D13*
X66972363Y-45720000D03*
D36*
X67872363Y-45720000D03*
D12*
X66972363Y-43180000D03*
D36*
X67872363Y-43180000D03*
X67872363Y-40640000D03*
D13*
X66972363Y-40640000D03*
%TD*%
D28*
%TO.C,J22*%
X27980000Y-20100000D03*
D27*
X25480000Y-20100000D03*
%TD*%
D12*
%TO.C,J14*%
X19060000Y-88140270D03*
D13*
X21600000Y-88140270D03*
X24140000Y-88140270D03*
X26680000Y-88140270D03*
%TD*%
D26*
%TO.C,J23*%
X46990000Y-28465000D03*
D25*
X44490000Y-28465000D03*
X41990000Y-28465000D03*
%TD*%
D21*
%TO.C,J13*%
X16839127Y-23707856D03*
D22*
X16839127Y-28787856D03*
%TD*%
D24*
%TO.C,J12*%
X52070000Y-93455000D03*
D25*
X54570000Y-93455000D03*
X57070000Y-93455000D03*
X59570000Y-93455000D03*
%TD*%
D26*
%TO.C,J3*%
X78572363Y-62755000D03*
D25*
X76072363Y-62755000D03*
X73572363Y-62755000D03*
X71072363Y-62755000D03*
%TD*%
D29*
%TO.C,U3*%
X97682363Y-68580000D03*
D30*
X97682363Y-71120000D03*
X97682363Y-73660000D03*
X97682363Y-76200000D03*
X97682363Y-78740000D03*
X97682363Y-81280000D03*
X97682363Y-83820000D03*
X97682363Y-86360000D03*
D29*
X84982363Y-86360000D03*
D30*
X84982363Y-83820000D03*
X84982363Y-81280000D03*
X84982363Y-78740000D03*
X84982363Y-76200000D03*
X84982363Y-73660000D03*
X84982363Y-71120000D03*
X84982363Y-68580000D03*
X93872363Y-84709000D03*
X92602363Y-86360000D03*
X95142363Y-86360000D03*
%TD*%
D27*
%TO.C,J21*%
X34370000Y-20100000D03*
D28*
X36870000Y-20100000D03*
%TD*%
D29*
%TO.C,U5*%
X81172363Y-68580000D03*
D30*
X81172363Y-71120000D03*
X81172363Y-73660000D03*
X81172363Y-76200000D03*
X81172363Y-78740000D03*
X81172363Y-81280000D03*
X81172363Y-83820000D03*
X81172363Y-86360000D03*
D29*
X68472363Y-86360000D03*
D30*
X68472363Y-83820000D03*
X68472363Y-81280000D03*
X68472363Y-78740000D03*
X68472363Y-76200000D03*
X68472363Y-73660000D03*
X68472363Y-71120000D03*
X68472363Y-68580000D03*
X77362363Y-84709000D03*
X76092363Y-86360000D03*
X78632363Y-86360000D03*
%TD*%
M02*
