M48
; DRILL file {KiCad (6.0.4-0)} date Monday, August 15, 2022 at 04:31:56 PM
; FORMAT={-:-/ absolute / metric / decimal}
; #@! TF.CreationDate,2022-08-15T16:31:56-05:00
; #@! TF.GenerationSoftware,Kicad,Pcbnew,(6.0.4-0)
; #@! TF.FileFunction,Plated,1,2,PTH
FMAT,2
METRIC
; #@! TA.AperFunction,Plated,PTH,ViaDrill
T1C0.400
; #@! TA.AperFunction,Plated,PTH,ComponentDrill
T2C0.500
; #@! TA.AperFunction,Plated,PTH,ViaDrill
T3C0.600
; #@! TA.AperFunction,Plated,PTH,ComponentDrill
T4C0.800
; #@! TA.AperFunction,Plated,PTH,ComponentDrill
T5C0.950
; #@! TA.AperFunction,Plated,PTH,ViaDrill
T6C1.000
; #@! TA.AperFunction,Plated,PTH,ComponentDrill
T7C1.000
; #@! TA.AperFunction,Plated,PTH,ComponentDrill
T8C1.016
; #@! TA.AperFunction,Plated,PTH,ComponentDrill
T9C1.020
; #@! TA.AperFunction,Plated,PTH,ComponentDrill
T10C1.100
; #@! TA.AperFunction,Plated,PTH,ComponentDrill
T11C1.520
; #@! TA.AperFunction,Plated,PTH,ComponentDrill
T12C3.200
%
G90
G05
T1
X16.402Y-54.61
X24.13Y-46.99
X52.07Y-38.1
X54.61Y-38.1
X63.5Y-38.1
X67.31Y-38.1
X76.2Y-78.74
T2
X14.11Y-17.78
X14.25Y-96.52
X14.813Y-16.083
X14.813Y-19.477
X14.953Y-94.823
X14.953Y-98.217
X16.51Y-15.38
X16.51Y-20.18
X16.65Y-94.12
X16.65Y-98.92
X18.207Y-16.083
X18.207Y-19.477
X18.347Y-94.823
X18.347Y-98.217
X18.91Y-17.78
X19.05Y-96.52
X105.55Y-17.78
X105.69Y-96.52
X106.253Y-16.083
X106.253Y-19.477
X106.393Y-94.823
X106.393Y-98.217
X107.95Y-15.38
X107.95Y-20.18
X108.09Y-94.12
X108.09Y-98.92
X109.647Y-16.083
X109.647Y-19.477
X109.787Y-94.823
X109.787Y-98.217
X110.35Y-17.78
X110.49Y-96.52
T3
X55.88Y-38.1
T4
X19.05Y-58.73
X19.05Y-62.23
X27.94Y-58.73
X27.94Y-62.23
X36.83Y-58.73
X36.83Y-62.23
X42.339Y-60.785
X49.959Y-60.785
X61.777Y-74.93
X61.777Y-82.55
X71.301Y-82.128
X74.94Y-38.647
X74.94Y-41.187
X74.94Y-43.727
X74.94Y-46.267
X74.94Y-48.807
X74.94Y-51.347
X74.94Y-53.887
X74.94Y-56.427
X78.921Y-82.128
X82.56Y-38.647
X82.56Y-41.187
X82.56Y-43.727
X82.56Y-46.267
X82.56Y-48.807
X82.56Y-51.347
X82.56Y-53.887
X82.56Y-56.427
X85.09Y-26.67
X85.09Y-30.48
X85.09Y-35.56
X85.09Y-40.64
X87.59Y-26.67
X87.967Y-82.168
X91.44Y-26.67
X92.71Y-30.48
X92.71Y-35.56
X92.71Y-40.64
X93.94Y-26.67
X95.587Y-82.168
X96.52Y-17.82
X96.52Y-20.32
X101.61Y-40.65
X101.61Y-43.19
X101.61Y-45.73
X101.61Y-48.27
X101.61Y-50.81
X101.61Y-53.35
X101.61Y-55.89
X101.61Y-58.43
X101.61Y-60.97
X109.23Y-40.65
X109.23Y-43.19
X109.23Y-45.73
X109.23Y-48.27
X109.23Y-50.81
X109.23Y-53.35
X109.23Y-55.89
X109.23Y-58.43
X109.23Y-60.97
T5
X24.19Y-93.455
X26.69Y-93.455
X29.19Y-93.455
X29.25Y-28.465
X31.69Y-93.455
X31.75Y-28.465
X34.25Y-28.465
X38.1Y-93.455
X40.6Y-93.455
X41.99Y-28.465
X43.1Y-93.455
X44.49Y-28.465
X45.6Y-93.455
X46.99Y-28.465
X52.07Y-93.455
X54.562Y-62.755
X54.57Y-93.455
X54.69Y-28.465
X57.062Y-62.755
X57.07Y-93.455
X57.19Y-28.465
X59.562Y-62.755
X59.57Y-93.455
X59.69Y-28.465
X62.062Y-62.755
X66.04Y-93.455
X67.35Y-28.465
X68.54Y-93.455
X69.85Y-28.465
X71.04Y-93.455
X71.072Y-62.755
X72.35Y-28.465
X73.54Y-93.455
X73.572Y-62.755
X76.072Y-62.755
X78.572Y-62.755
X80.01Y-93.455
X82.51Y-93.455
X85.01Y-93.455
X87.51Y-93.455
X87.582Y-54.955
X87.582Y-62.755
X90.082Y-54.955
X90.082Y-62.755
X92.582Y-54.955
X92.582Y-62.755
X93.98Y-93.455
X95.082Y-54.955
X95.082Y-62.755
X96.48Y-93.455
X98.98Y-93.455
X101.48Y-93.455
X104.028Y-79.819
X104.028Y-82.319
X104.028Y-84.819
X104.028Y-87.319
X104.032Y-66.1
X104.032Y-68.6
X104.032Y-71.1
X104.032Y-73.6
T6
X58.42Y-82.55
X67.111Y-56.59
X70.775Y-31.925
X85.09Y-52.07
X99.06Y-16.51
T7
X18.837Y-68.685
X18.837Y-83.925
X19.06Y-88.14
X21.377Y-68.685
X21.377Y-83.925
X21.6Y-88.14
X22.86Y-26.67
X22.86Y-29.21
X23.917Y-68.685
X23.917Y-83.925
X24.14Y-88.14
X25.48Y-20.1
X26.457Y-68.685
X26.457Y-83.925
X26.68Y-88.14
X27.98Y-20.1
X28.997Y-68.685
X28.997Y-83.925
X31.537Y-68.685
X31.537Y-83.925
X34.077Y-68.685
X34.077Y-83.925
X34.37Y-20.1
X36.617Y-68.685
X36.617Y-83.925
X36.87Y-20.1
X39.157Y-68.685
X39.157Y-83.925
X41.697Y-68.685
X41.697Y-83.925
X43.26Y-20.1
X44.237Y-68.685
X44.237Y-83.925
X45.76Y-20.1
X46.777Y-68.685
X46.777Y-83.925
X52.15Y-20.1
X54.65Y-20.1
X61.04Y-20.1
X63.54Y-20.1
X69.93Y-20.1
X71.757Y-38.776
X71.757Y-41.316
X71.757Y-43.856
X71.757Y-46.396
X71.757Y-48.936
X72.43Y-20.1
X78.82Y-20.1
X81.32Y-20.1
X87.71Y-20.1
X90.21Y-20.1
X97.79Y-31.75
X97.79Y-34.25
T8
X51.962Y-68.58
X51.962Y-71.12
X51.962Y-73.66
X51.962Y-76.2
X51.962Y-78.74
X51.962Y-81.28
X51.962Y-83.82
X51.962Y-86.36
X59.582Y-86.36
X60.852Y-84.709
X62.122Y-86.36
X64.662Y-68.58
X64.662Y-71.12
X64.662Y-73.66
X64.662Y-76.2
X64.662Y-78.74
X64.662Y-81.28
X64.662Y-83.82
X64.662Y-86.36
X68.472Y-68.58
X68.472Y-71.12
X68.472Y-73.66
X68.472Y-76.2
X68.472Y-78.74
X68.472Y-81.28
X68.472Y-83.82
X68.472Y-86.36
X76.092Y-86.36
X77.362Y-84.709
X78.632Y-86.36
X81.172Y-68.58
X81.172Y-71.12
X81.172Y-73.66
X81.172Y-76.2
X81.172Y-78.74
X81.172Y-81.28
X81.172Y-83.82
X81.172Y-86.36
X84.982Y-68.58
X84.982Y-71.12
X84.982Y-73.66
X84.982Y-76.2
X84.982Y-78.74
X84.982Y-81.28
X84.982Y-83.82
X84.982Y-86.36
X92.602Y-86.36
X93.872Y-84.709
X95.142Y-86.36
X97.682Y-68.58
X97.682Y-71.12
X97.682Y-73.66
X97.682Y-76.2
X97.682Y-78.74
X97.682Y-81.28
X97.682Y-83.82
X97.682Y-86.36
T9
X18.942Y-34.29
X18.942Y-52.07
X21.482Y-34.29
X21.482Y-52.07
X24.022Y-34.29
X24.022Y-52.07
X26.562Y-34.29
X26.562Y-52.07
X29.102Y-34.29
X29.102Y-52.07
X31.642Y-34.29
X31.642Y-52.07
X34.182Y-34.29
X34.182Y-52.07
X36.722Y-34.29
X36.722Y-52.07
X39.262Y-34.29
X39.262Y-52.07
X41.802Y-34.29
X41.802Y-52.07
X44.342Y-34.29
X44.342Y-52.07
X46.882Y-34.29
X46.882Y-52.07
X49.422Y-34.29
X49.422Y-52.07
X51.962Y-34.29
X51.962Y-52.07
X54.502Y-34.29
X54.502Y-52.07
X57.042Y-34.29
X57.042Y-52.07
X59.582Y-34.29
X59.582Y-52.07
X62.122Y-34.29
X62.122Y-52.07
X64.662Y-34.29
X64.662Y-52.07
X66.972Y-40.64
X66.972Y-43.18
X66.972Y-45.72
X67.202Y-34.29
X67.202Y-52.07
T10
X79.065Y-27.94
X79.065Y-30.48
X79.065Y-33.02
X102.545Y-19.05
X102.545Y-21.59
X102.545Y-24.13
T11
X16.839Y-23.708
X16.839Y-28.788
X107.465Y-30.991
X107.465Y-36.071
T12
X16.51Y-17.78
X16.65Y-96.52
X16.65Y-96.52
X107.95Y-17.78
X108.09Y-96.52
X108.09Y-96.52
T0
M30
